<svg xmlns="http://www.w3.org/2000/svg"><defs><font horiz-adv-x="1167"><font-face units-per-em="2048" ascent="1638" descent="-410"/><glyph unicode="ﬁ" horiz-adv-x="1632" d="M31 897v111q0 20 20 20h185v90q0 137 79.5 236.5t225.5 99.5q127 0 223-57 16-12 16-35v-109q0-20-14-20-8 0-14 4-100 66-199 66-74 0-116-49.5t-42-135.5v-90h344q20 0 21-20v-111q0-20-21-20h-344v-857q0-20-20-20h-119q-20 0-20 20v857h-185q-20 0-20 20zm792-877v111q0 20 21 21h272v729h-221q-20 0-21 20v107q0 20 21 20h360q20 0 21-20v-856h283q20 0 20-21v-111q0-20-20-20h-715q-21 0-21 20zm252 1197v176q0 20 21 20h176q20 0 20-20v-176q0-20-20-21h-176q-21 1-21 21z"/><glyph unicode="ﬂ" horiz-adv-x="1677" d="M31 897v111q0 20 20 20h185v90q0 137 79.5 236.5t225.5 99.5q127 0 223-57 16-12 16-35v-109q0-20-14-20-8 0-14 4-100 66-199 66-74 0-116-49.5t-42-135.5v-90h344q20 0 21-20v-111q0-20-21-20h-344v-857q0-20-20-20h-119q-20 0-20 20v857h-185q-20 0-20 20zm796-877v111q0 20 21 21h297v1130h-256q-20 0-21 21v110q0 20 21 21h395q20 0 21-21v-1261h299q20 0 20-21v-111q0-20-20-20h-756q-21 0-21 20z"/><glyph horiz-adv-x="0"/><glyph horiz-adv-x="0"/><glyph horiz-adv-x="499"/><glyph horiz-adv-x="499"/><glyph horiz-adv-x="499"/><glyph unicode="!" horiz-adv-x="487" d="M133 20v181q0 20 21 20h180q20 0 20-20v-181q0-20-20-20h-180q-21 0-21 20zm25 379v1014q0 20 20 21h131q20 0 21-21v-1014q0-20-21-20h-131q-20 0-20 20z"/><glyph unicode=""" horiz-adv-x="774" d="M139 983v430q0 20 21 21h119q20 0 20-21v-430q0-20-20-20h-119q-21 0-21 20zm336 0v430q0 20 21 21h118q20 0 21-21v-430q0-20-21-20h-118q-21 0-21 20z"/><glyph unicode="#" horiz-adv-x="1417" d="M90 426v123q0 20 21 20h241l51 295h-210q-20 0-21 21v123q0 20 21 20h237l68 385q2 20 22 21h131q18 0 19-21l-68-385h316l67 385q2 20 23 21h131q18 0 18-21l-67-385h215q20 0 20-20v-123q0-20-20-21h-242l-51-295h211q20 0 20-20v-123q0-20-20-20h-240l-65-386q-2-20-23-20h-131q-18 0-19 20l66 386h-315l-66-386q-2-20-22-20h-132q-18 0-18 20l66 386h-213q-21 0-21 20zm434 143h316l51 295h-316z"/><glyph unicode="$" horiz-adv-x="1114" d="M66 424q0 20 20 20h131q20 0 21-20 0-94 60-171t169-101v532q-184 53-275.5 137t-91.5 238q0 162 103.5 265t263.5 124v170q0 20 20 20h131q20 0 21-20v-172q168-25 266.5-131.5t98.5-251.5q0-20-21-21h-131q-20 0-21 21 0 74-53 135.5t-139 83.5v-477q205-59 305-139t100-236q0-201-113.5-313.5t-291.5-132.5v-168q0-20-21-21h-131q-20 0-20 21v172q-182 25-291.5 141.5t-109.5 294.5zm206 647q0-84 49.5-133t145.5-84v430q-88-18-141.5-75.5t-53.5-137.5zm367-924q233 33 233 269 0 82-60 133t-173 86v-488z"/><glyph unicode="%" horiz-adv-x="1662" d="M94 1067q0 176 93.5 271.5t224.5 95.5 224-95.5 93-271.5-93-271.5-224-95.5-224.5 95.5-93.5 271.5zm129 0q0-119 55.5-180.5t133-61.5 133 61.5 55.5 180.5-55.5 180.5-133 61.5-133-61.5-55.5-180.5zm113-989l926 1343q12 18 28 4l60-41q18-12 6-28l-926-1344q-12-18-29-4l-59 41q-18 13-6 29zm598 288.5q0 176.5 93 271.5t224 95 224.5-95 93.5-271.5-93.5-271.5-224.5-95-224 95-93 271.5zm129 0q0-118.5 55.5-180t133-61.5 133 61.5 55.5 180-55.5 180-133 61.5-133-61.5-55.5-180z"/><glyph unicode="&" horiz-adv-x="1300" d="M86 426q0 258 287 422l-6 10q-100 143-101 291 0 131 90 218t246 87q152 0 240-85t88-206q0-115-52.5-188.5t-156.5-124.5l-111-55 271-381q43 129 43 303 0 18 20 18h275q20 0 20-20v-123q0-20-20-21h-140q-12-178-86-317l160-221q6-12 6-19 0-14-16-14h-156q-14 0-26 18l-72 101q-150-139-375-139-176 0-302 116.5t-126 329.5zm172-23q0-121 74-192.5t182-71.5q180 0 279 115l-328 465q-207-126-207-316zm172 730q0-72 94-211l121 55q121 53 121 176 0 61-45 105.5t-119 44.5q-80 0-126-45t-46-125z"/><glyph unicode="'" horiz-adv-x="438" d="M139 983v430q0 20 21 21h119q20 0 20-21v-430q0-20-20-20h-119q-21 0-21 20z"/><glyph unicode="(" horiz-adv-x="688" d="M160 311v408q0 256 63.5 403.5t274.5 321.5q6 6 14 6 6 0 14-8l92-96q6-6 7-15 0-6-9-14-102-88-153-143.5t-84-133-40-156.5-7-229v-280q0-150 7-228.5t40-156.5 84-133.5 153-143.5q8-8 9-14 0-8-7-14l-92-97q-8-8-14-8-8 0-14 6-211 174-274.5 321.5t-63.5 403.5z"/><glyph unicode=")" horiz-adv-x="688" d="M63-301q0 6 9 14 102 88 153 143.5t84 133.5 40 156.5 7 228.5v280q0 150-7 229t-40 156.5-84 133-153 143.5q-8 8-9 14 0 8 7 15l92 96q8 8 14 8 8 0 14-6 211-174 274.5-321.5t63.5-403.5v-408q0-256-63.5-403.5t-274.5-321.5q-6-6-14-6-6 0-14 8l-92 97q-7 6-7 14z"/><glyph unicode="*" horiz-adv-x="884" d="M96 1139l2 8 33 98q4 14 14 15 4 0 11-3l215-69v225q0 20 20 21h103q20 0 20-21v-225l215 69q6 2 10 3 10 0 15-15l32-98q2-6 2-8 0-10-16-17l-215-69 131-185q6-8 6-14t-10-12l-84-62q-6-4-12-4t-15 10l-131 183-131-183q-8-10-14-10t-12 4l-84 62q-10 6-10.5 12t6.5 14l131 185-215 69q-17 7-17 17z"/><glyph unicode="+" horiz-adv-x="1105" d="M119 641v119q0 20 20 20h334v334q0 20 21 21h118q20 0 21-21v-334h334q20 0 20-20v-119q0-20-20-20h-334v-334q0-20-21-21h-118q-20 0-21 21v334h-334q-20 0-20 20z"/><glyph unicode="," horiz-adv-x="489" d="M137 20v168q0 20 21 21h168q20 0 20-21v-200q0-184-145-185h-43q-20 0-21 21v45q0 20 21 20 57 0 73.5 19.5t16.5 77.5v14h-90q-21 0-21 20z"/><glyph unicode="-" horiz-adv-x="1007" d="M119 641v119q0 20 20 20h729q20 0 21-20v-119q0-20-21-20h-729q-20 0-20 20z"/><glyph unicode="." horiz-adv-x="489" d="M137 20v168q0 20 21 21h168q20 0 20-21v-168q0-20-20-20h-168q-21 0-21 20z"/><glyph unicode="/" horiz-adv-x="841" d="M49 20l600 1393q8 20 29 21h131q20 0 12-21l-600-1393q-8-20-26-20h-132q-22 0-14 20z"/><glyph unicode="0" horiz-adv-x="1220" d="M90 717q0 346 142.5 541.5t378 195.5 377.5-195.5 142-541.5-142-541.5-377.5-195.5-378 195.5-142.5 541.5zm172 0q0-360 135-496l293 1065q-33 8-80 8-348 1-348-577zm268-570q33-8 80-8 348 0 348 578 0 360-135 495z"/><glyph unicode="1" horiz-adv-x="999" d="M57 20v119q0 20 21 21h338v1046l-305-166q-12-6-23-6-14 0-14 19v141q0 18 22 31l363 198q16 10 30 11h74q20 0 21-21v-1253h338q20 0 20-21v-119q0-20-20-20h-844q-21 0-21 20z"/><glyph unicode="2" horiz-adv-x="1103" d="M86 20v86q0 29 23 48l567 553q76 74 103.5 142.5t27.5 178.5q0 123-74 194.5t-203 71.5q-135 0-206.5-78.5t-71.5-197.5q0-31-27-31h-112q-25 0-25 31 4 188 122 312t320 124q201 0 323-124t122-298q0-135-44-235.5t-140-196.5l-457-440h657q20 0 21-21v-119q0-20-21-20h-885q-20 0-20 20z"/><glyph unicode="3" horiz-adv-x="1095" d="M82 406q0 35 27 34h110q27 0 29-26 14-131 91-203t198-72q127 0 209.5 71t82.5 200q0 125-77.5 199.5t-214.5 74.5h-125q-23 6-23 23v114q0 23 23 23h92q129 0 202.5 59.5t73.5 175.5q0 104-63.5 159.5t-173.5 55.5q-109 0-176.5-61.5t-75.5-171.5q-2-25-27-25h-112q-27 0-27 35 4 164 127 273.5t291 109.5q180 0 288.5-98.5t108.5-255.5q0-121-43-192.5t-135-127.5q117-57 176-140t59-234q0-186-126-306t-334-120q-186 0-316.5 116.5t-138.5 309.5z"/><glyph unicode="4" horiz-adv-x="1171" d="M68 315v76q0 25 16 47l627 979q10 16 26 17h99q20 0 20-21v-958h197q20 0 20-21v-119q0-20-20-20h-197v-275q0-20-22-20h-125q-20 0-21 20v275h-600q-20 0-20 20zm211 140h409v635z"/><glyph unicode="5" horiz-adv-x="1126" d="M92 399q0 31 25 31h116q20 0 27-31 18-117 91-188.5t194-71.5q147 0 231 86t84 232q0 152-80 243t-225 91q-143 0-279-125-18-18-34-19h-119q-20 0-21 21l88 745q2 20 21 21h713q20 0 20-21v-119q0-20-20-20h-588l-57-422q145 98 307 98 207 0 324.5-132t117.5-357q0-221-140-351t-343-130q-197 0-325 121.5t-128 297.5z"/><glyph unicode="6" horiz-adv-x="1103" d="M74 653q0 395 132 598t349 203q162 0 272.5-98.5t135.5-257.5q0-20-23-21h-123q-16 0-22 21-51 205-250 205-121 0-207-136.5t-92-388.5q59 70 148 109t179 39q201 0 323-128t122-345q0-213-135-343t-328-130q-102 0-185 33.5t-151.5 107.5-106.5 209-38 323zm198-200.5q0-137.5 77-225.5t212-88 212 88 77 225.5-77 225.5-212 88-212-88-77-225.5z"/><glyph unicode="7" horiz-adv-x="968" d="M63 1294v119q0 20 21 21h827q20 0 21-21v-78q0-23-10-51l-510-1270q-6-14-23-14h-127q-20 0-20 16 0 6 4 15l495 1243h-657q-21 0-21 20z"/><glyph unicode="8" horiz-adv-x="1081" d="M90 406q0 244 223 360-174 104-174 309 0 172 118 275.5t284 103.5 283.5-103.5 117.5-275.5q0-205-174-309 223-117 223-360 0-186-131-306t-319-120q-190 0-320.5 120t-130.5 306zm168 0q0-123 78-195t205-72q125 0 203.5 72t78.5 195q0 125-77.5 197.5t-204.5 72.5-205-72.5-78-197.5zm41 661q0-102 68.5-169t173-67 173 67 68.5 169q0 106-70.5 168.5t-171 62.5-171-62.5-70.5-168.5z"/><glyph unicode="9" horiz-adv-x="1103" d="M86 981q0 213 135 343t328 130q102 0 185-34t151.5-107.5 106.5-208.5 38-324q0-395-132-597.5t-349-202.5q-162 0-272.5 98t-135.5 258q0 20 23 20h123q16 0 22-20 51-205 250-205 121 0 207 136t92 388q-59-70-148-108.5t-180-38.5q-201 0-322.5 128t-121.5 345zm168 0q0-137 77-225t212-88 211.5 88 76.5 225-76.5 225-211.5 88-212-88-77-225z"/><glyph unicode=":" horiz-adv-x="489" d="M137 20v168q0 20 21 21h168q20 0 20-21v-168q0-20-20-20h-168q-21 0-21 20zm0 758v168q0 20 21 21h168q20 0 20-21v-168q0-20-20-20h-168q-21 0-21 20z"/><glyph unicode=";" horiz-adv-x="489" d="M137 20v168q0 20 21 21h168q20 0 20-21v-200q0-184-145-185h-43q-20 0-21 21v45q0 20 21 20 57 0 73.5 19.5t16.5 77.5v14h-90q-21 0-21 20zm0 758v168q0 20 21 21h168q20 0 20-21v-168q0-20-20-20h-168q-21 0-21 20z"/><glyph unicode="<" horiz-adv-x="923" d="M72 524v152q0 18 20 26l711 371q4 2 10 2 10 0 10-14v-148q0-20-20-28l-572-285 572-285q20-8 20-28v-148q0-14-10-14-6 0-10 2l-711 371q-20 8-20 26z"/><glyph unicode="=" horiz-adv-x="1105" d="M119 348v119q0 20 20 20h828q20 0 20-20v-119q0-20-20-20h-828q-20 0-20 20zm0 416v119q0 20 20 20h828q20 0 20-20v-119q0-20-20-21h-828q-20 1-20 21z"/><glyph unicode=">" horiz-adv-x="923" d="M100 139v148q0 20 21 28l571 285-571 285q-20 8-21 28v148q0 14 11 14 6 0 10-2l710-371q20-8 21-26v-152q0-18-21-26l-710-371q-4-2-10-2-11 0-11 14z"/><glyph unicode="?" horiz-adv-x="931" d="M70 1049q14 174 117.5 289.5t295.5 115.5q184 0 286.5-100.5t102.5-274.5q0-78-31.5-144.5t-76.5-113.5l-90-92q-45-45-77-101.5t-32-119.5v-109q0-20-20-20h-131q-20 0-21 20v95q0 90 32 163.5t77 122.5 90 93.5 76.5 96.5 31.5 109q0 98-57 154.5t-160 56.5q-215 0-245-241-2-20-21-21h-127q-20 1-20 21zm299-1029v181q0 20 20 20h180q20 0 21-20v-181q0-20-21-20h-180q-20 0-20 20z"/><glyph unicode="@" horiz-adv-x="1363" d="M92 592q0 375 170 608.5t469 233.5q252 0 385-129t133-334v-793q0-18-18-18h-107q-18 0-18 18v80q-102-115-258-115-172 0-276.5 123t-104.5 326 104.5 325.5 276.5 122.5q176 0 258-110v41q0 143-100.5 233t-274.5 90q-227 0-357-198.5t-130-503.5 142-499.5 392-194.5q219 0 375 90 4 2 10 2 8 0 15-10l49-97q2-4 2-8 0-10-10-16-182-100-441-101-330 0-508 229.5t-178 604.5zm526 0q0-137 67-223t185-86q121 0 184.5 81.5t63.5 227-63.5 227.5-184.5 82q-119 0-185.5-86t-66.5-223z"/><glyph unicode="A" horiz-adv-x="1118" d="M18 20q0 6 2 13l435 1380q6 20 20 21h168q14 0 21-21l434-1380q2-6 2-13 0-20-23-20h-135q-18 0-24 20l-117 396h-484l-116-396q-6-20-25-20h-135q-23 0-23 20zm349 560h385l-193 634z"/><glyph unicode="B" horiz-adv-x="1187" d="M156 20v1393q0 20 20 21h451q176 0 287.5-90.5t111.5-268.5q0-236-182-315 121-49 182-131t61-221q0-182-107.5-295t-305.5-113h-498q-20 0-20 20zm172 150h317q125 0 197.5 61.5t72.5 188.5q0 123-72.5 187.5t-197.5 64.5h-317v-502zm0 666h309q217 0 217 215 0 102-60.5 157.5t-156.5 55.5h-309v-428z"/><glyph unicode="C" horiz-adv-x="1302" d="M98 717q0 352 169 544.5t419 192.5q223 0 366.5-124t174.5-361q0-20-23-21h-125q-23 0-24 21-66 321-367 321h-2q-184 0-295.5-149.5t-111.5-424 111.5-424 295.5-149.5q303 0 369 322 2 20 24 20h125q23 0 23-20-31-238-174.5-361.5t-366.5-123.5q-250 0-419 192.5t-169 544.5z"/><glyph unicode="D" horiz-adv-x="1228" d="M156 20v1393q0 20 20 21h346q276 0 442-180.5t166-537-165.5-536.5-442.5-180h-346q-20 0-20 20zm172 144h170q213 0 332.5 137t119.5 415.5-119.5 416-332.5 137.5h-170v-1106z"/><glyph unicode="E" horiz-adv-x="1052" d="M156 20v1393q0 20 20 21h731q20 0 21-21v-123q0-20-21-20h-579v-434h516q20 0 20-21v-123q0-20-20-20h-516v-508h594q20 0 20-21v-123q0-20-20-20h-746q-20 0-20 20z"/><glyph unicode="F" horiz-adv-x="1056" d="M156 20v1393q0 20 20 21h737q20 0 21-21v-123q0-20-21-20h-585v-465h522q20 0 20-21v-122q0-20-20-21h-522v-621q0-20-21-20h-131q-20 0-20 20z"/><glyph unicode="G" horiz-adv-x="1323" d="M98 717q0 350 176.5 543.5t427.5 193.5q205 0 344.5-111.5t180.5-326.5q0-20-23-21h-131q-18 0-24 21-74 274-347 274-186 0-304.5-150.5t-118.5-422.5q0-276 119.5-425t324.5-149q254 0 346 193v229h-346q-20 0-21 21v123q0 20 21 20h498q20 0 20-20v-371q0-41-20-78-68-123-201-201.5t-297-78.5q-274 0-449.5 193.5t-175.5 543.5z"/><glyph unicode="H" horiz-adv-x="1249" d="M156 20v1393q0 20 20 21h131q20 0 21-21v-584h594v584q0 20 20 21h131q20 0 21-21v-1393q0-20-21-20h-131q-20 0-20 20v646h-594v-646q0-20-21-20h-131q-20 0-20 20z"/><glyph unicode="I" horiz-adv-x="942" d="M88 20v123q0 20 21 21h276v1106h-256q-20 0-20 20v123q0 20 20 21h684q20 0 21-21v-123q0-20-21-20h-256v-1106h277q20 0 20-21v-123q0-20-20-20h-725q-21 0-21 20z"/><glyph unicode="J" horiz-adv-x="1040" d="M57 436q0 20 21 21h131q20 0 20-21 0-129 71-211t192-82q141 0 205.5 92.5t64.5 276.5v901q0 20 20 21h131q20 0 21-21v-899q0-268-118-401t-324-133q-211 0-323 126.5t-112 329.5z"/><glyph unicode="K" horiz-adv-x="1157" d="M156 20v1393q0 20 20 21h131q20 0 21-21v-604l518 604q18 20 33 21h168q12 0 15-10.5t-7-18.5l-426-502 516-874q4-8 4-15 0-14-16-14h-172q-18 0-37 31l-422 731-174-203v-539q0-20-21-20h-131q-20 0-20 20z"/><glyph unicode="L" horiz-adv-x="1052" d="M156 20v1393q0 20 20 21h131q20 0 21-21v-1249h639q20 0 20-21v-123q0-20-20-20h-791q-20 0-20 20z"/><glyph unicode="M" horiz-adv-x="1392" d="M156 20v1393q0 20 20 21h203q25 0 33-21l284-772 285 772q8 20 33 21h203q20 0 20-21v-1393q0-20-20-20h-132q-20 0-20 20v1147l-293-766q-8-18-27-18h-98q-18 0-26 18l-293 766v-1147q0-20-21-20h-131q-20 0-20 20z"/><glyph unicode="N" horiz-adv-x="1259" d="M156 20v1393q0 20 20 21h166q27 0 33-17l557-1122v1118q0 20 20 21h131q20 0 21-21v-1393q0-20-21-20h-165q-27 0-33 16l-557 1123v-1119q0-20-21-20h-131q-20 0-20 20z"/><glyph unicode="O" horiz-adv-x="1355" d="M98 716.5q0 354.5 165 546t415 191.5 414.5-191.5 164.5-546-164.5-545.5-414.5-191-415 191-165 545.5zm181 0q0-276.5 107.5-425t291.5-148.5 291.5 148.5 107.5 425-107.5 425-291.5 148.5-291.5-148.5-107.5-425z"/><glyph unicode="P" horiz-adv-x="1126" d="M156 20v1393q0 20 20 21h422q221 0 339-107.5t118-292-118-292-339-107.5h-270v-615q0-20-21-20h-131q-20 0-20 20zm172 779h301q246 0 246 235 0 236-246 236h-301v-471z"/><glyph unicode="Q" horiz-adv-x="1355" d="M98 716.5q0 356.5 163 547t417 190.5 416.5-190.5 162.5-546.5q0-307-129-502l113-109q8-8 8-14t-8-14l-92-96q-8-8-14.5-8.5t-14.5 8.5l-110 106q-138-108-328-108h-4q-254 0-417 190t-163 546.5zm181 0q0-276.5 107.5-425t291.5-148.5q121 0 209 64l-121 117q-8 8-8 14t8 14l92 97q8 8 14.5 8t14.5-8l112-109q78 145 78 377 0 276-107.5 424.5t-291.5 148.5-291.5-148.5-107.5-425z"/><glyph unicode="R" horiz-adv-x="1155" d="M156 20v1393q0 20 20 21h436q434 0 435-379 0-270-269-361l312-674q2-4 2-8 0-12-19-12h-149q-16 0-29 20l-307 656h-260v-656q0-20-21-20h-131q-20 0-20 20zm172 820h305q242 0 242 214 0 216-242 216h-305v-430z"/><glyph unicode="S" horiz-adv-x="1114" d="M66 424q0 20 20 20h131q20 0 21-20 0-115 87-198t238-83q156 0 232.5 71t76.5 202q0 98-82.5 151.5t-248.5 96.5q-225 59-333 143t-108 252q0 182 128 288.5t317 106.5q207 0 333-111.5t126-279.5q0-20-21-21h-131q-20 0-21 21 0 94-82.5 160.5t-203.5 66.5q-119 0-196-60.5t-77-158.5q0-41 10.5-73.5t40-58.5 51-42 75-34.5 77.5-25.5l92-26q215-59 320.5-140t105.5-241q0-221-137-335.5t-344-114.5q-221 0-359 121.5t-138 322.5z"/><glyph unicode="T" horiz-adv-x="1015" d="M43 1290v123q0 20 20 21h889q20 0 21-21v-123q0-20-21-20h-358v-1250q0-20-21-20h-131q-20 0-20 20v1250h-359q-20 0-20 20z"/><glyph unicode="U" d="M121 489v924q0 20 20 21h131q20 0 21-21v-901q0-369 290.5-369t290.5 369v901q0 20 21 21h131q20 0 21-21v-924q0-238-125-373.5t-338-135.5-338 135.5-125 373.5z"/><glyph unicode="V" horiz-adv-x="1118" d="M15 1421q0 13 18 13h151q18 0 25-21l350-1202 350 1202q6 20 25 21h151q18 0 18-13 0-3-1-8l-422-1393q-6-20-23-20h-196q-16 0-23 20l-422 1393q-1 4-1 8z"/><glyph unicode="W" horiz-adv-x="1441" d="M23 1413q0 20 20 21h141q23 0 25-21l197-1186 215 1006q6 20 24 20h152q18 0 24-20l215-1006 197 1186q2 20 24 21h142q20 0 20-21l-262-1393q-2-20-22-20h-185q-18 0-24 20l-205 957-205-957q-6-20-24-20h-185q-20 0-22 20z"/><glyph unicode="X" horiz-adv-x="1060" d="M8 14q0 2 2 6l424 754-358 639q-4 8 1 14.5t13 6.5h150q16 0 28-21l262-467 263 467q12 20 28 21h150q8 0 13-6.5t1-14.5l-358-639 424-754q2-4 1-6 0-4-2-8-5-6-14-6h-149q-16 0-29 20l-328 582-327-582q-12-20-29-20h-149q-8 0-14 6-3 3-3 8z"/><glyph unicode="Y" horiz-adv-x="950" d="M12 1423q0 10 15 11h159q16 0 23-17l266-604 266 604q6 16 23 17h160q15 0 14-11 0-4-2-10l-375-805v-588q0-20-20-20h-131q-20 0-21 20v588l-375 805q-2 6-2 10z"/><glyph unicode="Z" horiz-adv-x="1071" d="M74 20v123q0 16 12 35l676 1092h-641q-20 0-21 20v123q0 20 21 21h813q20 0 20-21v-123q0-16-12-35l-674-1091h701q20 0 20-21v-123q0-20-20-20h-875q-20 0-20 20z"/><glyph unicode="[" horiz-adv-x="737" d="M156-385v1798q0 20 20 21h457q20 0 20-21v-123q0-20-20-20h-305v-1512h305q20 0 20-20v-123q0-20-20-21h-457q-20 1-20 21z"/><glyph unicode="\" horiz-adv-x="841" d="M20 1413q-8 20 13 21h131q20 0 29-21l600-1393q8-20-15-20h-131q-18 0-26 20z"/><glyph unicode="]" horiz-adv-x="737" d="M84-262q0 20 20 20h306v1512h-306q-20 0-20 20v123q0 20 20 21h457q20 0 21-21v-1798q0-20-21-21h-457q-20 0-20 21v123z"/><glyph unicode="^" horiz-adv-x="978" d="M51 817q0 4 2 8l334 588q10 20 27 21h151q16 0 27-21l334-588q2-4 2-8 0-12-15-12h-147q-18 0-29 20l-248 445-247-445q-10-20-29-20h-147q-15 0-15 12z"/><glyph unicode="_" horiz-adv-x="1105" d="M119-20q0 20 20 20h828q20 0 20-20v-119q0-20-20-21h-828q-20 0-20 21v119z"/><glyph unicode="`" horiz-adv-x="561" d="M95 1427.5q3 6.5 14 6.5h184q18 0 31-21l141-258q12-20-10-20h-111q-20 0-37 18l-209 260q-6 8-3 14.5z"/><glyph unicode="a" horiz-adv-x="1056" d="M84 305q0 164 119 253t301 89q135 0 268-43v51q0 242-248 242-168 0-229-156-6-18-29-18h-131q-14 0-14 12.5t2 20.5q33 123 137.5 208t263.5 85q178 0 293-98.5t115-254.5v-499q0-113 35-177 4-6 4-10 0-10-19-10h-159q-20 0-21 20v107q-106-147-313-147-156 0-265.5 83.5t-109.5 241.5zm168 0q0-80 58.5-127t164.5-47q123 0 210 87t87 235q-125 43-266 43-111 0-182.5-49.5t-71.5-141.5z"/><glyph unicode="b" horiz-adv-x="1144" d="M143 20v1393q0 20 21 21h119q20 0 20-21v-502q55 61 139 99.5t179 38.5q201 0 320.5-144.5t119.5-390.5-120-390-320-144q-211 0-318 137v-97q0-20-20-20h-119q-21 0-21 20zm144 494q0-168 79.5-275.5t221-107.5 223.5 108.5 82 274.5-82 274.5-223.5 108.5-221-107.5-79.5-275.5z"/><glyph unicode="c" horiz-adv-x="1101" d="M84 514.5q0 233.5 134 384t360 150.5q176 0 287.5-90.5t152.5-251.5q2-8 2-20.5t-14-12.5h-125q-25 0-29 18-29 94-101.5 149.5t-172.5 55.5q-145 0-235.5-107.5t-90.5-275.5 90-275.5 236-107.5q100 0 172.5 55.5t101.5 149.5q4 18 29 18h125q14 0 14-12t-2-20q-41-162-152.5-252t-287.5-90q-225 0-359.5 150.5t-134.5 384z"/><glyph unicode="d" horiz-adv-x="1144" d="M84 514q0 246 120 390.5t320 144.5q94 0 178-38t140-100v502q0 20 20 21h119q20 0 20-21v-1393q0-20-20-20h-119q-20 0-20 20v97q-106-137-318-137-201 0-320.5 144t-119.5 390zm168 0q0-166 82-274.5t223-108.5 221 107.5 80 275.5-80 275.5-221 107.5-223-108.5-82-274.5z"/><glyph unicode="e" horiz-adv-x="1132" d="M84 514q0 229 136 382t353 153q223 0 348.5-155t125.5-380v-29q0-20-21-20h-770q12-152 93-243t224-91q111 0 177.5 45t103.5 143q6 18 29 19h133q14 0 14-14 0-8-4-21-111-323-451-323h-2q-231 0-360 149t-129 385zm180 102h610q-25 127-107.5 204t-193.5 77q-117 0-200.5-76t-108.5-205z"/><glyph unicode="f" horiz-adv-x="788" d="M31 897v111q0 20 20 20h185v90q0 137 79.5 236.5t225.5 99.5q127 0 223-57 16-12 16-35v-109q0-20-14-20-8 0-14 4-100 66-199 66-74 0-116-49.5t-42-135.5v-90h344q20 0 21-20v-111q0-20-21-20h-344v-857q0-20-20-20h-119q-20 0-20 20v857h-185q-20 0-20 20z"/><glyph unicode="g" horiz-adv-x="1058" d="M31 309q0 164 186 248-27 66-27 141 0 164 101.5 257.5t253.5 93.5q111 0 200-58l138 123q8 8 16 8 6 0 16-10l78-82q8-8 8-16t-10-19l-131-125q41-76 41-172 0-164-102.5-256t-253.5-92q-150 0-246 88-109-47-109-137 0-49 33-80t88-31q33 0 125 19.5t168 19.5q422 0 422-321 0-154-121-244t-334-90q-229 0-352 85t-123 237q0 106 56 182-121 81-121 231zm233-399q0-184 307-184 141 0 214 48t73 134q0 80-72.5 125t-214.5 45q-57 0-136-17.5t-116-17.5q-55-47-55-133zm94 788q0-96 51.5-146t135.5-50q86 0 137 50t51 146q0 98-51 148.5t-137 50.5q-84 0-135.5-50.5t-51.5-148.5z"/><glyph unicode="h" horiz-adv-x="1085" d="M143 20v1393q0 20 21 21h119q20 0 20-21v-532q47 78 136 123t192 45q168 0 247.5-86t79.5-258v-685q0-20-20-20h-119q-20 0-20 20v648q0 229-205 229-115 0-203-99.5t-88-256.5v-521q0-20-20-20h-119q-21 0-21 20z"/><glyph unicode="i" horiz-adv-x="862" d="M53 20v111q0 20 21 21h272v729h-221q-20 0-21 20v107q0 20 21 20h360q20 0 21-20v-856h282q20 0 21-21v-111q0-20-21-20h-714q-21 0-21 20zm252 1197v176q0 20 21 20h176q20 0 20-20v-176q0-20-20-21h-176q-21 1-21 21z"/><glyph unicode="j" horiz-adv-x="653" d="M53 901v107q0 20 21 20h399q20 0 21-20v-1063q0-207-62-355-6-16-14-16-4 0-17 4l-110 31q-16 6-17 14 0 4 2 10 57 150 58 287v961h-260q-21 0-21 20zm232 316v176q0 20 20 20h176q20 0 21-20v-176q0-20-21-21h-176q-20 1-20 21z"/><glyph unicode="k" horiz-adv-x="1021" d="M143 20v1393q0 20 21 21h119q20 0 20-21v-835l445 432q18 18 32 18h170q16 0 17-14 0-8-9-17l-356-348 385-618q4-6 4-15 0-16-18-16h-146q-23 0-32 18l-320 512-172-163v-347q0-20-20-20h-119q-21 0-21 20z"/><glyph unicode="l" horiz-adv-x="903" d="M53 20v111q0 20 21 21h297v1130h-256q-20 0-21 21v110q0 20 21 21h395q20 0 20-21v-1261h299q20 0 21-21v-111q0-20-21-20h-755q-21 0-21 20z"/><glyph unicode="m" horiz-adv-x="1519" d="M143 20v988q0 20 21 20h119q20 0 20-20v-113q33 63 109.5 108.5t158.5 45.5q102 0 163-40t95-126q45 74 122 120t165 46q143 0 210-77t67-239v-713q0-20-21-20h-119q-20 0-20 20v685q0 192-164 192h-2q-98 0-158.5-97.5t-60.5-258.5v-521q0-20-21-20h-118q-20 0-21 20v685q0 192-164 192h-2q-98 0-158.5-97.5t-60.5-258.5v-521q0-20-20-20h-119q-21 0-21 20z"/><glyph unicode="n" horiz-adv-x="1069" d="M143 20v988q0 20 21 20h119q20 0 20-20v-123q51 70 138 117t186 47q150 0 230.5-88.5t80.5-245.5v-695q0-20-20-20h-119q-20 0-21 20v658q0 104-50 161.5t-146 57.5q-113 0-196-99.5t-83-256.5v-521q0-20-20-20h-119q-21 0-21 20z"/><glyph unicode="o" d="M84 514q0 240 140.5 387.5t359.5 147.5 359-147.5 140-387.5-140-387-359-147-359.5 147-140.5 387zm168 0q0-168 92-275.5t239.5-107.5 239.5 107.5 92 275.5-92 275.5-239.5 107.5-239.5-107.5-92-275.5z"/><glyph unicode="p" horiz-adv-x="1144" d="M143-385v1393q0 20 21 20h119q20 0 20-20v-97q106 137 318 138 201 0 320.5-144.5t119.5-390.5-120-390-320-144q-94 0-178.5 37.5t-139.5 99.5v-502q0-20-20-21h-119q-21 1-21 21zm144 899q0-168 79.5-275.5t221-107.5 223.5 108.5 82 274.5-82 274.5-223.5 108.5-221-107.5-79.5-275.5z"/><glyph unicode="q" horiz-adv-x="1144" d="M84 514q0 246 120 390.5t320 144.5q211 0 318-138v97q0 20 20 20h119q20 0 20-20v-1393q0-20-20-21h-119q-20 0-20 21v502q-55-61-139.5-99t-178.5-38q-201 0-320.5 144t-119.5 390zm168 0q0-166 82-274.5t223-108.5 221 107.5 80 275.5-80 275.5-221 107.5-223-108.5-82-274.5z"/><glyph unicode="r" horiz-adv-x="948" d="M143 20v988q0 20 21 20h119q20 0 20-20v-113q113 154 301 154 205 0 291-181 4-8 4-14 0-14-12-20l-103-68q-6-4-14-4-12 0-16 10-43 70-88 97.5t-117 27.5q-113 0-179.5-109.5t-66.5-265.5v-502q0-20-20-20h-119q-21 0-21 20z"/><glyph unicode="s" horiz-adv-x="954" d="M74 313q0 20 20 21h131q18 0 21-21 12-88 72.5-135t160.5-47q92 0 159 39t67 111q0 35-16.5 62.5t-36 42.5-65.5 29.5-75 19.5l-94 18q-170 29-245 99.5t-75 203.5q0 139 107.5 216t251.5 77q172 0 276.5-81t104.5-214q0-20-21-21h-115q-14 0-20 21-35 143-223 143-86 0-143.5-37t-57.5-104q0-63 55.5-105.5t202.5-66.5q172-29 264-89.5t92-193.5q0-145-114.5-233t-284.5-88q-176 0-287.5 94t-111.5 239z"/><glyph unicode="t" horiz-adv-x="1011" d="M37 897v111q0 20 20 20h185v295q0 20 20 20h119q20 0 20-20v-295h392q20 0 20-20v-111q0-20-20-20h-392v-480q0-266 201-266 96 0 141 51t60 160q2 18 22 18h127q2 0 5.5-2t4.5-6 1-10q0-152-94.5-257t-266.5-105q-176 0-268 105t-92 310v482h-185q-20 0-20 20z"/><glyph unicode="u" horiz-adv-x="1069" d="M131 313v695q0 20 21 20h118q20 0 21-20v-658q0-104 50-161.5t146-57.5q113 0 196 99.5t83 256.5v521q0 20 20 20h119q20 0 21-20v-988q0-20-21-20h-119q-20 0-20 20v123q-51-70-138-116.5t-186-46.5h-2q-309 0-309 333z"/><glyph unicode="v" horiz-adv-x="942" d="M14 1010q0 18 19 18h139q23 0 29-20l270-791 270 791q6 20 29 20h139q18 0 19-18 0-8-2-15l-359-975q-8-20-24-20h-144q-16 0-24 20l-359 975q-2 7-2 15z"/><glyph unicode="w" horiz-adv-x="1359" d="M20 1014q0 14 17 14h141q23 0 29-20l186-791 187 725q6 20 22 21h156q16 0 22-21l187-725 186 791q6 20 29 20h141q16 0 16-14 0-8-2-17l-268-977q-4-20-27-20h-145q-20 0-27 20l-190 711-191-711q-6-20-26-20h-146q-23 0-26 20l-268 977q-3 9-3 17z"/><glyph unicode="x" horiz-adv-x="884" d="M20 10q0 6 7 17l323 520-280 454q-4 8-4 13 0 14 14 14h135q18 0 29-14l198-316 199 316q10 14 29 14h135q14 0 14-14 0-4-4-13l-280-454 323-520q6-10 6-17 0-10-12-10h-154q-16 0-28 20l-228 373-227-373q-12-20-29-20h-153q-13 0-13 10z"/><glyph unicode="y" horiz-adv-x="919" d="M20-250q0 20 17 21 8 0 51-22.5t96-22.5q76 0 122 63.5t85 206.5l-360 999q-4 12-4 17 0 16 16 16h147q20 0 27-20l254-781 242 781q6 20 26 20h142q16 0 16-14 0-8-2-15l-363-1099q-61-186-140-256t-199-70q-80 0-152 33-20 12-21 33v110z"/><glyph unicode="z" horiz-adv-x="909" d="M55 20v111q0 14 13 31l548 715h-514q-20 0-20 20v111q0 20 20 20h682q20 0 21-20v-111q0-20-17-43l-538-702h573q20 0 21-21v-111q0-20-21-20h-747q-21 0-21 20z"/><glyph unicode="{" horiz-adv-x="727" d="M57 453v122q0 20 21 21h47q109 0 108 119v319q0 209 76 304.5t234 95.5h80q20 0 20-21v-123q0-20-20-20h-80q-88 0-112.5-48t-24.5-188v-352q0-137-117-168 117-31 117-168v-352q0-139 24.5-187.5t112.5-48.5h80q20 0 20-20v-123q0-20-20-21h-80q-158 0-234 95.5t-76 304.5v319q0 119-108 119h-47q-21 1-21 21z"/><glyph unicode="|" horiz-adv-x="483" d="M156-184v1597q0 20 20 21h131q20 0 21-21v-1597q0-20-21-21h-131q-20 1-20 21z"/><glyph unicode="}" horiz-adv-x="727" d="M84-262q0 20 20 20h80q88 0 113 48.5t25 187.5v352q0 137 116 168-117 31-116 168v352q0 139-25 187.5t-113 48.5h-80q-20 0-20 20v123q0 20 20 21h80q158 0 234-95.5t76-304.5v-319q0-119 108-119h47q20 0 21-21v-122q0-20-21-21h-47q-109 0-108-119v-319q0-209-76-304.5t-234-95.5h-80q-20 0-20 21v123z"/><glyph unicode="~" horiz-adv-x="1028" d="M82 719q0 14 18 26 100 74 234 74 84 0 197.5-42t162.5-42q76 0 154 51 8 4 14 5 10 0 21-17l61-102q2-4 2-8 0-14-18-27-100-74-234-74-84 0-197.5 42t-162.5 42q-76 0-154-51-8-4-14-4-10 0-21 16l-61 103q-2 4-2 8z"/><glyph unicode="¡" horiz-adv-x="487" d="M133 827v181q0 20 21 20h180q20 0 20-20v-181q0-20-20-20h-180q-21 0-21 20zm25-1212v1014q0 20 20 20h131q20 0 21-20v-1014q0-20-21-21h-131q-20 1-20 21z"/><glyph unicode="¢" horiz-adv-x="1101" d="M84 717q0 207 106.5 351t292.5 177v168q0 20 21 21h131q20 0 20-21v-168q287-37 363-336 2-8 2-20t-14-12h-125q-25 0-29 18-49 158-197 195v-748q72 18 123 69.5t74 127.5q4 18 29 18h125q14 0 14-12.5t-2-20.5q-37-143-128-230t-235-108v-166q0-20-20-20h-131q-20 0-21 20v170q-186 31-292.5 175.5t-106.5 351.5zm168 0q0-139 62.5-238.5t168.5-132.5v744q-106-33-168.5-133.5t-62.5-239.5z"/><glyph unicode="£" horiz-adv-x="1128" d="M82 657v119q0 20 20 21h107q-45 135-45 237 0 195 114.5 307.5t301.5 112.5q199 0 312.5-115.5t113.5-289.5q0-20-21-21h-131q-20 0-20 21 0 96-71 168.5t-183 72.5q-115 0-179.5-66.5t-64.5-189.5q0-39 6-75.5t11-53 20.5-58.5 19.5-50h420q20 0 21-21v-119q0-20-21-20h-387q6-74 6-78 0-215-135-395h715q20 0 20-21v-123q0-20-20-20h-877q-20 0-20 20v144q0 18 16 41 70 90 99.5 169t29.5 195q0 33-6 68h-152q-20 0-20 20z"/><glyph unicode="¤" horiz-adv-x="1040" d="M92 211q0 6 8 14l99 99q-63 94-63.5 214.5t63.5 215.5l-99 98q-8 8-8 14t8 15l78 77q8 8 14.5 8.5t14.5-8.5l98-98q98 63 215 64 113 0 215-64l99 98q8 8 14 8.5t14-8.5l78-77q8-8 8-14.5t-8-14.5l-98-98q63-100 63-215t-63-215l98-99q8-8 8-14t-8-14l-78-78q-8-8-14-8t-14 8l-99 98q-96-63-215-63-121 0-215 63l-98-98q-8-8-14.5-8t-14.5 8l-78 78q-8 8-8 14zm195 327.5q0-112.5 64.5-179t169-66.5 169 66.5 64.5 179-64.5 179-169 66.5-169-66.5-64.5-179z"/><glyph unicode="¥" horiz-adv-x="962" d="M12 1413q-6 20 13 21h159q16 0 23-17l274-598 275 598q6 16 22 17h160q18 0 12-21l-305-639h234q20 0 20-20v-119q0-20-20-21h-312v-155h275q20 0 20-21v-119q0-20-20-20h-275v-279q0-20-20-20h-131q-20 0-21 20v279h-274q-20 0-21 20v119q0 20 21 21h274v155h-311q-20 0-21 21v119q0 20 21 20h233z"/><glyph unicode="¦" horiz-adv-x="483" d="M156-184v655q0 20 20 21h131q20 0 21-21v-655q0-20-21-21h-131q-20 1-20 21zm0 942v655q0 20 20 21h131q20 0 21-21v-655q0-20-21-21h-131q-20 1-20 21z"/><glyph unicode="§" horiz-adv-x="964" d="M76-47q0 20 20 20h131q20 0 21-20 0-92 66.5-153.5t166.5-61.5q102 0 164 48t62 138q0 84-55.5 140.5t-221.5 154.5l-96 57q-25 14-76 48t-68.5 50.5-47 47.5-39 55.5-18.5 57-9 71.5q0 72 20.5 123t79.5 121q-100 106-100 254 0 166 114.5 258t282.5 92q182 0 294-109.5t112-269.5q0-20-21-20h-131q-20 0-20 20 0 92-67 153.5t-167 61.5q-102 0-163.5-48t-61.5-138q0-84 55-140.5t221-154.5l97-57q25-14 76-48t68-50.5 47-47.5 39-55.5 18.5-57 9.5-71.5q0-72-20.5-123t-80.5-121q100-109 101-254 0-166-115-258t-283-92q-182 0-293.5 109.5t-111.5 269.5zm172 674q0-74 53-120t277-177q8-4 22-14l26-16q11-7 19-13 61 57 62 114 0 74-53.5 120t-276.5 177q-8 4-23 14l-25 16q-11 7-20 13-61-57-61-114z"/><glyph unicode="¨" horiz-adv-x="782" d="M127 1253v160q0 20 20 21h160q20 0 21-21v-160q0-20-21-20h-160q-20 0-20 20zm328 0v160q0 20 20 21h160q20 0 20-21v-160q0-20-20-20h-160q-20 0-20 20z"/><glyph unicode="©" horiz-adv-x="1179" d="M84 700.5q0 241.5 152.5 385t353.5 143.5 353.5-143.5 152.5-385-152.5-385-353.5-143.5-353.5 143.5-152.5 385zm96 0q0-206.5 122-322.5t288-116 287.5 116 121.5 322.5-121.5 322.5-287.5 116-288-116-122-322.5zm152-.5q0 147 76.5 229.5t181.5 82.5q94 0 157.5-52.5t75.5-146.5q0-14-14-14h-49q-16 0-19 14-29 121-151 121-76 0-124-60.5t-48-173 49-172 123-59.5q123 0 151 121 2 14 19 14h49q14 0 14-14-12-94-75.5-146.5t-157.5-52.5q-104 0-181 82t-77 227z"/><glyph unicode="ª" horiz-adv-x="811" d="M37 1050.5q0 178.5 92 289t236 110.5q152 0 231-102v71q0 14 16 15h88q16 0 17-15v-737q0-14-17-14h-88q-16 0-16 14v72q-80-100-231-101-143 0-235.5 109.5t-92.5 288zm125 .5q0-123 59.5-204t166-81 163.5 77 57 208-57 207.5-163.5 76.5-166-80.5-59.5-203.5z"/><glyph unicode="«" horiz-adv-x="1036" d="M66 504v114q0 18 20 37l418 387q6 6 12 7 12 0 12-15v-172q0-20-14-33l-289-268 289-268q14-12 14-33v-172q0-14-12-14-6 0-12 6l-418 387q-20 19-20 37zm417 0v114q0 18 21 37l418 387q6 6 12 7 12 0 12-15v-172q0-20-14-33l-289-268 289-268q14-12 14-33v-172q0-14-12-14-6 0-12 6l-418 387q-21 19-21 37z"/><glyph unicode="¬" horiz-adv-x="1036" d="M74 598v102q0 20 20 21h770q20 0 21-21v-352q0-20-21-20h-119q-20 0-20 20v230h-631q-20 0-20 20z"/><glyph unicode="­" horiz-adv-x="1007" d="M119 641v119q0 20 20 20h729q20 0 21-20v-119q0-20-21-20h-729q-20 0-20 20z"/><glyph unicode="®" horiz-adv-x="1179" d="M84 700.5q0 241.5 152.5 385t353.5 143.5 353.5-143.5 152.5-385-152.5-385-353.5-143.5-353.5 143.5-152.5 385zm96 0q0-206.5 122-322.5t288-116 287.5 116 121.5 322.5-121.5 322.5-287.5 116-288-116-122-322.5zm236-288.5v579q0 14 14 15h180q92 0 142.5-44t50.5-124q0-123-123-162l131-264q2-4 2-9 0-6-8-6h-64q-14 0-20 13l-129 258h-94v-256q0-14-15-15h-53q-14 1-14 15zm82 333h120q102 0 103 93 0 90-103 90h-120v-183z"/><glyph unicode="¯" horiz-adv-x="559" d="M72 1241v102q0 20 20 21h375q20 0 20-21v-102q0-20-20-20h-375q-20 0-20 20z"/><glyph unicode="°" horiz-adv-x="870" d="M78 1105.5q0 151.5 102.5 250t254 98.5 255-98.5 103.5-250-103.5-249.5-255-98-254 98-102.5 249.5zm143 .5q0-98 60.5-159.5t152.5-61.5q94 0 153.5 61.5t59.5 159.5-59.5 159.5-153.5 61.5q-92 0-152.5-61.5t-60.5-159.5z"/><glyph unicode="±" horiz-adv-x="1105" d="M119 20v119q0 20 20 21h828q20 0 20-21v-119q0-20-20-20h-828q-20 0-20 20zm0 648v118q0 20 20 21h334v334q0 20 21 20h118q20 0 21-20v-334h334q20 0 20-21v-118q0-20-20-21h-334v-334q0-20-21-20h-118q-20 0-21 20v334h-334q-20 1-20 21z"/><glyph unicode="²" horiz-adv-x="675" d="M78 688v62q0 18 12 28l295 275q78 72 78 151 0 55-35 93t-92 38q-106 0-127-133-2-20-21-20h-79q-20 0-21 20 2 104 68.5 174t179.5 70 179.5-70.5 66.5-169.5q0-129-111-231l-221-197h338q20 0 20-20v-70q0-20-20-20h-490q-20 0-20 20z"/><glyph unicode="³" horiz-adv-x="681" d="M74 883q0 20 20 20h80q18 0 21-20 16-117 133-117 59 0 97 32.5t38 92.5q0 123-141 123h-58q-20 0-20 20v70q0 20 20 20h41q129 0 129 119 0 45-28.5 72.5t-79.5 27.5q-96 0-113-104-2-16-20-16h-76q-20 0-21 18 4 90 67.5 147.5t162.5 57.5q100 0 161.5-52.5t61.5-138.5q0-113-88-172 61-29 91-70.5t30-121.5q0-104-69-170t-183-66q-106 0-181 63t-75 165z"/><glyph unicode="´" horiz-adv-x="561" d="M96 1155l142 258q12 20 30 21h185q10 0 13-6.5t-3-14.5l-209-260q-16-18-37-18h-111q-22 0-10 20z"/><glyph unicode="µ" horiz-adv-x="1069" d="M131-385v1393q0 20 21 20h118q20 0 21-20v-678q0-94 52-146.5t144-52.5q113 0 196 99.5t83 256.5v521q0 20 20 20h119q20 0 21-20v-988q0-20-21-20h-119q-20 0-20 20v123q-51-70-138-116.5t-186-46.5q-86 0-151 26v-391q0-20-21-21h-118q-21 1-21 21z"/><glyph unicode="¶" horiz-adv-x="1159" d="M39 1085q0 162 101.5 255.5t281.5 93.5h694q20 0 21-21v-123q0-20-21-20h-131v-1454q0-20-20-21h-131q-20 0-21 21v1454h-174v-1454q0-20-21-21h-131q-20 0-20 21v923h-45q-180 0-281.5 93t-101.5 253z"/><glyph unicode="·" horiz-adv-x="489" d="M137 635v168q0 20 21 20h168q20 0 20-20v-168q0-20-20-21h-168q-21 1-21 21z"/><glyph unicode="¸" horiz-adv-x="507" d="M47-326q0 20 21 21 6 0 27.5-5t60.5-11.5 90-6.5q90 0 90 63.5t-90 63.5q-59 0-117-14-6-2-12-2-10 0-17 6l-24 25q-4 4-4 12 0 6 2 12l73 219q6 20 21 21h90q27 0 16-21l-81-182q49 14 102 14 82 0 129-39.5t47-105.5q0-170-219-170-98 0-184 20-20 6-21 21v59z"/><glyph unicode="¹" horiz-adv-x="614" d="M57 688v70q0 20 21 20h172v500l-148-80q-8-6-18-6-16 0-16 16v97q0 14 14 20l184 100q16 8 31 9h47q20 0 21-21v-635h172q20 0 20-20v-70q0-20-20-20h-459q-21 0-21 20z"/><glyph unicode="º" horiz-adv-x="860" d="M57 1050.5q0 178.5 104.5 289t268.5 110.5 268.5-110.5 104.5-289-104.5-288-268.5-109.5-268.5 109.5-104.5 288zm125 .5q0-125 68.5-205t179.5-80q109 0 177.5 80t68.5 205-68.5 204.5-177.5 79.5q-111 0-179.5-79.5t-68.5-204.5z"/><glyph unicode="»" horiz-adv-x="1036" d="M90 88v172q0 20 14 33l289 268-289 268q-14 12-14 33v172q0 14 12 15 6 0 13-7l417-387q20-18 21-37v-114q0-18-21-37l-417-387q-6-6-13-6-12 0-12 14zm418 0v172q0 20 14 33l289 268-289 268q-14 12-14 33v172q0 14 12 15 6 0 12-7l418-387q20-18 21-37v-114q0-18-21-37l-418-387q-6-6-12-6-12 0-12 14z"/><glyph unicode="¼" horiz-adv-x="1462" d="M88 688v70q0 20 21 20h172v500l-148-80q-10-6-18-6-16 0-17 16v97q0 14 15 20l184 100q16 8 31 9h47q20 0 20-21v-635h172q20 0 21-20v-70q0-20-21-20h-458q-21 0-21 20zm244-625q0 6 4 13l928 1347q6 10 14 11 4 0 14-7l60-41q10-8 10-16 0-6-4-12l-928-1348q-6-10-14-10-6 0-15 6l-59 41q-10 8-10 16zm508 103v57q0 12 8 25l332 504q8 14 22 14h68q20 0 20-21v-489h76q20 0 20-20v-70q0-20-20-21h-76v-125q0-20-20-20h-74q-20 0-20 20v125h-316q-20 1-20 21zm155 90h181v279z"/><glyph unicode="½" horiz-adv-x="1597" d="M88 688v70q0 20 21 20h172v500l-148-80q-10-6-18-6-16 0-17 16v97q0 14 15 20l184 100q16 8 31 9h47q20 0 20-21v-635h172q20 0 21-20v-70q0-20-21-20h-458q-21 0-21 20zm244-625q0 6 4 13l928 1347q6 10 14 11 4 0 14-7l60-41q10-8 10-16 0-6-4-12l-928-1348q-6-10-14-10-6 0-15 6l-59 41q-10 8-10 16zm669-45v62q0 18 13 29l295 274q78 72 77 152 0 55-34.5 93t-91.5 38q-106 0-127-134-2-20-21-20h-80q-20 0-20 20 2 104 68.5 174t179 70 179-70.5 66.5-168.5q0-129-110-232l-221-196h337q20 0 21-21v-70q0-20-21-20h-489q-21 0-21 20z"/><glyph unicode="¾" horiz-adv-x="1417" d="M70 883q0 20 20 20h80q18 0 20-20 16-117 134-117 59 0 97 32.5t38 92.5q0 123-142 123h-57q-20 0-20 20v70q0 20 20 20h41q129 0 129 119 0 45-28.5 72.5t-79.5 27.5q-96 0-113-104-2-16-21-16h-75q-20 0-21 18 4 90 67.5 147.5t162.5 57.5q100 0 161.5-52.5t61.5-138.5q0-113-88-172 61-29 91-70.5t30-121.5q0-104-69-170t-183-66q-106 0-181 63t-75 165zm213-820q0 6 4 13l927 1347q6 10 15 11 4 0 14-7l60-41q10-8 10-16 0-6-4-12l-928-1348q-6-10-14-10-6 0-15 6l-59 41q-10 8-10 16zm508 103v57q0 12 8 25l331 504q8 14 23 14h68q20 0 20-21v-489h76q20 0 20-20v-70q0-20-20-21h-76v-125q0-20-20-20h-74q-20 0-21 20v125h-315q-20 1-20 21zm155 90h180v279z"/><glyph unicode="¿" horiz-adv-x="931" d="M59-51q0 78 32 144.5t77 113.5l90 92q45 45 77 101.5t32 119.5v109q0 20 20 20h131q20 0 21-20v-94q0-90-32-164t-77-123-90-93-77-96.5-32-109.5q0-98 57.5-154.5t160.5-56.5q215 0 245 242 2 20 21 20h127q20 0 20-20-14-174-117.5-290t-295.5-116q-184 0-287 100.5t-103 274.5zm283 878v181q0 20 20 20h181q20 0 20-20v-181q0-20-20-20h-181q-20 0-20 20z"/><glyph unicode="À" horiz-adv-x="1118" d="M18 20q0 6 2 13l435 1380q6 20 20 21h168q14 0 21-21l434-1380q2-6 2-13 0-20-23-20h-135q-18 0-24 20l-117 396h-484l-116-396q-6-20-25-20h-135q-23 0-23 20zm245 1813q3 6 13 6h185q18 0 31-20l141-258q12-20-10-21h-111q-20 0-37 19l-209 260q-6 8-3 14zm104-1253h385l-193 634z"/><glyph unicode="Á" horiz-adv-x="1118" d="M18 20q0 6 2 13l435 1380q6 20 20 21h168q14 0 21-21l434-1380q2-6 2-13 0-20-23-20h-135q-18 0-24 20l-117 396h-484l-116-396q-6-20-25-20h-135q-23 0-23 20zm349 560h385l-193 634zm125 981l141 258q12 20 31 20h184q10 0 13-6t-3-14l-209-260q-14-18-37-19h-110q-22 1-10 21z"/><glyph unicode="Â" horiz-adv-x="1118" d="M18 20q0 6 2 13l435 1380q6 20 20 21h168q14 0 21-21l434-1380q2-6 2-13 0-20-23-20h-135q-18 0-24 20l-117 396h-484l-116-396q-6-20-25-20h-135q-23 0-23 20zm251 1526q-3 6 3 15l207 262q14 16 31 16h98q16 0 31-16l207-262q6-8 3-14.5t-13-6.5h-115q-18 0-37 19l-125 129-125-129q-18-18-37-19h-114q-11 0-14 6zm98-966h385l-193 634z"/><glyph unicode="Ã" horiz-adv-x="1118" d="M18 20q0 6 2 13l435 1380q6 20 20 21h168q14 0 21-21l434-1380q2-6 2-13 0-20-23-20h-135q-18 0-24 20l-117 396h-484l-116-396q-6-20-25-20h-135q-23 0-23 20zm197 1721q0 12 12 20 104 78 207 78 84 0 146.5-42t111.5-42q45 0 123 51 8 4 14 4 12 0 23-16l53-80q6-12 6-16 0-10-12-21-104-78-207-78-84 0-146.5 42t-111.5 42q-45 0-123-51-8-4-14-4-12 0-23 17l-53 79q-6 13-6 17zm152-1161h385l-193 634z"/><glyph unicode="Ä" horiz-adv-x="1118" d="M18 20q0 6 2 13l435 1380q6 20 20 21h168q14 0 21-21l434-1380q2-6 2-13 0-20-23-20h-135q-18 0-24 20l-117 396h-484l-116-396q-6-20-25-20h-135q-23 0-23 20zm277 1639v160q0 20 20 20h160q20 0 21-20v-160q0-20-21-21h-160q-20 1-20 21zm72-1079h385l-193 634zm256 1079v160q0 20 20 20h160q20 0 20-20v-160q0-20-20-21h-160q-20 1-20 21z"/><glyph unicode="Å" horiz-adv-x="1118" d="M18 20q0 6 2 13l435 1380q6 20 20 21h168q14 0 21-21l434-1380q2-6 2-13 0-20-23-20h-135q-18 0-24 20l-117 396h-484l-116-396q-6-20-25-20h-135q-23 0-23 20zm349 560h385l-193 634zm14 1128q0 76 50 124t128 48 128-48 50-124-50-124-128-48-128 48-50 124zm98 0q0-37 22.5-59.5t57.5-22.5 57.5 22.5 22.5 59.5-22.5 59.5-57.5 22.5-57.5-22.5-22.5-59.5z"/><glyph unicode="Æ" horiz-adv-x="1443" d="M18 20q0 6 2 13l396 1380q6 20 20 21h862q20 0 21-21v-123q0-20-21-20h-559v-434h496q20 0 20-21v-123q0-20-20-20h-496v-508h574q20 0 20-21v-123q0-20-20-20h-725q-20 0-21 20v396h-256l-106-396q-6-20-25-20h-139q-23 0-23 20zm336 560h213v690h-24z"/><glyph unicode="Ç" horiz-adv-x="1302" d="M98 717q0 352 169 544.5t419 192.5q223 0 366.5-124t174.5-361q0-20-23-21h-125q-23 0-24 21-66 322-369 321-184 0-295.5-149.5t-111.5-424 111.5-424 295.5-149.5q303 0 369 322 2 20 24 20h125q23 0 23-20-29-227-162-350t-340-133l-47-107q51 14 102 14 82 0 129-39.5t47-105.5q0-170-219-170-98 0-184 20-20 6-21 21v59q0 20 21 21 6 0 27.5-5t60.5-11.5 90-6.5q90 0 90 63.5t-90 63.5q-59 0-117-14-6-2-12-2-10 0-16 6l-25 25q-4 4-4 12 0 6 2 12l49 150q-223 29-366.5 217t-143.5 512z"/><glyph unicode="È" horiz-adv-x="1052" d="M156 20v1393q0 20 20 21h731q20 0 21-21v-123q0-20-21-20h-579v-434h516q20 0 20-21v-123q0-20-20-20h-516v-508h594q20 0 20-21v-123q0-20-20-20h-746q-20 0-20 20zm148 1813q3 6 13 6h185q18 0 30-20l142-258q12-20-10-21h-111q-20 0-37 19l-209 260q-6 8-3 14z"/><glyph unicode="É" horiz-adv-x="1052" d="M156 20v1393q0 20 20 21h731q20 0 21-21v-123q0-20-21-20h-579v-434h516q20 0 20-21v-123q0-20-20-20h-516v-508h594q20 0 20-21v-123q0-20-20-20h-746q-20 0-20 20zm250 1541l141 258q12 20 31 20h184q10 0 13-6t-3-14l-209-260q-14-18-37-19h-110q-22 1-10 21z"/><glyph unicode="Ê" horiz-adv-x="1052" d="M156 20v1393q0 20 20 21h731q20 0 21-21v-123q0-20-21-20h-579v-434h516q20 0 20-21v-123q0-20-20-20h-516v-508h594q20 0 20-21v-123q0-20-20-20h-746q-20 0-20 20zm101 1526q-3 6 3 15l207 262q14 16 31 16h98q16 0 31-16l207-262q6-8 3-14.5t-14-6.5h-114q-18 0-37 19l-125 129-125-129q-18-18-37-19h-115q-10 0-13 6z"/><glyph unicode="Ë" horiz-adv-x="1052" d="M156 20v1393q0 20 20 21h731q20 0 21-21v-123q0-20-21-20h-579v-434h516q20 0 20-21v-123q0-20-20-20h-516v-508h594q20 0 20-21v-123q0-20-20-20h-746q-20 0-20 20zm106 1639v160q0 20 21 20h159q20 0 21-20v-160q0-20-21-21h-159q-21 1-21 21zm328 0v160q0 20 20 20h160q20 0 21-20v-160q0-20-21-21h-160q-20 1-20 21z"/><glyph unicode="Ì" horiz-adv-x="942" d="M88 20v123q0 20 21 21h276v1106h-256q-20 0-20 20v123q0 20 20 21h684q20 0 21-21v-123q0-20-21-20h-256v-1106h277q20 0 20-21v-123q0-20-20-20h-725q-21 0-21 20zm189.5 1813q3.5 6 13.5 6h184q18 0 31-20l141-258q12-20-10-21h-111q-23 0-37 19l-208 260q-7 8-3.5 14z"/><glyph unicode="Í" horiz-adv-x="942" d="M88 20v123q0 20 21 21h276v1106h-256q-20 0-20 20v123q0 20 20 21h684q20 0 21-21v-123q0-20-21-20h-256v-1106h277q20 0 20-21v-123q0-20-20-20h-725q-21 0-21 20zm223 1541l142 258q12 20 30 20h185q10 0 13-6t-3-14l-209-260q-14-18-37-19h-110q-23 1-11 21z"/><glyph unicode="Î" horiz-adv-x="942" d="M88 20v123q0 20 21 21h276v1106h-256q-20 0-20 20v123q0 20 20 21h684q20 0 21-21v-123q0-20-21-20h-256v-1106h277q20 0 20-21v-123q0-20-20-20h-725q-21 0-21 20zm101.5 1526q-3.5 6 3.5 15l206 262q14 16 31 16h98q16 0 31-16l207-262q6-8 3-14.5t-13-6.5h-115q-18 0-37 19l-125 129-125-129q-18-18-37-19h-114q-10 0-13.5 6z"/><glyph unicode="Ï" horiz-adv-x="942" d="M88 20v123q0 20 21 21h276v1106h-256q-20 0-20 20v123q0 20 20 21h684q20 0 21-21v-123q0-20-21-20h-256v-1106h277q20 0 20-21v-123q0-20-20-20h-725q-21 0-21 20zm127 1639v160q0 20 21 20h159q20 0 21-20v-160q0-20-21-21h-159q-21 1-21 21zm328 0v160q0 20 20 20h160q20 0 20-20v-160q0-20-20-21h-160q-20 1-20 21z"/><glyph unicode="Ð" horiz-adv-x="1302" d="M57 657v119q0 20 21 21h151v616q0 20 21 21h346q276 0 442-180.5t166-537-166-536.5-442-180h-346q-20 0-21 20v617h-151q-21 0-21 20zm344-493h170q213 0 333 137t120 415.5-120 416-333 137.5h-170v-473h263q20 0 20-21v-119q0-20-20-20h-263v-473z"/><glyph unicode="Ñ" horiz-adv-x="1259" d="M156 20v1393q0 20 20 21h166q27 0 33-17l557-1122v1118q0 20 20 21h131q20 0 21-21v-1393q0-20-21-20h-165q-27 0-33 16l-557 1123v-1119q0-20-21-20h-131q-20 0-20 20zm123 1721q0 12 12 20 104 78 207 78 84 0 146.5-42t111.5-42q45 0 123 51 8 4 14 4 12 0 22-16l54-80q6-12 6-16 0-10-12-21-104-78-207-78-84 0-146.5 42t-111.5 42q-45 0-123-51-8-4-15-4-12 0-22 17l-53 79q-6 13-6 17z"/><glyph unicode="Ò" horiz-adv-x="1355" d="M98 716.5q0 354.5 165 546t415 191.5 414.5-191.5 164.5-546-164.5-545.5-414.5-191-415 191-165 545.5zm181 0q0-276.5 107.5-425t291.5-148.5 291.5 148.5 107.5 425-107.5 425-291.5 148.5-291.5-148.5-107.5-425zm152 1116.5q3 6 13 6h185q18 0 30-20l142-258q12-20-10-21h-111q-20 0-37 19l-209 260q-6 8-3 14z"/><glyph unicode="Ó" horiz-adv-x="1355" d="M98 716.5q0 354.5 165 546t415 191.5 414.5-191.5 164.5-546-164.5-545.5-414.5-191-415 191-165 545.5zm181 0q0-276.5 107.5-425t291.5-148.5 291.5 148.5 107.5 425-107.5 425-291.5 148.5-291.5-148.5-107.5-425zm276 844.5l141 258q12 20 31 20h184q10 0 13.5-6t-2.5-14l-209-260q-16-18-37-19h-111q-22 1-10 21z"/><glyph unicode="Ô" horiz-adv-x="1355" d="M98 716.5q0 354.5 165 546t415 191.5 414.5-191.5 164.5-546-164.5-545.5-414.5-191-415 191-165 545.5zm181 0q0-276.5 107.5-425t291.5-148.5 291.5 148.5 107.5 425-107.5 425-291.5 148.5-291.5-148.5-107.5-425zm109 829.5q-3 6 3 15l207 262q14 16 31 16h98q16 0 31-16l207-262q6-8 3-14.5t-14-6.5h-114q-18 0-37 19l-125 129-125-129q-18-18-37-19h-115q-10 0-13 6z"/><glyph unicode="Õ" horiz-adv-x="1355" d="M98 716.5q0 354.5 165 546t415 191.5 414.5-191.5 164.5-546-164.5-545.5-414.5-191-415 191-165 545.5zm181 0q0-276.5 107.5-425t291.5-148.5 291.5 148.5 107.5 425-107.5 425-291.5 148.5-291.5-148.5-107.5-425zm51 1024.5q0 12 12 20 104 78 207 78 84 0 146.5-42t111.5-42q45 0 123 51 8 4 14 4 12 0 23-16l53-80q6-12 6-16 0-10-12-21-104-78-207-78-84 0-146.5 42t-111.5 42q-45 0-123-51-8-4-14-4-12 0-23 17l-53 79q-6 13-6 17z"/><glyph unicode="Ö" horiz-adv-x="1355" d="M98 716.5q0 354.5 165 546t415 191.5 414.5-191.5 164.5-546-164.5-545.5-414.5-191-415 191-165 545.5zm181 0q0-276.5 107.5-425t291.5-148.5 291.5 148.5 107.5 425-107.5 425-291.5 148.5-291.5-148.5-107.5-425zm135 942.5v160q0 20 20 20h160q20 0 20-20v-160q0-20-20-21h-160q-20 1-20 21zm327 0v160q0 20 21 20h160q20 0 20-20v-160q0-20-20-21h-160q-21 1-21 21z"/><glyph unicode="×" horiz-adv-x="966" d="M127 450.5q0 6.5 8 14.5l236 235-236 236q-8 8-8 14t8 15l84 84q8 8 14.5 8t14.5-8l235-236 236 236q8 8 14 8t15-8l83-84q8-8 8.5-14.5t-8.5-14.5l-235-236 235-235q8-8 8.5-14.5t-8.5-14.5l-83-84q-8-8-14.5-8t-14.5 8l-236 236-235-236q-8-8-14.5-8t-14.5 8l-84 84q-8 8-8 14.5z"/><glyph unicode="Ø" horiz-adv-x="1355" d="M98 717q0 354 165 545.5t415 191.5q174 0 311-96l96 164q8 12 17 12 4 0 12-4l55-33q12-6 13-14 0-6-4-15l-107-182q186-201 186-569 0-354-164.5-545.5t-414.5-191.5q-174 0-311 96l-97-164q-8-12-16-12-4 0-12 4l-56 33q-12 6-12 14 0 6 4 14l107 182q-187 201-187 570zm181 0q0-256 98-410l528 905q-96 78-227 78-184 0-291.5-148.5t-107.5-424.5zm172-496q94-78 227-78 184 0 291.5 148.5t107.5 425.5q0 256-98 409z"/><glyph unicode="Ù" d="M121 489v924q0 20 20 21h131q20 0 21-21v-901q0-369 290.5-369t290.5 369v901q0 20 21 21h131q20 0 21-21v-924q0-238-125-373.5t-338-135.5-338 135.5-125 373.5zm224 1344q3 6 13 6h185q18 0 30-20l142-258q12-20-10-21h-111q-20 0-37 19l-209 260q-6 8-3 14z"/><glyph unicode="Ú" d="M121 489v924q0 20 20 21h131q20 0 21-21v-901q0-369 290.5-369t290.5 369v901q0 20 21 21h131q20 0 21-21v-924q0-238-125-373.5t-338-135.5-338 135.5-125 373.5zm334 1072l141 258q12 20 31 20h184q10 0 13-6t-3-14l-209-260q-14-18-37-19h-110q-22 1-10 21z"/><glyph unicode="Û" d="M121 489v924q0 20 20 21h131q20 0 21-21v-901q0-369 290.5-369t290.5 369v901q0 20 21 21h131q20 0 21-21v-924q0-238-125-373.5t-338-135.5-338 135.5-125 373.5zm173 1057q-3 6 3 15l207 262q14 16 31 16h98q16 0 31-16l206-262q6-8 3-14.5t-13-6.5h-115q-18 0-36 19l-125 129-125-129q-18-18-37-19h-115q-10 0-13 6z"/><glyph unicode="Ü" d="M121 489v924q0 20 20 21h131q20 0 21-21v-901q0-369 290.5-369t290.5 369v901q0 20 21 21h131q20 0 21-21v-924q0-238-125-373.5t-338-135.5-338 135.5-125 373.5zm201 1170v160q0 20 20 20h160q20 0 20-20v-160q0-20-20-21h-160q-20 1-20 21zm327 0v160q0 20 21 20h159q20 0 21-20v-160q0-20-21-21h-159q-21 1-21 21z"/><glyph unicode="Ý" horiz-adv-x="950" d="M14 1413q-8 20 13 21h159q16 0 23-17l266-604 266 604q6 16 23 17h160q20 0 12-21l-375-805v-588q0-20-20-20h-131q-20 0-21 20v588zm357 148l141 258q12 20 31 20h184q10 0 13-6t-3-14l-209-260q-16-18-36-19h-111q-22 1-10 21z"/><glyph unicode="Þ" horiz-adv-x="1126" d="M156 20v1393q0 20 20 21h131q20 0 21-21v-297h270q221 0 339-105.5t118-294-118-294-339-105.5h-270v-297q0-20-21-20h-131q-20 0-20 20zm172 461h301q246 0 245.5 235.5t-245.5 235.5h-301v-471z"/><glyph unicode="ß" horiz-adv-x="1144" d="M23 897v111q0 20 20 20h137v66q0 147 103.5 253.5t271.5 106.5q170 0 262-87t92-224q0-72-30.5-129.5t-68.5-87-68.5-65.5-30.5-70.5 37.5-66.5 91-62.5 106.5-68.5 91-104.5 38-152.5q0-160-87-258t-253-98q-131 0-222 80.5t-93 203.5q0 20 20 21h111q18 0 20-21 12-61 55.5-97t108.5-36q80 0 126 51t46 150q0 72-36.5 120t-89.5 75l-104 57q-52 29-89 80t-37 127q0 49 20.5 90t50.5 69l58 55q29 26 49.5 59.5t20.5 70.5q0 76-54.5 122t-140.5 46q-102 0-158.5-64.5t-56.5-185.5v-1033q0-20-21-20h-118q-20 0-21 20v857h-137q-20 0-20 20z"/><glyph unicode="à" horiz-adv-x="1056" d="M84 305q0 164 119 253t301 89q135 0 268-43v51q0 242-248 242-168 0-229-156-6-18-29-18h-131q-14 0-14 12.5t2 20.5q33 123 137.5 208t263.5 85q178 0 293-98.5t115-254.5v-499q0-113 35-177 12-20-15-20h-159q-20 0-21 20v107q-106-147-313-147-156 0-265.5 83.5t-109.5 241.5zm168 0q0-80 58.5-127t164.5-47q123 0 210 87t87 235q-125 43-266 43-111 0-182.5-49.5t-71.5-141.5zm32 1122.5q3 6.5 13 6.5h184q18 0 31-21l141-258q12-20-10-20h-111q-20 0-36 18l-209 260q-6 8-3 14.5z"/><glyph unicode="á" horiz-adv-x="1056" d="M84 305q0 164 119 253t301 89q135 0 268-43v51q0 242-248 242-168 0-229-156-6-18-29-18h-131q-14 0-14 12.5t2 20.5q33 123 137.5 208t263.5 85q178 0 293-98.5t115-254.5v-499q0-113 35-177 12-20-15-20h-159q-20 0-21 20v107q-106-147-313-147-156 0-265.5 83.5t-109.5 241.5zm168 0q0-80 58.5-127t164.5-47q123 0 210 87t87 235q-125 43-266 43-111 0-182.5-49.5t-71.5-141.5zm156 850l141 258q12 20 31 21h184q10 0 13-6.5t-3-14.5l-209-260q-16-18-37-18h-110q-22 0-10 20z"/><glyph unicode="â" horiz-adv-x="1056" d="M84 305q0 164 119 253t301 89q135 0 268-43v51q0 242-248 242-168 0-229-156-6-18-29-18h-131q-14 0-14 12.5t2 20.5q33 123 137.5 208t263.5 85q178 0 293-98.5t115-254.5v-499q0-113 35-177 12-20-15-20h-159q-20 0-21 20v107q-106-147-313-147-156 0-265.5 83.5t-109.5 241.5zm159 836q-3 6 3 14l207 262q14 16 30 17h99q16 0 30-17l207-262q6-8 3-14t-13-6h-115q-18 0-37 18l-125 129-124-129q-18-18-37-18h-115q-10 0-13 6zm9-836q0-80 58.5-127t164.5-47q123 0 210 87t87 235q-125 43-266 43-111 0-182.5-49.5t-71.5-141.5z"/><glyph unicode="ã" horiz-adv-x="1056" d="M84 305q0 164 119 253t301 89q135 0 268-43v51q0 242-248 242-168 0-229-156-6-18-29-18h-131q-14 0-14 12.5t2 20.5q33 123 137.5 208t263.5 85q178 0 293-98.5t115-254.5v-499q0-113 35-177 12-20-15-20h-159q-20 0-21 20v107q-106-147-313-147-156 0-265.5 83.5t-109.5 241.5zm109 1030q0 12 12 21 104 78 207 78 84 0 146.5-42t111.5-42q45 0 123 51 8 4 14 4 12 0 22-16l54-80q6-12 6-17 0-10-12-20-104-78-207-78-84 0-146.5 42t-111.5 42q-45 0-123-51-8-4-15-4-12 0-22 16l-53 80q-6 12-6 16zm59-1030q0-80 58.5-127t164.5-47q123 0 210 87t87 235q-125 43-266 43-111 0-182.5-49.5t-71.5-141.5z"/><glyph unicode="ä" horiz-adv-x="1056" d="M84 305q0 164 119 253t301 89q135 0 268-43v51q0 242-248 242-168 0-229-156-6-18-29-18h-131q-14 0-14 12.5t2 20.5q33 123 137.5 208t263.5 85q178 0 293-98.5t115-254.5v-499q0-113 35-177 12-20-15-20h-159q-20 0-21 20v107q-106-147-313-147-156 0-265.5 83.5t-109.5 241.5zm168 0q0-80 58.5-127t164.5-47q123 0 210 87t87 235q-125 43-266 43-111 0-182.5-49.5t-71.5-141.5zm4 948v160q0 20 20 21h160q20 0 21-21v-160q0-20-21-20h-160q-20 0-20 20zm328 0v160q0 20 20 21h160q20 0 20-21v-160q0-20-20-20h-160q-20 0-20 20z"/><glyph unicode="å" horiz-adv-x="1056" d="M84 305q0 164 119 253t301 89q135 0 268-43v51q0 242-248 242-168 0-229-156-6-18-29-18h-131q-14 0-14 12.5t2 20.5q33 123 137.5 208t263.5 85q178 0 293-98.5t115-254.5v-499q0-113 35-177 12-20-15-20h-159q-20 0-21 20v107q-106-147-313-147-156 0-265.5 83.5t-109.5 241.5zm168 0q0-80 58.5-127t164.5-47q123 0 210 87t87 235q-125 43-266 43-111 0-182.5-49.5t-71.5-141.5zm106 997.5q0 75.5 50.5 124t128 48.5 128-48.5 50.5-124-50.5-124-128-48.5-128 48.5-50.5 124zm99 0q0-36.5 22.5-59t57-22.5 57 22.5 22.5 59-22.5 59-57 22.5-57-22.5-22.5-59z"/><glyph unicode="æ" horiz-adv-x="1820" d="M84 305q0 164 119 253t301 89q135 0 268-43v51q0 242-248 242-168 0-229-156-6-18-29-18h-131q-14 0-14 12.5t2 20.5q33 123 137.5 208t263.5 85q121 0 216.5-48.5t144.5-132.5q139 180 377 181 223 0 348-155t125-380v-29q0-20-21-20h-770q12-152 93-243t225-91q111 0 177 45t103 143q6 18 29 19h133q14 0 14-14 0-8-4-21-111-324-452-323-291 0-422 225-125-225-381-225-156 0-265.5 83.5t-109.5 241.5zm168 0q0-80 58.5-127t164.5-47q123 0 210 87t87 235q-125 43-266 43-111 0-182.5-49.5t-71.5-141.5zm700 311h611q-25 127-108 204t-193 77q-117 0-201-76t-109-205z"/><glyph unicode="ç" horiz-adv-x="1101" d="M84 514q0 233 134 384t360 151q176 0 287.5-90.5t152.5-251.5q2-8 2-20.5t-14-12.5h-125q-25 0-29 18-29 94-101.5 149.5t-172.5 55.5q-145 0-235.5-107.5t-90.5-275.5 90-275.5 236-107.5q100 0 172.5 55.5t101.5 149.5q4 18 29 18h125q14 0 14-12t-2-20q-41-160-147.5-249t-276.5-93l-47-105q51 14 102 14 82 0 129-39.5t47-105.5q0-170-219-170-98 0-184 20-20 6-21 21v59q0 20 21 21 6 0 27.5-5t60.5-11.5 90-6.5q90 0 90 63.5t-90 63.5q-59 0-117-14-6-2-12-2-10 0-16 6l-25 25q-4 4-4 12 0 6 2 12l49 152q-182 33-287.5 175t-105.5 349z"/><glyph unicode="è" horiz-adv-x="1132" d="M84 514q0 229 136 382t353 153q223 0 348.5-155t125.5-380v-29q0-20-21-20h-770q12-152 93-243t224-91q111 0 177.5 45t103.5 143q6 18 29 19h133q14 0 14-14 0-8-4-21-111-324-453-323-231 0-360 149t-129 385zm180 102h610q-25 127-107.5 204t-193.5 77q-117 0-200.5-76t-108.5-205zm34 811.5q3 6.5 13 6.5h185q18 0 30-21l142-258q12-20-11-20h-110q-23 0-37 18l-209 260q-6 8-3 14.5z"/><glyph unicode="é" horiz-adv-x="1132" d="M84 514q0 229 136 382t353 153q223 0 348.5-155t125.5-380v-29q0-20-21-20h-770q12-152 93-243t224-91q111 0 177.5 45t103.5 143q6 18 29 19h133q14 0 14-14 0-8-4-21-111-324-453-323-231 0-360 149t-129 385zm180 102h610q-25 127-107.5 204t-193.5 77q-117 0-200.5-76t-108.5-205zm193 539l141 258q12 20 31 21h184q10 0 13-6.5t-3-14.5l-209-260q-16-18-36-18h-111q-22 0-10 20z"/><glyph unicode="ê" horiz-adv-x="1132" d="M84 514q0 229 136 382t353 153q223 0 348.5-155t125.5-380v-29q0-20-21-20h-770q12-152 93-243t224-91q111 0 177.5 45t103.5 143q6 18 29 19h133q14 0 14-14 0-8-4-21-111-324-453-323-231 0-360 149t-129 385zm180 102h610q-25 127-107.5 204t-193.5 77q-117 0-200.5-76t-108.5-205zm24 525q-3 6 3 14l207 262q14 16 30 17h99q16 0 30-17l207-262q6-8 3-14t-13-6h-115q-18 0-37 18l-124 129-125-129q-18-18-37-18h-115q-10 0-13 6z"/><glyph unicode="ë" horiz-adv-x="1132" d="M84 514q0 229 136 382t353 153q223 0 348.5-155t125.5-380v-29q0-20-21-20h-770q12-152 93-243t224-91q111 0 177.5 45t103.5 143q6 18 29 19h133q14 0 14-14 0-8-4-21-111-324-453-323-231 0-360 149t-129 385zm180 102h610q-25 127-107.5 204t-193.5 77q-117 0-200.5-76t-108.5-205zm47 637v160q0 20 21 21h160q20 0 20-21v-160q0-20-20-20h-160q-21 0-21 20zm328 0v160q0 20 20 21h160q20 0 21-21v-160q0-20-21-20h-160q-20 0-20 20z"/><glyph unicode="ì" horiz-adv-x="862" d="M53 20v111q0 20 21 21h272v729h-221q-20 0-21 20v107q0 20 21 20h360q20 0 21-20v-856h282q20 0 21-21v-111q0-20-21-20h-714q-21 0-21 20zm71 1407.5q3 6.5 13 6.5h185q18 0 30-21l142-258q12-20-11-20h-110q-20 0-37 18l-209 260q-6 8-3 14.5z"/><glyph unicode="í" horiz-adv-x="862" d="M53 20v111q0 20 21 21h272v729h-221q-20 0-21 20v107q0 20 21 20h360q20 0 21-20v-856h282q20 0 21-21v-111q0-20-21-20h-714q-21 0-21 20zm178 1135l142 258q12 20 30 21h185q10 0 13-6.5t-3-14.5l-209-260q-16-18-37-18h-110q-23 0-11 20z"/><glyph unicode="î" horiz-adv-x="862" d="M53 20v111q0 20 21 21h272v729h-221q-20 0-21 20v107q0 20 21 20h360q20 0 21-20v-856h282q20 0 21-21v-111q0-20-21-20h-714q-21 0-21 20zm73 1121q-3 6 3 14l207 262q14 16 31 17h98q16 0 31-17l206-262q6-8 3-14t-13-6h-114q-18 0-37 18l-125 129-125-129q-18-18-37-18h-115q-10 0-13 6z"/><glyph unicode="ï" horiz-adv-x="862" d="M53 20v111q0 20 21 21h272v729h-221q-20 0-21 20v107q0 20 21 20h360q20 0 21-20v-856h282q20 0 21-21v-111q0-20-21-20h-714q-21 0-21 20zm99 1233v160q0 20 20 21h160q20 0 20-21v-160q0-20-20-20h-160q-20 0-20 20zm327 0v160q0 20 21 21h159q20 0 21-21v-160q0-20-21-20h-159q-21 0-21 20z"/><glyph unicode="ð" horiz-adv-x="1130" d="M84 514q0 244 130 389.5t345 145.5q178 0 279-121-37 164-162 241l-217-84q-20-8-27 11l-37 96q-8 16 13 27l106 41q-68 23-195 36-20 4-16 29l19 105q2 14 28 14 215-25 369-109l190 76q20 8 27-10l37-96q6-20-12-27l-115-45q201-205 201-612 0-322-132.5-481.5t-349.5-159.5q-209 0-345 147t-136 387zm168 0q0-178 80-280.5t233-102.5q141 0 227.5 103.5t86.5 279.5q0 172-86 277.5t-228 105.5q-154 0-233.5-102.5t-79.5-280.5z"/><glyph unicode="ñ" horiz-adv-x="1069" d="M143 20v988q0 20 21 20h119q20 0 20-20v-123q51 70 138 117t186 47q150 0 230.5-88.5t80.5-245.5v-695q0-20-20-20h-119q-20 0-21 20v658q0 104-50 161.5t-146 57.5q-113 0-196-99.5t-83-256.5v-521q0-20-20-20h-119q-21 0-21 20zm37 1315q0 12 13 21 104 78 206 78 84 0 146.5-42t111.5-42q45 0 123 51 8 4 15 4 12 0 22-16l53-80q6-12 7-17 0-10-13-20-104-78-207-78-84 0-146 42t-112 42q-45 0-123-51-8-4-14-4-12 0-22 16l-54 80q-6 12-6 16z"/><glyph unicode="ò" d="M84 514q0 240 140.5 387.5t359.5 147.5 359-147.5 140-387.5-140-387-359-147-359.5 147-140.5 387zm168 0q0-168 92-275.5t239.5-107.5 239.5 107.5 92 275.5-92 275.5-239.5 107.5-239.5-107.5-92-275.5zm58 913.5q3 6.5 14 6.5h184q18 0 31-21l141-258q12-20-10-20h-111q-23 0-37 18l-209 260q-6 8-3 14.5z"/><glyph unicode="ó" d="M84 514q0 240 140.5 387.5t359.5 147.5 359-147.5 140-387.5-140-387-359-147-359.5 147-140.5 387zm168 0q0-168 92-275.5t239.5-107.5 239.5 107.5 92 275.5-92 275.5-239.5 107.5-239.5-107.5-92-275.5zm201 641l141 258q12 20 31 21h184q10 0 13-6.5t-3-14.5l-209-260q-16-18-37-18h-110q-22 0-10 20z"/><glyph unicode="ô" d="M84 514q0 240 140.5 387.5t359.5 147.5 359-147.5 140-387.5-140-387-359-147-359.5 147-140.5 387zm168 0q0-168 92-275.5t239.5-107.5 239.5 107.5 92 275.5-92 275.5-239.5 107.5-239.5-107.5-92-275.5zm42 627q-3 6 3 14l207 262q14 16 31 17h98q16 0 31-17l206-262q6-8 3-14t-13-6h-115q-18 0-36 18l-125 129-125-129q-18-18-37-18h-115q-10 0-13 6z"/><glyph unicode="õ" d="M84 514q0 240 140.5 387.5t359.5 147.5 359-147.5 140-387.5-140-387-359-147-359.5 147-140.5 387zm152 821q0 12 12 21 104 78 207 78 84 0 146.5-42t111.5-42q45 0 123 51 8 4 14 4 12 0 22-16l54-80q6-12 6-17 0-10-12-20-104-78-207-78-84 0-146.5 42t-111.5 42q-45 0-123-51-8-4-15-4-12 0-22 16l-53 80q-6 12-6 16zm16-821q0-168 92-275.5t239.5-107.5 239.5 107.5 92 275.5-92 275.5-239.5 107.5-239.5-107.5-92-275.5z"/><glyph unicode="ö" d="M84 514q0 240 140.5 387.5t359.5 147.5 359-147.5 140-387.5-140-387-359-147-359.5 147-140.5 387zm168 0q0-168 92-275.5t239.5-107.5 239.5 107.5 92 275.5-92 275.5-239.5 107.5-239.5-107.5-92-275.5zm67 739v160q0 20 21 21h160q20 0 20-21v-160q0-20-20-20h-160q-21 0-21 20zm328 0v160q0 20 21 21h159q20 0 21-21v-160q0-20-21-20h-159q-21 0-21 20z"/><glyph unicode="÷" horiz-adv-x="1105" d="M119 414v118q0 20 20 21h828q20 0 20-21v-118q0-20-20-21h-828q-20 1-20 21zm327-394v168q0 20 21 21h168q20 0 20-21v-168q0-20-20-20h-168q-21 0-21 20zm0 758v168q0 20 21 21h168q20 0 20-21v-168q0-20-20-20h-168q-21 0-21 20z"/><glyph unicode="ø" d="M84 514q0 240 140.5 387.5t359.5 147.5q117 0 221-50l65 113q10 12 17 12 4 0 12-4l55-33q12-8 13-16 0-4-4-12l-68-115q188-152 188-430 0-240-140-387t-359-147q-117 0-222 49l-65-113q-10-12-16-12-4 0-13 4l-55 33q-12 8-12 16 0 4 4 12l67 115q-188 151-188 430zm168 0q0-176 104-287l369 637q-66 33-141 33-147 0-239.5-107.5t-92.5-275.5zm190-350q66-33 142-33 147 0 239 107.5t92 275.5q0 176-104 287z"/><glyph unicode="ù" horiz-adv-x="1069" d="M131 313v695q0 20 21 20h118q20 0 21-20v-658q0-104 50-161.5t146-57.5q113 0 196 99.5t83 256.5v521q0 20 20 20h119q20 0 21-20v-988q0-20-21-20h-119q-20 0-20 20v123q-51-70-138-116.5t-186-46.5q-311-1-311 333zm198 1114.5q3 6.5 13 6.5h184q18 0 31-21l141-258q12-20-10-20h-110q-20 0-37 18l-209 260q-6 8-3 14.5z"/><glyph unicode="ú" horiz-adv-x="1069" d="M131 313v695q0 20 21 20h118q20 0 21-20v-658q0-104 50-161.5t146-57.5q113 0 196 99.5t83 256.5v521q0 20 20 20h119q20 0 21-20v-988q0-20-21-20h-119q-20 0-20 20v123q-51-70-138-116.5t-186-46.5q-311-1-311 333zm199 842l141 258q12 20 31 21h184q10 0 13-6.5t-3-14.5l-209-260q-16-18-36-18h-111q-22 0-10 20z"/><glyph unicode="û" horiz-adv-x="1069" d="M131 313v695q0 20 21 20h118q20 0 21-20v-658q0-104 50-161.5t146-57.5q113 0 196 99.5t83 256.5v521q0 20 20 20h119q20 0 21-20v-988q0-20-21-20h-119q-20 0-20 20v123q-51-70-138-116.5t-186-46.5q-311-1-311 333zm93 828q-3 6 3 14l207 262q14 16 31 17h98q16 0 31-17l207-262q6-8 3-14t-13-6h-115q-18 0-37 18l-125 129-125-129q-18-18-37-18h-114q-11 0-14 6z"/><glyph unicode="ü" horiz-adv-x="1069" d="M131 313v695q0 20 21 20h118q20 0 21-20v-658q0-104 50-161.5t146-57.5q113 0 196 99.5t83 256.5v521q0 20 20 20h119q20 0 21-20v-988q0-20-21-20h-119q-20 0-20 20v123q-51-70-138-116.5t-186-46.5q-311-1-311 333zm133 940v160q0 20 21 21h159q20 0 21-21v-160q0-20-21-20h-159q-21 0-21 20zm328 0v160q0 20 20 21h160q20 0 21-21v-160q0-20-21-20h-160q-20 0-20 20z"/><glyph unicode="ý" horiz-adv-x="919" d="M20-250q0 20 17 21 8 0 51-22.5t96-22.5q76 0 122 63.5t85 206.5l-360 999q-4 12-4 17 0 16 16 16h147q20 0 27-20l254-781 242 781q6 20 26 20h142q16 0 16-14 0-8-2-15l-363-1099q-61-186-140-256t-199-70q-80 0-152 33-20 12-21 33v110zm326 1405l141 258q12 20 31 21h184q10 0 13.5-6.5t-2.5-14.5l-209-260q-16-18-37-18h-111q-22 0-10 20z"/><glyph unicode="þ" horiz-adv-x="1144" d="M143-385v1798q0 20 21 21h119q20 0 20-21v-502q55 61 139 99.5t179 38.5q201 0 320.5-144.5t119.5-390.5-120-390-320-144q-211 0-318 137v-502q0-20-20-21h-119q-21 1-21 21zm144 899q0-168 79.5-275.5t221-107.5 223.5 108.5 82 274.5-82 274.5-223.5 108.5-221-107.5-79.5-275.5z"/><glyph unicode="ÿ" horiz-adv-x="919" d="M20-250q0 20 17 21 8 0 51-22.5t96-22.5q76 0 122 63.5t85 206.5l-360 999q-4 12-4 17 0 16 16 16h147q20 0 27-20l254-781 242 781q6 20 26 20h142q16 0 16-14 0-8-2-15l-363-1099q-61-186-140-256t-199-70q-80 0-152 33-20 12-21 33v110zm175 1503v160q0 20 20 21h160q20 0 20-21v-160q0-20-20-20h-160q-20 0-20 20zm327 0v160q0 20 21 21h159q20 0 21-21v-160q0-20-21-20h-159q-21 0-21 20z"/><glyph unicode="Œ" horiz-adv-x="1513" d="M98 716.5q0 356.5 154 537t407 180.5h709q20 0 21-21v-123q0-20-21-20h-537v-434h474q20 0 20-21v-123q0-20-20-20h-474v-508h551q20 0 21-21v-123q0-20-21-20h-723q-254 0-407.5 180t-153.5 536.5zm181 0q0-276.5 98-414.5t282-138v1106q-184 0-282-138.5t-98-415z"/><glyph unicode="œ" horiz-adv-x="1964" d="M84 514q0 240 140.5 387.5t359.5 147.5q133 0 241.5-58.5t173.5-163.5q137 221 406 222 223 0 348-155t125-380v-29q0-20-20-20h-771q12-152 93.5-243t224.5-91q111 0 177.5 45t103.5 143q6 18 28 19h133q14 0 15-14 0-8-4-21-111-324-453-323-281 0-410 215-68-102-174-158.5t-237-56.5q-219 0-359.5 147t-140.5 387zm168 0q0-168 92-275.5t239.5-107.5 239.5 107.5 92 275.5-92 275.5-239.5 107.5-239.5-107.5-92-275.5zm844 102h610q-25 127-107.5 204t-193.5 77q-117 0-200.5-76t-108.5-205z"/><glyph unicode="Ÿ" horiz-adv-x="950" d="M14 1413q-8 20 13 21h159q16 0 23-17l266-604 266 604q6 16 23 17h160q20 0 12-21l-375-805v-588q0-20-20-20h-131q-20 0-21 20v588zm197 246v160q0 20 20 20h160q20 0 21-20v-160q0-20-21-21h-160q-20 1-20 21zm328 0v160q0 20 20 20h160q20 0 20-20v-160q0-20-20-21h-160q-20 1-20 21z"/><glyph horiz-adv-x="940"/><glyph horiz-adv-x="1880"/><glyph horiz-adv-x="940"/><glyph horiz-adv-x="1880"/><glyph horiz-adv-x="626"/><glyph horiz-adv-x="470"/><glyph horiz-adv-x="313"/><glyph horiz-adv-x="313"/><glyph horiz-adv-x="235"/><glyph horiz-adv-x="376"/><glyph horiz-adv-x="104"/><glyph unicode="‐" horiz-adv-x="1007" d="M119 641v119q0 20 20 20h729q20 0 21-20v-119q0-20-21-20h-729q-20 0-20 20z"/><glyph unicode="‑" horiz-adv-x="1007" d="M119 641v119q0 20 20 20h729q20 0 21-20v-119q0-20-21-20h-729q-20 0-20 20z"/><glyph unicode="‒" horiz-adv-x="1007" d="M119 641v119q0 20 20 20h729q20 0 21-20v-119q0-20-21-20h-729q-20 0-20 20z"/><glyph unicode="–" horiz-adv-x="1105" d="M119 641v119q0 20 20 20h828q20 0 20-20v-119q0-20-20-20h-828q-20 0-20 20z"/><glyph unicode="—" horiz-adv-x="1335" d="M119 641v119q0 20 20 20h1057q20 0 21-20v-119q0-20-21-20h-1057q-20 0-20 20z"/><glyph unicode="‘" horiz-adv-x="423" d="M106 1008v237q0 86 48.5 137.5t124.5 51.5h30q20 0 21-21v-45q0-20-21-20-61 0-82.5-27t-21.5-90v-35h90q20 0 20-20v-168q0-20-20-21h-168q-21 1-21 21z"/><glyph unicode="’" horiz-adv-x="423" d="M94 1008v45q0 20 21 20 61 0 82.5 26.5t21.5 90.5v35h-90q-20 0-20 20v168q0 20 20 21h168q20 0 20-21v-237q0-86-48-137.5t-124-51.5h-30q-21 1-21 21z"/><glyph unicode="‚" horiz-adv-x="423" d="M94-172q0 20 21 20 61 0 82.5 27t21.5 90v35h-90q-20 0-20 20v168q0 20 20 21h168q20 0 20-21v-237q0-86-48-137.5t-124-51.5h-30q-20 0-21 21v45z"/><glyph unicode="“" horiz-adv-x="763" d="M106 1008v237q0 86 48.5 137.5t124.5 51.5h30q20 0 21-21v-45q0-20-21-20-61 0-82.5-27t-21.5-90v-35h90q20 0 20-20v-168q0-20-20-21h-168q-21 1-21 21zm340 0v237q0 86 48.5 137.5t123.5 51.5h31q20 0 21-21v-45q0-20-21-20-61 0-82.5-27t-21.5-90v-35h90q20 0 20-20v-168q0-20-20-21h-168q-21 1-21 21z"/><glyph unicode="”" horiz-adv-x="763" d="M94 1008v45q0 20 21 20 61 0 82.5 26.5t21.5 90.5v35h-90q-20 0-20 20v168q0 20 20 21h168q20 0 20-21v-237q0-86-48-137.5t-124-51.5h-30q-21 1-21 21zm340 0v45q0 20 21 20 61 0 82.5 26.5t21.5 90.5v35h-90q-20 0-20 20v168q0 20 20 21h168q20 0 20-21v-237q0-86-48-137.5t-124-51.5h-30q-21 1-21 21z"/><glyph unicode="„" horiz-adv-x="763" d="M94-172q0 20 21 20 61 0 82.5 27t21.5 90v35h-90q-20 0-20 20v168q0 20 20 21h168q20 0 20-21v-237q0-86-48-137.5t-124-51.5h-30q-20 0-21 21v45zm340 0q0 20 21 20 61 0 82.5 27t21.5 90v35h-90q-20 0-20 20v168q0 20 20 21h168q20 0 20-21v-237q0-86-48-137.5t-124-51.5h-30q-20 0-21 21v45z"/><glyph unicode="•" horiz-adv-x="729" d="M152 668q0 88 62 150.5t150.5 62.5 151-62.5 62.5-150.5-62.5-150.5-151-62.5-150.5 62.5-62 150.5z"/><glyph unicode="…" horiz-adv-x="1378" d="M137 20v168q0 20 21 21h168q20 0 20-21v-168q0-20-20-20h-168q-21 0-21 20zm445 0v168q0 20 20 21h168q20 0 21-21v-168q0-20-21-20h-168q-20 0-20 20zm444 0v168q0 20 21 21h167q20 0 21-21v-168q0-20-21-20h-167q-21 0-21 20z"/><glyph horiz-adv-x="376"/><glyph unicode="‹" horiz-adv-x="618" d="M66 504v114q0 18 20 37l418 387q6 6 12 7 12 0 12-15v-172q0-20-14-33l-289-268 289-268q14-12 14-33v-172q0-14-12-14-6 0-12 6l-418 387q-20 19-20 37z"/><glyph unicode="›" horiz-adv-x="618" d="M90 88v172q0 20 14 33l289 268-289 268q-14 12-14 33v172q0 14 12 15 6 0 13-7l417-387q20-18 21-37v-114q0-18-21-37l-417-387q-6-6-13-6-12 0-12 14z"/><glyph horiz-adv-x="470"/><glyph unicode="€" horiz-adv-x="1304" d="M45 469v119q0 20 21 20h114q-6 51-6 108.5t6 108.5h-114q-20 0-21 21v119q0 20 21 20h137q51 225 185 347t319 122q215 0 346-142.5t151-369.5q0-20-20-20h-127q-18 0-21 20-43 352-329 352-264 0-336-309h432q20 0 20-20v-119q0-20-20-21h-455q-2-33-2-108.5t2-108.5h455q20 0 20-20v-119q0-20-20-20h-432q72-309 336-310 287 0 329 353 2 20 21 20h127q20 0 20-20-20-227-151-369.5t-346-142.5q-184 0-318.5 121.5t-185.5 347.5h-137q-21 0-21 20z"/><glyph unicode="™" horiz-adv-x="1349" d="M43 1343v70q0 20 20 21h455q20 0 21-21v-70q0-20-21-20h-170v-635q0-20-20-20h-74q-20 0-21 20v635h-170q-20 0-20 20zm578-655v725q0 20 20 21h125q18 0 25-17l151-375 152 375q6 16 24 17h125q20 0 21-21v-725q0-20-21-20h-74q-20 0-20 20v582l-160-387q-6-12-16-13h-62q-10 0-16 13l-160 387v-582q0-20-20-20h-74q-20 0-20 20z"/><glyph unicode="◼" horiz-adv-x="1030" d="M0 0v1030h1030v-1030h-1030z"/></font>
</defs>
</svg>
