<svg xmlns="http://www.w3.org/2000/svg"><defs><font horiz-adv-x="1538"><font-face units-per-em="2048" ascent="1638" descent="-410"/><glyph unicode="ﬁ" horiz-adv-x="1323" d="M33 827l35 181q2 20 24 20h160l16 88q31 170 135.5 254t258.5 84q123 0 215-43 12-4 12-16 0-8-2-19l-33-172q-4-20-18-20-6 0-15 4-90 45-159 45-117 0-144-137l-12-68h278q16 0 17-20l-35-181q-2-20-25-20h-278l-154-787q-2-20-24-20h-213q-16 0-17 20l154 787h-160q-16 0-16 20zm737-807l191 988q2 20 24 20h213q16 0 16-20l-192-988q-2-20-29-20h-207q-16 0-16 20zm209 1160l47 233q2 20 25 21h241q16 0 17-21l-47-233q-2-20-25-21h-242q-16 1-16 21z"/><glyph unicode="ﬂ" horiz-adv-x="1300" d="M33 827l35 181q2 20 24 20h160l16 88q31 170 135.5 254t258.5 84q123 0 215-43 12-4 12-16 0-8-2-19l-33-172q-4-20-18-20-6 0-15 4-90 45-159 45-117 0-144-137l-12-68h278q16 0 17-20l-35-181q-2-20-25-20h-278l-154-787q-2-20-24-20h-213q-16 0-17 20l154 787h-160q-16 0-16 20zm739-807l270 1393q2 20 25 21h213q16 0 16-21l-272-1393q-2-20-25-20h-213q-14 0-14 20z"/><glyph horiz-adv-x="0"/><glyph horiz-adv-x="0"/><glyph horiz-adv-x="475"/><glyph horiz-adv-x="475"/><glyph horiz-adv-x="475"/><glyph unicode="!" horiz-adv-x="718" d="M94 20l47 238q2 20 25 21h246q16 0 16-21l-47-238q-2-20-25-20h-245q-17 0-17 20zm90 396l195 997q2 20 24 21h222q16 0 16-21l-195-997q-2-20-24-21h-221q-17 1-17 21z"/><glyph unicode=""" horiz-adv-x="782" d="M102 954l88 459q2 20 25 21h205q16 0 16-21l-88-459q-2-20-24-20h-205q-17 0-17 20zm390 0l88 459q2 20 24 21h205q16 0 16-21l-88-459q-2-20-24-20h-205q-16 0-16 20z"/><glyph unicode="#" horiz-adv-x="1533" d="M45 426l39 197q2 20 25 20h264l55 148h-211q-16 0-16 20l39 197q2 20 24 20h250l143 385q6 20 27 21h205q20 0 14-21l-143-385h248l143 385q6 20 27 21h208q20 0 15-21l-144-385h228q16 0 16-20l-39-197q-2-20-24-20h-267l-55-148h213q16 0 17-20l-39-197q-2-20-25-20h-252l-141-386q-6-20-27-20h-209q-20 0-14 20l141 386h-248l-141-386q-6-20-26-20h-205q-20 0-15 20l142 386h-226q-16 0-16 20zm573 217h248l56 148h-248z"/><glyph unicode="$" horiz-adv-x="1206" d="M4 403q0 18 4 60 2 20 23 20h223q16 0 16-20v-19q0-150 127-204l78 405q-170 55-252 140t-82 231q0 188 140.5 304t351.5 132l33 166q2 20 24 20h197q16 0 16-20l-37-184q147-35 224-133.5t77-227.5q0-31-2-47-2-20-24-20h-223q-16 0-17 20 0 109-82 156l-71-367q178-57 267-134t89-218q0-223-141.5-344t-376.5-137l-33-166q-2-20-25-21h-196q-16 0-17 21l35 180q-164 37-255 146t-91 261zm404 652q0-96 116-158l62 313q-76-12-127-50.5t-51-104.5zm225-830q201 37 201 205 0 86-134 143z"/><glyph unicode="%" horiz-adv-x="1746" d="M121 113q0 6 8 14l1374 1300q6 6 14.5 6.5t14.5-6.5l84-92q6-6 6-14 0-6-8-14l-1374-1301q-6-6-14.5-6t-14.5 6l-84 92q-6 7-6 15zm4 897q0 186 121 305t307 119q137 0 229-90.5t92-219.5q0-186-120.5-305t-307.5-119q-137 0-229 90.5t-92 219.5zm199 22q0-70 42-109.5t103-39.5q92 0 149.5 65.5t57.5 153.5q0 70-42 109.5t-104 39.5q-92 0-149-65.5t-57-153.5zm538-723q0 186 121 305t307 119q137 0 229.5-90t92.5-219q0-186-121-305t-307-119q-137 0-229.5 90t-92.5 219zm199 23q0-70 42-110t103-40q92 0 149.5 65.5t57.5 153.5q0 70-42 110t-103 40q-92 0-149.5-65.5t-57.5-153.5z"/><glyph unicode="&" horiz-adv-x="1376" d="M43 348q0 315 371 494-51 117-52 235 0 158 113 267.5t293 109.5q166 0 252-79t86-204q0-231-264-358l-109-53 135-258q43 96 68 227 2 18 22 19h355q16 0 16-21l-33-172q-2-20-24-20h-164q-47-154-117-265l125-237q4-8 4-19 0-14-20-14h-234q-14 0-22 18l-33 64q-152-102-381-102-172 0-279.5 97t-107.5 271zm246 21q0-74 48-121t128-47q137 0 242 78l-199 378q-109-59-164-125.5t-55-162.5zm303 714q0-57 45-141l84 37q141 63 141 166 0 45-31.5 70.5t-82.5 25.5q-66 0-111-45t-45-113z"/><glyph unicode="'" horiz-adv-x="393" d="M102 954l88 459q2 20 25 21h205q16 0 16-21l-88-459q-2-20-24-20h-205q-17 0-17 20z"/><glyph unicode="(" horiz-adv-x="792" d="M68 113q0 102 28 249l60 306q61 313 173.5 469.5t354.5 306.5q20 12 27-2l120-170q12-16-6-29-125-94-180-142t-111.5-123-84-159-54.5-225l-30-158q-39-201-39-291 0-109 43-187.5t147-199.5q14-14-2-28l-158-142q-16-14-30-2-135 127-196.5 247t-61.5 280z"/><glyph unicode=")" horiz-adv-x="792" d="M-109-242q-12 16 7 29 125 94 180 142t111.5 123 84 159 54.5 225l30 158q39 201 39 291 0 109-43 187.5t-147 199.5q-14 14 2 28l158 142q16 14 30 2 135-127 196.5-247t61.5-279q0-102-28-250l-60-306q-61-313-173.5-469.5t-354.5-306.5q-20-12-27 2z"/><glyph unicode="*" horiz-adv-x="919" d="M145 1085q0 2 5 15l61 162q6 14 18 14 6 0 13-2l190-66 43 205q2 20 25 21h168q16 0 16-21l-37-205 189 62q6 2 12 2 10 0 16-15l49-157q0-20-18-27l-225-76 92-155q4-8 4-15 0-10-14-18l-142-94q-6-4-14-4t-16 10l-101 162-149-174q-8-8-14.5-8.5t-14.5 6.5l-125 100q-10 8-10 18 0 8 8 17l156 168-172 63q-13 4-13 12z"/><glyph unicode="+" horiz-adv-x="1202" d="M102 606l35 189q2 20 25 20h344l67 346q2 20 25 21h193q16 0 16-21l-68-346h344q16 0 17-20l-35-189q-2-20-25-20h-344l-67-346q-2-20-25-21h-192q-16 0-17 21l68 346h-344q-17 0-17 20z"/><glyph unicode="," horiz-adv-x="559" d="M-16-217l16 86q2 20 25 20 51 0 75.5 20.5t34.5 65.5l4 25h-102q-16 0-17 20l43 222q2 20 25 20h221q16 0 17-20l-54-281q-37-199-217-199h-55q-16 1-16 21z"/><glyph unicode="-" horiz-adv-x="1075" d="M98 606l35 189q2 20 25 20h803q16 0 16-20l-35-189q-2-20-24-20h-803q-17 0-17 20z"/><glyph unicode="." horiz-adv-x="559" d="M20 20l41 222q2 20 25 20h221q16 0 17-20l-41-222q-2-20-25-20h-221q-17 0-17 20z"/><glyph unicode="/" horiz-adv-x="1032" d="M-157 6q-3 6 3 14l983 1393q14 20 39 21h222q10 0 13-6.5t-3-14.5l-983-1393q-14-20-39-20h-221q-11 0-14 6z"/><glyph unicode="0" horiz-adv-x="1288" d="M53 543q0 162 45 320.5t130 291.5 225.5 216 314.5 83q223 0 345-139t122-424q0-162-45-320.5t-130-292-225.5-216-314.5-82.5q-223 0-345 139t-122 424zm262 6q0-328 234-328 135 0 235.5 108.5t144.5 256 44 299.5q0 328-234 327-135 0-235.5-108.5t-144.5-255.5-44-299z"/><glyph unicode="1" horiz-adv-x="798" d="M92 981l43 229q2 18 29 31l371 182q16 10 34 11h129q16 0 17-21l-273-1393q-2-20-24-20h-217q-16 0-17 20l211 1086-270-137q-12-6-21-6-12 0-12 18z"/><glyph unicode="2" horiz-adv-x="1236" d="M-6 20l31 162q6 29 30 47l635 502q199 156 199 305 0 82-51.5 129t-147.5 47q-92 0-161.5-57t-98.5-162q-10-31-33-30h-188q-25 0-25 30 35 205 180.5 333t356.5 128q207 0 316.5-100.5t109.5-266.5q0-158-70.5-273.5t-218.5-235.5l-414-336h564q16 0 16-21l-39-201q-2-20-24-20h-951q-16 0-16 20z"/><glyph unicode="3" horiz-adv-x="1222" d="M43 391q0 33 2 55 2 35 33 35h190q25 0 25-26-2-18-2-33 0-104 65.5-152.5t169.5-48.5q119 0 199 67.5t80 180.5q0 88-52.5 131t-172.5 43h-113q-18 0-18 23l36 196q4 23 27 23h113q106 0 175.5 51t69.5 141q0 63-45 99t-133 36q-82 0-149.5-46t-102.5-134q-8-25-30-24h-191q-25 0-24 34 43 188 184 300t333.5 112 302-90 109.5-246q0-102-52-192t-152-150q147-74 147-289 0-231-154.5-369t-408.5-138q-213 0-337 110.5t-124 300.5z"/><glyph unicode="4" horiz-adv-x="1204" d="M-20 258l28 158q4 25 25 47l817 954q12 16 31 17h176q16 0 16-21l-182-934h192q16 0 17-20l-39-201q-2-20-25-20h-192l-43-218q-2-20-27-20h-215q-16 0-16 20l43 218h-590q-16 0-16 20zm360 221h293l86 439z"/><glyph unicode="5" horiz-adv-x="1265" d="M74 387q0 16 2 37 2 31 30 31h189q25 0 27-31 8-203 245-203 121 0 202 84t81 215q0 88-56.5 138.5t-158.5 50.5q-152 0-287-95-27-18-39-18h-174q-18 0-18 12l2 8 243 797q6 20 25 21h803q16 0 16-21l-39-201q-2-20-24-20h-588l-111-307q131 66 271 65 184 0 290.5-104.5t106.5-286.5q0-268-155.5-423.5t-426.5-155.5q-217 0-336.5 115.5t-119.5 291.5z"/><glyph unicode="6" horiz-adv-x="1269" d="M90 506q0 236 76 447.5t236.5 356 375.5 144.5q211 0 316.5-105.5t105.5-279.5q-4-20-26-20h-205q-14 0-19 20-20 143-188 143-121 0-208-87t-142-291q150 92 317 92 172 0 284.5-109.5t112.5-298.5q0-233-159.5-385.5t-415.5-152.5q-209 0-335 128t-126 398zm285-88q0-92 54-144.5t155-52.5q121 0 200.5 73t79.5 185q0 98-53 151.5t-160 53.5q-115 0-195.5-76.5t-80.5-189.5z"/><glyph unicode="7" horiz-adv-x="1032" d="M102 14q0 4 7 17l671 1161h-649q-16 0-16 20l39 201q2 20 24 21h926q16 0 16-21l-33-160q-6-29-18-51l-694-1188q-8-14-27-14h-229q-17 0-17 14z"/><glyph unicode="8" horiz-adv-x="1232" d="M53 369q0 131 75 234.5t204 162.5q-109 100-109 248 0 188 150.5 314t367.5 126q184 0 293-94t109-264q0-96-56.5-185.5t-164.5-148.5q143-104 143-283 0-233-158.5-366t-412.5-133q-203 0-322 105.5t-119 283.5zm262 26q0-82 57.5-128t153.5-46q123 0 200 65.5t77 174.5q0 86-56.5 130t-160.5 44q-113 0-192-65.5t-79-174.5zm150 633q0-156 184-156 102 0 174 54.5t72 144.5q0 70-50 108t-138 38q-96 0-169-51.5t-73-137.5z"/><glyph unicode="9" horiz-adv-x="1269" d="M76 365q4 20 26 20h205q14 0 19-20 20-143 188-144 121 0 208 87t142 292q-150-92-317-92-172 0-284.5 109.5t-112.5 297.5q0 233 159.5 386t415.5 153q209 0 335-128t126-398q0-236-76-448t-236.5-356-375.5-144q-211 0-316.5 105.5t-105.5 279.5zm336 589q0-98 54-151t159-53q115 0 195.5 76.5t80.5 189.5q0 92-54 144t-155 52q-121 0-200.5-72.5t-79.5-185.5z"/><glyph unicode=":" horiz-adv-x="559" d="M20 20l43 222q2 20 25 20h221q16 0 17-20l-43-222q-2-20-25-20h-221q-17 0-17 20zm148 766l43 222q2 20 25 20h221q16 0 16-20l-43-222q-2-20-24-20h-222q-16 0-16 20z"/><glyph unicode=";" horiz-adv-x="559" d="M-16-217l16 86q2 20 25 20 51 0 75.5 20.5t34.5 65.5l4 25h-102q-16 0-17 20l43 222q2 20 25 20h221q16 0 17-20l-54-281q-37-199-217-199h-55q-16 1-16 21zm184 1003l43 222q2 20 25 20h221q16 0 16-20l-43-222q-2-20-24-20h-222q-16 0-16 20z"/><glyph unicode="<" horiz-adv-x="1052" d="M88 514l39 193q2 16 25 26l864 412q23 10 22-10l-49-252q-4-20-26-29l-572-260 471-260q14-6 15-29l-46-223q-2-14-14-14-6 0-16 6l-697 413q-18 11-16 27z"/><glyph unicode="=" horiz-adv-x="1267" d="M88 313l37 189q2 20 25 20h913q16 0 16-20l-37-189q-6-20-24-20h-914q-16 0-16 20zm80 416l37 189q6 20 24 20h914q16 0 16-20l-37-189q-2-20-24-20h-914q-16 0-16 20z"/><glyph unicode=">" horiz-adv-x="1052" d="M20 78l50 252q4 20 26 28l572 260-471 261q-14 6-15 28l45 223q2 14 15 15 8 0 16-6l696-414q18-10 17-27l-39-192q-2-16-25-27l-864-411q-23-10-23 10z"/><glyph unicode="?" horiz-adv-x="1120" d="M147 1020q31 184 174.5 309t358.5 125q199 0 306.5-91t107.5-239q0-104-41-183t-102.5-130-125-97-117-108.5-69.5-138.5l-10-51q-2-20-25-21h-221q-16 0-16 21l10 51q23 109 78 191.5t117 129.5l122 89q59 41 98 90t39 112q0 55-43 94t-122 39q-186 0-269-192-8-20-24-21h-209q-17 1-17 21zm129-1000l48 238q2 20 24 21h246q16 0 16-21l-47-238q-2-20-24-20h-246q-17 0-17 20z"/><glyph unicode="@" horiz-adv-x="1654" d="M51 483q0 375 251 614.5t624 239.5q309 0 494.5-168t185.5-426q0-254-106.5-409.5t-303.5-155.5q-141 0-207 101-123-100-276-101-135 0-226.5 80t-91.5 242q0 209 138.5 349t336.5 140q141 0 224-67l10 36q4 16 20 17h133q16 0 17-17l-125-411q-2-6-9-33t-10-39q-4-29-4-41 0-39 24-60.5t60-21.5q90 0 142.5 109.5t52.5 243.5q0 211-125 331.5t-373 120.5q-279 0-464-187.5t-185-486.5q0-233 134-363t374-130q86 0 159.5 17.5t110.5 33.5 115 57q4 2 10 2 10 0 15-10l57-133q2-6 2-12 0-10-12-19-225-117-475-116-311 0-504 179t-193 494zm541 31q0-162 145-162 115 0 189.5 100.5t74.5 198.5q0 164-151 164-104 0-181-93t-77-208z"/><glyph unicode="A" horiz-adv-x="1255" d="M-157 16q0 5 3 11l758 1386q12 20 31 21h242q20 0 24-21l236-1380q0-33-29-33h-219q-18 0-21 20l-53 359h-502l-192-359q-8-20-29-20h-231q-11 0-16 8-2 4-2 8zm599 600h340l-73 494z"/><glyph unicode="B" horiz-adv-x="1310" d="M23 20l272 1393q2 20 24 21h523q184 0 287.5-84t103.5-244q0-219-201-334 68-39 107-113.5t39-166.5q0-219-148.5-355.5t-402.5-136.5h-588q-16 0-16 20zm309 218h305q115 0 190.5 65.5t75.5 165.5q0 166-192 166h-301zm123 634h286q102 0 164 50.5t62 136.5q0 137-166 137h-283z"/><glyph unicode="C" horiz-adv-x="1413" d="M49 565q0 231 92 431t278.5 329 432.5 129q268 0 417.5-136t149.5-378q-6-20-26-20h-207q-20 0-21 20-25 276-334 277-229 0-368-180.5t-139-438.5q0-188 92-284.5t237-96.5q283 0 416 277 12 20 29 20h211q23 0 22-20-80-250-265-382t-450-132q-246 0-406.5 156.5t-160.5 428.5z"/><glyph unicode="D" horiz-adv-x="1376" d="M31 20l272 1393q2 20 25 21h420q260 0 415.5-147.5t155.5-434.5q0-373-224.5-612.5t-631.5-239.5h-416q-16 0-16 20zm309 218h168q246 0 391 173t145 418q0 182-91 274.5t-257 92.5h-170z"/><glyph unicode="E" horiz-adv-x="1165" d="M31 20l272 1393q2 20 25 21h874q16 0 17-21l-39-196q-2-20-25-21h-629l-63-324h567q16 0 17-20l-37-197q-2-20-25-20h-567l-78-397h659q16 0 17-21l-39-197q-2-20-25-20h-905q-16 0-16 20z"/><glyph unicode="F" horiz-adv-x="1161" d="M31 20l272 1393q2 20 25 21h901q16 0 16-21l-39-196q-2-20-24-21h-656l-69-354h590q16 0 16-21l-37-196q-2-20-25-21h-589l-115-584q-2-20-25-20h-225q-16 0-16 20z"/><glyph unicode="G" horiz-adv-x="1474" d="M59 582q0 164 55.5 319.5t157 279.5 258 198.5 344.5 74.5q252 0 399.5-122t147.5-337q-4-20-26-20h-215q-18 0-21 20-35 221-309 222-152 0-273.5-95.5t-182-233.5-60.5-284q0-190 90-288.5t256-98.5q240 0 389 176l23 121h-381q-16 0-17 21l39 196q2 20 25 21h616q16 0 17-21l-72-366q-10-45-35-78-233-307-629-307-272 0-434 150.5t-162 451.5z"/><glyph unicode="H" horiz-adv-x="1435" d="M20 20l273 1393q2 20 24 21h226q16 0 16-21l-106-547h585l107 547q2 20 24 21h226q16 0 16-21l-272-1393q-2-20-25-20h-225q-16 0-17 20l119 609h-585l-119-609q-2-20-25-20h-225q-17 0-17 20z"/><glyph unicode="I" horiz-adv-x="567" d="M16 20l271 1393q2 20 24 21h226q16 0 16-21l-272-1393q-2-20-25-20h-225q-15 0-15 20z"/><glyph unicode="J" horiz-adv-x="1161" d="M-25 360q0 51 11 105 4 20 22 20h221q18 0 19-20 0-2-3-29.5t-3-40.5q0-178 176-178 123 0 191.5 81t103.5 259l168 856q2 20 24 21h225q16 0 17-21l-166-854q-61-313-204.5-446t-383.5-133q-197 0-307.5 105t-110.5 275z"/><glyph unicode="K" horiz-adv-x="1282" d="M27 20l272 1393q2 20 25 21h225q16 0 16-21l-98-498 543 498q20 20 43 21h280q15 0 15-14 0-8-9-15l-573-528 381-848q2-4 2-11 0-18-23-18h-247q-18 0-31 31l-293 663-158-139-104-535q-2-20-25-20h-225q-16 0-16 20z"/><glyph unicode="L" horiz-adv-x="1122" d="M31 20l272 1393q2 20 25 21h225q16 0 16-21l-229-1175h694q16 0 17-21l-39-197q-2-20-25-20h-940q-16 0-16 20z"/><glyph unicode="M" horiz-adv-x="1677" d="M29 20l272 1393q2 20 25 21h260q23 0 28-21l197-835 502 835q12 20 37 21h282q16 0 17-21l-273-1393q-2-20-24-20h-226q-16 0-16 20l184 945-417-707q-8-18-31-18h-170q-20 0-25 18l-172 707-184-945q-2-20-25-20h-225q-16 0-16 20z"/><glyph unicode="N" horiz-adv-x="1468" d="M31 20l272 1393q2 20 25 21h229q20 0 29-17l393-971 188 967q2 20 25 21h229q16 0 17-21l-273-1393q-2-20-24-20h-230q-20 0-28 16l-394 971-188-967q-2-20-25-20h-229q-16 0-16 20z"/><glyph unicode="O" d="M43 588q0 231 100.5 426.5t295 317.5 442.5 122q272 0 444-157.5t172-450.5q0-231-100.5-427t-295-317.5-442.5-121.5q-272 0-444 157.5t-172 450.5zm274 24q0-195 99.5-295t257.5-100q236 0 392.5 183.5t156.5 420.5q0 195-99.5 295.5t-257.5 100.5q-236 0-392.5-183.5t-156.5-421.5z"/><glyph unicode="P" horiz-adv-x="1267" d="M31 20l272 1393q2 20 25 21h520q199 0 310.5-90.5t111.5-256.5q0-227-153.5-352t-416.5-125h-288l-115-590q-2-20-25-20h-225q-16 0-16 20zm428 828h295q117 0 181 52t64 151q0 145-178 145h-295z"/><glyph unicode="Q" d="M43 588q0 231 100.5 426.5t295 317.5 442.5 122q272 0 444-157.5t172-450.5q0-367-240-619l76-88q6-8 6-14-4-8-12-14l-176-150q-10-8-16.5-8t-12.5 8l-86 102q-172-83-372-83h-5q-272 0-444 157.5t-172 450.5zm274 24q0-195 99.5-295t257.5-100q106 0 198 41l-94 113q-6 6-6 14 4 8 12 14l177 150q8 8 16 8 4 0 12-8l101-121q133 168 133 393 0 195-99.5 295.5t-257.5 100.5q-236 0-392.5-183.5t-156.5-421.5z"/><glyph unicode="R" horiz-adv-x="1300" d="M25 20l272 1393q2 20 25 21h550q182 0 282.5-86t100.5-246q0-311-335-430l182-652q0-20-21-20h-245q-18 0-25 20l-172 631h-225l-123-631q-2-20-25-20h-225q-16 0-16 20zm436 869h317q90 0 150.5 46t60.5 126q0 135-147 135h-322z"/><glyph unicode="S" horiz-adv-x="1206" d="M4 403q0 18 4 60 2 20 23 20h223q16 0 16-20v-19q0-227 267-227 131 0 214 52.5t83 160.5q0 121-283 195-209 55-309.5 143t-100.5 248q0 201 160 319.5t389 118.5q233 0 355-108.5t122-272.5q0-31-2-47-2-20-24-20h-223q-16 0-17 20 0 190-248 191-96 0-170.5-40t-74.5-122 73.5-130 216.5-94q102-31 167-58.5t124.5-69 87-101 27.5-139.5q0-242-164-362.5t-434-120.5q-236 0-369 118.5t-133 304.5z"/><glyph unicode="T" horiz-adv-x="1058" d="M70 1217l39 196q2 20 24 21h1045q16 0 16-21l-39-196q-2-20-25-21h-389l-229-1176q-2-20-25-20h-225q-16 0-16 20l229 1176h-389q-16 1-16 21z"/><glyph unicode="U" horiz-adv-x="1349" d="M88 434q0 51 14 133l166 846q2 20 25 21h225q16 0 17-21l-168-858q-12-61-13-111 0-227 230-227 274 0 340 338l168 858q2 20 24 21h225q16 0 17-21l-168-860q-111-573-633-573-227 0-348 115.5t-121 338.5z"/><glyph unicode="V" horiz-adv-x="1228" d="M98 1413q0 20 21 21h241q18 0 21-21l141-1085 561 1085q8 20 29 21h256q14 0 14-11 0-6-2-10l-753-1393q-12-20-31-20h-250q-20 0-22 20z"/><glyph unicode="W" horiz-adv-x="1763" d="M147 1413q0 20 21 21h225q20 0 21-21l10-1046 420 948q8 20 28 20h220q20 0 20-20l64-948 417 1046q8 20 29 21h223q14 0 15-11 0-4-2-10l-586-1393q-8-20-31-20h-246q-20 0-22 20l-62 918-403-918q-8-20-27-20h-258q-20 0-20 20z"/><glyph unicode="X" horiz-adv-x="1198" d="M-135 12q0 4 2 8l608 744-282 641q-2 6-3 10 0 18 21 19h225q23 0 31-21l190-426 349 426q18 20 38 21h259q12 0 12-11 0-4-4-10l-545-670 324-718q2-6 2-13 0-12-17-12h-241q-20 0-29 20l-221 498-406-498q-18-20-41-20h-260q-12 0-12 12z"/><glyph unicode="Y" horiz-adv-x="1081" d="M96 1413q0 20 17 21h231q18 0 23-17l165-626 414 626q10 16 27 17h244q12 0 12-9 0-6-4-12l-609-909-94-484q-2-20-24-20h-222q-16 0-16 20l94 484z"/><glyph unicode="Z" horiz-adv-x="1230" d="M-72 20l37 189q6 20 21 35l909 952h-684q-16 0-16 21l38 196q2 20 25 21h985q16 0 17-21l-37-188q-6-20-21-35l-909-952h760q16 0 16-21l-39-197q-2-20-24-20h-1061q-17 0-17 20z"/><glyph unicode="[" horiz-adv-x="915" d="M8-385l348 1798q2 20 25 21h575q16 0 17-21l-39-196q-2-20-25-21h-329l-265-1364h330q16 0 17-20l-39-197q-2-20-25-21h-573q-17 1-17 21z"/><glyph unicode="\" horiz-adv-x="616" d="M-35 1413q0 20 23 21h200q18 0 25-21l438-1393q0-20-18-20h-207q-16 0-23 20z"/><glyph unicode="]" horiz-adv-x="915" d="M-141-385l39 197q2 20 24 20h330l264 1364h-330q-16 0-16 21l39 196q2 20 24 21h574q16 0 16-21l-348-1798q-2-20-24-21h-576q-16 1-16 21z"/><glyph unicode="^" horiz-adv-x="1146" d="M25 745q0 4 4 11l528 657q14 20 35 21h199q23 0 28-21l273-657q2-4 2-8 0-12-19-13h-217q-18 0-24 21l-181 436-346-436q-14-20-33-21h-237q-12 0-12 10z"/><glyph unicode="_" horiz-adv-x="950" d="M-152-209l35 189q2 20 25 20h917q16 0 17-20l-35-189q-2-20-25-20h-917q-17 0-17 20z"/><glyph unicode="`" horiz-adv-x="608" d="M164 1413q-4 8 0 14.5t14 6.5h256q18 0 27-21l90-258q8-20-14-20h-179q-20 0-32 18z"/><glyph unicode="a" horiz-adv-x="1239" d="M29 438q0 250 162.5 430.5t433.5 180.5q172 0 270-88l8 47q2 20 25 20h217q16 0 16-20l-190-988q-2-20-25-20h-217q-16 0-16 20l8 48q-127-88-299-88-168 0-280.5 117.5t-112.5 340.5zm274 17q0-121 54.5-187.5t154.5-66.5q139 0 230.5 111.5t91.5 265.5q0 249-222 249h-2q-129 0-218-112.5t-89-259.5z"/><glyph unicode="b" horiz-adv-x="1263" d="M29 20l272 1393q2 20 25 21h213q16 0 16-21l-90-457q135 92 299 93 182 0 284.5-117t102.5-328q0-162-62.5-301t-195.5-231-313-92q-176 0-285 104l-12-64q-2-20-25-20h-213q-16 0-16 20zm329 426q0-115 59.5-180t162.5-65q129 0 213 111.5t84 258.5q0 256-205 256-139 0-226.5-105.5t-87.5-275.5z"/><glyph unicode="c" horiz-adv-x="1148" d="M31 438q0 260 175 435.5t449 175.5q205 0 321-106.5t116-264.5q0-29-31-29h-189q-20 0-24 19-39 159-228 159h-2q-141 0-229-107.5t-88-264.5q0-254 223-254 176 0 264 159 10 18 33 19h195q20 0 20-17 0-4-4-16-68-178-207-272t-327-94q-207 0-337 120.5t-130 337.5z"/><glyph unicode="d" horiz-adv-x="1247" d="M33 430q0 252 158.5 435.5t400.5 183.5q106 0 172.5-24t124.5-79l92 467q2 20 25 21h213q16 0 16-21l-272-1393q-2-20-25-20h-213q-16 0-16 20l12 64q-137-104-291-104-176 0-286.5 117.5t-110.5 332.5zm270 19q0-117 55.5-182.5t159.5-65.5q139 0 223 113.5t84 267.5q0 113-53 179t-158 66q-139 0-225-112t-86-266z"/><glyph unicode="e" horiz-adv-x="1196" d="M25 444q0 248 178 426.5t448 178.5q219 0 335-122t116-309q0-61-12-126l-7-35q-2-20-24-21h-789q0-104 62.5-169.5t185.5-65.5q156 0 258 127 14 18 33 18h213q16 0 16-12 0-6-8-23-92-174-219-252.5t-317-78.5q-215 0-342 121.5t-127 342.5zm303 197h530q-27 186-233 186-88 0-169-50t-128-136z"/><glyph unicode="f" horiz-adv-x="749" d="M33 827l35 181q2 20 24 20h160l16 88q31 170 135.5 254t258.5 84q123 0 215-43 12-4 12-16 0-8-2-19l-33-172q-4-20-18-20-6 0-15 4-90 45-159 45-117 0-144-137l-12-68h278q16 0 17-20l-35-181q-2-20-25-20h-278l-154-787q-2-20-24-20h-213q-16 0-17 20l154 787h-160q-16 0-16 20z"/><glyph unicode="g" horiz-adv-x="1247" d="M8-74q0 20 25 21h203q20 0 22-21 8-70 54-100.5t134-30.5q236 0 287 271l8 36q-131-98-272-98-190 0-301 111.5t-111 322.5q0 252 159 431.5t425 179.5q168 0 264-103l13 62q2 20 24 20h213q16 0 16-20l-176-906q-55-289-197.5-408.5t-381.5-119.5q-201 0-304.5 95t-103.5 257zm320 523q0-102 53-163t158-61q137 0 223 108.5t86 266.5q0 109-52.5 168t-154.5 59q-135 0-224-111t-89-267z"/><glyph unicode="h" horiz-adv-x="1243" d="M33 20l270 1393q2 20 25 21h213q16 0 16-21l-92-471q135 106 332 107 141 0 226-73t85-194q0-47-12-108l-127-654q-2-20-25-20h-213q-16 0-16 20l116 598q6 27 7 74 0 135-158 135-109 0-190.5-89t-114.5-257l-90-461q-2-20-25-20h-213q-14 0-14 20z"/><glyph unicode="i" horiz-adv-x="548" d="M20 20l191 988q2 20 25 20h213q16 0 16-20l-193-988q-2-20-28-20h-207q-17 0-17 20zm209 1160l47 233q2 20 25 21h242q16 0 16-21l-47-233q-2-20-25-21h-241q-17 1-17 21z"/><glyph unicode="j" horiz-adv-x="548" d="M-121-338q0 4 4 12 8 12 31 51t31 54.5 23.5 47.5 23.5 61.5 14 64.5l203 1055q2 20 24 20h213q16 0 17-20l-205-1063q-37-195-135-357-8-14-17-14-4 0-20 6l-195 70q-12 4-12 12zm350 1518l45 233q2 20 25 21h242q16 0 16-21l-45-233q-2-20-25-21h-241q-17 1-17 21z"/><glyph unicode="k" horiz-adv-x="1116" d="M35 20l270 1393q2 20 25 21h213q18 0 16-21l-137-702 377 299q25 18 47 18h260q14 0 14-12 0-8-12-19l-424-352 277-614q2-6 2-15 0-16-21-16h-229q-20 0-29 18l-207 471-115-92-75-377q-2-20-25-20h-213q-14 0-14 20z"/><glyph unicode="l" horiz-adv-x="550" d="M23 20l270 1393q2 20 24 21h213q16 0 17-21l-273-1393q-2-20-24-20h-213q-14 0-14 20z"/><glyph unicode="m" horiz-adv-x="1677" d="M20 20l191 988q2 20 25 20h213q16 0 16-20l-12-66q125 106 272 107 168 0 231-127 154 127 326 127 272 0 272-252 0-51-12-109l-129-668q-2-20-24-20h-213q-16 0-17 20l123 633q6 29 6 74 0 100-102 100-184 0-254-350l-88-457q-2-20-25-20h-209q-16 0-16 20l121 623q6 37 6 68 0 116-115 116h-2q-80 0-143.5-87t-98.5-263l-88-457q-2-20-24-20h-213q-17 0-17 20z"/><glyph unicode="n" horiz-adv-x="1218" d="M29 20l190 988q2 20 25 20h213q16 0 16-20l-14-74q143 115 319 115 147 0 224-76t77-193q0-45-6-78l-131-682q-2-20-24-20h-213q-16 0-17 20l115 594q6 37 6 66 0 147-137 147-104 0-184-82.5t-115-259.5l-90-465q-2-20-25-20h-213q-16 0-16 20z"/><glyph unicode="o" horiz-adv-x="1245" d="M35 428q0 264 179 442.5t464 178.5q215 0 346-124t131-325q0-264-179-442t-464-178q-215 0-346 123.5t-131 324.5zm270 10q0-109 64.5-173t173.5-64q147 0 244.5 112.5t97.5 276.5q0 109-64.5 173t-173.5 64q-147 0-244.5-112.5t-97.5-276.5z"/><glyph unicode="p" horiz-adv-x="1255" d="M-43-385l270 1393q2 20 25 20h213q16 0 16-20l-12-64q137 104 291 105 188 0 290.5-113t102.5-336q0-268-155.5-444t-405.5-176q-172 0-291 102l-92-467q-2-20-25-21h-213q-14 1-14 21zm408 823q0-109 57-173t151-64q137 0 223.5 111.5t86.5 275.5q0 111-53.5 175t-153.5 64q-137 0-224-119.5t-87-269.5z"/><glyph unicode="q" horiz-adv-x="1247" d="M33 424q0 162 62.5 301t195.5 231.5 313 92.5q176 0 285-105l12 64q2 20 25 20h213q16 0 16-20l-272-1393q-2-20-25-21h-213q-16 0-16 21l90 457q-135-92-299-92-182 0-284.5 116.5t-102.5 327.5zm274 33q0-256 205-256 139 0 226 105.5t87 275.5q0 115-59 180t-162 65q-129 0-213-111.5t-84-258.5z"/><glyph unicode="r" horiz-adv-x="905" d="M25 20l190 988q2 20 25 20h213q16 0 16-20l-10-56q115 96 280 97 84 0 172-33 20-8 21-25 0-6-2-16l-37-187q-4-23-23-22-4 0-12 4-106 57-200.5 57t-172-69.5-104.5-206.5l-102-531q-2-20-25-20h-213q-16 0-16 20z"/><glyph unicode="s" horiz-adv-x="1036" d="M14 342q0 20 25 20h203q20 0 20-20 0-72 50-106.5t134-34.5q186 0 187 112 0 41-47 69t-170 50q-158 27-232.5 92.5t-74.5 173.5q0 166 134 258.5t318 92.5q193 0 292-85t99-231q0-20-24-20h-207q-18 0-25 20-27 102-172 103-61 0-111.5-26t-50.5-79q0-43 47.5-71.5t176.5-51.5q164-31 240.5-87t76.5-175q0-94-39-167t-105.5-114.5-146.5-63-170-21.5q-215 0-321.5 94t-106.5 268z"/><glyph unicode="t" horiz-adv-x="845" d="M23 827l34 181q2 20 25 20h172l57 295q2 20 25 20h213q16 0 16-20l-57-295h305q16 0 16-20l-34-181q-2-20-25-20h-305l-84-438q-12-57-12-80 0-88 120-88 84 0 183 35 6 2 14 2 12 0 12-17l-34-176q-4-27-31-37-77-28-214-28h-9q-137 0-216 69.5t-79 200.5q0 57 4 84l92 473h-172q-16 0-16 20z"/><glyph unicode="u" horiz-adv-x="1206" d="M68 248q0 45 6 78l131 682q2 20 24 20h213q16 0 17-20l-115-594q-6-37-6-66 0-147 137-147 104 0 184 83t115 259l90 465q2 20 25 20h213q16 0 16-20l-190-988q-2-20-25-20h-213q-16 0-16 20l14 74q-142-114-316-114h-3q-147 0-224 75.5t-77 192.5z"/><glyph unicode="v" horiz-adv-x="960" d="M8 1012q0 16 19 16h225q23 0 24-20l109-656 356 656q12 20 33 20h234q16 0 16-14 0-6-6-19l-555-975q-12-20-33-20h-219q-18 0-21 20l-180 975q-2 11-2 17z"/><glyph unicode="w" horiz-adv-x="1560" d="M74 1001q0 27 24 27h205q25 0 25-20l51-682 293 632q8 20 30 21h218q23 0 24-21l74-632 311 682q8 20 33 20h215q14 0 14-12 0-6-6-19l-477-977q-10-20-31-20h-223q-20 0-23 20l-73 621-293-621q-12-20-31-20h-223q-20 0-23 20z"/><glyph unicode="x" horiz-adv-x="1024" d="M-111 10q0 6 9 17l446 522-227 452q-2 6-2 13 0 14 16 14h246q20 0 26-14l129-264 232 264q12 14 31 14h239q12 0 13-12 0-6-7-15l-407-462 254-512q4-8 4-17 0-10-14-10h-248q-20 0-29 20l-147 302-260-302q-20-20-41-20h-252q-11 0-11 10z"/><glyph unicode="y" horiz-adv-x="1075" d="M-152-360l35 180q2 20 21 20 10 0 59-22.5t92-22.5q70 0 124 54.5t118 185.5l-217 960q-2 10-2 17 0 16 18 16h242q20 0 22-20l115-643 326 643q8 20 30 20h230q12 0 12-12 0-6-4-17l-577-1099q-170-326-429-326-135 0-200 33-15 8-15 33z"/><glyph unicode="z" horiz-adv-x="999" d="M-51 20l33 173q2 14 18 30l633 584h-490q-16 0-16 20l35 181q2 20 24 20h783q16 0 16-20l-33-172q-4-25-24-43l-623-572h537q16 0 16-20l-35-181q-2-20-24-20h-834q-16 0-16 20z"/><glyph unicode="{" horiz-adv-x="815" d="M6 416l39 196q2 20 25 21h59q119 0 145 137l56 285q41 215 136 297t282 82h110q16 0 16-21l-38-196q-2-20-25-21h-55q-74 0-114-42t-56-130l-66-338q-14-78-52-117t-110-55q96-31 97-131 0-27-6-61l-62-318q-6-33-6-61 0-111 111-111h55q16 0 16-20l-39-197q-2-20-24-21h-97q-139 0-215.5 72t-76.5 213q0 53 12 121l51 258q6 31 6 49 0 88-98 88h-59q-17 1-17 21z"/><glyph unicode="|" horiz-adv-x="585" d="M2-184l307 1597q2 20 25 21h221q16 0 16-21l-309-1597q-2-20-24-21h-220q-16 1-16 21z"/><glyph unicode="}" horiz-adv-x="815" d="M-106-385l38 197q2 20 25 20h55q74 0 114 42t56 130l66 338q14 78 52 117t110 55q-96 31-97 131 0 27 6 62l62 317q6 33 6 61 0 111-111 111h-55q-16 0-16 21l39 196q2 20 24 21h97q139 0 215.5-72t76.5-213q0-53-12-121l-51-258q-6-31-6-49 0-88 98-88h59q16 0 17-21l-39-196q-2-20-25-21h-59q-119 0-145-137l-56-285q-41-215-136-297t-282-82h-110q-16 1-16 21z"/><glyph unicode="~" horiz-adv-x="1056" d="M33 752q0 10 12 16 53 35 142 61.5t147 26.5q119 0 220-42t157-42q82 0 166 51 8 4 14 4 12 0 18-16l74-164q4-8 4-12 0-10-12-17-53-35-142.5-61.5t-146.5-26.5q-119 0-220 42t-157 42q-82 0-166-51-8-4-14-4-12 0-18 16l-74 164q-4 9-4 13z"/><glyph unicode="¡" horiz-adv-x="718" d="M27-385l194 997q2 20 25 21h221q16 0 16-21l-194-997q-2-20-25-21h-221q-16 1-16 21zm213 1155l47 238q2 20 24 20h246q16 0 16-20l-47-238q-2-20-24-20h-246q-16 0-16 20z"/><glyph unicode="¢" horiz-adv-x="1169" d="M63 641q0 236 144.5 402.5t378.5 199.5l32 170q2 20 25 21h197q16 0 16-21l-35-176q145-33 224-131t79-225q0-29-30-29h-189q-20 0-24 18-25 102-105 138l-114-586q102 39 159 141 10 18 33 19h195q20 0 20-17 0-4-4-16-119-317-449-361l-32-168q-2-20-25-20h-197q-16 0-16 20l35 181q-147 39-232.5 151.5t-85.5 288.5zm271 16q0-166 92-221l113 572q-96-39-150.5-133.5t-54.5-217.5z"/><glyph unicode="£" horiz-adv-x="1214" d="M-12 20l32 181q2 18 25 41 162 150 191 340h-164q-18 0-19 20l39 197q2 20 25 20h102q-6 53-6 127 0 227 148.5 367.5t377.5 140.5q199 0 310.5-100.5t111.5-259.5q0-33-6-70-2-20-25-20h-215q-16 0-16 20 0 188-190 188-104 0-169-74.5t-65-181.5q0-55 14-137h400q16 0 16-20l-39-197q-2-20-22-20h-346q-31-193-172-344h694q16 0 16-21l-39-197q-2-20-24-20h-969q-16 0-16 20z"/><glyph unicode="¤" horiz-adv-x="1161" d="M14 213q0 6 11 16l133 113q-27 63-27 131 0 158 98 281l-77 98q-4 6-5 10 0 8 11 19l141 120q10 8 16.5 8.5t12.5-8.5l86-106q94 41 202 41 104 0 191-49l145 119q10 8 16.5 8t12.5-8l104-129q4-6 5-13 0-8-11-16l-135-115q31-76 31-151 0-145-96-265l73-92q6-8 6-12 0-8-12-16l-141-121q-8-8-17-8-4 0-12 8l-86 104q-94-39-192-39-111 0-203 49l-143-118q-8-8-17-9-4 0-12 9l-105 129q-4 6-4 12zm344 285q0-66 44-108t116-42q94 0 162 66.5t68 163.5q0 68-44.5 109.5t-117.5 41.5q-92 0-160-65.5t-68-165.5z"/><glyph unicode="¥" horiz-adv-x="1140" d="M49 219l35 180q2 20 25 21h288l15 76h-328q-18 0-18 20l36 180q2 20 25 21h225l-198 696q0 20 16 21h244q14 0 18-17l164-620 410 620q10 16 26 17h252q12 0 12-9 0-6-4-12l-473-696h246q16 0 16-21l-37-180q-2-20-22-20h-348l-15-76h306q16 0 16-21l-35-180q-2-20-24-20h-306l-34-179q-2-20-25-20h-221q-16 0-17 20l35 179h-288q-17 0-17 20z"/><glyph unicode="¦" horiz-adv-x="626" d="M0-385l147 770q2 20 25 21h213q16 0 16-21l-149-770q-2-20-25-21h-211q-16 1-16 21zm199 1028l149 770q2 20 25 21h213q16 0 16-21l-149-770q-2-20-25-20h-213q-16 0-16 20z"/><glyph unicode="§" horiz-adv-x="1044" d="M-41-76q0 18 4 56 2 20 25 20h213q16 0 16-20v-19q0-150 170-149 82 0 141.5 44t59.5 124q0 68-46 116.5t-155 114.5q-164 100-232.5 175t-68.5 189q0 156 150 252-59 82-60 183 0 203 133 323.5t338 120.5q197 0 299.5-102.5t102.5-247.5q0-18-5-55-2-20-24-21h-213q-16 0-16 21v18q0 150-170 150-82 0-141.5-44.5t-59.5-123.5q0-68 46-117t155-115q164-100 232.5-175t68.5-189q0-147-150-252 59-82 59-183 0-203-133-323.5t-338-120.5q-197 0-299 102.5t-102 247.5zm389 658q0-43 47-86t205-142q59 39 59 92 0 43-47 86t-204 142q-60-39-60-92z"/><glyph unicode="¨" horiz-adv-x="718" d="M131 1192l43 221q2 20 25 21h221q16 0 16-21l-43-221q-2-20-24-21h-222q-16 1-16 21zm365 0l43 221q2 20 24 21h221q16 0 17-21l-43-221q-2-20-25-21h-221q-16 1-16 21z"/><glyph unicode="©" horiz-adv-x="1638" d="M106 717q0 170 62.5 313.5t164 233.5 227.5 140 259 50 259-50 227.5-140 164-233.5 62.5-313.5-62.5-313.5-164-233.5-227.5-140-259-50-259 50-227.5 140-164 233.5-62.5 313.5zm99 0q0-207 92-359.5t228.5-222 294-69.5 293.5 69.5 228.5 222 92.5 359.5-92.5 359.5-228.5 222-293.5 69.5-294-69.5-228.5-222-92-359.5zm184 0q0 225 128 351t302 126q158 0 268.5-83t137.5-222q0-20-23-21h-49q-23 0-29 21-25 98-104.5 158.5t-200.5 60.5q-135 0-233.5-104.5t-98.5-286.5 98.5-286.5 233.5-104.5q121 0 201 60t104 159q6 20 29 20h49q23 0 23-20-27-139-137.5-222t-268.5-83q-174 0-302 126t-128 351z"/><glyph unicode="ª" horiz-adv-x="954" d="M109 995q0 186 120.5 320.5t323.5 134.5q125 0 201-66l6 35q2 14 18 15h162q12 0 12-15l-143-735q0-14-18-14h-160q-12 0-13 14l7 37q-92-66-224-66-125 0-208.5 87t-83.5 253zm204 13q0-90 41-139.5t115-49.5q102 0 171 83t69 198q0 184-166 184-96 0-163-82.5t-67-193.5z"/><glyph unicode="«" horiz-adv-x="1169" d="M43 496l25 137q2 20 28 37l559 422q6 4 11 4 12 0 12-13l-49-258q-2-20-21-32l-323-244 227-252q10-10 10-18 0-4-2-15l-43-229q-4-14-14-15-6 0-12 7l-396 432q-14 19-12 37zm434 0l25 137q2 20 28 37l560 422q6 4 10 4 12 0 12-13l-49-258q-2-20-21-32l-323-244 227-252q10-10 10-18 0-4-2-15l-43-229q-4-14-14-15-6 0-12 7l-396 432q-14 19-12 37z"/><glyph unicode="¬" horiz-adv-x="1116" d="M68 647l34 180q2 20 25 21h864q16 0 17-21l-88-446q-2-20-25-21h-201q-16 0-16 21l47 246h-641q-16 0-16 20z"/><glyph unicode="­" horiz-adv-x="1075" d="M98 606l35 189q2 20 25 20h803q16 0 16-20l-35-189q-2-20-24-20h-803q-17 0-17 20z"/><glyph unicode="®" horiz-adv-x="1638" d="M106 717q0 170 62.5 313.5t164 233.5 227.5 140 259 50 259-50 227.5-140 164-233.5 62.5-313.5-62.5-313.5-164-233.5-227.5-140-259-50-259 50-227.5 140-164 233.5-62.5 313.5zm99 0q0-207 92-359.5t228.5-222 294-69.5 293.5 69.5 228.5 222 92.5 359.5-92.5 359.5-228.5 222-293.5 69.5-294-69.5-228.5-222-92-359.5zm332-445v893q0 23 22 23h279q145 0 221-70.5t76-189.5q0-94-51.5-161t-137.5-91l201-404q4-8 4-14 0-8-12-8h-58q-25 0-32 18l-201 396h-213v-392q0-23-23-22h-53q-22-1-22 22zm98 478h217q184 0 184 178 0 174-184 174h-217v-352z"/><glyph unicode="¯" horiz-adv-x="575" d="M135 1200l35 184q2 20 25 21h442q16 0 16-21l-35-184q-2-20-24-20h-442q-17 0-17 20z"/><glyph unicode="°" horiz-adv-x="876" d="M123 1026q0 186 121 307t319 121q147 0 242.5-86t95.5-227q0-186-121-307t-319-121q-145 0-241.5 86t-96.5 227zm209 25q0-72 43-111t110-39q88 0 147.5 63.5t59.5 151.5q0 72-43 111t-110 39q-88 0-147.5-63.5t-59.5-151.5z"/><glyph unicode="±" horiz-adv-x="1212" d="M-4 20l35 189q2 20 24 20h918q16 0 16-20l-35-189q-2-20-24-20h-918q-16 0-16 20zm119 646l35 188q2 20 24 20h344l68 347q2 20 24 20h193q16 0 16-20l-67-347h344q16 0 16-20l-35-188q-2-20-24-21h-344l-68-346q-2-20-25-20h-192q-16 0-16 20l67 346h-344q-16 1-16 21z"/><glyph unicode="²" horiz-adv-x="786" d="M102 688l17 94q2 18 18 29l361 254q86 61 86 133 0 84-88 84-94 0-129-96-8-20-25-21h-127q-16 0-16 21 18 117 103 188.5t204 71.5 185.5-61.5 66.5-153.5q0-152-156-264l-184-136h260q16 0 16-20l-22-123q-2-20-25-20h-528q-17 0-17 20z"/><glyph unicode="³" horiz-adv-x="770" d="M119 881v22q2 20 22 21h133q16 0 19-21 6-84 96-84 45 0 74 24.5t29 74.5q0 72-89 71h-69q-16 0-17 21l23 118q2 20 25 21h57q45 0 76.5 21.5t31.5 60.5q0 59-71.5 59t-106.5-73q-8-16-22-17h-125q-18 0-19 19 25 106 104 166.5t187.5 60.5 168-51.5 59.5-132.5q0-111-109-181 76-53 76-163 0-121-83-192t-210-71q-119 0-189.5 65t-70.5 161z"/><glyph unicode="´" horiz-adv-x="608" d="M133 1141q-2 6 4 14l191 258q14 20 34 21h263q10 0 12-6.5t-6-14.5l-262-260q-18-18-41-18h-185q-8 0-10 6z"/><glyph unicode="µ" horiz-adv-x="1206" d="M-66-385l271 1393q2 20 24 20h213q16 0 17-20l-115-594q-6-37-6-66 0-147 137-147 104 0 184 83t115 259l90 465q2 20 25 20h213q16 0 16-20l-190-988q-2-20-25-20h-213q-16 0-16 20l14 74q-143-115-319-114-51 0-109 14l-74-379q-2-20-24-21h-211q-17 1-17 21z"/><glyph unicode="¶" horiz-adv-x="1292" d="M70 983q0 205 158.5 328t389.5 123h746q16 0 16-21l-37-196q-2-20-24-21h-115l-268-1380q-2-20-25-21h-204q-16 0-17 21l268 1380h-124l-269-1380q-2-20-24-21h-205q-16 0-17 21l158 817h-20q-180 0-283.5 92t-103.5 258z"/><glyph unicode="·" horiz-adv-x="559" d="M131 639l41 221q2 20 25 21h221q16 0 16-21l-41-221q-2-20-24-21h-222q-16 1-16 21z"/><glyph unicode="¸" horiz-adv-x="532" d="M-123-385l19 90q6 20 24 21 2 0 59.5-13.5t129.5-13.5q80 0 79 45 0 33-43 33-59 0-125-19-6-2-12-2-10 0-16 6l-37 43q-6 6-6 13 0 4 6 16l106 223q8 20 27 21h129q27 0 12-21l-108-166q51 14 98 15 166 0 166-135 0-100-74.5-148.5t-197.5-48.5q-139 0-217 20-19 7-19 21z"/><glyph unicode="¹" horiz-adv-x="563" d="M164 1151l29 149q2 10 18 21l197 104q16 8 32 9h82q16 0 17-21l-142-725q-2-20-24-20h-131q-16 0-17 20l101 520-129-67q-12-6-21-6-12 0-12 16z"/><glyph unicode="º" horiz-adv-x="956" d="M111 987q0 197 134 330t345 133q160 0 257-92t97-244q0-197-134-329t-345-132q-160 0-257 92t-97 242zm200 6q0-80 48.5-128t129.5-48q109 0 181.5 84t72.5 207q0 82-48 129t-128 47q-111 0-183.5-84t-72.5-207z"/><glyph unicode="»" horiz-adv-x="1169" d="M14 37l49 258q2 20 21 33l324 243-228 252q-10 10-10 19 0 4 2 14l43 229q4 14 14 15 6 0 13-6l395-432q14-18 12-37l-24-138q-2-20-29-36l-559-422q-6-4-10-4-13 0-13 12zm435 0l49 258q2 20 20 33l324 243-228 252q-10 10-10 19 0 4 2 14l43 229q4 14 15 15 6 0 12-6l395-432q14-18 12-37l-24-138q-2-20-29-36l-559-422q-6-4-10-4-12 0-12 12z"/><glyph unicode="¼" horiz-adv-x="1732" d="M88 113q0 6 8 14l1374 1300q6 6 14.5 6.5t14.5-6.5l84-92q6-6 6-14 0-6-8-14l-1374-1301q-6-6-14.5-6t-14.5 6l-84 92q-6 7-6 15zm74 1038l28 149q2 10 19 21l197 104q16 8 32 9h82q16 0 17-21l-142-725q-2-20-24-20h-131q-16 0-17 20l101 520-129-67q-12-6-21-6-12 0-12 16zm672-1018l20 113q2 12 14 24l426 482q14 14 27 14h127q16 0 16-21l-90-464h103q16 0 16-21l-25-127q-6-20-24-20h-103l-18-93q-2-20-25-20h-127q-16 0-16 20l19 93h-326q-14 0-14 20zm237 148h135l37 196z"/><glyph unicode="½" horiz-adv-x="1822" d="M88 113q0 6 8 14l1374 1300q6 6 14.5 6.5t14.5-6.5l84-92q6-6 6-14 0-6-8-14l-1374-1301q-6-6-14.5-6t-14.5 6l-84 92q-6 7-6 15zm74 1038l28 149q2 10 19 21l197 104q16 8 32 9h82q16 0 17-21l-142-725q-2-20-24-20h-131q-16 0-17 20l101 520-129-67q-12-6-21-6-12 0-12 16zm864-1131l16 95q2 18 19 28l360 254q86 61 86 133 0 84-88 84-94 0-129-96-8-20-24-20h-127q-16 0-17 20 18 117 103.5 188.5t204 71.5 185-61.5 66.5-153.5q0-152-155-264l-185-135h261q16 0 16-21l-23-123q-2-20-24-20h-529q-16 0-16 20z"/><glyph unicode="¾" horiz-adv-x="1800" d="M119 881v22q2 20 22 21h133q16 0 19-21 6-84 96-84 45 0 74 24.5t29 74.5q0 72-89 71h-69q-16 0-17 21l23 118q2 20 25 21h57q45 0 76.5 21.5t31.5 60.5q0 59-71.5 59t-106.5-73q-8-16-22-17h-125q-18 0-19 19 25 106 104 166.5t187.5 60.5 168-51.5 59.5-132.5q0-111-109-181 76-53 76-163 0-121-83-192t-210-71q-119 0-189.5 65t-70.5 161zm37-768q0 6 8 14l1374 1300q6 6 14.5 6.5t14.5-6.5l84-92q6-6 6-14 0-6-8-14l-1375-1301q-6-6-14-6t-14 6l-84 92q-6 7-6 15zm745 20l21 113q2 12 14 24l426 482q14 14 27 14h127q16 0 16-21l-90-464h102q16 0 17-21l-25-127q-6-20-25-20h-102l-18-93q-2-20-25-20h-127q-16 0-16 20l18 93h-326q-14 0-14 20zm238 148h135l37 196z"/><glyph unicode="¿" horiz-adv-x="1120" d="M-33-96q0 104 41 183t102.5 130 125 97 117 108.5 69.5 138.5l10 51q2 20 25 21h221q16 0 16-21l-10-51q-23-109-78-191.5t-118-129.5l-121-88q-59-41-98.5-90.5t-39.5-112.5q0-55 43-94t123-39q186 0 269 192 8 20 24 21h209q16 0 16-21-31-184-174-309t-358-125q-199 0-306.5 91.5t-107.5 238.5zm484 866l47 238q2 20 24 20h246q16 0 16-20l-47-238q-2-20-24-20h-246q-16 0-16 20z"/><glyph unicode="À" horiz-adv-x="1255" d="M-155 8q-5 8 1 19l758 1386q12 20 31 21h242q20 0 24-21l236-1380q0-33-29-33h-219q-18 0-21 20l-53 359h-502l-192-359q-8-20-29-20h-231q-11 0-16 8zm597 608h340l-73 494zm45 1203q-4 8 .5 14t14.5 6h256q18 0 26-20l90-258q8-20-14-21h-178q-20 0-33 19z"/><glyph unicode="Á" horiz-adv-x="1290" d="M-155 8q-5 8 1 19l758 1386q12 20 31 21h242q20 0 24-21l236-1380q0-33-29-33h-219q-18 0-21 20l-53 359h-502l-192-359q-8-20-29-20h-231q-11 0-16 8zm597 608h340l-73 494zm232 930q-2 6 4 15l190 258q14 20 35 20h262q10 0 12.5-6t-6.5-14l-262-260q-18-18-41-19h-184q-8 0-10 6z"/><glyph unicode="Â" horiz-adv-x="1255" d="M-155 8q-5 8 1 19l758 1386q12 20 31 21h242q20 0 24-21l236-1380q0-33-29-33h-219q-18 0-21 20l-53 359h-502l-192-359q-8-20-29-20h-231q-11 0-16 8zm585 1509.5q-2 6.5 6 14.5l277 291q18 16 35 16h167q18 0 27-16l170-291q4-8 0-14.5t-14-6.5h-189q-16 0-32 19l-78 96-119-96q-20-18-41-19h-197q-10 0-12 6.5zm12-901.5h340l-73 494z"/><glyph unicode="Ã" horiz-adv-x="1255" d="M-155 8q-5 8 1 19l758 1386q12 20 31 21h242q20 0 24-21l236-1380q0-33-29-33h-219q-18 0-21 20l-53 359h-502l-192-359q-8-20-29-20h-231q-11 0-16 8zm561 1741q0 10 10 16 131 102 260 103 86 0 150.5-40t113.5-40q51 0 147 59 8 4 15 4 10 0 18-16l68-129q4-8 4-14 0-10-10-17-131-102-260-102-86 0-150.5 40t-114.5 40q-51 0-147-60-8-4-14-4-10 0-19 17l-67 129q-4 8-4 14zm36-1133h340l-73 494z"/><glyph unicode="Ä" horiz-adv-x="1255" d="M-155 8q-5 8 1 19l758 1386q12 20 31 21h242q20 0 24-21l236-1380q0-33-29-33h-219q-18 0-21 20l-53 359h-502l-192-359q-8-20-29-20h-231q-11 0-16 8zm597 608h340l-73 494zm37 981l43 222q2 20 25 20h221q16 0 16-20l-43-222q-2-20-24-20h-221q-17 0-17 20zm365 0l43 222q2 20 24 20h222q16 0 16-20l-43-222q-2-20-25-20h-221q-16 0-16 20z"/><glyph unicode="Å" horiz-adv-x="1255" d="M-155 8q-5 8 1 19l758 1386q12 20 31 21h242q20 0 24-21l236-1380q0-33-29-33h-219q-18 0-21 20l-53 359h-502l-192-359q-8-20-29-20h-231q-11 0-16 8zm597 608h340l-73 494zm164 1039q0 100 69.5 162.5t170.5 62.5q86 0 138-47t52-129q0-100-69.5-162.5t-169.5-62.5q-86 0-138.5 47t-52.5 129zm142 10q0-23 17-39t46-16q39 0 61.5 22.5t22.5 61.5q0 23-17.5 39t-46.5 16q-39 0-61-22.5t-22-61.5z"/><glyph unicode="Æ" horiz-adv-x="1732" d="M-164 12q0 4 2 8l821 1393q12 20 29 21h1081q16 0 17-21l-39-196q-2-20-25-21h-632l-64-324h571q16 0 17-20l-37-197q-2-20-25-20h-571l-78-397h664q16 0 16-21l-39-197q-2-20-24-20h-910q-16 0-16 20l70 357h-338l-209-357q-12-20-35-20h-232q-14 0-14 12zm627 602h248l112 582h-22z"/><glyph unicode="Ç" horiz-adv-x="1413" d="M49 565q0 231 92 431t278.5 329 432.5 129q268 0 417.5-136t149.5-378q-6-20-26-20h-207q-20 0-21 20-25 276-334 277-229 0-368-180.5t-139-438.5q0-188 92-284.5t237-96.5q283 0 416 277 12 20 29 20h211q23 0 22-20-74-236-245-367t-414-147l-58-89q49 14 99 15 166 0 166-135 0-100-75-148.5t-198-48.5q-139 0-217 20-18 6-18 21l18 90q4 20 25 21 2 0 59-13.5t129-13.5q80 0 80 45 0 33-43 33-59 0-125-19-6-2-12-2-10 0-17 6l-36 43q-6 6-7 13 0 4 7 16l71 154q-209 29-340 181t-131 396z"/><glyph unicode="È" horiz-adv-x="1165" d="M31 20l272 1393q2 20 25 21h874q16 0 17-21l-39-196q-2-20-25-21h-629l-63-324h567q16 0 17-20l-37-197q-2-20-25-20h-567l-78-397h659q16 0 17-21l-39-197q-2-20-25-20h-905q-16 0-16 20zm512 1799q-4 8 0 14t14 6h256q18 0 27-20l90-258q8-20-15-21h-178q-20 0-32 19z"/><glyph unicode="É" horiz-adv-x="1165" d="M31 20l272 1393q2 20 25 21h874q16 0 17-21l-39-196q-2-20-25-21h-629l-63-324h567q16 0 17-20l-37-197q-2-20-25-20h-567l-78-397h659q16 0 17-21l-39-197q-2-20-25-20h-905q-16 0-16 20zm544.5 1526q-2.5 6 4.5 15l190 258q14 20 35 20h262q10 0 12-6t-6-14l-262-260q-18-18-41-19h-184q-8 0-10.5 6z"/><glyph unicode="Ê" horiz-adv-x="1165" d="M31 20l272 1393q2 20 25 21h874q16 0 17-21l-39-196q-2-20-25-21h-629l-63-324h567q16 0 17-20l-37-197q-2-20-25-20h-567l-78-397h659q16 0 17-21l-39-197q-2-20-25-20h-905q-16 0-16 20zm399 1497.5q-2 6.5 6 14.5l277 291q18 16 35 16h167q18 0 27-16l170-291q4-8 0-14.5t-14-6.5h-189q-16 0-32 19l-78 96-119-96q-20-18-41-19h-197q-10 0-12 6.5z"/><glyph unicode="Ë" horiz-adv-x="1165" d="M31 20l272 1393q2 20 25 21h874q16 0 17-21l-39-196q-2-20-25-21h-629l-63-324h567q16 0 17-20l-37-197q-2-20-25-20h-567l-78-397h659q16 0 17-21l-39-197q-2-20-25-20h-905q-16 0-16 20zm450 1577l43 222q2 20 25 20h221q16 0 16-20l-43-222q-2-20-24-20h-221q-17 0-17 20zm365 0l43 222q2 20 24 20h222q16 0 16-20l-43-222q-2-20-25-20h-221q-16 0-16 20z"/><glyph unicode="Ì" horiz-adv-x="567" d="M16 20l271 1393q2 20 24 21h226q16 0 16-21l-272-1393q-2-20-25-20h-225q-15 0-15 20zm162 1799q-4 8 0 14t15 6h256q18 0 26-20l90-258q8-20-14-21h-178q-20 0-33 19z"/><glyph unicode="Í" horiz-adv-x="567" d="M16 20l271 1393q2 20 24 21h226q16 0 16-21l-272-1393q-2-20-25-20h-225q-15 0-15 20zm305.5 1526q-2.5 6 4.5 15l190 258q14 20 35 20h262q10 0 12-6t-6-14l-262-260q-18-18-41-19h-184q-8 0-10.5 6z"/><glyph unicode="Î" horiz-adv-x="567" d="M16 20l271 1393q2 20 24 21h226q16 0 16-21l-272-1393q-2-20-25-20h-225q-15 0-15 20zm78 1497.5q-2 6.5 6 14.5l277 291q18 16 35 16h168q18 0 26-16l170-291q4-8 0-14.5t-14-6.5h-189q-16 0-32 19l-78 96-119-96q-20-18-41-19h-197q-10 0-12 6.5z"/><glyph unicode="Ï" horiz-adv-x="567" d="M16 20l271 1393q2 20 24 21h226q16 0 16-21l-272-1393q-2-20-25-20h-225q-15 0-15 20zm121 1577l43 222q2 20 25 20h221q16 0 16-20l-43-222q-2-20-24-20h-221q-17 0-17 20zm365 0l43 222q2 20 24 20h222q16 0 16-20l-43-222q-2-20-25-20h-221q-16 0-16 20z"/><glyph unicode="Ð" horiz-adv-x="1413" d="M14 618l39 197q2 20 25 21h143l115 577q2 20 24 21h420q260 0 416-145.5t156-436.5q0-373-224.5-612.5t-631.5-239.5h-416q-16 0-17 20l113 578h-145q-17 0-17 20zm359-380h168q246 0 391 173t145 418q0 182-91 274.5t-257 92.5h-170l-72-360h271q16 0 16-21l-39-197q-2-20-24-20h-269z"/><glyph unicode="Ñ" horiz-adv-x="1468" d="M31 20l272 1393q2 20 25 21h229q20 0 29-17l393-971 188 967q2 20 25 21h229q16 0 17-21l-273-1393q-2-20-24-20h-230q-20 0-28 16l-394 971-188-967q-2-20-25-20h-229q-16 0-16 20zm475 1729q0 10 10 16 131 102 260 103 86 0 150.5-40t113.5-40q51 0 148 59 8 4 14 4 10 0 19-16l67-129q4-8 4-14 0-10-10-17-131-102-260-102-86 0-150.5 40t-113.5 40q-51 0-148-60-8-4-14-4-10 0-18 17l-68 129q-4 8-4 14z"/><glyph unicode="Ò" d="M43 588q0 231 100.5 426.5t295 317.5 442.5 122q272 0 444-157.5t172-450.5q0-231-100.5-427t-295-317.5-442.5-121.5q-272 0-444 157.5t-172 450.5zm274 24q0-195 99.5-295t257.5-100q236 0 392.5 183.5t156.5 420.5q0 195-99.5 295.5t-257.5 100.5q-236 0-392.5-183.5t-156.5-421.5zm347 1207q-4 8 0 14t14 6h256q18 0 27-20l90-258q8-20-15-21h-178q-20 0-33 19z"/><glyph unicode="Ó" d="M43 588q0 231 100.5 426.5t295 317.5 442.5 122q272 0 444-157.5t172-450.5q0-231-100.5-427t-295-317.5-442.5-121.5q-272 0-444 157.5t-172 450.5zm274 24q0-195 99.5-295t257.5-100q236 0 392.5 183.5t156.5 420.5q0 195-99.5 295.5t-257.5 100.5q-236 0-392.5-183.5t-156.5-421.5zm420 934q-2 6 4 15l191 258q14 20 35 20h262q10 0 12-6t-6-14l-262-260q-18-18-41-19h-184q-9 0-11 6z"/><glyph unicode="Ô" d="M43 588q0 231 100.5 426.5t295 317.5 442.5 122q272 0 444-157.5t172-450.5q0-231-100.5-427t-295-317.5-442.5-121.5q-272 0-444 157.5t-172 450.5zm274 24q0-195 99.5-295t257.5-100q236 0 392.5 183.5t156.5 420.5q0 195-99.5 295.5t-257.5 100.5q-236 0-392.5-183.5t-156.5-421.5zm230 905.5q-2 6.5 6 14.5l276 291q18 16 35 16h168q18 0 27-16l170-291q4-8 0-14.5t-15-6.5h-188q-18 0-33 19l-78 96-118-96q-23-18-41-19h-197q-10 0-12 6.5z"/><glyph unicode="Õ" d="M43 588q0 231 100.5 426.5t295 317.5 442.5 122q272 0 444-157.5t172-450.5q0-231-100.5-427t-295-317.5-442.5-121.5q-272 0-444 157.5t-172 450.5zm274 24q0-195 99.5-295t257.5-100q236 0 392.5 183.5t156.5 420.5q0 195-99.5 295.5t-257.5 100.5q-236 0-392.5-183.5t-156.5-421.5zm252 1137q0 10 11 16 131 102 260 103 86 0 150.5-40t113.5-40q51 0 147 59 8 4 15 4 10 0 18-16l68-129q4-8 4-14 0-10-10-17-131-102-261-102-86 0-150.5 40t-113.5 40q-51 0-147-60-8-4-15-4-10 0-18 17l-68 129q-4 8-4 14z"/><glyph unicode="Ö" d="M43 588q0 231 100.5 426.5t295 317.5 442.5 122q272 0 444-157.5t172-450.5q0-231-100.5-427t-295-317.5-442.5-121.5q-272 0-444 157.5t-172 450.5zm274 24q0-195 99.5-295t257.5-100q236 0 392.5 183.5t156.5 420.5q0 195-99.5 295.5t-257.5 100.5q-236 0-392.5-183.5t-156.5-421.5zm299 985l43 222q2 20 25 20h221q16 0 17-20l-43-222q-2-20-25-20h-221q-17 0-17 20zm365 0l43 222q2 20 25 20h221q16 0 16-20l-43-222q-2-20-24-20h-222q-16 0-16 20z"/><glyph unicode="×" horiz-adv-x="1009" d="M33 446q0 8 10 17l305 254-180 229q-6 8-6 16.5t8 16.5l154 129q8 6 14 6 8 0 14-6l187-236 290 244q8 8 14.5 8t14.5-8l119-147q4-6 4-11 0-8-10-18l-289-248 188-237q4-6 4-11 0-10-10-18l-153-129q-8-8-15-8-8 0-14 8l-193 246-299-256q-8-8-14-8t-14 8l-125 147q-4 6-4 12z"/><glyph unicode="Ø" d="M43 588q0 231 100.5 426.5t295 317.5 442.5 122q184 0 321-74l117 148q8 12 18 12 6 0 13-4l86-63q8-8 8-15 0-4-6-14l-115-146q174-162 174-452 0-231-100.5-427t-295-317.5-442.5-121.5q-184 0-321 73l-117-147q-8-12-18-12-6 0-13 4l-86 63q-8 8-8 14 0 4 6 15l115 145q-174 162-174 453zm274 24q0-164 70-262l653 828q-76 39-174 39-236 0-392.5-183.5t-156.5-421.5zm183-356q76-39 174-39 236 0 392.5 183.5t156.5 420.5q0 164-70 262z"/><glyph unicode="Ù" horiz-adv-x="1349" d="M88 434q0 51 14 133l166 846q2 20 25 21h225q16 0 17-21l-168-858q-12-61-13-111 0-227 230-227 274 0 340 338l168 858q2 20 24 21h225q16 0 17-21l-168-860q-111-573-633-573-227 0-348 115.5t-121 338.5zm500 1385q-4 8 0 14t14 6h256q18 0 27-20l90-258q8-20-14-21h-179q-20 0-32 19z"/><glyph unicode="Ú" horiz-adv-x="1349" d="M88 434q0 51 14 133l166 846q2 20 25 21h225q16 0 17-21l-168-858q-12-61-13-111 0-227 230-227 274 0 340 338l168 858q2 20 24 21h225q16 0 17-21l-168-860q-111-573-633-573-227 0-348 115.5t-121 338.5zm569 1112q-2 6 5 15l190 258q14 20 35 20h262q10 0 12-6t-6-14l-262-260q-18-18-41-19h-184q-9 0-11 6z"/><glyph unicode="Û" horiz-adv-x="1349" d="M88 434q0 51 14 133l166 846q2 20 25 21h225q16 0 17-21l-168-858q-12-61-13-111 0-227 230-227 274 0 340 338l168 858q2 20 24 21h225q16 0 17-21l-168-860q-111-573-633-573-227 0-348 115.5t-121 338.5zm399 1083.5q-2 6.5 7 14.5l276 291q18 16 35 16h168q18 0 26-16l170-291q4-8 0-14.5t-14-6.5h-188q-16 0-33 19l-78 96-119-96q-20-18-41-19h-196q-11 0-13 6.5z"/><glyph unicode="Ü" horiz-adv-x="1349" d="M88 434q0 51 14 133l166 846q2 20 25 21h225q16 0 17-21l-168-858q-12-61-13-111 0-227 230-227 274 0 340 338l168 858q2 20 24 21h225q16 0 17-21l-168-860q-111-573-633-573-227 0-348 115.5t-121 338.5zm440 1163l43 222q2 20 25 20h221q16 0 17-20l-43-222q-2-20-25-20h-221q-17 0-17 20zm365 0l43 222q2 20 25 20h221q16 0 16-20l-43-222q-2-20-25-20h-221q-16 0-16 20z"/><glyph unicode="Ý" horiz-adv-x="1081" d="M96 1413q0 20 17 21h231q18 0 23-17l165-626 414 626q10 16 27 17h244q12 0 12-9 0-6-4-12l-609-909-94-484q-2-20-24-20h-222q-16 0-16 20l94 484zm395.5 133q-2.5 6 4.5 15l190 258q14 20 35 20h262q10 0 12-6t-6-14l-262-260q-18-18-41-19h-184q-8 0-10.5 6z"/><glyph unicode="Þ" horiz-adv-x="1292" d="M31 20l272 1393q2 20 25 21h225q16 0 16-21l-55-285h289q188 0 297.5-90t109.5-256q0-227-153.5-352t-415.5-125h-289l-55-285q-2-20-25-20h-225q-16 0-16 20zm368 523h295q117 0 181.5 52t64.5 150q0 145-178 146h-295z"/><glyph unicode="ß" horiz-adv-x="1243" d="M16 20l156 787h-137q-16 0-17 20l33 181q2 20 25 20h137q39 205 171 315.5t337 110.5q172 0 266-89t94-230q0-88-36.5-154t-79.5-96.5-80-62-37-60.5q0-25 28.5-50.5t68.5-52 81-61.5 69.5-92 28.5-131q0-178-115.5-286.5t-295.5-108.5q-162 0-254 95t-92 230q0 20 2 39 2 20 24 21h180q16 0 17-21 0-143 143-143 61 0 102.5 44t41.5 111q0 53-45.5 96.5t-98.5 71-98 84-45 131.5q0 63 39 116.5t84 85.5 84 78 39 95q0 55-36 87t-102 32q-193 0-241-254l-187-959q-2-20-24-20h-213q-17 0-17 20z"/><glyph unicode="à" horiz-adv-x="1239" d="M29 438q0 250 162.5 430.5t433.5 180.5q172 0 270-88l8 47q2 20 25 20h217q16 0 16-20l-190-988q-2-20-25-20h-217q-16 0-16 20l8 48q-127-88-299-88-168 0-280.5 117.5t-112.5 340.5zm274 17q0-121 54.5-187.5t154.5-66.5q139 0 230.5 111.5t91.5 265.5q0 250-224 249-129 0-218-112.5t-89-259.5zm139 958q-4 8 0 14.5t15 6.5h256q18 0 26-21l90-258q8-20-14-20h-178q-20 0-33 18z"/><glyph unicode="á" horiz-adv-x="1239" d="M29 438q0 250 162.5 430.5t433.5 180.5q172 0 270-88l8 47q2 20 25 20h217q16 0 16-20l-190-988q-2-20-25-20h-217q-16 0-16 20l8 48q-127-88-299-88-168 0-280.5 117.5t-112.5 340.5zm274 17q0-121 54.5-187.5t154.5-66.5q139 0 230.5 111.5t91.5 265.5q0 250-224 249-129 0-218-112.5t-89-259.5zm150 686q-2 6 4 14l190 258q14 20 35 21h262q10 0 12-6.5t-6-14.5l-262-260q-18-18-41-18h-184q-8 0-10 6z"/><glyph unicode="â" horiz-adv-x="1239" d="M29 438q0 250 162.5 430.5t433.5 180.5q172 0 270-88l8 47q2 20 25 20h217q16 0 16-20l-190-988q-2-20-25-20h-217q-16 0-16 20l8 48q-127-88-299-88-168 0-280.5 117.5t-112.5 340.5zm274 17q0-121 54.5-187.5t154.5-66.5q139 0 230.5 111.5t91.5 265.5q0 250-224 249-129 0-218-112.5t-89-259.5zm23 657q-2 6 6 14l276 291q18 16 35 17h168q18 0 27-17l170-291q4-8 0-14t-15-6h-188q-18 0-33 18l-78 97-119-97q-23-18-40-18h-197q-10 0-12 6z"/><glyph unicode="ã" horiz-adv-x="1239" d="M29 438q0 250 162.5 430.5t433.5 180.5q172 0 270-88l8 47q2 20 25 20h217q16 0 16-20l-190-988q-2-20-25-20h-217q-16 0-16 20l8 48q-127-88-299-88-168 0-280.5 117.5t-112.5 340.5zm274 17q0-121 54.5-187.5t154.5-66.5q139 0 230.5 111.5t91.5 265.5q0 250-224 249-129 0-218-112.5t-89-259.5zm2 888q0 10 10 17 131 102 260 102 86 0 151-40t114-40q51 0 147 60 8 4 14 4 10 0 19-16l67-130q4-8 5-14 0-10-11-16-131-102-260-103-86 0-150.5 40t-113.5 40q-51 0-147-59-8-4-15-4-10 0-18 16l-68 129q-4 8-4 14z"/><glyph unicode="ä" horiz-adv-x="1239" d="M29 438q0 250 162.5 430.5t433.5 180.5q172 0 270-88l8 47q2 20 25 20h217q16 0 16-20l-190-988q-2-20-25-20h-217q-16 0-16 20l8 48q-127-88-299-88-168 0-280.5 117.5t-112.5 340.5zm274 17q0-121 54.5-187.5t154.5-66.5q139 0 230.5 111.5t91.5 265.5q0 250-224 249-129 0-218-112.5t-89-259.5zm82 737l43 221q2 20 25 21h221q16 0 16-21l-43-221q-2-20-24-21h-222q-16 1-16 21zm365 0l43 221q2 20 24 21h221q16 0 17-21l-43-221q-2-20-25-21h-221q-16 1-16 21z"/><glyph unicode="å" horiz-adv-x="1239" d="M29 438q0 250 162.5 430.5t433.5 180.5q172 0 270-88l8 47q2 20 25 20h217q16 0 16-20l-190-988q-2-20-25-20h-217q-16 0-16 20l8 48q-127-88-299-88-168 0-280.5 117.5t-112.5 340.5zm274 17q0-121 54.5-187.5t154.5-66.5q139 0 230.5 111.5t91.5 265.5q0 250-224 249-129 0-218-112.5t-89-259.5zm197 794q0 100 69.5 163t169.5 63q86 0 138.5-47.5t52.5-129.5q0-100-69.5-162.5t-170.5-62.5q-86 0-138 47t-52 129zm141 11q0-23 17.5-39.5t46.5-16.5q39 0 61 22.5t22 61.5q0 23-17 39t-46 16q-39 0-61.5-22t-22.5-61z"/><glyph unicode="æ" horiz-adv-x="1931" d="M33 295q0 158 124 264.5t328 106.5q147 0 281-39l6 26q4 29 4 39 0 135-174 135-123 0-194-96-14-18-33-18h-195q-20 0-20 20 0 6 2 12 55 141 178 222.5t287 81.5q242 0 346-150 176 150 418 150 219 0 334.5-122t115.5-309q0-61-12-126l-6-35q-2-20-25-21h-788q0-104 62.5-169.5t184.5-65.5q156 0 259 127 14 18 32 18h217q12 0 13-14 0-4-9-21-92-174-219-252.5t-317-78.5q-274 0-395 186-168-186-430-186-182 0-278.5 82.5t-96.5 232.5zm246 22q0-53 41.5-84.5t115.5-31.5q104 0 183 54t106 161q-133 41-254 41-72 0-132-36t-60-104zm788 324h530q-27 186-233 186-88 0-169-50t-128-136z"/><glyph unicode="ç" horiz-adv-x="1148" d="M31 438q0 260 175 435.5t449 175.5q205 0 321-106.5t116-264.5q0-29-31-29h-189q-20 0-24 19-39 160-230 159-141 0-229-107.5t-88-264.5q0-254 223-254 176 0 264 159 10 18 33 19h195q20 0 20-17 0-4-4-16-66-174-201-267t-315-99l-57-89q49 14 98 15 166 0 166-135 0-100-75-148.5t-197-48.5q-139 0-218 20-18 6-18 21l18 90q4 20 25 21 2 0 59.5-13.5t128.5-13.5q80 0 80 45 0 33-43 33-59 0-125-19-6-2-12-2-10 0-16 6l-37 43q-6 6-6 13 0 4 6 16l76 160q-156 33-247 148.5t-91 295.5z"/><glyph unicode="è" horiz-adv-x="1196" d="M25 444q0 248 178 426.5t448 178.5q219 0 335-122t116-309q0-61-12-126l-7-35q-2-20-24-21h-789q0-104 62.5-169.5t185.5-65.5q156 0 258 127 14 18 33 18h213q16 0 16-12 0-6-8-23-92-174-219-252.5t-317-78.5q-215 0-342 121.5t-127 342.5zm303 197h530q-27 186-233 186-88 0-169-50t-128-136zm98 772q-4 8 0 14.5t14 6.5h256q18 0 27-21l90-258q8-20-14-20h-178q-20 0-33 18z"/><glyph unicode="é" horiz-adv-x="1196" d="M25 444q0 248 178 426.5t448 178.5q219 0 335-122t116-309q0-61-12-126l-7-35q-2-20-24-21h-789q0-104 62.5-169.5t185.5-65.5q156 0 258 127 14 18 33 18h213q16 0 16-12 0-6-8-23-92-174-219-252.5t-317-78.5q-215 0-342 121.5t-127 342.5zm303 197h530q-27 186-233 186-88 0-169-50t-128-136zm186 500q-2 6 4 14l191 258q14 20 34 21h263q10 0 12-6.5t-6-14.5l-262-260q-18-18-41-18h-185q-8 0-10 6z"/><glyph unicode="ê" horiz-adv-x="1196" d="M25 444q0 248 178 426.5t448 178.5q219 0 335-122t116-309q0-61-12-126l-7-35q-2-20-24-21h-789q0-104 62.5-169.5t185.5-65.5q156 0 258 127 14 18 33 18h213q16 0 16-12 0-6-8-23-92-174-219-252.5t-317-78.5q-215 0-342 121.5t-127 342.5zm303 197h530q-27 186-233 186-88 0-169-50t-128-136zm22 471q-2 6 6 14l277 291q18 16 35 17h168q18 0 26-17l170-291q4-8 0-14t-14-6h-189q-18 0-32 18l-78 97-119-97q-23-18-41-18h-197q-10 0-12 6z"/><glyph unicode="ë" horiz-adv-x="1196" d="M25 444q0 248 178 426.5t448 178.5q219 0 335-122t116-309q0-61-12-126l-7-35q-2-20-24-21h-789q0-104 62.5-169.5t185.5-65.5q156 0 258 127 14 18 33 18h213q16 0 16-12 0-6-8-23-92-174-219-252.5t-317-78.5q-215 0-342 121.5t-127 342.5zm303 197h530q-27 186-233 186-88 0-169-50t-128-136zm65 551l43 221q2 20 25 21h221q16 0 16-21l-43-221q-2-20-24-21h-221q-17 1-17 21zm365 0l43 221q2 20 24 21h222q16 0 16-21l-43-221q-2-20-25-21h-221q-16 1-16 21z"/><glyph unicode="ì" horiz-adv-x="548" d="M20 20l191 988q2 20 25 20h213q16 0 16-20l-193-988q-2-20-28-20h-207q-17 0-17 20zm56 1393q-4 8 0 14.5t14 6.5h256q18 0 27-21l90-258q8-20-14-20h-179q-20 0-32 18z"/><glyph unicode="í" horiz-adv-x="548" d="M20 20l191 988q2 20 25 20h213q16 0 16-20l-193-988q-2-20-28-20h-207q-17 0-17 20zm224 1121q-2 6 4 14l190 258q14 20 35 21h262q10 0 12.5-6.5t-6.5-14.5l-262-260q-18-18-41-18h-184q-8 0-10 6z"/><glyph unicode="î" horiz-adv-x="548" d="M16 1112q-2 6 7 14l276 291q18 16 35 17h168q18 0 26-17l170-291q4-8 0-14t-14-6h-188q-16 0-33 18l-78 97-119-97q-20-18-41-18h-196q-11 0-13 6zm4-1092l191 988q2 20 25 20h213q16 0 16-20l-193-988q-2-20-28-20h-207q-17 0-17 20z"/><glyph unicode="ï" horiz-adv-x="548" d="M20 20l191 988q2 20 25 20h213q16 0 16-20l-193-988q-2-20-28-20h-207q-17 0-17 20zm37 1172l43 221q2 20 25 21h221q16 0 16-21l-43-221q-2-20-24-21h-221q-17 1-17 21zm365 0l43 221q2 20 24 21h222q16 0 16-21l-43-221q-2-20-25-21h-221q-16 1-16 21z"/><glyph unicode="ð" horiz-adv-x="1222" d="M37 438q0 254 165 432.5t410 178.5q152 0 252-62-31 88-108 150l-226-80q-18-8-24 10l-47 119q-6 16 18 26l55 19q-66 18-102 22-16 2-10 29l41 148q4 14 31 14 209-25 354-90l254 86q6 2 14 2 12 0 19-15l45-127q2-6 2-12 0-16-17-20l-151-51q111-174 110-472 0-207-67.5-376.5t-215-279-350.5-109.5q-213 0-332.5 120.5t-119.5 337.5zm258 11q0-248 215-248 135 0 227 115.5t92 258.5q0 121-56 186.5t-161 65.5q-139 0-228-117.5t-89-260.5z"/><glyph unicode="ñ" horiz-adv-x="1218" d="M29 20l190 988q2 20 25 20h213q16 0 16-20l-14-74q143 115 319 115 147 0 224-76t77-193q0-45-6-78l-131-682q-2-20-24-20h-213q-16 0-17 20l115 594q6 37 6 66 0 147-137 147-104 0-184-82.5t-115-259.5l-90-465q-2-20-25-20h-213q-16 0-16 20zm311 1323q0 10 10 17 131 102 260 102 86 0 150.5-40t113.5-40q51 0 148 60 8 4 14 4 10 0 19-16l67-130q4-8 4-14 0-10-10-16-131-102-260-103-86 0-150.5 40t-113.5 40q-51 0-148-59-8-4-14-4-10 0-18 16l-68 129q-4 8-4 14z"/><glyph unicode="ò" horiz-adv-x="1245" d="M35 428q0 264 179 442.5t464 178.5q215 0 346-124t131-325q0-264-179-442t-464-178q-215 0-346 123.5t-131 324.5zm270 10q0-109 64.5-173t173.5-64q147 0 244.5 112.5t97.5 276.5q0 109-64.5 173t-173.5 64q-147 0-244.5-112.5t-97.5-276.5zm158 975q-4 8 0 14.5t14 6.5h256q18 0 27-21l90-258q8-20-14-20h-179q-20 0-32 18z"/><glyph unicode="ó" horiz-adv-x="1245" d="M35 428q0 264 179 442.5t464 178.5q215 0 346-124t131-325q0-264-179-442t-464-178q-215 0-346 123.5t-131 324.5zm270 10q0-109 64.5-173t173.5-64q147 0 244.5 112.5t97.5 276.5q0 109-64.5 173t-173.5 64q-147 0-244.5-112.5t-97.5-276.5zm197 703q-2 6 4 14l190 258q14 20 35 21h262q10 0 12.5-6.5t-6.5-14.5l-262-260q-18-18-41-18h-184q-8 0-10 6z"/><glyph unicode="ô" horiz-adv-x="1245" d="M35 428q0 264 179 442.5t464 178.5q215 0 346-124t131-325q0-264-179-442t-464-178q-215 0-346 123.5t-131 324.5zm270 10q0-109 64.5-173t173.5-64q147 0 244.5 112.5t97.5 276.5q0 109-64.5 173t-173.5 64q-147 0-244.5-112.5t-97.5-276.5zm64 674q-2 6 6 14l276 291q18 16 35 17h168q18 0 27-17l170-291q4-8 0-14t-15-6h-188q-16 0-33 18l-78 97-119-97q-20-18-40-18h-197q-10 0-12 6z"/><glyph unicode="õ" horiz-adv-x="1245" d="M35 428q0 264 179 442.5t464 178.5q215 0 346-124t131-325q0-264-179-442t-464-178q-215 0-346 123.5t-131 324.5zm270 10q0-109 64.5-173t173.5-64q147 0 244.5 112.5t97.5 276.5q0 109-64.5 173t-173.5 64q-147 0-244.5-112.5t-97.5-276.5zm60 905q0 10 10 17 131 102 260 102 86 0 150.5-40t113.5-40q51 0 148 60 8 4 14 4 10 0 18-16l68-130q4-8 4-14 0-10-10-16-131-102-260-103-86 0-150.5 40t-114.5 40q-51 0-147-59-8-4-14-4-10 0-19 16l-67 129q-4 8-4 14z"/><glyph unicode="ö" horiz-adv-x="1245" d="M35 428q0 264 179 442.5t464 178.5q215 0 346-124t131-325q0-264-179-442t-464-178q-215 0-346 123.5t-131 324.5zm270 10q0-109 64.5-173t173.5-64q147 0 244.5 112.5t97.5 276.5q0 109-64.5 173t-173.5 64q-147 0-244.5-112.5t-97.5-276.5zm101 754l43 221q2 20 24 21h221q16 0 17-21l-43-221q-2-20-25-21h-221q-16 1-16 21zm364 0l43 221q2 20 25 21h221q16 0 16-21l-43-221q-2-20-24-21h-222q-16 1-16 21z"/><glyph unicode="÷" horiz-adv-x="1193" d="M92 420l35 188q2 20 25 21h921q16 0 17-21l-35-188q-2-20-25-21h-921q-17 1-17 21zm264-400l43 222q2 20 25 20h221q16 0 17-20l-44-222q-2-20-24-20h-221q-17 0-17 20zm148 766l43 222q2 20 24 20h222q16 0 16-20l-43-222q-2-20-25-20h-221q-16 0-16 20z"/><glyph unicode="ø" horiz-adv-x="1245" d="M35 428q0 264 179 442.5t464 178.5q113 0 213-39l92 118q10 12 18 13 6 0 13-4l78-60q8-6 8-14 0-6-6-14l-86-111q147-121 147-338 0-264-179-442t-464-178q-113 0-213 38l-92-118q-10-12-19-13-6 0-12 4l-78 60q-8 6-8 14 0 6 6 15l86 110q-147 121-147 338zm270 10q0-84 37-139l397 514q-51 14-92 14-147 0-244.5-112.5t-97.5-276.5zm146-223q49-14 92-14 147 0 244.5 112.5t97.5 276.5q0 84-37 139z"/><glyph unicode="ù" horiz-adv-x="1206" d="M68 248q0 45 6 78l131 682q2 20 24 20h213q16 0 17-20l-115-594q-6-37-6-66 0-147 137-147 104 0 184 83t115 259l90 465q2 20 25 20h213q16 0 16-20l-190-988q-2-20-25-20h-213q-16 0-16 20l14 74q-143-115-319-114-147 0-224 75.5t-77 192.5zm395 1165q-4 8 0 14.5t14 6.5h256q18 0 27-21l90-258q8-20-14-20h-179q-20 0-32 18z"/><glyph unicode="ú" horiz-adv-x="1206" d="M68 248q0 45 6 78l131 682q2 20 24 20h213q16 0 17-20l-115-594q-6-37-6-66 0-147 137-147 104 0 184 83t115 259l90 465q2 20 25 20h213q16 0 16-20l-190-988q-2-20-25-20h-213q-16 0-16 20l14 74q-143-115-319-114-147 0-224 75.5t-77 192.5zm426 893q-2 6 4 14l190 258q14 20 35 21h262q10 0 12-6.5t-6-14.5l-262-260q-18-18-41-18h-184q-8 0-10 6z"/><glyph unicode="û" horiz-adv-x="1206" d="M68 248q0 45 6 78l131 682q2 20 24 20h213q16 0 17-20l-115-594q-6-37-6-66 0-147 137-147 104 0 184 83t115 259l90 465q2 20 25 20h213q16 0 16-20l-190-988q-2-20-25-20h-213q-16 0-16 20l14 74q-143-115-319-114-147 0-224 75.5t-77 192.5zm266 864q-2 6 6 14l276 291q18 16 35 17h168q18 0 27-17l170-291q4-8 0-14t-15-6h-188q-18 0-33 18l-78 97-118-97q-23-18-41-18h-197q-10 0-12 6z"/><glyph unicode="ü" horiz-adv-x="1206" d="M68 248q0 45 6 78l131 682q2 20 24 20h213q16 0 17-20l-115-594q-6-37-6-66 0-147 137-147 104 0 184 83t115 259l90 465q2 20 25 20h213q16 0 16-20l-190-988q-2-20-25-20h-213q-16 0-16 20l14 74q-143-115-319-114-147 0-224 75.5t-77 192.5zm307 944l43 221q2 20 24 21h222q16 0 16-21l-43-221q-2-20-25-21h-221q-16 1-16 21zm364 0l43 221q2 20 25 21h221q16 0 16-21l-43-221q-2-20-24-21h-221q-17 1-17 21z"/><glyph unicode="ý" horiz-adv-x="1075" d="M-152-360l35 180q2 20 21 20 10 0 59-22.5t92-22.5q70 0 124 54.5t118 185.5l-217 960q-2 10-2 17 0 16 18 16h242q20 0 22-20l115-643 326 643q8 20 30 20h230q12 0 12-12 0-6-4-17l-577-1099q-170-326-429-326-135 0-200 33-15 8-15 33zm596 1501q-2 6 5 14l190 258q14 20 35 21h262q10 0 12-6.5t-6-14.5l-262-260q-18-18-41-18h-184q-9 0-11 6z"/><glyph unicode="þ" horiz-adv-x="1267" d="M-45-385l346 1798q2 20 25 21h213q16 0 16-21l-90-457q131 92 299 93 182 0 284.5-117t102.5-328q0-162-62.5-301t-195.5-231-313-92q-176 0-285 104l-86-469q-2-20-25-21h-213q-16 1-16 21zm403 831q0-115 59.5-180t162.5-65q129 0 213 111.5t84 258.5q0 256-205 256-139 0-226.5-105.5t-87.5-275.5z"/><glyph unicode="ÿ" horiz-adv-x="1075" d="M-152-360l35 180q2 20 21 20 10 0 59-22.5t92-22.5q70 0 124 54.5t118 185.5l-217 960q-2 10-2 17 0 16 18 16h242q20 0 22-20l115-643 326 643q8 20 30 20h230q12 0 12-12 0-6-4-17l-577-1099q-170-326-429-326-135 0-200 33-15 8-15 33zm463 1552l43 221q2 20 25 21h221q16 0 16-21l-43-221q-2-20-24-21h-221q-17 1-17 21zm365 0l43 221q2 20 24 21h222q16 0 16-21l-43-221q-2-20-25-21h-221q-16 1-16 21z"/><glyph unicode="Œ" horiz-adv-x="2242" d="M43 588q0 231 100.5 426.5t295 317.5 442.5 122q293 0 462-176l27 135q2 20 25 21h874q16 0 17-21l-39-196q-2-20-25-21h-629l-63-324h567q16 0 17-20l-37-197q-2-20-25-20h-567l-78-397h659q16 0 17-21l-39-197q-2-20-25-20h-905q-16 0-16 20l16 89q-197-129-455-129-272 0-444 157.5t-172 450.5zm274 24q0-195 99.5-295t257.5-100q236 0 392.5 183.5t156.5 420.5q0 195-99.5 295.5t-257.5 100.5q-236 0-392.5-183.5t-156.5-421.5z"/><glyph unicode="œ" horiz-adv-x="2070" d="M35 428q0 264 179 442.5t464 178.5q266 0 397-185 180 184 453 185 219 0 334.5-122t115.5-309q0-61-12-126l-6-35q-2-20-25-21h-788q0-104 62.5-169.5t185.5-65.5q156 0 258 127 14 18 33 18h212q16 0 17-12 0-6-8-23-92-174-219-252.5t-318-78.5q-270 0-391 180-180-180-467-180-215 0-346 123.5t-131 324.5zm270 10q0-109 64.5-173t173.5-64q147 0 244.5 112.5t97.5 276.5q0 109-64.5 173t-173.5 64q-147 0-244.5-112.5t-97.5-276.5zm899 203h531q-27 186-234 186-88 0-169-50t-128-136z"/><glyph unicode="Ÿ" horiz-adv-x="1081" d="M96 1413q0 20 17 21h231q18 0 23-17l165-626 414 626q10 16 27 17h244q12 0 12-9 0-6-4-12l-609-909-94-484q-2-20-24-20h-222q-16 0-16 20l94 484zm273 184l43 222q2 20 24 20h221q16 0 17-20l-43-222q-2-20-25-20h-221q-16 0-16 20zm364 0l43 222q2 20 25 20h221q16 0 16-20l-43-222q-2-20-24-20h-221q-17 0-17 20z"/><glyph horiz-adv-x="940"/><glyph horiz-adv-x="1880"/><glyph horiz-adv-x="940"/><glyph horiz-adv-x="1880"/><glyph horiz-adv-x="626"/><glyph horiz-adv-x="470"/><glyph horiz-adv-x="313"/><glyph horiz-adv-x="313"/><glyph horiz-adv-x="235"/><glyph horiz-adv-x="376"/><glyph horiz-adv-x="104"/><glyph unicode="‐" horiz-adv-x="1075" d="M98 606l35 189q2 20 25 20h803q16 0 16-20l-35-189q-2-20-24-20h-803q-17 0-17 20z"/><glyph unicode="‑" horiz-adv-x="1075" d="M98 606l35 189q2 20 25 20h803q16 0 16-20l-35-189q-2-20-24-20h-803q-17 0-17 20z"/><glyph unicode="‒" horiz-adv-x="1075" d="M98 606l35 189q2 20 25 20h803q16 0 16-20l-35-189q-2-20-24-20h-803q-17 0-17 20z"/><glyph unicode="–" horiz-adv-x="1193" d="M98 606l35 189q2 20 25 20h917q16 0 17-20l-35-189q-2-20-25-20h-917q-17 0-17 20z"/><glyph unicode="—" horiz-adv-x="1648" d="M98 606l35 189q6 20 25 20h1376q16 0 16-20l-34-189q-6-20-25-20h-1376q-17 0-17 20z"/><glyph unicode="‘" horiz-adv-x="501" d="M129 963l51 262q39 209 240 209h69q16 0 17-21l-17-82q-2-20-24-20-68 0-96.5-23.5t-38.5-79.5l-2-12h100q16 0 16-20l-41-213q-2-20-24-21h-234q-16 1-16 21z"/><glyph unicode="’" horiz-adv-x="501" d="M141 963l17 81q2 20 24 21 68 0 96.5 23.5t38.5 78.5l2 13h-100q-16 0-16 20l41 213q2 20 24 21h234q16 0 16-21l-51-262q-39-209-240-209h-69q-17 1-17 21z"/><glyph unicode="‚" horiz-adv-x="501" d="M-66-242l17 82q2 20 24 21 68 0 96.5 23.5t39.5 78.5l2 12h-101q-16 0-16 21l41 213q2 20 24 20h234q16 0 16-20l-51-262q-39-209-240-209h-69q-17 0-17 20z"/><glyph unicode="“" horiz-adv-x="808" d="M100 963l52 262q39 209 239 209h70q16 0 16-21l-16-82q-2-20-25-20-68 0-96.5-23.5t-38.5-79.5l-2-12h100q16 0 17-20l-41-213q-2-20-25-21h-233q-17 1-17 21zm351 0l51 262q39 209 239 209h70q16 0 16-21l-16-82q-2-20-25-20-68 0-96-23.5t-39-79.5l-2-12h101q16 0 16-20l-41-213q-2-20-25-21h-233q-16 1-16 21z"/><glyph unicode="”" horiz-adv-x="808" d="M127 963l16 81q2 20 25 21 68 0 96.5 23.5t38.5 78.5l2 13h-100q-16 0-17 20l41 213q2 20 25 21h233q16 0 17-21l-51-262q-39-209-240-209h-70q-16 1-16 21zm350 0l17 81q2 20 24 21 68 0 96.5 23.5t38.5 78.5l2 13h-100q-16 0-16 20l41 213q2 20 24 21h234q16 0 16-21l-51-262q-39-209-240-209h-69q-17 1-17 21z"/><glyph unicode="„" horiz-adv-x="808" d="M-78-242l17 82q2 20 24 21 68 0 96.5 23.5t38.5 78.5l2 12h-100q-16 0-16 21l41 213q2 20 24 20h234q16 0 16-20l-51-262q-39-209-240-209h-69q-17 0-17 20zm350 0l17 82q2 20 24 21 68 0 96.5 23.5t39.5 78.5l2 12h-101q-16 0-16 21l41 213q2 20 24 20h234q16 0 16-20l-51-262q-39-209-240-209h-69q-17 0-17 20z"/><glyph unicode="•" horiz-adv-x="780" d="M119 667.5q0 114.5 80 194.5t194.5 80 194.5-80 80-194.5-80-194.5-194.5-80-194.5 80-80 194.5z"/><glyph unicode="…" horiz-adv-x="1497" d="M20 20l41 222q2 20 25 20h221q16 0 17-20l-41-222q-2-20-25-20h-221q-17 0-17 20zm469 0l41 222q2 20 25 20h221q16 0 17-20l-41-222q-2-20-25-20h-221q-17 0-17 20zm469 0l41 222q2 20 25 20h221q16 0 17-20l-41-222q-2-20-25-20h-221q-17 0-17 20z"/><glyph horiz-adv-x="376"/><glyph unicode="‹" horiz-adv-x="733" d="M45 496l25 137q2 20 28 37l559 422q6 4 11 4 12 0 12-13l-49-258q-2-20-21-32l-323-244 227-252q10-10 10-18 0-4-2-15l-43-229q-4-14-14-15-6 0-12 7l-396 432q-14 19-12 37z"/><glyph unicode="›" horiz-adv-x="733" d="M18 37l50 258q2 20 20 33l324 243-228 252q-10 10-10 19 0 4 2 14l43 229q4 14 14 15 6 0 13-6l395-432q14-18 12-37l-24-138q-2-20-29-36l-559-422q-6-4-10-4-13 0-13 12z"/><glyph horiz-adv-x="470"/><glyph unicode="€" horiz-adv-x="1384" d="M-37 434l37 197q2 20 23 20h129q8 84 18 131h-121q-16 0-16 21l37 196q2 20 24 21h154q94 195 256 314.5t377 119.5q248 0 375.5-131t127.5-354q-2-20-24-21h-205q-20 0-22 21-23 248-267 248-209 0-334-197h383q16 0 17-21l-37-196q-6-20-25-21h-434q-20-72-22-131h430q16 0 16-20l-37-197q-2-20-24-20h-373q45-197 254-197 240 0 356 248 8 20 25 20h209q18 0 18-20-82-240-248-362.5t-387-122.5q-201 0-329.5 107.5t-163.5 326.5h-180q-17 0-17 20z"/><glyph unicode="™" horiz-adv-x="1439" d="M100 1298l23 115q2 20 24 21h541q16 0 17-21l-23-115q-2-20-25-20h-188l-115-590q-2-20-24-20h-123q-16 0-17 20l115 590h-188q-17 0-17 20zm502-610l141 725q2 20 25 21h170q18 0 20-17l74-397 225 397q8 16 29 17h182q16 0 17-21l-142-725q-2-20-24-20h-123q-16 0-16 20l92 473-201-356q-10-12-18-12h-103q-12 0-14 12l-78 356-92-473q-2-20-25-20h-123q-16 0-16 20z"/><glyph unicode="◼" horiz-adv-x="1030" d="M0 0v1030h1030v-1030h-1030z"/></font>
</defs>
</svg>
