<svg xmlns="http://www.w3.org/2000/svg"><defs><font horiz-adv-x="1255"><font-face units-per-em="2048" ascent="1638" descent="-410"/><glyph unicode="ﬁ" horiz-adv-x="1323" d="M53 856l29 152q2 20 24 20h164l21 109q29 152 125 234.5t235 82.5q115 0 213-45 12-8 13-18 0-6-3-17l-28-141q-4-20-19-21-6 0-14 5-84 45-156 45-74 0-111.5-39t-51.5-119l-15-76h295q16 0 17-20l-29-152q-6-20-25-20h-295l-159-816q-2-20-25-20h-168q-18 0-16 20l159 816h-163q-17 0-17 20zm740-836l190 988q2 20 25 20h168q16 0 16-20l-193-988q-2-20-24-20h-166q-16 0-16 20zm206 1188l41 205q2 20 25 21h213q16 0 16-21l-41-205q-2-20-24-20h-213q-17 0-17 20z"/><glyph unicode="ﬂ" horiz-adv-x="1300" d="M53 856l29 152q2 20 24 20h164l21 109q29 152 125 234.5t235 82.5q115 0 213-45 12-8 13-18 0-6-3-17l-28-141q-4-20-19-21-6 0-14 5-84 45-156 45-74 0-111.5-39t-51.5-119l-15-76h295q16 0 17-20l-29-152q-6-20-25-20h-295l-159-816q-2-20-25-20h-168q-18 0-16 20l159 816h-163q-17 0-17 20zm740-836l272 1393q2 20 25 21h167q16 0 17-21l-273-1393q-2-20-24-20h-168q-16 0-16 20z"/><glyph horiz-adv-x="0"/><glyph horiz-adv-x="0"/><glyph horiz-adv-x="475"/><glyph horiz-adv-x="475"/><glyph horiz-adv-x="475"/><glyph unicode="!" horiz-adv-x="718" d="M115 20l41 205q2 20 24 21h205q16 0 16-21l-41-205q-2-20-24-20h-205q-16 0-16 20zm94 396l194 997q2 20 25 21h172q16 0 16-21l-194-997q-2-20-25-21h-172q-16 1-16 21z"/><glyph unicode=""" horiz-adv-x="782" d="M127 971l84 442q2 20 25 21h163q16 0 17-21l-84-442q-2-20-25-21h-164q-16 1-16 21zm389 0l84 442q2 20 27 21h161q16 0 17-21l-84-442q-2-20-25-21h-164q-16 1-16 21z"/><glyph unicode="#" horiz-adv-x="1533" d="M53 426l31 164q6 20 25 20h262l78 213h-216q-16 0-16 21l31 164q2 20 24 20h252l142 385q8 20 26 21h180q20 0 15-21l-142-385h285l141 385q6 20 27 21h180q20 0 15-21l-142-385h226q16 0 16-20l-31-164q-2-20-24-21h-262l-78-213h215q23 0 16-20l-31-164q-2-20-24-20h-252l-141-386q-6-20-27-20h-180q-20 0-15 20l142 386h-285l-141-386q-6-20-27-20h-180q-20 0-14 20l141 386h-225q-17 0-17 20zm539 184h285l77 213h-284z"/><glyph unicode="$" horiz-adv-x="1206" d="M16 391q0 18 4 55 2 20 25 21h176q16 0 17-21 0-205 172-249l90 465q-174 55-259 140t-85 226q0 188 143 300t354 124l33 166q2 20 25 20h159q16 0 17-20l-37-180q307-82 307-396-2-20-24-20h-177q-16 0-16 20 0 131-131 183l-80-416q168-55 265.5-134t97.5-212q0-219-144.5-343t-380.5-138l-30-166q-2-20-25-21h-160q-16 0-16 21l35 178q-164 33-259.5 140t-95.5 257zm357 660q0-115 168-181l73 375q-98-10-169.5-59t-71.5-135zm235-863q115 16 188.5 76t73.5 160q0 111-182 178z"/><glyph unicode="%" horiz-adv-x="1746" d="M129 88q0 6 8 14l1379 1325q6 6 14 6.5t14-6.5l62-67q8-8 8-14.5t-8-14.5l-1379-1325q-6-6-14-6t-14 6l-62 68q-8 8-8 14zm2 916q0 186 121 308t299 122q139 0 228-86t89-218q0-186-120.5-308t-298.5-122q-139 0-228.5 86.5t-89.5 217.5zm168 16q0-70 49-116t115-46q104 0 170.5 74t66.5 182q0 70-49 116t-114 46q-104 0-171-73.5t-67-182.5zm569-717q0 186 121 308t299 122q139 0 228.5-86t89.5-217q0-186-121-308t-299-122q-139 0-228.5 86t-89.5 217zm168 16q0-70 49.5-115.5t114.5-45.5q104 0 171 73.5t67 182.5q0 70-49.5 115.5t-114.5 45.5q-104 0-171-73.5t-67-182.5z"/><glyph unicode="&" horiz-adv-x="1376" d="M53 348q0 315 375 498-55 119-55 223 0 162 108.5 273.5t288.5 111.5q154 0 241-80t87-198q0-121-66.5-204t-208.5-149l-118-55 167-311q51 115 78 272 2 18 23 19h332q16 0 16-21l-29-152q-2-20-24-20h-166q-47-190-121-301l117-221q4-12 4-19 0-14-17-14h-192q-12 0-23 18l-43 84q-166-123-366-122-186 0-297 94t-111 274zm217 23q0-90 60.5-144.5t154.5-54.5q143 0 254 94l-223 414q-246-125-246-309zm305 704q0-61 50-153l112 51q80 37 116 74.5t36 101.5q0 53-37 83t-102 30q-74 0-124.5-52.5t-50.5-134.5z"/><glyph unicode="'" horiz-adv-x="393" d="M127 971l84 442q2 20 25 21h163q16 0 17-21l-84-442q-2-20-25-21h-164q-16 1-16 21z"/><glyph unicode="(" horiz-adv-x="792" d="M82 125q0 96 22 215l68 350q31 158 67.5 261.5t102.5 189.5 140.5 148.5 209.5 154.5q8 6 14.5 6t12.5-8l96-135q4-6 4-13 0-8-12-16-121-86-179.5-136t-112.5-124-80.5-159-55.5-230l-43-228q-37-180-37-286 0-109 43-192t143-185q6-6 6.5-12.5t-10.5-16.5l-119-121q-8-8-16-8t-14 6q-250 232-250 539z"/><glyph unicode=")" horiz-adv-x="792" d="M-92-264q0 6 12 16 121 86 179.5 136.5t112.5 124 80.5 158.5 55.5 230l43 228q37 182 37 286 0 109-43 192t-143 185q-6 6-6 12.5t10 16.5l119 121q8 8 16 8t14-6q250-231 250-539 0-96-22-215l-68-350q-31-158-67.5-261.5t-102.5-189.5-140.5-148.5-209.5-154.5q-10-6-15-6-6 0-12 8l-96 136q-4 6-4 12z"/><glyph unicode="*" horiz-adv-x="919" d="M164 1098q0 2 4 14l51 133q6 16 19 17 4 0 10-2l192-68 45 221q2 20 25 21h147q16 0 17-21l-41-229 211 65q6 2 10 2 8 0 14-16l41-127q2-6 2-8 0-12-18-19l-238-77 103-183q2-4 2-10 0-10-15-18l-127-72q-8-4-14-4t-12 8l-107 178-155-184q-10-10-17-10-8 0-14 6l-117 96q-8 8-8 12 0 8 8 17l168 180-174 65q-12 5-12 13z"/><glyph unicode="+" horiz-adv-x="1202" d="M121 621l31 159q2 20 24 21h340l68 344q2 20 24 20h168q16 0 17-20l-68-344h340q16 0 16-21l-30-159q-2-20-25-21h-340l-68-344q-2-20-24-20h-168q-16 0-16 20l67 344h-340q-16 1-16 21z"/><glyph unicode="," horiz-adv-x="559" d="M-2-193l12 62q6 20 25 20 53 0 77.5 18.5t32.5 67.5l5 25h-97q-16 0-16 20l37 189q2 20 22 20h189q18 0 18-20l-49-248q-35-174-188-174h-50q-18 0-18 20z"/><glyph unicode="-" horiz-adv-x="1075" d="M117 621l30 159q2 20 25 21h770q16 0 16-21l-30-159q-2-20-25-21h-770q-16 1-16 21z"/><glyph unicode="." horiz-adv-x="559" d="M37 20l35 189q2 20 24 20h189q16 0 16-20l-35-189q-2-20-24-20h-189q-16 0-16 20z"/><glyph unicode="/" horiz-adv-x="1032" d="M-135 20l981 1393q14 20 33 21h190q23 0 8-21l-983-1393q-14-20-31-20h-188q-24 0-10 20z"/><glyph unicode="0" horiz-adv-x="1288" d="M68 551q0 152 44 305.5t125.5 289.5 221 222 309.5 86q209 0 331-143.5t122-427.5q0-152-44-305.5t-126-289.5-221.5-222-309.5-86q-209 0-330.5 143t-121.5 428zm221 0q0-201 66.5-286t191.5-85q147 0 253.5 109.5t152.5 264.5 46 329q0 201-66.5 285.5t-191.5 84.5q-147 0-253.5-109.5t-152.5-264-46-328.5z"/><glyph unicode="1" horiz-adv-x="798" d="M106 1028l35 182q6 18 29 31l369 182q20 10 34 11h103q18 0 18-21l-272-1393q-2-20-25-20h-176q-16 0-16 20l221 1133-285-137q-12-6-24-6-11 0-11 18z"/><glyph unicode="2" horiz-adv-x="1236" d="M8 20l23 127q6 27 32 48l656 530q98 80 148.5 159t50.5 181q0 84-55.5 136t-160.5 52q-111 0-190.5-70.5t-105.5-176.5q-8-31-33-31h-146q-27 0-26 31 39 205 176 326.5t348 121.5q197 0 305.5-102.5t108.5-261.5q0-152-73-270t-222-238l-471-381h616q18 0 19-21l-33-160q-2-20-25-20h-927q-15 0-15 20z"/><glyph unicode="3" horiz-adv-x="1222" d="M51 391q0 29 2 43 2 35 33 35h154q23 0 22-27 0-4-1-18t-1-21q0-109 67.5-166t180.5-57q150 0 236.5 77t86.5 212q0 195-245 195h-121q-18 0-19 22l29 156q4 23 27 22h116q127 0 203 58.5t76 164.5q0 76-54.5 121t-146.5 45q-96 0-176-53t-110-147q-6-25-31-25h-148q-27 0-26 35 35 174 176 282.5t338 108.5q174 0 280.5-90t106.5-227q0-125-48-211t-161-156q152-98 152-301 0-227-147.5-358t-401.5-131q-207 0-328 112.5t-121 298.5z"/><glyph unicode="4" horiz-adv-x="1204" d="M-8 287l20 116q4 25 25 48l831 966q12 16 31 17h139q16 0 17-21l-185-946h193q18 0 18-21l-30-159q-2-20-25-21h-195l-49-246q-2-20-26-20h-174q-16 0-17 20l49 246h-608q-14 1-14 21zm311 180h350l103 530z"/><glyph unicode="5" horiz-adv-x="1265" d="M88 393v19q0 31 29 30h157q23 0 23-30 0-111 68.5-171.5t191.5-60.5q150 0 238 94.5t88 241.5q0 109-65.5 171.5t-182.5 62.5q-152 0-289-109-23-18-45-18h-145q-18 0-19 20l240 770q6 20 24 21h783q16 0 16-21l-33-160q-2-20-24-20h-608l-123-369q147 86 301 86 180 0 285.5-107.5t105.5-293.5q0-260-160-414.5t-420-154.5q-201 0-318.5 113.5t-117.5 299.5z"/><glyph unicode="6" horiz-adv-x="1269" d="M104 496q0 166 43 331.5t125 308 217.5 230.5 301.5 88q188 0 295.5-104.5t107.5-264.5q0-20-25-20h-163q-16 0-21 20-31 176-225 177-119 0-226.5-112t-156.5-339q150 115 348 115 176 0 282.5-108.5t106.5-289.5q0-248-157.5-398t-405.5-150q-197 0-322 129t-125 387zm222-72q0-113 67.5-178.5t181.5-65.5q135 0 228.5 92.5t93.5 223.5q0 106-65.5 167.5t-184.5 61.5q-139 0-230-87t-91-214z"/><glyph unicode="7" horiz-adv-x="1032" d="M129 12q0 6 6 19l690 1202h-671q-16 0-17 20l33 160q2 20 25 21h895q16 0 16-21l-25-119q-6-25-20-51l-709-1229q-8-14-26-14h-181q-16 0-16 12z"/><glyph unicode="8" horiz-adv-x="1232" d="M63 356q0 283 291 410-119 102-118 262 0 180 140 303t363 123q176 0 285-95t109-255q0-106-58.5-196.5t-173.5-145.5q59-39 104.5-116t45.5-183q0-219-157-351t-394-132q-195 0-316 102t-121 274zm218 31q0-100 62.5-153.5t168.5-53.5q127 0 224.5 74t97.5 201q0 90-62.5 145t-187.5 55q-121 0-212-73.5t-91-194.5zm157 645q0-84 54.5-132t154.5-48q111 0 194 62.5t83 166.5q0 78-58.5 127t-156.5 49q-109 0-190-61.5t-81-163.5z"/><glyph unicode="9" horiz-adv-x="1269" d="M86 348q0 20 25 21h163q16 0 21-21 31-176 225-176 119 0 226.5 111.5t156.5 339.5q-150-115-348-115-176 0-282.5 108.5t-106.5 288.5q0 248 157.5 398.5t405.5 150.5q197 0 322-129t125-387q0-166-43-332t-125-308-217.5-230-301.5-88q-188 0-295.5 104t-107.5 264zm297 590q0-106 65.5-167.5t184.5-61.5q139 0 230 87t91 214q0 113-67.5 178t-181.5 65q-135 0-228.5-92t-93.5-223z"/><glyph unicode=":" horiz-adv-x="559" d="M37 20l37 189q2 20 22 20h189q18 0 18-20l-37-189q-2-20-24-20h-189q-16 0-16 20zm153 799l37 189q6 20 25 20h188q16 0 17-20l-37-189q-2-20-23-20h-188q-19 0-19 20z"/><glyph unicode=";" horiz-adv-x="559" d="M-2-193l12 62q6 20 25 20 53 0 77.5 18.5t32.5 67.5l5 25h-97q-16 0-16 20l37 189q2 20 22 20h189q18 0 18-20l-49-248q-35-174-188-174h-50q-18 0-18 20zm192 1012l37 189q6 20 25 20h188q16 0 17-20l-37-189q-2-20-23-20h-188q-19 0-19 20z"/><glyph unicode="<" horiz-adv-x="1052" d="M102 528l35 168q2 16 25 27l844 403q4 2 8 2 10 0 10-14l-39-194q-2-20-27-29l-628-291 514-301q14-8 14-29l-33-168q-2-14-12-14-6 0-10 2l-684 412q-17 10-17 26z"/><glyph unicode="=" horiz-adv-x="1267" d="M102 328l31 159q2 20 25 21h889q16 0 16-21l-31-159q-2-20-24-21h-889q-17 1-17 21zm82 415l31 160q2 20 25 21h888q16 0 17-21l-31-160q-2-20-24-20h-889q-17 0-17 20z"/><glyph unicode=">" horiz-adv-x="1052" d="M35 102l39 195q2 20 26 29l629 290-514 302q-14 8-14 28l32 168q2 14 13 14 6 0 10-2l684-411q16-10 16-27l-34-168q-2-16-25-26l-844-404q-4-2-8-2-10 0-10 14z"/><glyph unicode="?" horiz-adv-x="1120" d="M162 1036q31 186 171 302t345 116q193 0 298-91t105-243q0-96-42-172t-105.5-127-129-98-119.5-111.5-71-144.5l-10-51q-2-20-24-21h-172q-14 0-15 21l8 51q16 106 70.5 187t118.5 129l126 93q62 44 103 97t41 121q0 70-53 112.5t-145 42.5q-96 0-177.5-54t-113.5-159q-8-20-25-20h-168q-16 0-16 20zm135-1016l41 205q2 20 24 21h205q16 0 17-21l-41-205q-2-20-25-20h-205q-16 0-16 20z"/><glyph unicode="@" horiz-adv-x="1654" d="M63 494q0 371 239 607t618 236q305 0 488-165.5t183-426.5q0-246-106.5-406.5t-292.5-160.5q-133 0-199 109-123-109-286-109-127 0-216.5 86t-89.5 244q0 205 137.5 343t311.5 138q162 0 248-86l16 55q6 16 21 17h116q16 0 17-17l-127-417q-2-6-9.5-33t-9.5-39q-4-29-4-37 0-102 96-102 88 0 144.5 115.5t56.5 267.5q0 219-123 340t-379 121q-293 0-480-194t-187-493q0-236 139-375t371-139q127 0 209 22.5t180 76.5q4 2 10 2 8 0 14-11l52-114q2-4 2-8 0-10-15-17-229-115-475-114-281 0-475.5 186.5t-194.5 497.5zm506 26q0-190 162-190 131 0 210 105.5t79 223.5q0 178-162 179-115 0-202-99.5t-87-218.5z"/><glyph unicode="A" d="M-147 16q0 8 6 17l770 1380q12 20 26 21h209q20 0 23-21l235-1380q0-33-28-33h-166q-18 0-21 20l-61 375h-551l-207-375q-12-20-29-20h-188q-18 0-18 16zm557 584h403l-92 561z"/><glyph unicode="B" horiz-adv-x="1310" d="M41 20l272 1393q2 20 25 21h510q166 0 272.5-81t106.5-233q0-233-215-356 155-93 155-287 0-199-149.5-338t-407.5-139h-553q-16 0-16 20zm258 185h336q131 0 217 70.5t86 191.5q0 184-217 184h-336zm127 651h324q111 0 179 56.5t68 152.5q0 164-186 164h-313z"/><glyph unicode="C" horiz-adv-x="1413" d="M61 580q0 170 55.5 326.5t157 278.5 256 195.5 338.5 73.5q244 0 391.5-134t147.5-372q0-20-25-20h-172q-20 0-22 20-41 301-352 301-236 0-390.5-195.5t-154.5-451.5q0-209 97-313.5t265-104.5q295 0 439 301 8 20 26 21h176q20 0 21-21-68-240-254.5-372.5t-442.5-132.5q-244 0-400.5 160.5t-156.5 439.5z"/><glyph unicode="D" horiz-adv-x="1376" d="M41 20l272 1393q2 20 25 21h403q254 0 409-150.5t155-419.5q0-373-222.5-618.5t-611.5-245.5h-414q-16 0-16 20zm258 185h182q281 0 437.5 178t156.5 440q0 406-379 406h-198z"/><glyph unicode="E" horiz-adv-x="1165" d="M41 20l272 1393q2 20 25 21h846q18 0 18-21l-33-164q-2-20-24-20h-647l-72-373h584q18 0 18-20l-33-164q-2-20-24-21h-586l-86-446h676q18 0 18-21l-32-164q-2-20-25-20h-879q-16 0-16 20z"/><glyph unicode="F" horiz-adv-x="1161" d="M41 20l272 1393q2 20 25 21h876q16 0 17-21l-33-164q-2-20-24-20h-676l-78-404h610q16 0 17-20l-33-164q-2-20-25-20h-610l-117-601q-2-20-24-20h-181q-16 0-16 20z"/><glyph unicode="G" horiz-adv-x="1474" d="M66 582q0 229 96 426.5t285.5 321.5 431.5 124q231 0 376.5-116.5t145.5-325.5q-2-20-25-21h-176q-20 0-22 21-29 237-324 237h-2q-164 0-295-102.5t-196.5-249.5-65.5-299q0-199 96-306.5t275-107.5q133 0 243.5 48.5t177.5 134.5l33 170h-393q-16 0-16 20l32 164q2 20 25 20h588q16 0 16-20l-72-375q-8-45-36-78-131-152-277.5-220t-337.5-68q-262 0-422.5 153.5t-160.5 448.5z"/><glyph unicode="H" horiz-adv-x="1435" d="M47 20l272 1393q2 20 25 21h180q16 0 17-21l-111-563h627l110 563q2 20 25 21h180q16 0 17-21l-273-1393q-2-20-24-20h-181q-16 0-16 20l123 625h-627l-123-625q-2-20-24-20h-181q-16 0-16 20z"/><glyph unicode="I" horiz-adv-x="567" d="M37 20l272 1393q2 20 25 21h180q16 0 16-21l-272-1393q-2-20-25-20h-180q-16 0-16 20z"/><glyph unicode="J" horiz-adv-x="1161" d="M-16 354q0 59 6 95 2 20 26 20h177q18 0 18-20 0-2-1-14.5t-3-31-2-30.5q0-90 53-139.5t152-49.5q129 0 208.5 83t116.5 265l172 881q2 20 25 21h178q18 0 18-21l-172-878q-61-309-203.5-432t-373.5-123q-186 0-290.5 103t-104.5 271z"/><glyph unicode="K" horiz-adv-x="1282" d="M41 20l272 1393q2 20 25 21h180q16 0 17-21l-109-549 623 549q20 20 36 21h226q18 0 18-15 0-8-8-14l-571-516 387-860q12-29-21-29h-196q-27 0-39 31l-314 704-200-178-105-537q-2-20-24-20h-181q-16 0-16 20z"/><glyph unicode="L" horiz-adv-x="1122" d="M41 20l272 1393q2 20 25 21h180q16 0 17-21l-236-1208h713q16 0 16-21l-33-164q-2-20-24-20h-914q-16 0-16 20z"/><glyph unicode="M" horiz-adv-x="1677" d="M41 20l272 1393q2 20 25 21h227q23 0 29-21l211-874 538 874q12 20 37 21h240q16 0 16-21l-272-1393q-2-20-25-20h-180q-16 0-16 20l203 1043-490-805q-10-18-31-18h-133q-18 0-22 18l-203 805-205-1043q-2-20-24-20h-181q-16 0-16 20z"/><glyph unicode="N" horiz-adv-x="1468" d="M41 20l272 1393q6 20 25 21h186q23 0 29-17l446-1052 207 1048q2 20 25 21h180q16 0 16-21l-272-1393q-2-20-25-20h-186q-23 0-29 16l-446 1053-207-1049q-2-20-24-20h-181q-16 0-16 20z"/><glyph unicode="O" horiz-adv-x="1538" d="M55 588q0 170 58.5 326.5t164 276.5 266.5 191.5 349 71.5q254 0 421-160.5t167-447.5q0-170-58.5-327t-164-276.5-266.5-191-349-71.5q-254 0-421 160.5t-167 447.5zm230 30q0-213 105.5-323.5t279.5-110.5q170 0 305 94.5t205.5 236.5 70.5 300q0 213-105.5 323.5t-279.5 110.5q-170 0-305-94t-205.5-236.5-70.5-300.5z"/><glyph unicode="P" horiz-adv-x="1267" d="M41 20l272 1393q2 20 25 21h516q186 0 298-94.5t112-254.5q0-221-150.5-341.5t-408.5-120.5h-324l-119-603q-2-20-24-20h-181q-16 0-16 20zm379 807h330q131 0 207.5 57.5t76.5 159.5q0 184-207 185h-329z"/><glyph unicode="Q" horiz-adv-x="1538" d="M55 588q0 170 58.5 326.5t164 276.5 266.5 191.5 349 71.5q254 0 421-160.5t167-447.5q0-178-63.5-342t-182.5-285l80-94q6-10 6-14-4-8-12-15l-142-123q-10-8-16-8t-12 8l-90 105q-178-98-406-98-254 0-421 160.5t-167 447.5zm230 30q0-213 105.5-323.5t279.5-110.5q127 0 241 56l-106 129q-6 8-6 14 4 8 12 14l143 123q8 8 14.5 8t14.5-8l113-135q155 183 155 427 0 216-105.5 326.5t-279.5 110.5q-170 0-305-94t-205.5-236.5-70.5-300.5z"/><glyph unicode="R" horiz-adv-x="1300" d="M41 20l272 1393q2 20 25 21h528q176 0 279.5-87t103.5-249q0-309-346-418l180-660q2-6 2-10 0-10-14-10h-197q-18 0-24 20l-174 644h-289l-125-644q-2-20-24-20h-181q-16 0-16 20zm387 848h332q123 0 191.5 51.5t68.5 151.5q0 158-193 158h-329z"/><glyph unicode="S" horiz-adv-x="1206" d="M16 391q0 18 4 55 2 20 25 21h176q16 0 17-21 0-127 67.5-194.5t222.5-67.5q141 0 241.5 60.5t100.5 179.5q0 76-75.5 126t-231.5 93q-209 57-308 144t-99 241q0 199 157.5 312.5t384.5 113.5q215 0 337-108.5t122-278.5v-25q-2-20-24-20h-177q-16 0-16 20 0 94-74.5 150.5t-197.5 56.5q-113 0-204-50t-91-148q0-88 76.5-134.5t240.5-95.5q186-55 294-136t108-222q0-233-160-358t-418-125q-225 0-361.5 115.5t-136.5 295.5z"/><glyph unicode="T" horiz-adv-x="1058" d="M88 1249l33 164q2 20 24 21h1020q16 0 17-21l-33-164q-2-20-25-20h-399l-236-1209q-2-20-24-20h-180q-16 0-17 20l236 1209h-400q-16 0-16 20z"/><glyph unicode="U" horiz-adv-x="1349" d="M106 440q0 45 11 107l168 866q2 20 24 21h180q16 0 17-21l-172-876q-10-45-10-105 0-123 66.5-185.5t187.5-62.5q145 0 242.5 92.5t129.5 260.5l172 876q2 20 25 21h180q16 0 16-21l-174-889q-53-274-210.5-409t-399.5-135q-211 0-332 118.5t-121 341.5z"/><glyph unicode="V" horiz-adv-x="1228" d="M111 1413q0 20 20 21h191q18 0 20-21l170-1149 604 1149q8 20 29 21h215q14 0 14-9 0-4-4-12l-760-1393q-8-20-26-20h-230q-16 0-18 20z"/><glyph unicode="W" horiz-adv-x="1763" d="M158 1413q0 20 20 21h176q20 0 21-21l39-1106 446 1008q8 20 29 20h188q18 0 21-20l65-1008 457 1106q8 20 29 21h182q14 0 14-11 0-4-2-10l-586-1393q-8-20-26-20h-227q-16 0-19 20l-57 984-436-984q-8-20-27-20h-227q-16 0-19 20z"/><glyph unicode="X" horiz-adv-x="1198" d="M-125 10q0 5 4 10l623 748-297 645q-10 20 12 21h197q16 0 24-21l213-467 389 467q18 20 37 21h209q10 0 13-7 1-2 1-4 0-5-4-10l-553-668 332-725q10-20-14-20h-193q-16 0-24 20l-250 545-451-545q-14-20-32-20h-224q-8 0-11 6-1 2-1 4z"/><glyph unicode="Y" horiz-adv-x="1081" d="M109 1413q0 20 18 21h195q18 0 22-17l182-655 443 655q10 16 26 17h209q14 0 14-8 0-5-6-13l-614-897-96-496q-2-20-25-20h-180q-16 0-16 20l96 496z"/><glyph unicode="Z" horiz-adv-x="1230" d="M-53 20l33 164q2 14 18 35l942 1010h-704q-16 0-17 20l33 164q2 20 24 21h945q16 0 16-21l-33-164q-2-14-18-35l-936-1009h780q16 0 17-21l-33-164q-2-20-25-20h-1026q-16 0-16 20z"/><glyph unicode="[" horiz-adv-x="915" d="M18-385l349 1798q2 20 24 21h547q16 0 16-21l-32-164q-2-20-25-20h-346l-277-1430h347q16 0 16-20l-33-164q-2-20-24-21h-547q-15 1-15 21z"/><glyph unicode="\" horiz-adv-x="616" d="M-18 1413q-6 20 16 21h174q18 0 25-21l438-1393q6-20-19-20h-174q-16 0-22 20z"/><glyph unicode="]" horiz-adv-x="915" d="M-119-385l33 164q2 20 25 20h344l276 1430h-346q-16 0-16 20l32 164q2 20 25 21h547q16 0 16-21l-350-1798q-2-20-25-21h-544q-17 1-17 21z"/><glyph unicode="^" horiz-adv-x="1146" d="M46 754q-3 6 3 14l518 645q14 20 31 21h186q16 0 25-21l270-645q6-20-16-20h-172q-16 0-25 20l-196 473-381-473q-14-20-33-20h-199q-8 0-11 6z"/><glyph unicode="_" horiz-adv-x="950" d="M-119-180l31 160q2 20 25 20h864q16 0 16-20l-31-160q-2-20-24-21h-864q-17 1-17 21z"/><glyph unicode="`" horiz-adv-x="608" d="M180 1413q-4 8 0 14.5t15 6.5h223q18 0 26-21l91-258q8-20-15-20h-147q-20 0-33 18z"/><glyph unicode="a" horiz-adv-x="1239" d="M41 436q0 264 162 438.5t428 174.5q176 0 289-101l10 60q2 20 24 20h168q16 0 17-20l-191-988q-2-20-24-20h-168q-16 0-17 20l11 56q-123-96-304-96-176 0-290.5 117.5t-114.5 338.5zm221 4q0-127 65.5-197.5t176.5-70.5q154 0 255 120t101 298q0 123-64.5 194.5t-181.5 71.5q-156 0-254-121t-98-295z"/><glyph unicode="b" horiz-adv-x="1263" d="M47 20l272 1393q2 20 25 21h168q16 0 16-21l-90-467q137 102 334 103 164 0 266.5-115t102.5-328q0-252-156-439t-405-187q-190 0-308 116l-16-76q-2-20-25-20h-168q-16 0-16 20zm281 429q0-133 65.5-205t173.5-72q154 0 251 118t97 288q0 131-59 204.5t-170 73.5q-156 0-257-114.5t-101-292.5z"/><glyph unicode="c" horiz-adv-x="1148" d="M45 440q0 264 170 436.5t440 172.5q190 0 308-103.5t118-251.5q0-4-1-11t-1-9q-2-12-18-12h-166q-20 0-25 18-29 176-241 176-154 0-258.5-115.5t-104.5-283.5q0-285 250-285 186 0 287 176 8 18 33 19h174q12 0 12-13 0-6-6-20-147-354-522-354-207 0-328 122.5t-121 337.5z"/><glyph unicode="d" horiz-adv-x="1247" d="M45 432q0 254 158.5 435.5t412.5 181.5q184 0 299-119l95 483q2 20 24 21h168q16 0 17-21l-273-1393q-2-20-24-20h-168q-16 0-17 20l15 66q-127-106-299-106-184 0-296 116.5t-112 335.5zm221 0q0-123 62.5-191.5t169.5-68.5q166 0 264 122t98 292q0 121-63.5 195.5t-180.5 74.5q-158 0-254-124t-96-300z"/><glyph unicode="e" horiz-adv-x="1196" d="M45 449q0 246 174 423t438 177q211 0 323-124t112-315q0-45-11-102l-8-39q-2-20-24-20h-783v-25q0-119 64.5-185.5t181.5-66.5q188 0 293 154 12 18 31 18h178q12 0 12-14 0-6-6-21-147-329-520-329h-2q-201 0-327 124t-126 345zm252 184h577q-10 223-239 223-102 0-194.5-56t-143.5-167z"/><glyph unicode="f" horiz-adv-x="749" d="M53 856l29 152q2 20 24 20h164l21 109q29 152 125 234.5t235 82.5q115 0 213-45 12-8 13-18 0-6-3-17l-28-141q-4-20-19-21-6 0-14 5-84 45-156 45-74 0-111.5-39t-51.5-119l-15-76h295q16 0 17-20l-29-152q-6-20-25-20h-295l-159-816q-2-20-25-20h-168q-18 0-16 20l159 816h-163q-17 0-17 20z"/><glyph unicode="g" horiz-adv-x="1247" d="M31-80q2 20 24 21h160q16 0 16-21 0-153 212-153h3q254 0 308 294l6 35q-82-51-145.5-71.5t-155.5-20.5q-178 0-280.5 107.5t-102.5 310.5q0 256 152.5 441.5t408.5 185.5q186 0 287-107l14 66q2 20 25 20h167q16 0 17-20l-180-926q-53-274-182.5-391t-360.5-117q-195 0-294 88t-99 258zm262 533q0-125 61.5-190.5t182.5-65.5q145 0 239 120.5t94 278.5q0 260-225 260-158 0-255-119.5t-97-283.5z"/><glyph unicode="h" horiz-adv-x="1243" d="M41 20l272 1393q2 20 25 21h168q16 0 16-21l-94-485q162 121 350 121 150 0 231-74t81-201q0-39-11-96l-129-658q-2-20-24-20h-168q-16 0-17 20l119 603q8 49 8 69 0 76-42 120t-128 44q-123 0-222-91t-132-259l-94-486q-2-20-25-20h-168q-16 0-16 20z"/><glyph unicode="i" horiz-adv-x="548" d="M43 20l190 988q2 20 25 20h168q16 0 16-20l-192-988q-2-20-25-20h-166q-16 0-16 20zm207 1188l41 205q2 20 24 21h213q16 0 17-21l-41-205q-2-20-25-20h-213q-16 0-16 20z"/><glyph unicode="j" horiz-adv-x="548" d="M-88-352q0 6 2 10 88 154 113 279l206 1071q2 20 25 20h168q16 0 16-20l-204-1063q-41-205-132-355-10-16-18-16-6 0-20 6l-144 53q-12 7-12 15zm338 1560l41 205q2 20 24 21h213q16 0 17-21l-41-205q-2-20-23-20h-213q-18 0-18 20z"/><glyph unicode="k" horiz-adv-x="1116" d="M51 20l273 1393q2 20 24 21h168q16 0 16-21l-147-756 444 353q23 18 37 18h221q14 0 15-12 0-8-12-19l-424-350 272-616q2-6 2-15-4-16-22-16h-177q-20 0-28 18l-219 500-162-131-72-367q-2-20-24-20h-168q-17 0-17 20z"/><glyph unicode="l" horiz-adv-x="550" d="M43 20l272 1393q2 20 25 21h168q16 0 16-21l-272-1393q-2-20-25-20h-168q-16 0-16 20z"/><glyph unicode="m" horiz-adv-x="1677" d="M43 20l190 988q2 20 25 20h168q16 0 16-20l-14-78q115 119 274 119 96 0 150.5-33t97.5-105q137 137 322 138 121 0 186.5-64.5t65.5-181.5q0-47-8-90l-134-693q-2-20-24-20h-168q-16 0-16 20l124 644q8 49 9 69 0 123-125 123-96 0-168-92t-105-264l-92-480q-2-20-24-20h-168q-16 0-17 20l125 644q8 53 8 69 0 123-133 123-92 0-160.5-89t-103.5-267l-92-480q-2-20-25-20h-168q-16 0-16 20z"/><glyph unicode="n" horiz-adv-x="1218" d="M41 20l190 988q2 20 25 20h168q16 0 16-20l-16-93q156 133 352 134 139 0 216-72t77-195q0-37-10-92l-129-670q-2-20-25-20h-168q-16 0-16 20l119 611q8 35 8 71 0 72-43 113t-123 41q-115 0-210-91t-128-259l-94-486q-2-20-25-20h-168q-16 0-16 20z"/><glyph unicode="o" horiz-adv-x="1245" d="M45 434q0 268 177 441.5t450 173.5q211 0 339-128t128-327q0-268-177.5-441t-449.5-173q-211 0-339 127.5t-128 326.5zm221 19q0-133 70-207t196-74q164 0 275 112.5t111 290.5q0 133-70 207t-197 74q-164 0-274.5-112.5t-110.5-290.5z"/><glyph unicode="p" d="M-29-385l273 1393q2 20 24 20h168q16 0 17-20l-15-66q127 106 299 107 184 0 296-117t112-336q0-254-159-435t-413-181q-184 0-299 118l-94-483q-2-20-24-21h-168q-17 1-17 21zm359 827q0-121 63.5-195.5t179.5-74.5q158 0 254.5 124t96.5 300q0 123-62.5 191.5t-169.5 68.5q-166 0-264-122t-98-292z"/><glyph unicode="q" horiz-adv-x="1247" d="M47 422q0 252 155.5 439.5t405.5 187.5q190 0 307-117l17 76q6 20 24 20h166q18 0 19-20l-273-1393q-2-20-24-21h-168q-16 0-17 21l91 467q-137-102-312-102-180 0-285.5 113.5t-105.5 328.5zm221 29q0-131 61.5-205t172.5-74q156 0 257 114.5t101 293.5q0 133-65.5 204.5t-173.5 71.5q-156 0-254.5-118.5t-98.5-286.5z"/><glyph unicode="r" horiz-adv-x="905" d="M43 20l190 988q2 20 25 20h168q16 0 16-20l-12-74q129 115 291 115 96 0 178-33 20-8 21-23 0-4-2-14l-33-162q-4-23-21-22-4 0-12 4-109 57-195 57-109 0-192.5-81t-110.5-220l-102-535q-2-20-25-20h-168q-16 0-16 20z"/><glyph unicode="s" horiz-adv-x="1036" d="M25 326q0 20 24 20h168q16 0 16-20 4-84 53.5-119t149.5-35q94 0 163 35t69 110q0 45-53.5 71t-190.5 54q-156 33-230.5 99.5t-74.5 183.5q0 150 127 237t311 87q176 0 277.5-86t101.5-222q0-20-25-20h-174q-14 0-16 20-23 115-195 115-74 0-136-29.5t-62-93.5q0-49 54-79.5t187-55.5q319-57 320-258 0-170-130-265t-335-95q-201 0-300 91t-99 255z"/><glyph unicode="t" horiz-adv-x="845" d="M43 856l29 152q2 20 24 20h176l58 295q2 20 24 20h166q18 0 19-20l-58-295h322q16 0 16-20l-28-152q-2-20-25-20h-322l-92-471q-4-23-4-62 0-131 123-131 96 0 186 35 4 2 13 2 14 0 14-19l-29-145q-6-29-22-35-85-30-209-30h-8q-137 0-211 68.5t-74 189.5q0 45 6 81l99 517h-177q-16 0-16 20z"/><glyph unicode="u" horiz-adv-x="1206" d="M80 246q0 37 10 92l129 670q2 20 25 20h168q16 0 16-20l-119-611q-8-35-8-71 0-72 43-113t123-41q115 0 210 91t128 259l94 486q2 20 25 20h168q16 0 16-20l-190-988q-2-20-25-20h-168q-16 0-16 20l16 93q-156-133-352-133-139 0-216 71.5t-77 194.5z"/><glyph unicode="v" horiz-adv-x="960" d="M29 995q0 8 2 15 2 18 20 18h174q25 0 25-20l123-740 407 740q12 20 33 20h180q16 0 17-16 0-4-6-17l-558-975q-14-20-28-20h-185q-18 0-20 20z"/><glyph unicode="w" horiz-adv-x="1560" d="M86 1004q0 25 20 24h173q23 0 24-20l64-734 323 684q8 20 29 21h184q18 0 21-21l82-684 340 734q8 20 32 20h174q14 0 15-14 0-4-6-17l-476-977q-10-20-30-20h-185q-23 0-22 20l-82 685-324-685q-12-20-30-20h-181q-23 0-22 20z"/><glyph unicode="x" horiz-adv-x="1024" d="M-94 10q0 6 8 17l455 518-240 452q-4 8-4 17 0 14 16 14h191q20 0 26-14l160-305 268 305q12 14 31 14h201q12 0 12-12 0-8-6-15l-414-469 264-505q4-8 5-17 0-10-15-10h-194q-16 0-25 20l-182 345-295-345q-20-20-33-20h-219q-10 0-10 10z"/><glyph unicode="y" horiz-adv-x="1075" d="M-137-371q0 4 2 15l29 147q2 20 20 21 8 0 52-22.5t93-22.5q74 0 131.5 55t118.5 186l-213 985q-2 10-2 19 0 16 21 16h186q20 0 23-20l137-711 364 711q8 20 31 20h186q14 0 15-14 0-6-4-15l-582-1099q-96-184-195.5-255t-216.5-71q-104 0-180 33-16 6-16 22z"/><glyph unicode="z" horiz-adv-x="999" d="M-39 20l29 152q2 10 16 31l664 633h-506q-16 0-17 20l29 152q2 20 25 20h741q16 0 16-20l-28-152q-4-25-25-43l-651-620h565q16 0 17-21l-29-152q-6-20-25-20h-805q-16 0-16 20z"/><glyph unicode="{" horiz-adv-x="815" d="M20 432l31 164q2 20 25 20h57q61 0 98 30t54 108l57 288q45 223 132 307.5t274 84.5h96q16 0 16-21l-33-164q-2-20-24-20h-68q-72 0-111.5-40t-58.5-132l-71-365q-16-82-51-119.5t-111-58.5q96-31 96-135 0-27-2-43l-72-365q-8-43-8-69 0-53 26.5-78t86.5-25h67q16 0 17-20l-33-164q-2-20-25-21h-84q-133 0-204.5 70t-71.5 201q0 66 10 121l58 288q6 29 6 50 0 88-105 88h-57q-17 0-17 20z"/><glyph unicode="|" horiz-adv-x="585" d="M25-184l307 1597q2 20 24 21h176q16 0 17-21l-309-1597q-2-20-25-21h-176q-14 1-14 21z"/><glyph unicode="}" horiz-adv-x="815" d="M-90-385l33 164q2 20 24 20h68q72 0 111.5 40t58.5 132l71 365q16 82 51 120t111 58q-96 31-96 135 0 27 2 43l72 365q8 43 8 69 0 53-26.5 78t-86.5 25h-67q-16 0-17 20l33 164q2 20 25 21h84q133 0 204.5-70t71.5-201q0-66-10-121l-57-288q-6-29-7-49 0-88 105-89h57q16 0 17-20l-31-164q-2-20-25-20h-57q-61 0-98-30t-54-108l-57-288q-45-223-132-307.5t-273-84.5h-97q-16 1-16 21z"/><glyph unicode="~" horiz-adv-x="1056" d="M45 737q0 14 23 29 51 33 132 53.5t134 20.5q100 0 206.5-42t172.5-42q78 0 166 51 12 4 16 4 10 0 16-16l60-131q4-8 4-19 0-14-23-29-51-33-132-53t-134-20q-100 0-206.5 42t-172.5 42q-78 0-166-52-12-4-16-4-10 0-16 17l-60 131q-4 10-4 18z"/><glyph unicode="¡" horiz-adv-x="718" d="M51-385l195 997q2 20 24 21h172q16 0 17-21l-195-997q-2-20-24-21h-172q-17 1-17 21zm215 1188l41 205q2 20 25 20h205q16 0 16-20l-41-205q-2-20-25-21h-204q-17 1-17 21z"/><glyph unicode="¢" horiz-adv-x="1169" d="M78 643q0 242 144.5 409t379.5 193l33 168q2 20 24 21h160q16 0 17-21l-35-172q145-29 229-124t84-220q0-4-1-11t-1-9q-2-12-18-13h-166q-20 0-25 19-20 125-139 161l-131-659q129 35 203 166 8 18 32 18h174q12 0 13-12 0-4-6-20-135-322-455-353l-31-164q-6-20-24-20h-160q-16 0-17 20l35 177q-152 35-235.5 150.5t-83.5 295.5zm221 16q0-205 137-266l127 651q-117-35-190.5-140.5t-73.5-244.5z"/><glyph unicode="£" horiz-adv-x="1214" d="M0 20l31 166q2 16 24 41 190 190 201 381h-168q-16 0-16 21l30 159q2 20 25 21h109q-10 68-11 143 0 225 147.5 363.5t372.5 138.5q184 0 295-99.5t111-252.5q0-20-6-66-2-20-25-20h-170q-16 0-16 20v21q0 86-55.5 139t-165.5 53q-121 0-194-85t-73-210q0-35 19-145h409q16 0 17-21l-31-159q-2-20-24-21h-363q-18-219-199-403h727q16 0 17-21l-33-164q-2-20-24-20h-947q-14 0-14 20z"/><glyph unicode="¤" horiz-adv-x="1161" d="M20 203q0 8 11 16l133 109q-31 66-31 149 0 168 105 293l-76 94q-4 6-4 12.5t10 16.5l113 96q10 8 16 8 4 0 12-8l82-102q102 49 213 49 125 0 217-57l137 116q10 8 16.5 8.5t12.5-8.5l90-106q4-6 4-12 0-8-10-17l-133-110q31-68 31-150 0-162-109-291l78-96q4-6 4-12 0-8-10-17l-111-94q-8-8-16-8-4 0-12 8l-84 100q-102-49-211-49-123 0-219 58l-136-115q-8-8-16-8-4 0-12 8l-90 106q-5 7-5 13zm308 297q0-84 48-131t132-47q104 0 184 72.5t80 178.5q0 88-49 135.5t-139 47.5q-102 0-179-75t-77-181z"/><glyph unicode="¥" horiz-adv-x="1140" d="M57 231l33 160q2 20 25 21h299l18 96h-340q-16 0-16 20l30 160q2 20 25 21h246l-209 704q0 20 16 21h201q14 0 18-17l185-657 442 657q10 16 27 17h209q12 0 12-9 0-6-4-12l-486-704h265q16 0 16-21l-31-160q-2-20-24-20h-361l-18-96h319q16 0 17-21l-33-160q-2-20-25-20h-317l-37-191q-2-20-24-20h-181q-16 0-16 20l37 191h-301q-17 0-17 20z"/><glyph unicode="¦" horiz-adv-x="626" d="M18-385l148 764q2 20 24 20h181q16 0 16-20l-149-764q-2-20-25-21h-178q-17 1-17 21zm199 1034l150 764q2 20 24 21h180q16 0 17-21l-150-764q-2-20-24-20h-181q-16 0-16 20z"/><glyph unicode="§" horiz-adv-x="1044" d="M-31-29q2 20 25 21h176q16 0 16-21v-28q0-164 193-164 102 0 167.5 56t65.5 149q0 68-50 120t-161 119q-170 104-234.5 177t-64.5 190q0 135 142 244-66 90-66 192 0 193 135.5 310.5t337.5 117.5q178 0 285.5-94t107.5-232q0-35-6-71-2-20-24-21h-176q-16 0-17 21 2 16 2 28 0 164-194 164-96 0-165-53t-69-147q0-70 49.5-122.5t161.5-119.5q168-104 233.5-176t65.5-182q0-152-141-254 66-90 65-203 0-184-136-301t-343-117q-182 0-281.5 103.5t-99.5 236.5v57zm350 619q0-43 53.5-92t211.5-150l39-24q66 41 65 106 0 51-52 100.5t-212 149.5l-31 20q-74-40-74-110z"/><glyph unicode="¨" horiz-adv-x="718" d="M156 1221l39 192q2 20 24 21h193q16 0 16-21l-39-192q-2-20-24-21h-193q-16 1-16 21zm352 0l39 192q2 20 24 21h193q16 0 16-21l-39-192q-2-20-24-21h-193q-16 1-16 21z"/><glyph unicode="©" horiz-adv-x="1638" d="M106 717q0 170 62.5 313.5t164 233.5 227.5 140 259 50 259-50 227.5-140 164-233.5 62.5-313.5-62.5-313.5-164-233.5-227.5-140-259-50-259 50-227.5 140-164 233.5-62.5 313.5zm99 0q0-207 92-359.5t228.5-222 294-69.5 293.5 69.5 228.5 222 92.5 359.5-92.5 359.5-228.5 222-293.5 69.5-294-69.5-228.5-222-92-359.5zm184 0q0 225 128 351t302 126q158 0 268.5-83t137.5-222q0-20-23-21h-49q-23 0-29 21-25 98-104.5 158.5t-200.5 60.5q-135 0-233.5-104.5t-98.5-286.5 98.5-286.5 233.5-104.5q121 0 201 60t104 159q6 20 29 20h49q23 0 23-20-27-139-137.5-222t-268.5-83q-174 0-302 126t-128 351z"/><glyph unicode="ª" horiz-adv-x="954" d="M119 993q0 197 120.5 327t317.5 130q127 0 215-76l8 45q0 14 17 15h125q12 0 12-15l-141-735q-2-14-19-14h-125q-12 0-12 14l8 43q-90-72-225-72-131 0-216 87t-85 251zm164 4q0-94 49-147t131-53q113 0 188.5 89t75.5 222q0 92-48 145.5t-134 53.5q-115 0-188.5-90.5t-73.5-219.5z"/><glyph unicode="«" horiz-adv-x="1169" d="M51 496l27 139q2 20 28 37l533 403q8 6 14 6 8 0 9-14l-46-227q-2-20-20-33l-350-256 250-272q10-10 10-21 0-4-2-12l-39-191q-4-14-14-14-6 0-13 6l-375 412q-14 19-12 37zm436 0l27 139q2 20 29 37l532 403q10 6 15 6 8 0 8-14l-45-227q-2-20-21-33l-350-256 250-272q10-10 10-21 0-4-2-12l-39-191q-4-14-14-14-6 0-13 6l-374 412q-15 19-13 37z"/><glyph unicode="¬" horiz-adv-x="1116" d="M84 659l29 152q2 20 24 20h836q16 0 16-20l-84-430q-2-20-24-21h-168q-16 0-17 21l52 258h-648q-16 0-16 20z"/><glyph unicode="­" horiz-adv-x="1075" d="M117 621l30 159q2 20 25 21h770q16 0 16-21l-30-159q-2-20-25-21h-770q-16 1-16 21z"/><glyph unicode="®" horiz-adv-x="1638" d="M106 717q0 170 62.5 313.5t164 233.5 227.5 140 259 50 259-50 227.5-140 164-233.5 62.5-313.5-62.5-313.5-164-233.5-227.5-140-259-50-259 50-227.5 140-164 233.5-62.5 313.5zm99 0q0-207 92-359.5t228.5-222 294-69.5 293.5 69.5 228.5 222 92.5 359.5-92.5 359.5-228.5 222-293.5 69.5-294-69.5-228.5-222-92-359.5zm332-445v893q0 23 22 23h279q145 0 221-70.5t76-189.5q0-94-51.5-161t-137.5-91l201-404q4-8 4-14 0-8-12-8h-58q-25 0-32 18l-201 396h-213v-392q0-23-23-22h-53q-22-1-22 22zm98 478h217q184 0 184 178 0 174-184 174h-217v-352z"/><glyph unicode="¯" horiz-adv-x="575" d="M156 1221l26 143q2 20 25 20h409q16 0 17-20l-27-143q-2-20-24-21h-410q-16 1-16 21z"/><glyph unicode="°" horiz-adv-x="876" d="M131 1047q0 174 120 290.5t304 116.5q145 0 239.5-86t94.5-227q0-174-120-291t-304-117q-145 0-239.5 86.5t-94.5 227.5zm188 14q0-74 43.5-117t118.5-43q96 0 157.5 66.5t61.5 158.5q0 74-43 117t-118 43q-96 0-158-66.5t-62-158.5z"/><glyph unicode="±" horiz-adv-x="1212" d="M10 20l31 160q2 20 25 21h888q16 0 17-21l-31-160q-2-20-25-20h-888q-17 0-17 20zm121 648l31 159q2 20 24 21h340l68 344q2 20 24 20h168q16 0 17-20l-68-344h340q16 0 17-21l-31-159q-2-20-25-21h-340l-67-344q-2-20-25-20h-168q-16 0-16 20l67 344h-340q-16 1-16 21z"/><glyph unicode="²" horiz-adv-x="786" d="M109 688l14 78q2 18 18 29l367 266q96 70 96 151 0 94-106 95-49 0-88-32t-58-81q-8-20-24-20h-103q-16 0-16 20 18 109 99 180.5t200 71.5q113 0 178.5-60.5t65.5-148.5q0-152-160-268l-217-162h291q16 0 16-21l-18-98q-2-20-25-20h-514q-16 0-16 20z"/><glyph unicode="³" horiz-adv-x="770" d="M121 872q0 10 2 23 2 20 24 20h103q16 0 16-20 0-49 33-74.5t86-25.5q57 0 93 30.5t36 83.5q0 90-104 90h-66q-16 0-16 21l18 98q2 20 25 21h45q57 0 97 25.5t40 74.5q0 35-23.5 55.5t-66.5 20.5q-86 0-121-84-8-16-25-17h-102q-16 0-16 19 23 98 99.5 155.5t178.5 57.5q104 0 162.5-52.5t58.5-138.5q0-119-118-178 86-47 86-159 0-119-79-191t-214-72q-113 0-182.5 63.5t-69.5 153.5z"/><glyph unicode="´" horiz-adv-x="608" d="M149.5 1141q-2.5 6 4.5 14l190 258q14 20 35 21h229q10 0 12.5-6.5t-6.5-14.5l-262-260q-18-18-41-18h-151q-8 0-10.5 6z"/><glyph unicode="µ" horiz-adv-x="1206" d="M-53-385l272 1393q2 20 25 20h168q16 0 16-20l-119-611q-8-35-8-71 0-72 43-113t123-41q115 0 210 91t128 259l94 486q2 20 25 20h168q16 0 16-20l-190-988q-2-20-25-20h-168q-16 0-16 20l16 93q-156-133-352-133-82 0-142 24l-75-389q-2-20-25-21h-168q-16 1-16 21z"/><glyph unicode="¶" horiz-adv-x="1292" d="M90 993q0 209 148.5 325t375.5 116h744q16 0 16-21l-31-164q-2-20-24-20h-123l-274-1413q-2-20-25-21h-180q-16 0-17 21l275 1413h-146l-274-1413q-2-20-25-21h-180q-16 0-16 21l162 839h-37q-174 0-271.5 87t-97.5 251z"/><glyph unicode="·" horiz-adv-x="559" d="M147 639l35 188q2 20 25 21h188q16 0 17-21l-35-188q-2-20-25-21h-188q-17 1-17 21z"/><glyph unicode="¸" horiz-adv-x="532" d="M-115-385l17 80q4 20 24 20 4 0 58.5-13t121.5-13q100 0 101 55 0 43-66 43-37 0-114-18-8-2-15-2-10 0-16 6l-33 39q-6 6-6 12 0 4 4 12l109 221q12 20 24 21h115q25 0 12-21l-112-174q53 14 108 15 158 0 158-136 0-92-74-140t-188-48q-131 0-209 20-19 7-19 21z"/><glyph unicode="¹" horiz-adv-x="563" d="M176 1188l23 117q2 12 18 20l193 100q16 8 32 9h66q16 0 16-21l-141-725q-2-20-25-20h-102q-16 0-16 20l108 559-139-69q-16-6-21-7-12 1-12 17z"/><glyph unicode="º" horiz-adv-x="956" d="M117 991q0 199 132 329t335 130q158 0 253-96.5t95-243.5q0-201-131-329t-336-128q-156 0-252 95.5t-96 242.5zm166 15q0-100 52-154.5t146-54.5q121 0 204 84t83 215q0 100-52 154.5t-147 54.5q-121 0-203.5-84t-82.5-215z"/><glyph unicode="»" horiz-adv-x="1169" d="M29 55l45 228q2 20 20 32l350 256-249 273q-10 10-11 20 0 4 2 13l39 190q4 14 15 14 6 0 12-6l375-411q14-18 12-37l-27-140q-2-20-28-36l-533-404q-10-6-14-6-8 0-8 14zm436 0l45 228q2 20 20 32l351 256-250 273q-10 10-10 20 0 4 2 13l39 190q4 14 14 14 6 0 12-6l375-411q14-18 12-37l-26-140q-2-20-29-36l-533-404q-8-6-14-6-8 0-8 14z"/><glyph unicode="¼" horiz-adv-x="1732" d="M102 88q0 6 9 14l1378 1325q6 6 14 6.5t15-6.5l61-67q8-8 8-14.5t-8-14.5l-1378-1325q-6-6-14.5-6t-14.5 6l-61 68q-9 8-9 14zm72 1100l23 117q2 12 18 20l193 100q16 8 32 9h66q16 0 16-21l-141-725q-2-20-25-20h-102q-16 0-16 20l108 559-139-69q-14-6-21-7-12 1-12 17zm672-1038l18 86q4 14 13 24l434 492q14 14 26 14h103q16 0 16-21l-92-477h96q16 0 17-20l-21-98q-2-20-24-21h-97l-20-109q-2-20-25-20h-102q-16 0-17 20l21 109h-330q-16 1-16 21zm213 118h162l45 236z"/><glyph unicode="½" horiz-adv-x="1822" d="M102 88q0 6 9 14l1378 1325q6 6 14 6.5t15-6.5l61-67q8-8 8-14.5t-8-14.5l-1378-1325q-6-6-14.5-6t-14.5 6l-61 68q-9 8-9 14zm72 1100l23 117q2 12 18 20l193 100q16 8 32 9h66q16 0 16-21l-141-725q-2-20-25-20h-102q-16 0-16 20l108 559-139-69q-14-6-21-7-12 1-12 17zm858-1168l15 78q2 18 18 29l367 266q96 70 96 152 0 94-107 94-49 0-88-32t-57-81q-8-20-25-20h-102q-16 0-16 20 18 109 99 180.5t200 71.5q113 0 178-60.5t65-148.5q0-152-159-268l-218-162h291q16 0 17-20l-19-99q-2-20-24-20h-514q-17 0-17 20z"/><glyph unicode="¾" horiz-adv-x="1800" d="M121 872q0 10 2 23 2 20 24 20h103q16 0 16-20 0-49 33-74.5t86-25.5q57 0 93 30.5t36 83.5q0 90-104 90h-66q-16 0-16 21l18 98q2 20 25 21h45q57 0 97 25.5t40 74.5q0 35-23.5 55.5t-66.5 20.5q-86 0-121-84-8-16-25-17h-102q-16 0-16 19 23 98 99.5 155.5t178.5 57.5q104 0 162.5-52.5t58.5-138.5q0-119-118-178 86-47 86-159 0-119-79-191t-214-72q-113 0-182.5 63.5t-69.5 153.5zm49-784q0 6 8 14l1378 1325q6 6 14.5 6.5t14.5-6.5l62-67q8-8 8-14.5t-8-14.5l-1379-1325q-6-6-14-6t-14 6l-62 68q-8 8-8 14zm743 62l19 86q2 14 12 24l434 492q14 14 27 14h102q16 0 17-21l-92-477h96q16 0 16-20l-20-98q-2-20-25-21h-96l-21-109q-2-20-24-20h-103q-16 0-16 20l21 109h-330q-17 1-17 21zm213 118h162l45 236z"/><glyph unicode="¿" horiz-adv-x="1120" d="M-20-92q0 96 41.5 172t105 127 129.5 98 120 111.5 70 144.5l11 51q2 20 24 21h172q14 0 15-21l-9-51q-16-106-70-187t-118-129l-126-92q-62-44-103-97.5t-41-121.5q0-70 53-112.5t145-42.5q96 0 177 54t114 159q8 20 25 20h168q16 0 16-20-31-186-171-302t-345-116q-193 0-298 91t-105 243zm497 895l41 205q2 20 25 20h205q16 0 16-20l-41-205q-2-20-25-21h-204q-17 1-17 21z"/><glyph unicode="À" d="M-147 16q0 8 6 17l770 1380q12 20 26 21h209q20 0 23-21l235-1380q0-33-28-33h-166q-18 0-21 20l-61 375h-551l-207-375q-12-20-29-20h-188q-18 0-18 16zm557 584h403l-92 561zm94 1219q-4 8 0 14t14 6h223q18 0 27-20l90-258q8-20-14-21h-148q-20 0-32 19z"/><glyph unicode="Á" d="M-147 16q0 8 6 17l770 1380q12 20 26 21h209q20 0 23-21l235-1380q0-33-28-33h-166q-18 0-21 20l-61 375h-551l-207-375q-12-20-29-20h-188q-18 0-18 16zm557 584h403l-92 561zm280 946q-2 6 4 15l191 258q14 20 35 20h229q10 0 12-6t-6-14l-262-260q-18-18-41-19h-152q-8 0-10 6z"/><glyph unicode="Â" d="M-147 16q0 8 6 17l770 1380q12 20 26 21h209q20 0 23-21l235-1380q0-33-28-33h-166q-18 0-21 20l-61 375h-551l-207-375q-12-20-29-20h-188q-18 0-18 16zm557 584h403l-92 561zm45 934q-2 6 6 14l270 275q16 16 33 16h139q18 0 29-16l164-275q4-8 0-14t-15-6h-151q-20 0-35 18l-86 109-137-109q-20-18-39-18h-166q-10 0-12 6z"/><glyph unicode="Ã" d="M-147 16q0 8 6 17l770 1380q12 20 26 21h209q20 0 23-21l235-1380q0-33-28-33h-166q-18 0-21 20l-61 375h-551l-207-375q-12-20-29-20h-188q-18 0-18 16zm557 584h403l-92 561zm24 1149q0 8 10 16 131 94 246 95 82 0 145.5-42t112.5-42q59 0 135 49 6 4 17 4 8 0 16-17l55-102q4-8 4.5-16t-10.5-17q-131-94-245-94-82 0-145.5 42t-112.5 42q-59 0-136-49-6-4-16-4-8 0-16 16l-56 103q-4 8-4 16z"/><glyph unicode="Ä" d="M-147 16q0 8 6 17l770 1380q12 20 26 21h209q20 0 23-21l235-1380q0-33-28-33h-166q-18 0-21 20l-61 375h-551l-207-375q-12-20-29-20h-188q-18 0-18 16zm557 584h403l-92 561zm94 1026l39 193q2 20 24 20h193q16 0 16-20l-39-193q-2-20-24-20h-193q-16 0-16 20zm352 0l39 193q2 20 25 20h192q16 0 16-20l-38-193q-2-20-25-20h-193q-16 0-16 20z"/><glyph unicode="Å" d="M-147 16q0 8 6 17l770 1380q12 20 26 21h209q20 0 23-21l235-1380q0-33-28-33h-166q-18 0-21 20l-61 375h-551l-207-375q-12-20-29-20h-188q-18 0-18 16zm557 584h403l-92 561zm223 1063q0 96 65.5 156.5t159.5 60.5q76 0 124-43t48-117q0-96-65.5-156.5t-159.5-60.5q-76 0-124 43t-48 117zm121 20q0-70 67-69 37 0 62.5 24.5t25.5 61.5q0 70-67 69-37 0-62.5-24.5t-25.5-61.5z"/><glyph unicode="Æ" horiz-adv-x="1732" d="M-150 14q0 6 7 19l823 1380q12 20 33 21h1036q16 0 16-21l-32-164q-2-20-25-20h-649l-72-373h588q16 0 16-20l-32-164q-2-20-25-21h-588l-86-446h680q16 0 16-21l-32-164q-2-20-25-20h-881q-16 0-16 20l74 375h-375l-223-375q-12-20-29-20h-180q-19 0-19 14zm572 586h293l123 629h-43z"/><glyph unicode="Ç" horiz-adv-x="1413" d="M61 580q0 170 55.5 326.5t157 278.5 256 195.5 338.5 73.5q244 0 391.5-134t147.5-372q0-20-25-20h-172q-20 0-22 20-41 301-352 301-236 0-390.5-195.5t-154.5-451.5q0-209 97-313.5t265-104.5q295 0 439 301 8 20 26 21h176q20 0 21-21-66-231-241-363t-417-142l-61-97q53 14 109 15 158 0 157-136 0-92-73.5-140t-188.5-48q-131 0-209 20-18 6-18 21l16 80q4 20 25 20 4 0 58-13t122-13q100 0 100 55 0 43-65 43-37 0-115-18-8-2-14-2-10 0-17 6l-32 39q-6 6-7 12 0 4 5 12l73 152q-207 31-334 186.5t-127 405.5z"/><glyph unicode="È" horiz-adv-x="1165" d="M41 20l272 1393q2 20 25 21h846q18 0 18-21l-33-164q-2-20-24-20h-647l-72-373h584q18 0 18-20l-33-164q-2-20-24-21h-586l-86-446h676q18 0 18-21l-32-164q-2-20-25-20h-879q-16 0-16 20zm518 1799q-4 8 0 14t14 6h224q18 0 26-20l90-258q8-20-14-21h-147q-20 0-33 19z"/><glyph unicode="É" horiz-adv-x="1165" d="M41 20l272 1393q2 20 25 21h846q18 0 18-21l-33-164q-2-20-24-20h-647l-72-373h584q18 0 18-20l-33-164q-2-20-24-21h-586l-86-446h676q18 0 18-21l-32-164q-2-20-25-20h-879q-16 0-16 20zm551 1526q-2 6 4 15l190 258q14 20 35 20h230q10 0 12-6t-6-14l-262-260q-18-18-41-19h-152q-8 0-10 6z"/><glyph unicode="Ê" horiz-adv-x="1165" d="M41 20l272 1393q2 20 25 21h846q18 0 18-21l-33-164q-2-20-24-20h-647l-72-373h584q18 0 18-20l-33-164q-2-20-24-21h-586l-86-446h676q18 0 18-21l-32-164q-2-20-25-20h-879q-16 0-16 20zm414 1514q-2 6 6 14l270 275q16 16 33 16h139q18 0 29-16l164-275q4-8 0-14t-15-6h-151q-20 0-35 18l-86 109-137-109q-20-18-39-18h-166q-10 0-12 6z"/><glyph unicode="Ë" horiz-adv-x="1165" d="M41 20l272 1393q2 20 25 21h846q18 0 18-21l-33-164q-2-20-24-20h-647l-72-373h584q18 0 18-20l-33-164q-2-20-24-21h-586l-86-446h676q18 0 18-21l-32-164q-2-20-25-20h-879q-16 0-16 20zm444 1606l39 193q2 20 25 20h192q16 0 17-20l-39-193q-2-20-25-20h-192q-17 0-17 20zm353 0l39 193q2 20 24 20h193q16 0 16-20l-39-193q-2-20-24-20h-193q-16 0-16 20z"/><glyph unicode="Ì" horiz-adv-x="567" d="M37 20l272 1393q2 20 25 21h180q16 0 16-21l-272-1393q-2-20-25-20h-180q-16 0-16 20zm158 1799q-4 8 0 14t14 6h223q18 0 27-20l90-258q8-20-14-21h-148q-20 0-33 19z"/><glyph unicode="Í" horiz-adv-x="567" d="M37 20l272 1393q2 20 25 21h180q16 0 16-21l-272-1393q-2-20-25-20h-180q-16 0-16 20zm301 1526q-2 6 4 15l190 258q14 20 35 20h230q10 0 12-6t-6-14l-262-260q-18-18-41-19h-152q-8 0-10 6z"/><glyph unicode="Î" horiz-adv-x="567" d="M37 20l272 1393q2 20 25 21h180q16 0 16-21l-272-1393q-2-20-25-20h-180q-16 0-16 20zm82 1514q-2 6 6 14l270 275q16 16 33 16h139q18 0 29-16l164-275q4-8 0-14t-15-6h-151q-20 0-35 18l-86 109-137-109q-20-18-39-18h-166q-10 0-12 6z"/><glyph unicode="Ï" horiz-adv-x="567" d="M37 20l272 1393q2 20 25 21h180q16 0 16-21l-272-1393q-2-20-25-20h-180q-16 0-16 20zm125 1606l39 193q2 20 24 20h193q16 0 16-20l-39-193q-2-20-24-20h-193q-16 0-16 20zm352 0l39 193q2 20 25 20h192q16 0 16-20l-38-193q-2-20-25-20h-193q-16 0-16 20z"/><glyph unicode="Ð" horiz-adv-x="1413" d="M29 637l30 160q2 20 25 20h154l116 596q2 20 25 21h403q256 0 410-143.5t154-413.5q0-381-222.5-629t-611.5-248h-414q-16 0-16 20l117 596h-154q-16 1-16 21zm311-432h182q281 0 437.5 178t156.5 440q0 406-379 406h-198l-80-412h289q16 0 16-20l-31-160q-2-20-24-21h-289z"/><glyph unicode="Ñ" horiz-adv-x="1468" d="M41 20l272 1393q6 20 25 21h186q23 0 29-17l446-1052 207 1048q2 20 25 21h180q16 0 16-21l-272-1393q-2-20-25-20h-186q-23 0-29 16l-446 1053-207-1049q-2-20-24-20h-181q-16 0-16 20zm494 1729q0 8 10 16 131 94 246 95 82 0 145-42t113-42q59 0 135 49 6 4 16 4 8 0 17-17l55-102q4-8 4-16t-10-17q-131-94-246-94-82 0-145.5 42t-112.5 42q-59 0-135-49-6-4-17-4-8 0-16 16l-55 103q-4 8-4 16z"/><glyph unicode="Ò" horiz-adv-x="1538" d="M55 588q0 170 58.5 326.5t164 276.5 266.5 191.5 349 71.5q254 0 421-160.5t167-447.5q0-170-58.5-327t-164-276.5-266.5-191-349-71.5q-254 0-421 160.5t-167 447.5zm230 30q0-213 105.5-323.5t279.5-110.5q170 0 305 94.5t205.5 236.5 70.5 300q0 213-105.5 323.5t-279.5 110.5q-170 0-305-94t-205.5-236.5-70.5-300.5zm395 1201q-4 8 0 14t14 6h224q18 0 26-20l90-258q8-20-14-21h-148q-20 0-32 19z"/><glyph unicode="Ó" horiz-adv-x="1538" d="M55 588q0 170 58.5 326.5t164 276.5 266.5 191.5 349 71.5q254 0 421-160.5t167-447.5q0-170-58.5-327t-164-276.5-266.5-191-349-71.5q-254 0-421 160.5t-167 447.5zm230 30q0-213 105.5-323.5t279.5-110.5q170 0 305 94.5t205.5 236.5 70.5 300q0 213-105.5 323.5t-279.5 110.5q-170 0-305-94t-205.5-236.5-70.5-300.5zm469 928q-2 6 4 15l190 258q14 20 35 20h229q10 0 12.5-6t-5.5-14l-263-260q-18-18-41-19h-151q-8 0-10 6z"/><glyph unicode="Ô" horiz-adv-x="1538" d="M55 588q0 170 58.5 326.5t164 276.5 266.5 191.5 349 71.5q254 0 421-160.5t167-447.5q0-170-58.5-327t-164-276.5-266.5-191-349-71.5q-254 0-421 160.5t-167 447.5zm230 30q0-213 105.5-323.5t279.5-110.5q170 0 305 94.5t205.5 236.5 70.5 300q0 213-105.5 323.5t-279.5 110.5q-170 0-305-94t-205.5-236.5-70.5-300.5zm286 916q-2 6 7 14l270 275q16 16 33 16h139q18 0 29-16l163-275q4-8 0-14t-14-6h-151q-18 0-35 18l-86 109-138-109q-23-18-38-18h-166q-11 0-13 6z"/><glyph unicode="Õ" horiz-adv-x="1538" d="M55 588q0 170 58.5 326.5t164 276.5 266.5 191.5 349 71.5q254 0 421-160.5t167-447.5q0-170-58.5-327t-164-276.5-266.5-191-349-71.5q-254 0-421 160.5t-167 447.5zm230 30q0-213 105.5-323.5t279.5-110.5q170 0 305 94.5t205.5 236.5 70.5 300q0 213-105.5 323.5t-279.5 110.5q-170 0-305-94t-205.5-236.5-70.5-300.5zm313 1131q0 8 10 16 131 94 246 95 82 0 145.5-42t112.5-42q59 0 135 49 6 4 17 4 8 0 16-17l55-102q4-8 4-16t-10-17q-131-94-246-94-82 0-145.5 42t-112.5 42q-59 0-135-49-6-4-16-4-8 0-17 16l-55 103q-4 8-4 16z"/><glyph unicode="Ö" horiz-adv-x="1538" d="M55 588q0 170 58.5 326.5t164 276.5 266.5 191.5 349 71.5q254 0 421-160.5t167-447.5q0-170-58.5-327t-164-276.5-266.5-191-349-71.5q-254 0-421 160.5t-167 447.5zm230 30q0-213 105.5-323.5t279.5-110.5q170 0 305 94.5t205.5 236.5 70.5 300q0 213-105.5 323.5t-279.5 110.5q-170 0-305-94t-205.5-236.5-70.5-300.5zm356 1008l39 193q2 20 25 20h192q16 0 16-20l-39-193q-2-20-24-20h-193q-16 0-16 20zm352 0l39 193q2 20 25 20h192q16 0 17-20l-39-193q-2-20-25-20h-192q-17 0-17 20z"/><glyph unicode="×" horiz-adv-x="1009" d="M66 449q0 8 10 16l303 258-191 229q-6 10-6 13 0 6 11 16l126 104q10 8 16.5 8.5t12.5-8.5l189-235 290 244q8 8 17 8 4 0 12-8l98-121q6-6 7-12 0-8-11-17l-291-244 195-243q4-6 4-15 0-6-8-14l-125-104q-8-8-14-8.5t-15 8.5l-198 245-291-254q-8-8-14.5-8t-14.5 8l-106 121q-6 7-6 13z"/><glyph unicode="Ø" horiz-adv-x="1538" d="M55 588q0 170 58.5 326.5t164 276.5 266.5 191.5 349 71.5q178 0 313-80l117 148q10 12 18 12 6 0 13-4l65-51q8-6 8-15 0-6-6-14l-116-150q176-170 176-454 0-170-58.5-327t-164-276.5-266.5-191-349-71.5q-178 0-313 79l-117-147q-10-12-18-12-6 0-13 4l-65 51q-8 6-8 14t6 15l116 149q-176 170-176 455zm230 30q0-193 90-305l694 885q-90 51-203 51-170 0-305-94t-205.5-236.5-70.5-300.5zm182-382q90-51 203-52 170 0 305 94.5t205.5 236.5 70.5 300q0 193-90 305z"/><glyph unicode="Ù" horiz-adv-x="1349" d="M106 440q0 45 11 107l168 866q2 20 24 21h180q16 0 17-21l-172-876q-10-45-10-105 0-123 66.5-185.5t187.5-62.5q145 0 242.5 92.5t129.5 260.5l172 876q2 20 25 21h180q16 0 16-21l-174-889q-53-274-210.5-409t-399.5-135q-211 0-332 118.5t-121 341.5zm498 1379q-4 8 0 14t14 6h224q18 0 26-20l90-258q8-20-14-21h-147q-20 0-33 19z"/><glyph unicode="Ú" horiz-adv-x="1349" d="M106 440q0 45 11 107l168 866q2 20 24 21h180q16 0 17-21l-172-876q-10-45-10-105 0-123 66.5-185.5t187.5-62.5q145 0 242.5 92.5t129.5 260.5l172 876q2 20 25 21h180q16 0 16-21l-174-889q-53-274-210.5-409t-399.5-135q-211 0-332 118.5t-121 341.5zm568 1106q-2 6 4 15l190 258q14 20 35 20h230q10 0 12-6t-6-14l-262-260q-18-18-41-19h-152q-8 0-10 6z"/><glyph unicode="Û" horiz-adv-x="1349" d="M106 440q0 45 11 107l168 866q2 20 24 21h180q16 0 17-21l-172-876q-10-45-10-105 0-123 66.5-185.5t187.5-62.5q145 0 242.5 92.5t129.5 260.5l172 876q2 20 25 21h180q16 0 16-21l-174-889q-53-274-210.5-409t-399.5-135q-211 0-332 118.5t-121 341.5zm406 1094q-2 6 6 14l270 275q16 16 33 16h140q18 0 28-16l164-275q4-8 0-14t-14-6h-152q-20 0-35 18l-86 109-137-109q-20-18-39-18h-166q-10 0-12 6z"/><glyph unicode="Ü" horiz-adv-x="1349" d="M106 440q0 45 11 107l168 866q2 20 24 21h180q16 0 17-21l-172-876q-10-45-10-105 0-123 66.5-185.5t187.5-62.5q145 0 242.5 92.5t129.5 260.5l172 876q2 20 25 21h180q16 0 16-21l-174-889q-53-274-210.5-409t-399.5-135q-211 0-332 118.5t-121 341.5zm447 1186l39 193q2 20 24 20h193q16 0 16-20l-39-193q-2-20-24-20h-193q-16 0-16 20zm352 0l39 193q2 20 25 20h192q16 0 17-20l-39-193q-2-20-25-20h-192q-17 0-17 20z"/><glyph unicode="Ý" horiz-adv-x="1081" d="M109 1413q0 20 18 21h195q18 0 22-17l182-655 443 655q10 16 26 17h209q23 0 8-21l-614-897-96-496q-2-20-25-20h-180q-16 0-16 20l96 496zm399 133q-2 6 4 15l190 258q14 20 35 20h230q10 0 12-6t-6-14l-262-260q-18-18-41-19h-152q-8 0-10 6z"/><glyph unicode="Þ" horiz-adv-x="1292" d="M41 20l272 1393q2 20 25 21h180q16 0 17-21l-58-291h316q186 0 297.5-94t111.5-254q0-221-150.5-342t-408.5-121h-324l-57-291q-2-20-24-20h-181q-18 0-16 20zm317 496h330q131 0 208 57.5t77 159.5q0 184-207 185h-330z"/><glyph unicode="ß" horiz-adv-x="1243" d="M39 856l29 152q2 20 24 20h146l10 47q39 184 163 281.5t308 97.5q160 0 256-81t96-218q0-90-38-158.5t-83-100.5-83-67.5-38-64.5q0-27 30-53.5t72-53 84-61.5 71.5-94.5 29.5-134.5q0-176-119.5-281.5t-306.5-105.5q-150 0-240 86t-90 215q0 27 2 38 2 20 25 21h150q16 0 16-21 4-72 44-109.5t110-37.5q88 0 138 50t50 138q0 55-44 102.5t-97.5 77-97.5 85-44 127.5q0 59 40 110t88 83 88 79 40 98q0 63-47 101.5t-121 38.5q-209 0-258-254l-192-988q-2-20-25-20h-168q-16 0-16 20l160 816h-146q-16 0-16 20z"/><glyph unicode="à" horiz-adv-x="1239" d="M41 436q0 264 162 438.5t428 174.5q176 0 289-101l10 60q2 20 24 20h168q16 0 17-20l-191-988q-2-20-24-20h-168q-16 0-17 20l11 56q-123-96-304-96-176 0-290.5 117.5t-114.5 338.5zm221 4q0-127 65.5-197.5t176.5-70.5q154 0 255 120t101 298q0 123-64.5 194.5t-181.5 71.5q-156 0-254-121t-98-295zm197 973q-4 8 0 14.5t14 6.5h223q18 0 27-21l90-258q8-20-14-20h-148q-20 0-33 18z"/><glyph unicode="á" horiz-adv-x="1239" d="M41 436q0 264 162 438.5t428 174.5q176 0 289-101l10 60q2 20 24 20h168q16 0 17-20l-191-988q-2-20-24-20h-168q-16 0-17 20l11 56q-123-96-304-96-176 0-290.5 117.5t-114.5 338.5zm221 4q0-127 65.5-197.5t176.5-70.5q154 0 255 120t101 298q0 123-64.5 194.5t-181.5 71.5q-156 0-254-121t-98-295zm207 701q-2 6 4 14l191 258q14 20 34 21h230q10 0 12-6.5t-6-14.5l-262-260q-18-18-41-18h-152q-8 0-10 6z"/><glyph unicode="â" horiz-adv-x="1239" d="M41 436q0 264 162 438.5t428 174.5q176 0 289-101l10 60q2 20 24 20h168q16 0 17-20l-191-988q-2-20-24-20h-168q-16 0-17 20l11 56q-123-96-304-96-176 0-290.5 117.5t-114.5 338.5zm221 4q0-127 65.5-197.5t176.5-70.5q154 0 255 120t101 298q0 123-64.5 194.5t-181.5 71.5q-156 0-254-121t-98-295zm88 688.5q-2 6.5 6 14.5l271 274q16 16 32 17h140q18 0 28-17l164-274q4-8 0-14.5t-14-6.5h-152q-18 0-34 19l-86 108-138-108q-23-18-39-19h-166q-10 0-12 6.5z"/><glyph unicode="ã" horiz-adv-x="1239" d="M41 436q0 264 162 438.5t428 174.5q176 0 289-101l10 60q2 20 24 20h168q16 0 17-20l-191-988q-2-20-24-20h-168q-16 0-17 20l11 56q-123-96-304-96-176 0-290.5 117.5t-114.5 338.5zm221 4q0-127 65.5-197.5t176.5-70.5q154 0 255 120t101 298q0 123-64.5 194.5t-181.5 71.5q-156 0-254-121t-98-295zm72 903.5q0 8.5 10 16.5 131 94 246 94 82 0 145.5-42t112.5-42q59 0 135 49 6 4 16 4 8 0 17-16l55-102q4-8 4-16.5t-10-16.5q-131-94-246-94-82 0-145.5 42t-112.5 42q-59 0-135-50-6-4-16-4-8 0-17 17l-55 102q-4 8-4 16.5z"/><glyph unicode="ä" horiz-adv-x="1239" d="M41 436q0 264 162 438.5t428 174.5q176 0 289-101l10 60q2 20 24 20h168q16 0 17-20l-191-988q-2-20-24-20h-168q-16 0-17 20l11 56q-123-96-304-96-176 0-290.5 117.5t-114.5 338.5zm221 4q0-127 65.5-197.5t176.5-70.5q154 0 255 120t101 298q0 123-64.5 194.5t-181.5 71.5q-156 0-254-121t-98-295zm148 781l39 192q2 20 24 21h193q16 0 16-21l-39-192q-2-20-25-21h-192q-16 1-16 21zm352 0l39 192q2 20 24 21h193q16 0 16-21l-39-192q-2-20-24-21h-193q-16 1-16 21z"/><glyph unicode="å" horiz-adv-x="1239" d="M41 436q0 264 162 438.5t428 174.5q176 0 289-101l10 60q2 20 24 20h168q16 0 17-20l-191-988q-2-20-24-20h-168q-16 0-17 20l11 56q-123-96-304-96-176 0-290.5 117.5t-114.5 338.5zm221 4q0-127 65.5-197.5t176.5-70.5q154 0 255 120t101 298q0 123-64.5 194.5t-181.5 71.5q-156 0-254-121t-98-295zm254 817q0 96 65.5 157t159.5 61q76 0 124-43t48-117q0-96-65.5-156.5t-159.5-60.5q-76 0-124 42.5t-48 116.5zm121 21q0-70 68-70 37 0 62.5 24.5t25.5 61.5q0 70-68 70-37 0-62.5-24.5t-25.5-61.5z"/><glyph unicode="æ" horiz-adv-x="1931" d="M43 289q0 170 134 270t327 100q154 0 289-43l8 37q6 27 6 54 0 72-48 114.5t-151 42.5q-147 0-225-131-10-18-31-18h-162q-27 0-18 26 47 143 168 225.5t295 82.5q246 0 332-164 178 164 426 164 211 0 322.5-124t111.5-315q0-45-10-102l-9-39q-2-20-24-20h-780q-2-14-3-25 0-119 64.5-185.5t181.5-66.5q188 0 293 154 12 18 31 18h178q12 0 12-14 0-6-6-21-147-330-522-329-268 0-387 200-154-201-443-200-158 0-259 77.5t-101 231.5zm217 14q0-131 156-131 123 0 220 69.5t122 190.5q-135 43-254 43-98 0-171-43t-73-129zm772 330h578q-10 223-240 223-102 0-194.5-56t-143.5-167z"/><glyph unicode="ç" horiz-adv-x="1148" d="M45 440q0 264 170 436.5t440 172.5q190 0 308-103.5t118-251.5q0-4-1-11t-1-9q-2-12-18-12h-166q-20 0-25 18-29 176-241 176-154 0-258.5-115.5t-104.5-283.5q0-285 250-285 186 0 287 176 8 18 33 19h174q12 0 12-13 0-6-6-20-147-350-518-354l-62-97q53 14 109 15 158 0 157-136 0-92-73.5-140t-188.5-48q-131 0-209 20-18 6-18 21l16 80q4 20 25 20 4 0 58.5-13t121.5-13q100 0 101 55 0 43-66 43-37 0-115-18-8-2-14-2-10 0-16 6l-33 39q-6 6-6 12 0 4 4 12l76 158q-150 35-235 151.5t-85 294.5z"/><glyph unicode="è" horiz-adv-x="1196" d="M45 449q0 246 174 423t438 177q211 0 323-124t112-315q0-45-11-102l-8-39q-2-20-24-20h-783v-25q0-119 64.5-185.5t181.5-66.5q188 0 293 154 12 18 31 18h178q12 0 12-14 0-6-6-21-147-330-522-329-201 0-327 124t-126 345zm252 184h577q-10 223-239 223-102 0-194.5-56t-143.5-167zm145 780q-4 8 0 14.5t15 6.5h223q18 0 27-21l90-258q8-20-15-20h-147q-20 0-33 18z"/><glyph unicode="é" horiz-adv-x="1196" d="M45 449q0 246 174 423t438 177q211 0 323-124t112-315q0-45-11-102l-8-39q-2-20-24-20h-783v-25q0-119 64.5-185.5t181.5-66.5q188 0 293 154 12 18 31 18h178q12 0 12-14 0-6-6-21-147-330-522-329-201 0-327 124t-126 345zm252 184h577q-10 223-239 223-102 0-194.5-56t-143.5-167zm233 508q-2 6 5 14l190 258q14 20 35 21h229q10 0 12.5-6.5t-6.5-14.5l-262-260q-18-18-41-18h-151q-9 0-11 6z"/><glyph unicode="ê" horiz-adv-x="1196" d="M45 449q0 246 174 423t438 177q211 0 323-124t112-315q0-45-11-102l-8-39q-2-20-24-20h-783v-25q0-119 64.5-185.5t181.5-66.5q188 0 293 154 12 18 31 18h178q12 0 12-14 0-6-6-21-147-330-522-329-201 0-327 124t-126 345zm252 184h577q-10 223-239 223-102 0-194.5-56t-143.5-167zm78 495.5q-2 6.5 6 14.5l270 274q16 16 33 17h139q18 0 29-17l164-274q4-8 0-14.5t-15-6.5h-151q-18 0-35 19l-86 108-137-108q-23-18-39-19h-166q-10 0-12 6.5z"/><glyph unicode="ë" horiz-adv-x="1196" d="M45 449q0 246 174 423t438 177q211 0 323-124t112-315q0-45-11-102l-8-39q-2-20-24-20h-783v-25q0-119 64.5-185.5t181.5-66.5q188 0 293 154 12 18 31 18h178q12 0 12-14 0-6-6-21-147-330-522-329-201 0-327 124t-126 345zm252 184h577q-10 223-239 223-102 0-194.5-56t-143.5-167zm121 588l39 192q2 20 24 21h193q16 0 16-21l-39-192q-2-20-24-21h-193q-16 1-16 21zm352 0l39 192q2 20 25 21h192q16 0 16-21l-38-192q-2-20-25-21h-193q-16 1-16 21z"/><glyph unicode="ì" horiz-adv-x="548" d="M43 20l190 988q2 20 25 20h168q16 0 16-20l-192-988q-2-20-25-20h-166q-16 0-16 20zm49 1393q-4 8 0 14.5t14 6.5h224q18 0 26-21l90-258q8-20-14-20h-147q-20 0-33 18z"/><glyph unicode="í" horiz-adv-x="548" d="M43 20l190 988q2 20 25 20h168q16 0 16-20l-192-988q-2-20-25-20h-166q-16 0-16 20zm217 1121q-2 6 4 14l191 258q14 20 34 21h230q10 0 12-6.5t-6-14.5l-262-260q-18-18-41-18h-152q-8 0-10 6z"/><glyph unicode="î" horiz-adv-x="548" d="M43 1128.5q-2 6.5 6 14.5l270 274q16 16 33 17h140q18 0 28-17l164-274q4-8 0-14.5t-14-6.5h-152q-18 0-35 19l-86 108-137-108q-23-18-39-19h-166q-10 0-12 6.5zm2-1108.5l191 988q2 20 24 20h168q16 0 16-20l-192-988q-2-20-25-20h-166q-16 0-16 20z"/><glyph unicode="ï" horiz-adv-x="548" d="M43 20l190 988q2 20 25 20h168q16 0 16-20l-192-988q-2-20-25-20h-166q-16 0-16 20zm39 1201l39 192q2 20 24 21h193q16 0 16-21l-39-192q-2-20-24-21h-193q-16 1-16 21zm352 0l39 192q2 20 25 21h192q16 0 17-21l-39-192q-2-20-25-21h-192q-17 1-17 21z"/><glyph unicode="ð" horiz-adv-x="1222" d="M49 434q0 264 161 439.5t398 175.5q170 0 301-93-43 123-123 191l-223-78q-18-6-24 10l-41 113q-6 20 18 27l78 26q-53 16-129 27-16 2-10 28l30 130q4 14 31 14 211-23 342-105l248 91q18 8 24-11l44-114q6-18-17-27l-162-59q121-162 121-457 0-334-167-558t-455-224q-197 0-321 121.5t-124 332.5zm221 19q0-137 61.5-209t176.5-72q147 0 255.5 122t108.5 279q0 135-68.5 209t-195.5 74q-145 0-241.5-124.5t-96.5-278.5z"/><glyph unicode="ñ" horiz-adv-x="1218" d="M41 20l190 988q2 20 25 20h168q16 0 16-20l-16-93q156 133 352 134 139 0 216-72t77-195q0-37-10-92l-129-670q-2-20-25-20h-168q-16 0-16 20l119 611q8 35 8 71 0 72-43 113t-123 41q-115 0-210-91t-128-259l-94-486q-2-20-25-20h-168q-16 0-16 20zm328 1323.5q0 8.5 10 16.5 131 94 246 94 82 0 145.5-42t112.5-42q59 0 135 49 6 4 16 4 8 0 17-16l55-102q4-8 4-16.5t-10-16.5q-131-94-246-94-82 0-145.5 42t-112.5 42q-59 0-135-50-6-4-17-4-8 0-16 17l-55 102q-4 8-4 16.5z"/><glyph unicode="ò" horiz-adv-x="1245" d="M45 434q0 268 177 441.5t450 173.5q211 0 339-128t128-327q0-268-177.5-441t-449.5-173q-211 0-339 127.5t-128 326.5zm221 19q0-133 70-207t196-74q164 0 275 112.5t111 290.5q0 133-70 207t-197 74q-164 0-274.5-112.5t-110.5-290.5zm213 960q-4 8 0 14.5t15 6.5h223q18 0 26-21l91-258q8-20-15-20h-147q-20 0-33 18z"/><glyph unicode="ó" horiz-adv-x="1245" d="M45 434q0 268 177 441.5t450 173.5q211 0 339-128t128-327q0-268-177.5-441t-449.5-173q-211 0-339 127.5t-128 326.5zm221 19q0-133 70-207t196-74q164 0 275 112.5t111 290.5q0 133-70 207t-197 74q-164 0-274.5-112.5t-110.5-290.5zm252 688q-2 6 4 14l191 258q14 20 35 21h229q10 0 12-6.5t-6-14.5l-262-260q-18-18-41-18h-152q-8 0-10 6z"/><glyph unicode="ô" horiz-adv-x="1245" d="M45 434q0 268 177 441.5t450 173.5q211 0 339-128t128-327q0-268-177.5-441t-449.5-173q-211 0-339 127.5t-128 326.5zm221 19q0-133 70-207t196-74q164 0 275 112.5t111 290.5q0 133-70 207t-197 74q-164 0-274.5-112.5t-110.5-290.5zm127 675.5q-2 6.5 6 14.5l271 274q16 16 32 17h140q18 0 28-17l164-274q4-8 0-14.5t-14-6.5h-152q-20 0-34 19l-86 108-138-108q-20-18-39-19h-165q-11 0-13 6.5z"/><glyph unicode="õ" horiz-adv-x="1245" d="M45 434q0 268 177 441.5t450 173.5q211 0 339-128t128-327q0-268-177.5-441t-449.5-173q-211 0-339 127.5t-128 326.5zm221 19q0-133 70-207t196-74q164 0 275 112.5t111 290.5q0 133-70 207t-197 74q-164 0-274.5-112.5t-110.5-290.5zm127 890.5q0 8.5 10 16.5 131 94 246 94 82 0 145.5-42t112.5-42q59 0 135 49 6 4 17 4 8 0 16-16l55-102q4-8 4.5-16.5t-10.5-16.5q-131-94-245-94-82 0-145.5 42t-112.5 42q-59 0-136-50-6-4-16-4-8 0-16 17l-56 102q-4 8-4 16.5z"/><glyph unicode="ö" horiz-adv-x="1245" d="M45 434q0 268 177 441.5t450 173.5q211 0 339-128t128-327q0-268-177.5-441t-449.5-173q-211 0-339 127.5t-128 326.5zm221 19q0-133 70-207t196-74q164 0 275 112.5t111 290.5q0 133-70 207t-197 74q-164 0-274.5-112.5t-110.5-290.5zm164 768l39 192q2 20 25 21h192q16 0 16-21l-38-192q-2-20-25-21h-193q-16 1-16 21zm352 0l39 192q2 20 25 21h192q16 0 17-21l-39-192q-2-20-25-21h-192q-17 1-17 21z"/><glyph unicode="÷" horiz-adv-x="1193" d="M111 434l30 160q2 20 25 20h889q16 0 16-20l-31-160q-2-20-24-20h-889q-16 0-16 20zm258-414l37 197q2 20 24 21h197q16 0 16-21l-37-197q-2-20-24-20h-197q-16 0-16 20zm153 791l37 197q2 20 25 20h196q16 0 17-20l-37-197q-2-20-25-20h-196q-17 0-17 20z"/><glyph unicode="ø" horiz-adv-x="1245" d="M45 434q0 268 177 441.5t450 173.5q121 0 223-50l92 119q10 12 19 12 4 0 12-4l65-43q8-6 9-14 0-4-7-14l-92-119q145-129 146-342 0-268-177.5-441t-449.5-173q-121 0-223 49l-92-119q-10-12-19-12-4 0-12 4l-66 43q-8 6-8 14 0 4 6 14l92 119q-145 129-145 342zm221 19q0-125 56-193l446 576q-57 20-117 20-164 0-274.5-112.5t-110.5-290.5zm150-260q57-20 116-21 164 0 275 112.5t111 290.5q0 125-56 193z"/><glyph unicode="ù" horiz-adv-x="1206" d="M80 246q0 37 10 92l129 670q2 20 25 20h168q16 0 16-20l-119-611q-8-35-8-71 0-72 43-113t123-41q115 0 210 91t128 259l94 486q2 20 25 20h168q16 0 16-20l-190-988q-2-20-25-20h-168q-16 0-16 20l16 93q-156-133-352-133-139 0-216 71.5t-77 194.5zm399 1167q-4 8 0 14.5t15 6.5h223q18 0 26-21l91-258q8-20-15-20h-147q-20 0-33 18z"/><glyph unicode="ú" horiz-adv-x="1206" d="M80 246q0 37 10 92l129 670q2 20 25 20h168q16 0 16-20l-119-611q-8-35-8-71 0-72 43-113t123-41q115 0 210 91t128 259l94 486q2 20 25 20h168q16 0 16-20l-190-988q-2-20-25-20h-168q-16 0-16 20l16 93q-156-133-352-133-139 0-216 71.5t-77 194.5zm430 895q-2 6 4 14l191 258q14 20 34 21h230q10 0 12-6.5t-6-14.5l-262-260q-18-18-41-18h-152q-8 0-10 6z"/><glyph unicode="û" horiz-adv-x="1206" d="M80 246q0 37 10 92l129 670q2 20 25 20h168q16 0 16-20l-119-611q-8-35-8-71 0-72 43-113t123-41q115 0 210 91t128 259l94 486q2 20 25 20h168q16 0 16-20l-190-988q-2-20-25-20h-168q-16 0-16 20l16 93q-156-133-352-133-139 0-216 71.5t-77 194.5zm278 882.5q-2 6.5 7 14.5l270 274q16 16 33 17h139q18 0 29-17l163-274q4-8 0-14.5t-14-6.5h-151q-18 0-35 19l-86 108-138-108q-23-18-38-19h-166q-11 0-13 6.5z"/><glyph unicode="ü" horiz-adv-x="1206" d="M80 246q0 37 10 92l129 670q2 20 25 20h168q16 0 16-20l-119-611q-8-35-8-71 0-72 43-113t123-41q115 0 210 91t128 259l94 486q2 20 25 20h168q16 0 16-20l-190-988q-2-20-25-20h-168q-16 0-16 20l16 93q-156-133-352-133-139 0-216 71.5t-77 194.5zm319 975l39 192q2 20 25 21h192q16 0 17-21l-39-192q-2-20-25-21h-192q-17 1-17 21zm353 0l39 192q2 20 24 21h193q16 0 16-21l-39-192q-2-20-24-21h-193q-16 1-16 21z"/><glyph unicode="ý" horiz-adv-x="1075" d="M-137-371q0 4 2 15l29 147q2 20 20 21 8 0 52-22.5t93-22.5q74 0 131.5 55t118.5 186l-213 985q-2 10-2 19 0 16 21 16h186q20 0 23-20l137-711 364 711q8 20 31 20h186q14 0 15-14 0-6-4-15l-582-1099q-96-184-195.5-255t-216.5-71q-104 0-180 33-16 6-16 22zm598 1512q-2 6 4 14l190 258q14 20 35 21h230q10 0 12-6.5t-6-14.5l-262-260q-18-18-41-18h-152q-8 0-10 6z"/><glyph unicode="þ" horiz-adv-x="1267" d="M-29-385l348 1798q2 20 25 21h168q16 0 16-21l-90-467q137 102 334 103 164 0 266.5-115t102.5-328q0-252-156-439t-405-187q-190 0-308 116l-92-481q-2-20-24-21h-168q-17 1-17 21zm357 834q0-133 65.5-205t173.5-72q156 0 254.5 119t98.5 287q0 131-61.5 204.5t-172.5 73.5q-156 0-257-114.5t-101-292.5z"/><glyph unicode="ÿ" horiz-adv-x="1075" d="M-137-371q0 4 2 15l29 147q2 20 20 21 8 0 52-22.5t93-22.5q74 0 131.5 55t118.5 186l-213 985q-2 10-2 19 0 16 21 16h186q20 0 23-20l137-711 364 711q8 20 31 20h186q14 0 15-14 0-6-4-15l-582-1099q-96-184-195.5-255t-216.5-71q-104 0-180 33-16 6-16 22zm459 1592l38 192q2 20 25 21h193q16 0 16-21l-39-192q-2-20-25-21h-192q-16 1-16 21zm352 0l39 192q2 20 24 21h193q16 0 16-21l-39-192q-2-20-24-21h-193q-16 1-16 21z"/><glyph unicode="Œ" horiz-adv-x="2242" d="M55 588q0 170 58.5 326.5t164 276.5 266.5 191.5 349 71.5q299 0 463-211l33 170q2 20 24 21h848q16 0 16-21l-32-164q-2-20-25-20h-647l-72-373h586q16 0 16-20l-32-164q-2-20-25-21h-586l-86-446h678q16 0 16-21l-32-164q-2-20-25-20h-878q-16 0-17 20l23 115q-211-156-496-155-254 0-421 160.5t-167 447.5zm230 30q0-213 105.5-323.5t279.5-110.5q170 0 305 94.5t205.5 236.5 70.5 300q0 213-105.5 323.5t-279.5 110.5q-170 0-305-94t-205.5-236.5-70.5-300.5z"/><glyph unicode="œ" horiz-adv-x="2070" d="M45 434q0 268 177 441.5t450 173.5q268 0 397-203 178 203 463 203 211 0 322.5-124t111.5-315q0-45-10-102l-8-39q-2-20-25-20h-780q-2-14-2-25 0-119 64.5-185.5t180.5-66.5q188 0 293 154 12 18 31 18h178q12 0 13-14 0-6-7-21-147-330-522-329-266 0-385 200-180-201-475-200-211 0-339 127.5t-128 326.5zm221 19q0-133 70-207t196-74q164 0 276 113.5t112 289.5q0 133-71 207t-198 74q-164 0-274.5-112.5t-110.5-290.5zm905 180h578q-10 223-240 223-102 0-194.5-56t-143.5-167z"/><glyph unicode="Ÿ" horiz-adv-x="1081" d="M109 1413q0 20 18 21h195q18 0 22-17l182-655 443 655q10 16 26 17h209q23 0 8-21l-614-897-96-496q-2-20-25-20h-180q-16 0-16 20l96 496zm276 213l39 193q2 20 25 20h192q16 0 16-20l-39-193q-2-20-24-20h-193q-16 0-16 20zm352 0l39 193q2 20 25 20h192q16 0 17-20l-39-193q-2-20-25-20h-192q-17 0-17 20z"/><glyph horiz-adv-x="940"/><glyph horiz-adv-x="1880"/><glyph horiz-adv-x="940"/><glyph horiz-adv-x="1880"/><glyph horiz-adv-x="626"/><glyph horiz-adv-x="470"/><glyph horiz-adv-x="313"/><glyph horiz-adv-x="313"/><glyph horiz-adv-x="235"/><glyph horiz-adv-x="376"/><glyph horiz-adv-x="104"/><glyph unicode="‐" horiz-adv-x="1075" d="M117 621l30 159q2 20 25 21h770q16 0 16-21l-30-159q-2-20-25-21h-770q-16 1-16 21z"/><glyph unicode="‑" horiz-adv-x="1075" d="M117 621l30 159q2 20 25 21h770q16 0 16-21l-30-159q-2-20-25-21h-770q-16 1-16 21z"/><glyph unicode="‒" horiz-adv-x="1075" d="M117 621l30 159q2 20 25 21h770q16 0 16-21l-30-159q-2-20-25-21h-770q-16 1-16 21z"/><glyph unicode="–" horiz-adv-x="1193" d="M117 621l30 159q2 20 25 21h889q16 0 16-21l-30-159q-2-20-25-21h-889q-16 1-16 21z"/><glyph unicode="—" horiz-adv-x="1648" d="M117 621l30 159q2 20 25 21h1344q16 0 16-21l-31-159q-2-20-24-21h-1344q-16 1-16 21z"/><glyph unicode="‘" horiz-adv-x="501" d="M147 995l48 248q37 190 219 191h55q16 0 16-21l-12-61q-2-20-22-21-119 0-136-102l-4-25h97q18 0 18-20l-37-189q-6-20-24-20h-201q-17 0-17 20z"/><glyph unicode="’" horiz-adv-x="501" d="M170 995l12 62q2 20 23 20 119 0 135 103l4 24h-96q-18 0-19 21l37 188q6 20 25 21h201q16 0 16-21l-47-248q-37-190-219-190h-56q-16 0-16 20z"/><glyph unicode="‚" horiz-adv-x="501" d="M-35-209l12 62q2 20 23 20 119 0 135 102l4 25h-96q-18 0-18 20l36 189q6 20 25 20h201q16 0 16-20l-47-248q-37-190-219-190h-55q-17 0-17 20z"/><glyph unicode="“" horiz-adv-x="808" d="M145 995l48 248q37 190 219 191h55q16 0 16-21l-12-61q-2-20-22-21-119 0-136-102l-4-25h97q18 0 18-20l-37-189q-6-20-25-20h-200q-17 0-17 20zm308 0l47 248q37 190 219 191h55q16 0 17-21l-13-61q-2-20-22-21-119 0-135-102l-5-25h97q18 0 18-20l-37-189q-6-20-24-20h-201q-16 0-16 20z"/><glyph unicode="”" horiz-adv-x="808" d="M170 995l12 62q2 20 23 20 119 0 135 103l4 24h-96q-18 0-19 21l37 188q6 20 25 21h201q16 0 16-21l-47-248q-37-190-219-190h-56q-16 0-16 20zm307 0l12 62q2 20 23 20 119 0 135 103l4 24h-96q-18 0-18 21l36 188q6 20 25 21h201q16 0 16-21l-47-248q-37-190-219-190h-55q-17 0-17 20z"/><glyph unicode="„" horiz-adv-x="808" d="M-35-209l12 62q2 20 23 20 119 0 135 102l4 25h-96q-18 0-18 20l36 189q6 20 25 20h201q16 0 16-20l-47-248q-37-190-219-190h-55q-17 0-17 20zm307 0l13 62q2 20 22 20 119 0 135 102l4 25h-96q-18 0-18 20l37 189q6 20 24 20h201q16 0 16-20l-47-248q-37-190-219-190h-55q-17 0-17 20z"/><glyph unicode="•" horiz-adv-x="780" d="M160 667.5q0 96.5 68.5 165t164.5 68.5 165-68.5 69-165-69-165-165-68.5-164.5 68.5-68.5 165z"/><glyph unicode="…" horiz-adv-x="1497" d="M37 20l35 189q2 20 24 20h189q16 0 16-20l-35-189q-2-20-24-20h-189q-16 0-16 20zm469 0l35 189q2 20 24 20h189q16 0 16-20l-35-189q-2-20-24-20h-189q-16 0-16 20zm469 0l35 189q2 20 24 20h189q16 0 16-20l-35-189q-2-20-24-20h-189q-16 0-16 20z"/><glyph horiz-adv-x="376"/><glyph unicode="‹" horiz-adv-x="733" d="M51 496l27 139q2 20 28 37l533 403q8 6 14 6 8 0 9-14l-46-227q-2-20-20-33l-350-256 250-272q10-10 10-21 0-4-2-12l-39-191q-4-14-14-14-6 0-13 6l-375 412q-14 19-12 37z"/><glyph unicode="›" horiz-adv-x="733" d="M33 55l45 228q2 20 20 32l351 256-250 273q-10 10-11 20 0 4 2 13l39 190q4 14 15 14 6 0 12-6l375-411q14-18 12-37l-27-140q-2-20-28-36l-533-404q-10-6-14-6-8 0-8 14z"/><glyph horiz-adv-x="470"/><glyph unicode="€" horiz-adv-x="1384" d="M-25 449l29 159q2 20 25 21h139q18 111 35 176h-140q-16 0-16 20l31 160q2 20 24 21h174q94 215 255 331.5t358 116.5q231 0 354-128t123-345q-6-20-25-20h-165q-14 0-17 20-10 143-81.5 207.5t-205.5 64.5q-246 0-378-247h409q16 0 17-21l-31-160q-2-20-25-20h-444q-16-66-35-176h444q16 0 17-21l-31-159q-2-20-24-21h-408q35-248 283-248 272 0 389 273 8 20 24 20h166q16 0 17-20-66-219-231-346t-384-127q-205 0-329.5 119.5t-151.5 328.5h-174q-17 1-17 21z"/><glyph unicode="™" horiz-adv-x="1439" d="M111 1315l18 98q2 20 25 21h528q16 0 16-21l-18-98q-2-20-25-21h-192l-119-606q-2-20-25-20h-102q-16 0-16 20l118 606h-192q-16 1-16 21zm501-627l142 725q2 20 24 21h144q18 0 20-17l84-432 246 432q8 16 28 17h158q16 0 17-21l-142-725q-2-20-24-20h-103q-16 0-16 20l102 522-229-405q-10-12-25-12h-80q-12 0-14 12l-86 405-102-522q-2-20-25-20h-102q-17 0-17 20z"/><glyph unicode="◼" horiz-adv-x="1030" d="M0 0v1030h1030v-1030h-1030z"/></font>
</defs>
</svg>
