<svg xmlns="http://www.w3.org/2000/svg"><defs><font horiz-adv-x="1255"><font-face units-per-em="2048" ascent="1638" descent="-410"/><glyph unicode="ﬁ" horiz-adv-x="1323" d="M70 897l20 111q2 20 25 20h168l26 131q61 295 344 295 94 0 197-51 14-8 14-29l-20-100q-4-18-19-19-6 0-14 5-88 43-170 43-139 0-168-158l-22-117h315q16 0 16-20l-20-111q-6-20-25-20h-315l-168-857q-2-20-25-20h-127q-16 0-16 20l168 857h-168q-16 0-16 20zm741-877l193 988q2 20 24 20h127q16 0 16-20l-192-988q-2-20-25-20h-127q-16 0-16 20zm209 1217l35 176q2 20 24 21h185q16 0 16-21l-35-176q-2-20-24-20h-185q-16 0-16 20z"/><glyph unicode="ﬂ" horiz-adv-x="1300" d="M70 897l20 111q2 20 25 20h168l26 131q61 295 344 295 94 0 197-51 14-8 14-29l-20-100q-4-18-19-19-6 0-14 5-88 43-170 43-139 0-168-158l-22-117h315q16 0 16-20l-20-111q-6-20-25-20h-315l-168-857q-2-20-25-20h-127q-16 0-16 20l168 857h-168q-16 0-16 20zm741-877l272 1393q2 20 25 21h127q16 0 16-21l-272-1393q-2-20-25-20h-127q-16 0-16 20z"/><glyph horiz-adv-x="0"/><glyph horiz-adv-x="0"/><glyph horiz-adv-x="475"/><glyph horiz-adv-x="475"/><glyph horiz-adv-x="475"/><glyph unicode="!" horiz-adv-x="718" d="M131 20l33 164q2 20 24 21h172q16 0 17-21l-33-164q-2-20-25-20h-172q-16 0-16 20zm94 396l195 997q2 20 24 21h140q16 0 16-21l-194-997q-2-20-25-21h-139q-17 1-17 21z"/><glyph unicode=""" horiz-adv-x="782" d="M150 983l83 430q2 20 25 21h123q16 0 16-21l-84-430q-2-20-24-20h-123q-16 0-16 20zm389 0l84 430q2 20 24 21h123q16 0 16-21l-84-430q-2-20-24-20h-123q-16 0-16 20z"/><glyph unicode="#" horiz-adv-x="1533" d="M63 426l25 123q6 20 23 20h258l106 295h-227q-16 0-17 21l25 123q6 20 25 20h254l143 385q8 20 27 21h139q16 0 16-11 0-4-2-10l-143-385h334l143 385q8 20 27 21h139q16 0 16-11 0-4-2-10l-143-385h231q16 0 17-20l-25-123q-2-20-25-21h-258l-106-295h227q16 0 17-20l-25-123q-2-20-25-20h-256l-141-386q-6-20-26-20h-140q-14 0-14 20l141 386h-334l-141-386q-8-20-27-20h-139q-14 0-14 20l141 386h-227q-17 0-17 20zm486 143h334l106 295h-334z"/><glyph unicode="$" horiz-adv-x="1206" d="M37 362q0 47 4 72 2 20 25 21h135q16 0 16-21-4-33-4-45 0-88 52-150.5t153-84.5l100 518q-340 98-340 348 0 201 139.5 312.5t352.5 119.5l32 166q2 20 25 20h131q16 0 16-20l-34-176q143-31 223-125t80-215q0-29-2-47-2-20-25-21h-135q-16 0-16 21 2 10 2 30 0 147-160 191l-92-481q178-53 274-133t96-216q0-219-140-336.5t-390-127.5l-31-166q-2-20-24-21h-131q-16 0-17 21l33 176q-152 29-250 129t-98 241zm321 693q0-76 46.5-124t146.5-87l86 442q-115-10-197-67.5t-82-163.5zm230-910q143 12 230 82t87 187q0 145-223 215z"/><glyph unicode="%" horiz-adv-x="1746" d="M131 72q0 6 8 14l1395 1341q6 6 14 6.5t15-6.5l45-51q8-8 8-14t-8-14l-1395-1342q-6-6-14.5-6t-14.5 6l-45 51q-8 9-8 15zm14 948q0 180 116 297t292 117q135 0 222-89.5t87-230.5q0-180-115.5-297t-291.5-117q-135 0-222.5 89.5t-87.5 230.5zm131 6q0-94 51.5-147.5t139.5-53.5q111 0 187.5 80t76.5 203q0 94-51 147.5t-139 53.5q-111 0-188-80t-77-203zm605-707q0 180 115.5 297t291.5 117q135 0 222-89t87-230q0-180-115.5-297t-291.5-117q-135 0-222 89t-87 230zm131 7q0-94 51-147.5t139-53.5q111 0 187.5 80t76.5 203q0 94-51 147t-139 53q-111 0-187.5-79.5t-76.5-202.5z"/><glyph unicode="&" horiz-adv-x="1376" d="M59 340q0 324 387 496-66 115-65 235 0 166 110.5 274.5t288.5 108.5q133 0 219-77t86-195q0-227-272-346l-137-62 196-352q53 115 93 295 2 18 22 18h295q16 0 16-20l-22-123q-2-20-25-21h-164q-53-186-126-301l122-237q6-12 7-19 0-14-19-14h-151q-14 0-23 18l-61 113q-172-152-400-151-154 0-265.5 100t-111.5 260zm181 16q0-94 61-155.5t152-61.5q168 0 307 133l-240 428q-280-123-280-344zm309 744q0-84 39-168l16-29 152 64q162 70 162 188 0 68-43.5 108t-118.5 40q-84 0-145.5-54.5t-61.5-148.5z"/><glyph unicode="'" horiz-adv-x="393" d="M150 983l83 430q2 20 25 21h123q16 0 16-21l-84-430q-2-20-24-20h-123q-16 0-16 20z"/><glyph unicode="(" horiz-adv-x="792" d="M86 94q0 100 23 219l79 408q49 252 155 394t366 331q8 6 14 6t12-8l72-98q4-6 4-13 0-8-10-16-231-168-317.5-289t-133.5-371l-55-280q-33-174-33-273 0-113 43-188.5t164-200.5q6-6 6-12 0-8-8-16l-84-97q-8-10-16-10-6 0-15 8-137 131-201.5 249t-64.5 257z"/><glyph unicode=")" horiz-adv-x="792" d="M-86-301q0 8 10 16 231 168 317.5 289t133.5 371l55 280q33 174 33 273 0 113-43 188.5t-164 200.5q-6 6-6 12 0 8 8 17l84 96q8 10 16 10 6 0 15-8 137-131 201.5-249t64.5-257q0-100-23-219l-79-408q-49-252-155-394t-366-331q-8-6-14-6t-12 8l-72 99q-4 6-4 12z"/><glyph unicode="*" horiz-adv-x="919" d="M170 1116q0 4 4 14l41 99q6 14 16 14 6 0 13-2l215-74 55 246q6 20 25 21h102q16 0 16-21l-47-250 238 72q6 2 12 2t12-16l29-99q2-8 2-12 0-12-14-16l-271-80 109-193q2-6 2-10 0-12-14-20l-86-58q-8-4-13-4-8 0-16 12l-113 191-163-195q-10-10-16.5-10t-14.5 6l-84 70q-6 6-6 12 0 8 8 16l176 201-205 72q-12 4-12 12z"/><glyph unicode="+" horiz-adv-x="1202" d="M133 641l23 119q2 20 24 20h352l70 353q2 20 23 20h127q18 0 18-20l-70-353h353q16 0 16-20l-22-119q-2-20-25-20h-352l-70-353q-2-20-22-20h-127q-18 0-19 20l70 353h-352q-17 0-17 20z"/><glyph unicode="," horiz-adv-x="559" d="M14-164l6 33q4 20 25 20 61 0 81.5 15.5t31.5 70.5l4 25h-94q-16 0-17 20l31 156q2 20 24 21h160q16 0 17-21l-43-215q-16-80-54.5-112.5t-111.5-32.5h-43q-17 0-17 20z"/><glyph unicode="-" horiz-adv-x="1075" d="M133 641l23 119q2 20 24 20h746q16 0 16-20l-22-119q-2-20-25-20h-745q-17 0-17 20z"/><glyph unicode="." horiz-adv-x="559" d="M51 20l31 156q2 20 24 21h160q16 0 17-21l-31-156q-2-20-25-20h-159q-17 0-17 20z"/><glyph unicode="/" horiz-adv-x="1032" d="M-119 8q0 6 4 12l983 1393q14 20 33 21h150q12 0 12-9 0-6-4-12l-983-1393q-14-20-33-20h-149q-13 0-13 8z"/><glyph unicode="0" horiz-adv-x="1288" d="M76 547q0 166 43 323.5t125 289.5 217 213 305 81q195 0 317.5-147.5t122.5-419.5q0-166-43-323.5t-125-290-217-213-305-80.5q-195 0-317.5 147.5t-122.5 419.5zm176 0q0-408 283-408 162 0 278.5 117t166.5 280.5 50 350.5q0 408-282 407-162 0-279-116.5t-167-280.5-50-350z"/><glyph unicode="1" horiz-adv-x="798" d="M125 1069l27 141q6 18 28 31l369 182q16 10 33 11h82q16 0 16-21l-272-1393q-2-20-25-20h-135q-16 0-17 20l232 1182-303-145q-14-6-24.5-6t-10.5 18z"/><glyph unicode="2" horiz-adv-x="1236" d="M18 20l19 86q6 31 29 48l671 561q111 94 158 167.5t47 180-62.5 169-177.5 62.5q-131 0-215-78.5t-106-197.5q-4-31-33-31h-117q-20 0-20 17 0 4 2 14 37 201 164 318.5t348 117.5q176 0 284.5-106.5t108.5-266.5q0-141-69.5-254.5t-204.5-224.5l-533-442h652q16 0 16-21l-25-119q-2-20-24-20h-895q-17 0-17 20z"/><glyph unicode="3" horiz-adv-x="1222" d="M63 367q0 18 5 55 6 35 32 35h111q23 0 22-27 0-4-1-20.5t-1-26.5q0-113 70-178.5t205-65.5q164 0 255 82t91 236q0 111-66.5 169t-193.5 58h-117q-20 0-20 23l20 114q4 23 29 23h104q129 0 220.5 61.5t91.5 186.5q0 94-56.5 148t-167 54-193.5-63.5-116-169.5q-6-25-31-25h-118q-27 0-21 35 45 176 175 279.5t321 103.5q170 0 272-90t102-234q0-260-241-356 182-78 182-301 0-244-145.5-368.5t-395.5-124.5q-182 0-303 111.5t-121 275.5z"/><glyph unicode="4" horiz-adv-x="1204" d="M8 315l15 76q4 25 24 47l836 979q12 16 30 17h107q16 0 16-21l-186-958h197q16 0 16-21l-25-119q-2-20-24-20h-197l-53-275q-2-20-27-20h-133q-16 0-16 20l53 275h-618q-15 0-15 20zm260 140h406l121 630z"/><glyph unicode="5" horiz-adv-x="1265" d="M106 346q0 25 5 53 6 31 30 31h113q20 0 20-31 0-119 69-189.5t192-70.5q166 0 271 106.5t105 278.5q0 266-258 267-147 0-309-125-23-18-39-19h-127q-16 0-16 21l229 745q6 20 25 21h762q16 0 16-21l-25-119q-2-20-24-20h-625l-139-424q160 100 330 100 180 0 280.5-103.5t100.5-295.5q0-256-157-413.5t-423-157.5q-174 0-290 103t-116 263z"/><glyph unicode="6" horiz-adv-x="1269" d="M117 457q0 195 41 368.5t120.5 317 213 227.5 303.5 84q172 0 279.5-99.5t107.5-256.5q-4-20-27-21h-123q-18 0-18 21-8 104-75 154.5t-163 50.5q-154 0-267.5-129.5t-164.5-393.5q147 145 369 146 168 0 276.5-113t108.5-305q0-240-153.5-384t-412.5-144q-182 0-298.5 128t-116.5 349zm176-45q0-125 69.5-199t192.5-74q158 0 262.5 99.5t104.5 261.5q0 121-68 193.5t-190 72.5q-160 0-265.5-97t-105.5-257z"/><glyph unicode="7" horiz-adv-x="1032" d="M160 14q0 4 6 17l704 1243h-692q-16 0-16 20l24 119q2 20 25 21h870q16 0 17-21l-17-78q-4-23-20-51l-723-1270q-8-14-27-14h-135q-16 0-16 14z"/><glyph unicode="8" horiz-adv-x="1232" d="M78 350q0 141 76.5 248t216.5 164q-51 41-86 108.5t-35 143.5q0 201 141 320.5t354 119.5q168 0 272.5-91t104.5-243q0-244-239-358 158-115 157-293 0-238-155.5-363.5t-395.5-125.5q-184 0-297.5 102t-113.5 268zm176 23q0-106 68.5-170t183.5-64q150 0 254 81t104 229q0 102-69.5 164.5t-188.5 62.5q-147 0-249.5-79t-102.5-224zm164 657q0-86 58.5-142.5t162.5-56.5q125 0 220 71t95 196q0 98-59 147t-164 49q-125 0-219-68.5t-94-195.5z"/><glyph unicode="9" horiz-adv-x="1269" d="M94 336q4 20 27 20h123q18 0 18-20 8-104 74.5-154.5t163.5-50.5q154 0 267.5 129t164.5 393q-147-145-369-145-168 0-276.5 112.5t-108.5 305.5q0 240 153.5 384t411.5 144q182 0 299-128t117-349q0-195-41-369t-120.5-317.5-213-227-303.5-83.5q-172 0-279.5 99t-107.5 257zm260 598q0-121 67.5-193.5t190.5-72.5q160 0 265.5 97t105.5 257q0 125-69.5 198.5t-192.5 73.5q-158 0-262.5-99t-104.5-261z"/><glyph unicode=":" horiz-adv-x="559" d="M51 20l31 156q2 20 24 21h160q16 0 17-21l-31-156q-6-20-25-20h-159q-17 0-17 20zm164 832l31 156q2 20 24 20h160q16 0 16-20l-30-156q-2-20-25-21h-160q-16 1-16 21z"/><glyph unicode=";" horiz-adv-x="559" d="M14-164l6 33q4 20 25 20 61 0 81.5 15.5t31.5 70.5l4 25h-94q-16 0-17 20l31 156q2 20 24 21h160q16 0 17-21l-43-215q-16-80-54.5-112.5t-111.5-32.5h-43q-17 0-17 20zm201 1016l31 156q2 20 24 20h160q16 0 16-20l-30-156q-2-20-25-21h-160q-16 1-16 21z"/><glyph unicode="<" horiz-adv-x="1052" d="M113 535l30 151q2 16 25 27l817 399q4 2 10 2 8 0 9-14l-29-150q-2-16-27-28l-669-322 544-321q14-10 15-29l-25-129q-2-14-12-15-6 0-15 5l-657 397q-16 11-16 27z"/><glyph unicode="=" horiz-adv-x="1267" d="M119 348l22 119q2 20 25 20h864q16 0 17-20l-23-119q-2-20-25-20h-864q-16 0-16 20zm82 416l22 119q2 20 25 20h864q16 0 16-20l-22-119q-6-20-25-21h-864q-16 1-16 21z"/><glyph unicode=">" horiz-adv-x="1052" d="M51 121l29 149q2 16 26 29l670 322-545 321q-14 10-14 29l25 129q2 14 12 14 6 0 14-4l658-397q16-10 16-27l-31-151q-2-16-24-27l-817-399q-4-2-11-3-8 1-8 15z"/><glyph unicode="?" horiz-adv-x="1120" d="M176 1049q45 178 180.5 291.5t337.5 113.5q164 0 268.5-90t104.5-248q0-92-43-165.5t-106.5-124-129-96.5-119-107.5-67.5-130.5l-14-76q-2-20-25-21h-139q-16 0-16 21l12 61q20 104 76.5 184t120.5 127l126 92q61 44 102.5 99t41.5 127q0 86-57.5 135t-157.5 49q-111 0-195-61.5t-125-179.5q-6-20-24-21h-135q-17 1-17 21zm137-1029l33 164q2 20 25 21h172q16 0 16-21l-33-164q-2-20-24-20h-172q-17 0-17 20z"/><glyph unicode="@" horiz-adv-x="1654" d="M78 512q0 358 230.5 591.5t633.5 233.5q272 0 451.5-163.5t179.5-411.5-104.5-416-286.5-168q-68 0-118 35t-67 90q-133-125-292-125-129 0-212 90t-83 234q0 209 131 348t329 139q162 0 230-119l28 88q6 16 21 17h94q12 0 12-17l-129-430q-23-72-22-129 0-106 96-106 109 0 171.5 135t62.5 307q0 229-132.5 352t-381.5 123q-317 0-508-198.5t-191-491.5q0-270 157-426.5t384-156.5q231 0 409 92 4 2 11 2 8 0 12-11l41-90q2-4 2-8 0-6-14-16-199-96-467-96-276 0-477 193.5t-201 508.5zm473-4q0-104 48-159.5t124-55.5q145 0 228 124t83 253q0 205-164 204-152 0-235.5-109.5t-83.5-256.5z"/><glyph unicode="A" d="M-133 16q0 8 6 19l774 1378q12 20 29 21h176q18 0 20-21l240-1388q0-25-25-25h-135q-18 0-20 20l-64 396h-585l-220-396q-12-20-28-20h-150q-18 0-18 16zm506 564h467l-107 647z"/><glyph unicode="B" horiz-adv-x="1310" d="M57 20l273 1393q2 20 24 21h502q164 0 264.5-78t100.5-230q0-248-242-364 174-88 174-275 0-207-147.5-347t-370.5-140h-561q-17 0-17 20zm211 150h373q145 0 238.5 80t93.5 211q0 211-236 211h-372zm129 666h365q117 0 195.5 64.5t78.5 180.5q0 88-50 135.5t-142 47.5h-365z"/><glyph unicode="C" horiz-adv-x="1413" d="M78 573q0 244 92 442.5t276.5 318.5 427.5 120q231 0 376-134t145-341v-23q0-20-27-20h-127q-18 0-20 20-14 164-102.5 249t-270.5 85q-260 0-423-205.5t-163-484.5q0-219 104.5-338t272.5-119q182 0 290.5 79t192.5 255q8 20 29 21h135q18 0 19-21-82-242-258.5-369.5t-423.5-127.5q-233 0-389 162.5t-156 430.5z"/><glyph unicode="D" horiz-adv-x="1376" d="M57 20l273 1393q2 20 24 21h394q240 0 394-143.5t154-409.5q0-375-224-628t-593-253h-405q-17 0-17 20zm209 144h221q279 0 452 199.5t173 490.5q0 203-110.5 309.5t-299.5 106.5h-221z"/><glyph unicode="E" horiz-adv-x="1165" d="M57 20l273 1393q2 20 24 21h813q16 0 17-21l-25-123q-2-20-24-20h-654l-84-434h592q16 0 17-21l-25-123q-2-20-25-20h-591l-99-508h684q16 0 17-21l-25-123q-4-20-24-20h-844q-17 0-17 20z"/><glyph unicode="F" horiz-adv-x="1161" d="M57 20l273 1393q2 20 24 21h842q16 0 16-21l-24-123q-2-20-25-20h-682l-90-465h617q16 0 16-21l-25-122q-2-20-24-21h-617l-120-621q-2-20-25-20h-139q-17 0-17 20z"/><glyph unicode="G" horiz-adv-x="1474" d="M78 586q0 229 95 425.5t281.5 319.5 426.5 123q223 0 365.5-116.5t142.5-313.5q-4-20-27-20h-135q-20 0-21 20-14 266-352 266-260 0-426-210t-166-494q0-205 103.5-324t291.5-119q279 0 443 211l43 211h-404q-16 0-16 21l25 123q2 20 24 20h559q16 0 17-20l-70-357q-8-41-37-78-228-294-603-294h-3q-246 0-401.5 155.5t-155.5 450.5z"/><glyph unicode="H" horiz-adv-x="1435" d="M57 20l273 1393q2 20 24 21h140q16 0 16-21l-115-584h688l115 584q2 20 25 21h139q16 0 16-21l-272-1393q-2-20-25-20h-139q-16 0-16 20l127 646h-688l-127-646q-2-20-25-20h-139q-17 0-17 20z"/><glyph unicode="I" horiz-adv-x="567" d="M57 20l273 1393q2 20 24 21h140q16 0 16-21l-272-1393q-2-20-25-20h-139q-17 0-17 20z"/><glyph unicode="J" horiz-adv-x="1161" d="M-12 342q0 51 8 94 2 20 24 21h134q16 0 16-21-8-57-8-74 0-100 60.5-159.5t172.5-59.5q150 0 233 84t122 277l178 909q2 20 24 21h140q16 0 16-21l-178-907q-59-297-191.5-411.5t-359.5-114.5q-178 0-284.5 101t-106.5 261z"/><glyph unicode="K" horiz-adv-x="1282" d="M57 20l273 1393q2 20 24 21h140q16 0 16-21l-119-604 684 604q20 20 37 21h176q16 0 17-13 0-8-11-18l-551-500 375-874q2-4 2-9 0-20-22-20h-152q-18 0-31 31l-321 741-254-227-102-525q-2-20-25-20h-139q-17 0-17 20z"/><glyph unicode="L" horiz-adv-x="1122" d="M57 20l273 1393q2 20 24 21h140q16 0 16-21l-244-1249h723q16 0 17-21l-25-123q-2-20-25-20h-882q-17 0-17 20z"/><glyph unicode="M" horiz-adv-x="1677" d="M57 20l273 1393q2 20 24 21h195q23 0 29-21l219-911 561 911q12 20 37 21h209q16 0 16-21l-272-1393q-2-20-25-20h-139q-16 0-17 20l224 1145-560-907q-10-18-30-18h-90q-18 0-23 18l-227 907-223-1145q-2-20-25-20h-139q-17 0-17 20z"/><glyph unicode="N" horiz-adv-x="1468" d="M57 20l273 1393q2 20 24 21h156q25 0 29-17l469-1147 223 1143q2 20 24 21h140q16 0 16-21l-272-1393q-2-20-25-20h-156q-25 0-28 16l-469 1147-223-1143q-2-20-25-20h-139q-17 0-17 20z"/><glyph unicode="O" horiz-adv-x="1538" d="M78 582q0 168 54 324.5t152.5 278.5 250 195.5 331.5 73.5q272 0 432-162t160-440q0-168-54-324.5t-152.5-278.5-250-195.5-331.5-73.5q-272 0-432 161.5t-160 440.5zm184 12q0-211 112.5-331t305.5-120q266 0 430 206t164 491q0 211-112.5 330.5t-305.5 119.5q-266 0-430-205.5t-164-490.5z"/><glyph unicode="P" horiz-adv-x="1267" d="M57 20l273 1393q2 20 24 21h492q193 0 302-86t109-240q0-225-148-349t-407-124h-344l-120-615q-2-20-25-20h-139q-17 0-17 20zm332 779h371q143 0 228 70.5t85 213.5q0 90-58.5 138.5t-168.5 48.5h-365z"/><glyph unicode="Q" horiz-adv-x="1538" d="M78 582q0 168 54 324.5t152.5 278.5 250 195.5 331.5 73.5q272 0 432-162t160-440q0-184-64.5-354t-183.5-293l82-99q6-8 6-14-4-8-12-14l-110-96q-10-8-16.5-8.5t-12.5 8.5l-86 102q-176-104-391-104-272 0-432 161.5t-160 440.5zm184 12q0-211 112.5-331t305.5-120q150 0 272 70l-127 154q-6 6-6 14 0 4 10 14l111 97q10 8 16.5 8t12.5-8l131-156q174 199 174 504 0 211-112.5 330.5t-305.5 119.5q-266 0-430-205.5t-164-490.5z"/><glyph unicode="R" horiz-adv-x="1300" d="M57 20l273 1393q2 20 24 21h514q174 0 272.5-83t98.5-229q0-164-92-272.5t-258-155.5l182-671q2-6 2-13 0-10-16-10h-150q-18 0-24 20l-176 656h-340l-129-656q-2-20-25-20h-139q-17 0-17 20zm340 820h365q129 0 213 64.5t84 189.5q0 176-213 176h-365z"/><glyph unicode="S" horiz-adv-x="1206" d="M37 362q0 47 4 72 2 20 25 21h135q16 0 16-21-4-33-4-45 0-111 82-178.5t231-67.5q166 0 272.5 71t106.5 200q0 96-82 151.5t-243 91.5q-401 92-402 363 0 209 150.5 321.5t378.5 112.5q207 0 321.5-101.5t114.5-250.5q0-29-2-47-2-20-25-21h-135q-16 0-16 21 2 14 2 30 0 94-73 149.5t-204 55.5q-129 0-230.5-57t-101.5-178q0-96 74-149.5t252-102.5q195-53 298-134t103-223q0-231-154.5-348.5t-422.5-117.5q-197 0-334 106t-137 276z"/><glyph unicode="T" horiz-adv-x="1058" d="M113 1290l24 123q2 20 25 21h991q16 0 16-21l-24-123q-2-20-25-20h-405l-244-1250q-2-20-25-20h-139q-16 0-16 20l244 1250h-406q-16 0-16 20z"/><glyph unicode="U" horiz-adv-x="1349" d="M119 385q0 76 14 145l172 883q2 20 25 21h139q16 0 16-21l-174-895q-12-68-12-127 0-248 266-248 164 0 264.5 97.5t137.5 277.5l174 895q2 20 24 21h140q16 0 16-21l-180-917q-53-274-203-395t-406-121q-186 0-299.5 105t-113.5 300z"/><glyph unicode="V" horiz-adv-x="1228" d="M121 1413q0 20 20 21h156q18 0 20-21l183-1208 641 1208q8 20 28 21h174q14 0 15-11 0-4-2-10l-764-1393q-10-20-27-20h-198q-16 0-19 20z"/><glyph unicode="W" horiz-adv-x="1763" d="M174 1413q0 20 21 21h143q20 0 20-21l41-1177 478 1079q12 20 28 20h154q20 0 20-20l74-1079 489 1177q8 20 29 21h150q14 0 14-11 0-4-2-10l-594-1393q-8-20-27-20h-190q-16 0-18 20l-64 1045-467-1045q-8-20-27-20h-186q-16 0-18 20z"/><glyph unicode="X" horiz-adv-x="1198" d="M-113 10q0 6 4 10l627 752-301 641q-2 4-2 8 0 12 14 13h160q18 0 27-21l237-512 424 512q18 20 33 21h170q14 0 14-11 0-4-4-10l-561-670 336-723q2-4 2-8 0-12-14-12h-160q-14 0-25 20l-268 590-489-590q-18-20-39-20h-170q-15 0-15 10z"/><glyph unicode="Y" horiz-adv-x="1081" d="M119 1413q0 20 16 21h162q12 0 18-17l203-688 477 688q10 16 27 17h170q12 0 12-11 0-4-4-10l-622-885-101-508q-2-20-24-20h-140q-16 0-16 20l100 508z"/><glyph unicode="Z" horiz-adv-x="1230" d="M-41 20l25 123q2 14 18 35l983 1092h-729q-16 0-16 20l24 123q2 20 25 21h921q16 0 17-21l-25-123q-2-14-18-35l-983-1091h805q16 0 16-21l-25-123q-2-20-24-20h-998q-16 0-16 20z"/><glyph unicode="[" horiz-adv-x="915" d="M39-385l350 1798q2 20 25 21h514q16 0 16-21l-24-123q-2-20-25-20h-354l-293-1512h354q16 0 16-20l-24-123q-2-20-25-21h-514q-16 1-16 21z"/><glyph unicode="\" horiz-adv-x="616" d="M0 1413q0 20 16 21h138q18 0 24-21l438-1393q0-20-18-20h-137q-16 0-23 20z"/><glyph unicode="]" horiz-adv-x="915" d="M-109-385l25 123q2 20 25 20h354l293 1512h-355q-16 0-16 20l25 123q2 20 24 21h514q16 0 17-21l-351-1798q-2-20-24-21h-514q-17 1-17 21z"/><glyph unicode="^" horiz-adv-x="1146" d="M66 770q0 4 4 10l512 633q16 20 28 21h168q16 0 25-21l258-633q2-4 2-6 0-14-16-14h-136q-18 0-26 20l-209 518-408-518q-14-20-35-20h-153q-14 0-14 10z"/><glyph unicode="_" horiz-adv-x="950" d="M-100-139l22 119q2 20 25 20h841q16 0 17-20l-23-119q-2-20-24-21h-842q-16 1-16 21z"/><glyph unicode="`" horiz-adv-x="608" d="M195 1421q0 12 16 13h195q18 0 26-21l90-258q2-6 2-10 0-10-12-10h-123q-20 0-33 18l-159 260q-2 4-2 8z"/><glyph unicode="a" horiz-adv-x="1239" d="M57 436q0 248 152.5 430.5t419.5 182.5q199 0 307-131l16 90q2 20 25 20h127q16 0 16-20l-190-988q-6-20-25-20h-127q-16 0-16 20l16 82q-74-68-144.5-95t-180.5-27q-180 0-288 126.5t-108 329.5zm176 0q0-143 68-224t188-81q174 0 285 144.5t111 345.5q0 129-71 202.5t-198 73.5q-174 0-278.5-137.5t-104.5-323.5z"/><glyph unicode="b" horiz-adv-x="1263" d="M61 20l273 1393q2 20 24 21h127q16 0 17-21l-96-493q143 129 335 129 168 0 280-114t112-312q0-272-157-457.5t-419-185.5q-96 0-182 39.5t-125 97.5l-21-97q-2-20-24-20h-127q-17 0-17 20zm238 404q0-133 71.5-213t186.5-80q182 0 290.5 140.5t108.5 332.5q0 137-64.5 215t-189.5 78q-178 0-290.5-142.5t-112.5-330.5z"/><glyph unicode="c" horiz-adv-x="1148" d="M57 436q0 262 171 437.5t438 175.5q172 0 280.5-99.5t112.5-253.5q0-23-19-22h-125q-23 0-26 18-27 205-250 205-176 0-291-133t-115-326q0-307 273-307 203 0 311 205 10 18 31 18h129q12 0 12-12 0-8-6-20-74-168-194.5-255t-311.5-87q-197 0-308.5 127.5t-111.5 328.5z"/><glyph unicode="d" horiz-adv-x="1247" d="M57 410q0 162 64.5 305t198 238.5 307.5 95.5q188 0 305-136l98 500q2 20 25 21h127q16 0 16-21l-272-1393q-2-20-25-20h-127q-16 0-16 20l18 89q-129-129-323-129-178 0-287 118.5t-109 311.5zm176 4q0-127 64.5-205t183.5-78q182 0 291 140.5t109 330.5q0 141-72 218t-193 77q-180 0-281.5-144t-101.5-339z"/><glyph unicode="e" horiz-adv-x="1196" d="M57 442q0 248 172 427.5t437 179.5q193 0 302-121t109-310q0-51-10-100l-6-33q-6-20-25-20h-798q-4-29-5-53 0-131 69-206t200-75q209 0 334 188 12 18 32 19h133q10 0 11-10 0-8-8-25-163-323-523-323h-2q-199 0-310.5 130.5t-111.5 331.5zm209 174h643q0 133-70.5 207t-201.5 74q-121 0-219.5-72t-151.5-209z"/><glyph unicode="f" horiz-adv-x="749" d="M70 897l20 111q2 20 25 20h168l26 131q61 295 344 295 94 0 197-51 14-8 14-29l-20-100q-4-18-19-19-6 0-14 5-88 43-170 43-139 0-168-158l-22-117h315q16 0 16-20l-20-111q-6-20-25-20h-315l-168-857q-2-20-25-20h-127q-16 0-16 20l168 857h-168q-16 0-16 20z"/><glyph unicode="g" horiz-adv-x="1247" d="M33-92q6 20 24 20h127q16 0 17-20 0-94 52-138t181-44q276 0 340 331l10 54q-152-106-327-107-166 0-270.5 114.5t-104.5 327.5q0 244 154.5 423.5t408.5 179.5q211 0 297-134l19 93q2 20 24 20h127q16 0 16-20l-184-947q-94-487-538-487-168 0-270.5 83t-102.5 216v35zm225 538q0-139 67.5-214.5t190.5-75.5q170 0 273.5 135t103.5 319q0 135-66.5 211t-189.5 76q-172 0-275.5-130.5t-103.5-320.5z"/><glyph unicode="h" horiz-adv-x="1243" d="M61 20l273 1393q2 20 24 21h127q16 0 17-21l-101-522q174 158 375 158 141 0 221-72t80-197q0-49-6-86l-135-674q-2-20-25-20h-127q-16 0-16 20l121 633q8 47 8 82 0 76-50 119t-140 43q-121 0-233-103.5t-144-265.5l-101-508q-2-20-24-20h-127q-17 0-17 20z"/><glyph unicode="i" horiz-adv-x="548" d="M61 20l193 988q2 20 25 20h127q16 0 16-20l-193-988q-2-20-24-20h-127q-17 0-17 20zm209 1217l35 176q2 20 25 21h184q16 0 16-21l-34-176q-2-20-25-20h-184q-17 0-17 20z"/><glyph unicode="j" horiz-adv-x="548" d="M-72-371q0 4 4 13 84 147 111 278l211 1088q2 20 25 20h127q16 0 16-20l-207-1063q-39-203-131-355-10-16-18-16-2 0-15 4l-110 39q-13 4-13 12zm342 1608l35 176q2 20 25 21h184q16 0 16-21l-34-176q-2-20-25-20h-184q-17 0-17 20z"/><glyph unicode="k" horiz-adv-x="1116" d="M61 20l273 1393q2 20 24 21h127q16 0 17-21l-158-809 516 406q23 18 37 18h180q14 0 15-12 0-8-13-19l-430-342 273-624q2-6 2-15 0-16-23-16h-137q-20 0-29 18l-225 529-211-168-70-359q-2-20-24-20h-127q-17 0-17 20z"/><glyph unicode="l" horiz-adv-x="550" d="M61 20l273 1393q2 20 24 21h127q16 0 17-21l-273-1393q-2-20-24-20h-127q-17 0-17 20z"/><glyph unicode="m" horiz-adv-x="1677" d="M61 20l191 988q2 20 24 20h127q16 0 17-20l-17-103q49 63 128 103.5t165 40.5q104 0 161.5-39t82.5-123q127 162 315 162 121 0 188.5-58.5t67.5-167.5q0-29-10-90l-137-713q-6-20-25-20h-127q-16 0-16 20l133 685q6 29 6 53 0 139-149 139-96 0-177-99.5t-112-256.5l-100-521q-6-20-25-20h-127q-16 0-16 20l133 685q6 33 6 59 0 133-141 133-98 0-182.5-97.5t-114.5-258.5l-101-521q-6-20-24-20h-127q-17 0-17 20z"/><glyph unicode="n" horiz-adv-x="1218" d="M61 20l191 988q6 20 24 20h127q16 0 17-20l-23-117q162 158 351 158 145 0 225-70t80-199q0-31-13-104l-127-656q-2-20-24-20h-127q-16 0-17 20l123 631q8 47 9 78 0 168-187 168-121 0-225.5-98.5t-136.5-274.5l-99-504q-6-20-24-20h-127q-17 0-17 20z"/><glyph unicode="o" horiz-adv-x="1245" d="M57 403q0 270 174.5 458t442.5 188q199 0 319.5-117t120.5-307q0-270-174-457.5t-442-187.5q-199 0-320 116.5t-121 306.5zm176 15q0-133 77-210t206-77q182 0 302 140.5t120 338.5q0 133-77 210t-206 77q-182 0-302-140t-120-339z"/><glyph unicode="p" d="M-16-385l272 1393q2 20 25 20h127q16 0 16-20l-18-88q129 129 323 129 178 0 286.5-119t108.5-312q0-162-64.5-305t-197.5-238-307-95q-188 0-305 135l-98-500q-2-20-25-21h-127q-16 1-16 21zm317 811q0-141 71.5-218t192.5-77q180 0 281.5 144.5t101.5 338.5q0 127-64.5 205t-183.5 78q-182 0-290.5-140.5t-108.5-330.5z"/><glyph unicode="q" horiz-adv-x="1247" d="M57 406q0 272 157 457.5t419 185.5q96 0 182-40t125-98l21 97q2 20 24 20h127q16 0 16-20l-272-1393q-2-20-25-21h-126q-16 0-17 21l96 494q-143-129-335-129-168 0-280 113.5t-112 312.5zm181 18q0-139 62-216t187-77q178 0 291 142.5t113 330.5q0 133-71.5 213t-186.5 80q-182 0-288.5-140t-106.5-333z"/><glyph unicode="r" horiz-adv-x="905" d="M63 20l191 988q6 20 25 20h127q16 0 16-20l-19-103q133 143 326 144 86 0 160-31 25-10 24-25 0-4-2-14l-24-123q-4-23-25-22-10 0-24 8-92 55-179 55-111 0-201.5-92t-117.5-227l-109-558q-6-20-24-20h-127q-17 0-17 20z"/><glyph unicode="s" horiz-adv-x="1036" d="M35 285v28q0 20 20 21h131q16 0 17-21 0-182 225-182 102 0 185 40t83 130q0 61-63.5 100t-200.5 62q-143 25-223 92.5t-80 167.5q0 164 123 245t309 81q170 0 265.5-83t95.5-212q0-20-25-21h-115q-14 0-16 21-6 74-69.5 108.5t-155.5 34.5q-100 0-172-36t-72-118q0-63 56.5-95t199.5-60q147-29 233-87.5t86-170.5q0-174-132-262t-334-88q-168 0-269.5 85t-101.5 220z"/><glyph unicode="t" horiz-adv-x="845" d="M63 897l21 111q6 20 25 20h174l57 295q2 20 25 20h127q16 0 16-20l-57-295h340q16 0 16-20l-21-111q-6-20-24-20h-340l-111-570q-6-31-6-59 0-117 133-117 98 0 201 35 6 2 14 2 12 0 13-18l-21-101q-6-29-22-35-95-34-228-34h-8q-125 0-191.5 57t-66.5 166q0 37 16 119l109 555h-174q-17 0-17 20z"/><glyph unicode="u" horiz-adv-x="1206" d="M96 248q0 31 13 104l127 656q2 20 24 20h127q16 0 16-20l-122-631q-8-47-9-78 0-168 187-168 121 0 225 98.5t137 274.5l99 504q6 20 24 20h127q16 0 16-20l-190-988q-6-20-25-20h-127q-16 0-16 20l23 117q-161-157-349-157h-2q-145 0-225 69.5t-80 198.5z"/><glyph unicode="v" horiz-adv-x="960" d="M41 995q0 33 22 33h130q23 0 24-20l137-805 445 805q12 20 32 20h138q16 0 16-14 0-10-6-19l-553-975q-14-20-29-20h-149q-18 0-21 20z"/><glyph unicode="w" horiz-adv-x="1560" d="M98 997q0 31 21 31h129q23 0 24-20l80-791 359 741q8 20 26 21h156q16 0 18-21l86-741 367 791q8 20 33 20h141q14 0 14-12 0-6-6-19l-479-977q-10-20-31-20h-149q-20 0-23 20l-86 748-354-748q-12-20-31-20h-147q-20 0-23 20z"/><glyph unicode="x" horiz-adv-x="1024" d="M-82 10q0 8 8 17l465 530-235 444q-2 6-2 13 0 14 16 14h141q20 0 27-14l174-344 311 344q12 14 31 14h152q12 0 12-12 0-6-6-15l-424-466 270-508q4-8 4-17 0-10-14-10h-146q-16 0-24 20l-205 392-348-392q-18-20-33-20h-164q-10 0-10 10z"/><glyph unicode="y" horiz-adv-x="1075" d="M-127-373l2 13 21 110q6 20 20 21 4 0 43-22.5t94-22.5q147 0 271 256l-218 1013q-2 10-2 17 0 16 19 16h147q20 0 23-20l151-791 414 791q8 20 31 20h147q12 0 13-14 0-6-5-15l-589-1099q-102-190-199.5-258t-224.5-68q-82 0-142 33-16 10-16 20z"/><glyph unicode="z" horiz-adv-x="999" d="M-33 20l21 111q2 16 16 31l715 715h-541q-16 0-16 20l20 111q6 20 25 20h723q16 0 16-20l-20-111q-4-18-25-43l-702-702h600q16 0 16-21l-20-111q-4-20-25-20h-786q-17 0-17 20z"/><glyph unicode="{" horiz-adv-x="815" d="M33 453l22 122q2 20 25 21h53q129 0 156 135l59 303q45 225 131 312.5t264 87.5h84q16 0 17-21l-25-123q-2-20-24-20h-80q-74 0-116-52.5t-62-160.5l-70-359q-14-78-52-119.5t-112-64.5q96-35 96-143 0-14-4-41l-69-359q-14-72-15-104 0-57 27-83t84-26h80q16 0 16-20l-24-123q-2-20-25-21h-84q-117 0-185.5 70t-68.5 201q0 47 14 129l60 303q4 29 4 41 0 94-107 94h-53q-16 1-16 21z"/><glyph unicode="|" horiz-adv-x="585" d="M39-184l309 1597q2 20 25 21h139q16 0 16-21l-309-1597q-6-20-24-21h-140q-16 1-16 21z"/><glyph unicode="}" horiz-adv-x="815" d="M-74-385l25 123q2 20 24 20h80q74 0 116 52.5t62 160.5l70 359q14 78 52 120t112 64q-96 35-96 143 0 14 4 41l69 359q14 72 15 104 0 57-26.5 83t-84.5 26h-80q-16 0-16 20l24 123q2 20 25 21h84q117 0 185.5-70t68.5-201q0-47-14-129l-60-303q-4-29-4-41 0-94 107-94h53q16 0 16-21l-22-122q-2-20-25-21h-53q-129 0-156-135l-59-303q-45-225-131-312.5t-264-87.5h-84q-17 1-17 21z"/><glyph unicode="~" horiz-adv-x="1056" d="M59 717q0 14 21 26 55 33 130 54.5t124 21.5q92 0 200.5-42t178.5-42q78 0 168 51 8 4 14 5 8 0 16-17l45-94q4-10 5-14 0-14-21-27-55-33-130-54.5t-124-21.5q-92 0-200.5 42t-178.5 42q-78 0-168-51-8-4-14-4-8 0-16 16l-46 94q-4 11-4 15z"/><glyph unicode="¡" horiz-adv-x="718" d="M68-385l194 997q2 20 25 21h139q16 0 16-21l-194-997q-2-20-25-21h-139q-16 1-16 21zm223 1229l33 164q2 20 24 20h172q16 0 17-20l-33-164q-2-20-25-21h-172q-16 1-16 21z"/><glyph unicode="¢" horiz-adv-x="1169" d="M104 639q0 238 141.5 404.5t370.5 199.5l33 170q2 20 25 21h131q16 0 16-21l-33-168q133-23 224.5-119t93.5-227q0-23-19-22h-124q-23 0-27 18-25 168-178 199l-148-756q160 25 254 201 8 18 31 18h129q12 0 12-12 0-8-6-21-139-313-450-340l-31-164q-2-20-25-20h-131q-16 0-16 20l33 175q-145 37-225.5 156.5t-80.5 287.5zm177 2q0-233 159-291l146 735q-137-35-221-157.5t-84-286.5z"/><glyph unicode="£" horiz-adv-x="1214" d="M18 20l29 144q2 18 25 41 207 215 207 409v23h-166q-16 0-17 20l23 119q2 20 24 21h121q-18 76-18 157 0 219 143 359.5t369 140.5q186 0 282.5-95t96.5-239q0-47-4-71-2-20-25-21h-135q-16 0-17 21 4 29 5 43 0 90-54.5 144t-163.5 54q-139 0-228-90t-89-231q0-92 14-172h418q16 0 16-21l-22-119q-2-20-25-20h-372q-4-145-57.5-249.5t-170.5-223.5h752q16 0 16-21l-24-123q-2-20-25-20h-911q-17 0-17 20z"/><glyph unicode="¤" horiz-adv-x="1161" d="M41 199q0 8 10 16l129 109q-37 70-37 159 0 180 113 303l-76 93q-4 6-4 12 0 8 10 16l84 70q8 8 14.5 8t14.5-8l80-96q106 55 233 55 121 0 217-76l132 111q8 8 16 8 6 0 12-8l66-82q4-6 4-12 0-8-10-17l-129-108q37-78 36-158 0-174-106-297l70-84q4-6 4-12 0-8-11-17l-84-69q-8-8-14-8.5t-14 8.5l-70 86q-106-59-244-60-127 0-217 74l-131-109q-10-8-16-8-4 0-12 8l-66 80q-4 7-4 13zm256 303q0-98 57.5-159.5t145.5-61.5q127 0 215 82.5t88 211.5q0 98-57.5 160t-145.5 62q-129 0-216-83t-87-212z"/><glyph unicode="¥" horiz-adv-x="1140" d="M72 252l24 119q2 20 25 20h309l27 137h-351q-16 0-16 21l23 119q2 20 24 20h269l-228 725q0 20 17 21h163q12 0 19-17l205-680 475 680q10 16 26 17h168q12 0 13-11 0-4-4-10l-510-725h284q16 0 17-20l-23-119q-6-20-24-21h-367l-27-137h326q16 0 16-20l-24-119q-2-20-25-21h-325l-41-211q-2-20-25-20h-139q-16 0-17 20l41 211h-309q-16 1-16 21z"/><glyph unicode="¦" horiz-adv-x="626" d="M39-385l147 758q2 20 25 20h139q16 0 17-20l-148-758q-2-20-24-21h-140q-16 1-16 21zm203 1040l147 758q2 20 25 21h139q16 0 16-21l-147-758q-2-20-25-20h-139q-16 0-16 20z"/><glyph unicode="§" horiz-adv-x="1044" d="M-25-41q2 20 27 21h133q16 0 17-21 0-4-1-17.5t-1-15.5q0-88 56-138t162.5-50 186.5 63.5 80 169.5q0 78-52.5 134.5t-170.5 130.5q-156 98-227.5 179t-71.5 169q0 150 137 256-59 74-60 202 0 188 134.5 300t334.5 112q168 0 268.5-94t100.5-234q0-31-2-57-2-20-25-20h-135q-16 0-16 20 2 16 2 35 0 86-58.5 136t-160.5 50q-106 0-186-63.5t-80-169.5q0-78 52-134.5t171-129.5q156-98 227.5-179.5t71.5-169.5q0-150-137-256 59-74 59-202 0-197-130-304.5t-329-107.5q-172 0-274.5 98.5t-102.5 237.5v49zm314 643q0-51 60.5-110.5t221.5-157.5l64-39q78 57 78 131 0 51-60.5 108.5t-222.5 159.5l-63 39q-78-57-78-131z"/><glyph unicode="¨" horiz-adv-x="718" d="M182 1249l31 164q2 20 25 21h163q16 0 17-21l-31-164q-2-20-25-20h-163q-17 0-17 20zm340 0l31 164q2 20 25 21h163q16 0 17-21l-31-164q-2-20-25-20h-163q-17 0-17 20z"/><glyph unicode="©" horiz-adv-x="1638" d="M106 717q0 170 62.5 313.5t164 233.5 227.5 140 259 50 259-50 227.5-140 164-233.5 62.5-313.5-62.5-313.5-164-233.5-227.5-140-259-50-259 50-227.5 140-164 233.5-62.5 313.5zm99 0q0-207 92-359.5t228.5-222 294-69.5 293.5 69.5 228.5 222 92.5 359.5-92.5 359.5-228.5 222-293.5 69.5-294-69.5-228.5-222-92-359.5zm184 0q0 225 128 351t302 126q158 0 268.5-83t137.5-222q0-20-23-21h-49q-23 0-29 21-25 98-104.5 158.5t-200.5 60.5q-135 0-233.5-104.5t-98.5-286.5 98.5-286.5 233.5-104.5q121 0 201 60t104 159q6 20 29 20h49q23 0 23-20-27-139-137.5-222t-268.5-83q-174 0-302 126t-128 351z"/><glyph unicode="ª" horiz-adv-x="954" d="M131 993q0 184 113.5 320.5t312.5 136.5q147 0 227-98l13 67q2 14 18 15h94q12 0 13-15l-142-735q-2-14-18-14h-94q-12 0-13 14l13 61q-55-49-107.5-69.5t-134.5-20.5q-135 0-215 93t-80 245zm127 0q0-106 52-165.5t143-59.5q129 0 212 107.5t83 254.5q0 96-53.5 151.5t-147.5 55.5q-129 0-209-103.5t-80-240.5z"/><glyph unicode="«" horiz-adv-x="1169" d="M59 506l23 112q6 20 27 37l516 404q10 6 12 6 10 0 10-14l-35-185q-6-20-20-32l-365-285 254-287q10-10 11-20 0-4-3-13l-32-157q-4-14-15-15-6 0-12 6l-356 406q-15 14-15 37zm437 0l22 112q6 20 27 37l516 404q8 6 12 6 10 0 10-14l-34-185q-6-20-21-32l-364-285 254-287q10-10 10-20 0-4-2-13l-33-157q-4-14-14-15-6 0-13 6l-356 406q-14 14-14 37z"/><glyph unicode="¬" horiz-adv-x="1116" d="M106 680l23 111q2 20 25 20h794q16 0 17-20l-80-410q-2-20-25-21h-123q-16 0-16 21l53 278h-651q-17 1-17 21z"/><glyph unicode="­" horiz-adv-x="1075" d="M133 641l23 119q2 20 24 20h746q16 0 16-20l-22-119q-2-20-25-20h-745q-17 0-17 20z"/><glyph unicode="®" horiz-adv-x="1638" d="M106 717q0 170 62.5 313.5t164 233.5 227.5 140 259 50 259-50 227.5-140 164-233.5 62.5-313.5-62.5-313.5-164-233.5-227.5-140-259-50-259 50-227.5 140-164 233.5-62.5 313.5zm99 0q0-207 92-359.5t228.5-222 294-69.5 293.5 69.5 228.5 222 92.5 359.5-92.5 359.5-228.5 222-293.5 69.5-294-69.5-228.5-222-92-359.5zm332-445v893q0 23 22 23h279q145 0 221-70.5t76-189.5q0-94-51.5-161t-137.5-91l201-404q4-8 4-14 0-8-12-8h-58q-25 0-32 18l-201 396h-213v-392q0-23-23-22h-53q-22-1-22 22zm98 478h217q184 0 184 178 0 174-184 174h-217v-352z"/><glyph unicode="¯" horiz-adv-x="575" d="M174 1241l19 102q2 20 24 21h383q16 0 16-21l-18-102q-2-20-25-20h-383q-16 0-16 20z"/><glyph unicode="°" horiz-adv-x="876" d="M141 1063q0 164 120 277.5t302 113.5q133 0 221-86t88-219q0-164-119.5-277.5t-301.5-113.5q-133 0-221.5 86t-88.5 219zm146 12q0-88 49-139t129-51q111 0 186.5 71.5t75.5 180.5q0 88-49 139t-129 51q-113 0-187.5-71.5t-74.5-180.5z"/><glyph unicode="±" horiz-adv-x="1212" d="M23 20l22 119q2 20 25 21h864q16 0 16-21l-22-119q-2-20-25-20h-864q-16 0-16 20zm120 648l23 118q2 20 24 21h353l69 352q2 20 23 21h127q18 0 18-21l-69-352h352q16 0 16-21l-22-118q-2-20-25-21h-352l-70-352q-2-20-22-21h-127q-18 0-19 21l70 352h-352q-17 1-17 21z"/><glyph unicode="²" horiz-adv-x="786" d="M115 688l10 62q2 18 18 28l371 273q55 41 82 78.5t27 93.5q0 51-33 81.5t-88 30.5q-61 0-102.5-36.5t-59.5-96.5q-6-20-25-20h-84q-16 0-16 20 23 106 99.5 175t201.5 69q106 0 167.5-59.5t61.5-149.5q0-152-163-272l-260-187h331q16 0 17-20l-13-70q-2-20-24-20h-502q-16 0-16 20z"/><glyph unicode="³" horiz-adv-x="770" d="M125 860q0 10 2 27 2 20 25 20h73q16 0 17-20 0-59 36.5-90t98.5-31q68 0 109.5 36t41.5 103q0 49-30.5 79t-87.5 30h-58q-16 0-16 20l14 70q2 20 23 20h41q61 0 107 32t46 93q0 39-26.5 66.5t-75.5 27.5q-109 0-146-104-6-16-22-16h-76q-16 0-16 18 23 96 95.5 150.5t180.5 54.5q94 0 151.5-51.5t57.5-128.5q0-129-129-189 86-47 86-159 0-129-80-196t-211-67q-98 0-164.5 58.5t-66.5 146.5z"/><glyph unicode="´" horiz-adv-x="608" d="M164 1143q0 6 4 12l192 258q14 20 35 21h199q12 0 12-9 0-6-6-12l-262-260q-18-18-41-18h-123q-10 0-10 8z"/><glyph unicode="µ" horiz-adv-x="1206" d="M-35-385l271 1393q2 20 24 20h127q16 0 16-20l-122-631q-8-47-9-78 0-168 187-168 121 0 225 98.5t137 274.5l99 504q6 20 24 20h127q16 0 16-20l-190-988q-6-20-25-20h-127q-16 0-16 20l23 117q-162-158-351-157-113 0-190 45l-78-410q-2-20-24-21h-127q-17 1-17 21z"/><glyph unicode="¶" horiz-adv-x="1292" d="M113 995q0 211 144 325t355 114h736q16 0 16-21l-23-123q-6-20-24-20h-141l-283-1454q-2-20-25-21h-139q-16 0-16 21l282 1454h-184l-283-1454q-2-20-24-21h-139q-16 0-17 21l166 860h-49q-158 0-255 88t-97 231z"/><glyph unicode="·" horiz-adv-x="559" d="M162 639l31 156q2 20 24 20h160q16 0 16-20l-31-156q-2-20-24-21h-160q-16 1-16 21z"/><glyph unicode="¸" horiz-adv-x="532" d="M-109-387l11 61q2 20 24 21 6 0 27.5-5t59.5-11.5 89-6.5q43 0 83 17.5t40 56.5q0 53-96 53-53 0-111-14-6-2-14-2t-14 6l-25 27q-2 2-2 6 0 6 6 16l111 219q12 20 24 21h95q16 0 16-10 0-2-4-11l-113-182q53 14 117 14 147 0 147-114 0-98-73.5-149.5t-190.5-51.5q-111 0-188 20-19 7-19 19z"/><glyph unicode="¹" horiz-adv-x="563" d="M188 1221l19 90q2 12 18 20l191 94q16 8 33 9h51q16 0 16-21l-141-725q-2-20-25-20h-78q-16 0-16 20l115 594-150-72q-12-6-20-6-13 1-13 17z"/><glyph unicode="º" horiz-adv-x="956" d="M131 969q0 203 130 342t331 139q147 0 237.5-88t90.5-229q0-203-129-341.5t-330-138.5q-150 0-240 87.5t-90 228.5zm127 10q0-98 59.5-155.5t155.5-57.5q137 0 228.5 104.5t91.5 251.5q0 98-58.5 155.5t-156.5 57.5q-135 0-227.5-104.5t-92.5-251.5z"/><glyph unicode="»" horiz-adv-x="1169" d="M45 72l35 184q6 20 20 33l365 284-254 287q-10 10-10 21 0 4 2 12l33 158q4 14 14 14 6 0 12-6l356-406q14-14 15-37l-23-112q-6-20-26-37l-516-404q-10-6-13-6-10 1-10 15zm436 0l35 184q6 20 21 33l364 284-254 287q-10 10-10 21 0 4 2 12l33 158q4 14 14 14 6 0 12-6l357-406q14-14 14-37l-22-112q-6-20-27-37l-516-404q-8-6-12-6-11 1-11 15z"/><glyph unicode="¼" horiz-adv-x="1732" d="M102 72q0 6 9 14l1394 1341q6 6 14.5 6.5t14.5-6.5l45-51q8-8 8-14t-8-14l-1395-1342q-6-6-14-6t-14 6l-45 51q-9 9-9 15zm84 1149l19 90q2 12 18 20l191 94q16 8 32 9h52q16 0 16-21l-141-725q-2-20-25-20h-78q-16 0-16 20l115 594-150-72q-12-6-20-6-13 1-13 17zm672-1055l10 57q2 12 15 25l448 504q14 14 27 14h72q16 0 16-21l-96-489h98q18 0 18-20l-14-70q-2-20-25-21h-98l-24-125q-2-20-25-20h-78q-16 0-16 20l24 125h-336q-16 1-16 21zm174 90h199l55 285z"/><glyph unicode="½" horiz-adv-x="1822" d="M102 72q0 6 9 14l1394 1341q6 6 14.5 6.5t14.5-6.5l45-51q8-8 8-14t-8-14l-1395-1342q-6-6-14-6t-14 6l-45 51q-9 9-9 15zm84 1149l19 90q2 12 18 20l191 94q16 8 32 9h52q16 0 16-21l-141-725q-2-20-25-20h-78q-16 0-16 20l115 594-150-72q-12-6-20-6-13 1-13 17zm852-1201l11 62q2 18 18 29l371 272q55 41 81.5 79t26.5 93q0 51-32.5 82t-88.5 31q-61 0-102-37t-59-96q-6-20-25-21h-84q-16 0-16 21 23 106 99.5 174.5t201.5 68.5q106 0 167.5-59.5t61.5-149.5q0-152-164-272l-260-186h332q16 0 16-21l-12-70q-2-20-25-20h-501q-17 0-17 20z"/><glyph unicode="¾" horiz-adv-x="1800" d="M125 860q0 10 2 27 2 20 25 20h73q16 0 17-20 0-59 36.5-90t98.5-31q68 0 109.5 36t41.5 103q0 49-30.5 79t-87.5 30h-58q-16 0-16 20l14 70q2 20 23 20h41q61 0 107 32t46 93q0 39-26.5 66.5t-75.5 27.5q-109 0-146-104-6-16-22-16h-76q-16 0-16 18 23 96 95.5 150.5t180.5 54.5q94 0 151.5-51.5t57.5-128.5q0-129-129-189 86-47 86-159 0-129-80-196t-211-67q-98 0-164.5 58.5t-66.5 146.5zm45-788q0 6 8 14l1395 1341q6 6 14 6.5t15-6.5l45-51q8-8 8-14t-8-14l-1395-1342q-6-6-14.5-6t-14.5 6l-45 51q-8 9-8 15zm756 94l10 57q2 12 14 25l449 504q14 14 26 14h72q16 0 16-21l-96-489h99q18 0 18-20l-14-70q-2-20-25-21h-98l-25-125q-2-20-24-20h-78q-16 0-17 20l25 125h-336q-16 1-16 21zm174 90h198l56 285z"/><glyph unicode="¿" horiz-adv-x="1120" d="M-6-88q0 92 43 166t106.5 124 129 96 118.5 107.5 68 131.5l14 75q2 20 25 21h139q16 0 16-21l-12-61q-20-104-76.5-184t-121.5-127l-126-92q-61-44-102-99t-41-127q0-86 57.5-135t157.5-49q111 0 195 61.5t125 180.5q6 20 24 20h135q16 0 17-20-45-178-180.5-292t-337.5-114q-164 0-268.5 90t-104.5 248zm508 932l33 164q2 20 24 20h172q16 0 17-20l-33-164q-2-20-25-21h-172q-16 1-16 21z"/><glyph unicode="À" d="M-133 16q0 8 6 19l774 1378q12 20 29 21h176q18 0 20-21l240-1388q0-25-25-25h-135q-18 0-20 20l-64 396h-585l-220-396q-12-20-28-20h-150q-18 0-18 16zm506 564h467l-107 647zm145 1247q0 12 17 12h194q18 0 27-20l90-258q2-6 2-11 0-10-12-10h-123q-20 0-33 19l-160 260q-2 4-2 8z"/><glyph unicode="Á" d="M-133 16q0 8 6 19l774 1378q12 20 29 21h176q18 0 20-21l240-1388q0-25-25-25h-135q-18 0-20 20l-64 396h-585l-220-396q-12-20-28-20h-150q-18 0-18 16zm506 564h467l-107 647zm332 968q0 6 4 13l192 258q14 20 35 20h199q12 0 12-8 0-6-6-12l-262-260q-18-18-41-19h-123q-10 0-10 8z"/><glyph unicode="Â" d="M-133 16q0 8 6 19l774 1378q12 20 29 21h176q18 0 20-21l240-1388q0-25-25-25h-135q-18 0-20 20l-64 396h-585l-220-396q-12-20-28-20h-150q-18 0-18 16zm506 564h467l-107 647zm100 968q0 6 6 13l266 262q16 16 35 16h115q16 0 27-16l163-262q2-4 2-7 0-14-16-14h-127q-18 0-33 19l-100 129-152-129q-20-18-41-19h-133q-12 0-12 8z"/><glyph unicode="Ã" d="M-133 16q0 8 6 19l774 1378q12 20 29 21h176q18 0 20-21l240-1388q0-25-25-25h-135q-18 0-20 20l-64 396h-585l-220-396q-12-20-28-20h-150q-18 0-18 16zm506 564h467l-107 647zm73 1157q0 12 25 28 121 74 221 74 80 0 142.5-42t113.5-42q47 0 135 51 8 4 15 4 10 0 18-16l45-86q2-4 2-6 0-10-24-29-113-74-221-74-82 0-143.5 42t-112.5 42q-47 0-136-51-8-4-14-4-10 0-18 17l-45 86q-3 4-3 6z"/><glyph unicode="Ä" d="M-133 16q0 8 6 19l774 1378q12 20 29 21h176q18 0 20-21l240-1388q0-25-25-25h-135q-18 0-20 20l-64 396h-585l-220-396q-12-20-28-20h-150q-18 0-18 16zm506 564h467l-107 647zm157 1075l31 164q2 20 25 20h164q16 0 16-20l-31-164q-2-20-24-21h-164q-17 1-17 21zm340 0l31 164q2 20 25 20h164q16 0 16-20l-31-164q-2-20-24-21h-164q-17 1-17 21z"/><glyph unicode="Å" d="M-133 16q0 8 6 19l774 1378q12 20 29 21h176q18 0 20-21l240-1388q0-25-25-25h-135q-18 0-20 20l-64 396h-585l-220-396q-12-20-28-20h-150q-18 0-18 16zm506 564h467l-107 647zm278 1106q0 84 58.5 139t148.5 55q70 0 114-42t44-107q0-84-58.5-139.5t-148.5-55.5q-70 0-114 42t-44 108zm101 10q0-70 67-70 41 0 68.5 25.5t27.5 68.5q0 70-67 70-41 0-68.5-25.5t-27.5-68.5z"/><glyph unicode="Æ" horiz-adv-x="1732" d="M-133 16q0 8 4 17l821 1380q12 20 25 21h1018q16 0 16-21l-25-123q-2-20-24-20h-664l-84-434h602q16 0 17-21l-25-123q-2-20-24-20h-602l-99-508h695q16 0 16-21l-25-123q-2-20-24-20h-854q-16 0-17 20l78 396h-399l-236-396q-12-20-28-20h-144q-18 0-18 16zm520 564h336l135 690h-61z"/><glyph unicode="Ç" horiz-adv-x="1413" d="M78 573q0 244 92 442.5t276.5 318.5 427.5 120q231 0 376-134t145-341v-23q0-20-27-20h-127q-18 0-20 20-14 164-102.5 249t-270.5 85q-260 0-423-205.5t-163-484.5q0-219 104.5-338t272.5-119q182 0 290.5 79t192.5 255q8 20 29 21h135q18 0 19-21-78-233-246-360t-404-137l-63-105q53 14 117 14 147 0 147-114 0-98-73.5-149.5t-190.5-51.5q-111 0-189 20-18 6-18 19l10 61q2 20 25 21 6 0 27.5-5t59.5-11.5 89-6.5q43 0 83 17.5t40 56.5q0 53-96 53-53 0-111-14-6-2-14.5-2t-14.5 6l-24 27q-2 2-2 6 0 6 6 16l74 150q-203 31-331 187t-128 398z"/><glyph unicode="È" horiz-adv-x="1165" d="M57 20l273 1393q2 20 24 21h813q16 0 17-21l-25-123q-2-20-24-20h-654l-84-434h592q16 0 17-21l-25-123q-2-20-25-20h-591l-99-508h684q16 0 17-21l-25-123q-4-20-24-20h-844q-17 0-17 20zm516 1807q0 12 17 12h194q18 0 27-20l90-258q2-6 2-11 0-10-12-10h-123q-20 0-33 19l-160 260q-2 4-2 8z"/><glyph unicode="É" horiz-adv-x="1165" d="M57 20l273 1393q2 20 24 21h813q16 0 17-21l-25-123q-2-20-24-20h-654l-84-434h592q16 0 17-21l-25-123q-2-20-25-20h-591l-99-508h684q16 0 17-21l-25-123q-4-20-24-20h-844q-17 0-17 20zm549 1528q0 6 4 13l193 258q14 20 35 20h198q12 0 13-8 0-6-7-12l-262-260q-18-18-41-19h-123q-10 0-10 8z"/><glyph unicode="Ê" horiz-adv-x="1165" d="M57 20l273 1393q2 20 24 21h813q16 0 17-21l-25-123q-2-20-24-20h-654l-84-434h592q16 0 17-21l-25-123q-2-20-25-20h-591l-99-508h684q16 0 17-21l-25-123q-4-20-24-20h-844q-17 0-17 20zm416 1528q0 6 6 13l266 262q16 16 35 16h115q16 0 27-16l163-262q2-4 2-7 0-14-16-14h-127q-18 0-33 19l-100 129-152-129q-20-18-41-19h-133q-12 0-12 8z"/><glyph unicode="Ë" horiz-adv-x="1165" d="M57 20l273 1393q2 20 24 21h813q16 0 17-21l-25-123q-2-20-24-20h-654l-84-434h592q16 0 17-21l-25-123q-2-20-25-20h-591l-99-508h684q16 0 17-21l-25-123q-4-20-24-20h-844q-17 0-17 20zm455 1635l31 164q2 20 24 20h164q16 0 17-20l-31-164q-2-20-25-21h-164q-16 1-16 21zm340 0l31 164q2 20 24 20h164q16 0 16-20l-30-164q-2-20-25-21h-164q-16 1-16 21z"/><glyph unicode="Ì" horiz-adv-x="567" d="M57 20l273 1393q2 20 24 21h140q16 0 16-21l-272-1393q-2-20-25-20h-139q-17 0-17 20zm152 1807q0 12 16 12h195q18 0 26-20l91-258q2-6 2-11 0-10-13-10h-123q-20 0-32 19l-160 260q-2 4-2 8z"/><glyph unicode="Í" horiz-adv-x="567" d="M57 20l273 1393q2 20 24 21h140q16 0 16-21l-272-1393q-2-20-25-20h-139q-17 0-17 20zm295 1528q0 6 4 13l193 258q14 20 35 20h198q12 0 13-8 0-6-7-12l-262-260q-18-18-41-19h-123q-10 0-10 8z"/><glyph unicode="Î" horiz-adv-x="567" d="M57 20l273 1393q2 20 24 21h140q16 0 16-21l-272-1393q-2-20-25-20h-139q-17 0-17 20zm80 1528q0 6 6 13l267 262q16 16 34 16h115q16 0 27-16l164-262q2-4 2-7 0-14-17-14h-127q-18 0-33 19l-100 129-151-129q-20-18-41-19h-133q-13 0-13 8z"/><glyph unicode="Ï" horiz-adv-x="567" d="M57 20l273 1393q2 20 24 21h140q16 0 16-21l-272-1393q-2-20-25-20h-139q-17 0-17 20zm131 1635l31 164q2 20 25 20h164q16 0 16-20l-31-164q-2-20-24-21h-164q-17 1-17 21zm340 0l31 164q2 20 25 20h164q16 0 16-20l-31-164q-2-20-24-21h-164q-17 1-17 21z"/><glyph unicode="Ð" horiz-adv-x="1413" d="M39 657l22 119q2 20 23 21h162l121 616q2 20 24 21h393q240 0 394.5-143.5t154.5-409.5q0-375-224-628t-593-253h-405q-16 0-17 20l121 617h-160q-16 0-16 20zm264-493h221q279 0 452 199.5t173 490.5q0 203-110.5 309.5t-299.5 106.5h-221l-92-473h322q16 0 16-21l-23-119q-2-20-24-20h-322z"/><glyph unicode="Ñ" horiz-adv-x="1468" d="M57 20l273 1393q2 20 24 21h156q25 0 29-17l469-1147 223 1143q2 20 24 21h140q16 0 16-21l-272-1393q-2-20-25-20h-156q-25 0-28 16l-469 1147-223-1143q-2-20-25-20h-139q-17 0-17 20zm490 1717q0 12 24 28 121 74 222 74 80 0 142-42t114-42q47 0 135 51 8 4 14 4 10 0 19-16l45-86q2-4 2-6 0-10-25-29-113-74-221-74-80 0-143.5 42t-112.5 42q-47 0-135-51-8-4-15-4-10 0-18 17l-45 86q-2 4-2 6z"/><glyph unicode="Ò" horiz-adv-x="1538" d="M78 582q0 168 54 324.5t152.5 278.5 250 195.5 331.5 73.5q272 0 432-162t160-440q0-168-54-324.5t-152.5-278.5-250-195.5-331.5-73.5q-272 0-432 161.5t-160 440.5zm184 12q0-211 112.5-331t305.5-120q266 0 430 206t164 491q0 211-112.5 330.5t-305.5 119.5q-266 0-430-205.5t-164-490.5zm432 1233q0 12 17 12h194q18 0 27-20l90-258q2-6 2-11 0-10-12-10h-123q-20 0-33 19l-160 260q-2 4-2 8z"/><glyph unicode="Ó" horiz-adv-x="1538" d="M78 582q0 168 54 324.5t152.5 278.5 250 195.5 331.5 73.5q272 0 432-162t160-440q0-168-54-324.5t-152.5-278.5-250-195.5-331.5-73.5q-272 0-432 161.5t-160 440.5zm184 12q0-211 112.5-331t305.5-120q266 0 430 206t164 491q0 211-112.5 330.5t-305.5 119.5q-266 0-430-205.5t-164-490.5zm506 954q0 6 4 13l193 258q14 20 34 20h199q12 0 12-8 0-6-6-12l-262-260q-18-18-41-19h-123q-10 0-10 8z"/><glyph unicode="Ô" horiz-adv-x="1538" d="M78 582q0 168 54 324.5t152.5 278.5 250 195.5 331.5 73.5q272 0 432-162t160-440q0-168-54-324.5t-152.5-278.5-250-195.5-331.5-73.5q-272 0-432 161.5t-160 440.5zm184 12q0-211 112.5-331t305.5-120q266 0 430 206t164 491q0 211-112.5 330.5t-305.5 119.5q-266 0-430-205.5t-164-490.5zm328 954q0 6 6 13l266 262q16 16 35 16h115q16 0 26-16l164-262q2-4 2-7 0-14-16-14h-127q-16 0-33 19l-100 129-152-129q-23-18-41-19h-133q-12 0-12 8z"/><glyph unicode="Õ" horiz-adv-x="1538" d="M78 582q0 168 54 324.5t152.5 278.5 250 195.5 331.5 73.5q272 0 432-162t160-440q0-168-54-324.5t-152.5-278.5-250-195.5-331.5-73.5q-272 0-432 161.5t-160 440.5zm184 12q0-211 112.5-331t305.5-120q266 0 430 206t164 491q0 211-112.5 330.5t-305.5 119.5q-266 0-430-205.5t-164-490.5zm348 1143q0 12 25 28 121 74 221 74 80 0 142.5-42t113.5-42q47 0 135 51 8 4 15 4 10 0 18-16l45-86q2-4 2-6 0-10-24-29-113-74-222-74-82 0-143 42t-113 42q-47 0-135-51-8-4-14-4-10 0-19 17l-45 86q-2 4-2 6z"/><glyph unicode="Ö" horiz-adv-x="1538" d="M78 582q0 168 54 324.5t152.5 278.5 250 195.5 331.5 73.5q272 0 432-162t160-440q0-168-54-324.5t-152.5-278.5-250-195.5-331.5-73.5q-272 0-432 161.5t-160 440.5zm184 12q0-211 112.5-331t305.5-120q266 0 430 206t164 491q0 211-112.5 330.5t-305.5 119.5q-266 0-430-205.5t-164-490.5zm406 1061l30 164q2 20 25 20h164q16 0 16-20l-31-164q-2-20-24-21h-164q-16 1-16 21zm340 0l30 164q2 20 25 20h164q16 0 16-20l-31-164q-2-20-24-21h-164q-16 1-16 21z"/><glyph unicode="×" horiz-adv-x="1009" d="M90 446q0 8 10 17l310 258-199 235q-4 6-4 13 0 8 10 16l92 78q10 8 17 8 4 0 12-8l197-242 292 250q10 8 17 8 4 0 12-8l78-90q4-6 4-12t-10-17l-293-252 199-249q4-6 4-12.5t-11-16.5l-90-78q-8-8-16-8-4 0-12 8l-203 256-303-262q-8-8-14.5-8t-14.5 8l-80 96q-4 6-4 12z"/><glyph unicode="Ø" horiz-adv-x="1538" d="M78 582q0 168 54 324.5t152.5 278.5 250 195.5 331.5 73.5q201 0 344-90l123 158q10 12 19 12 6 0 12-4l49-33q8-6 8-14 0-4-6-15l-129-165q172-162 172-451 0-168-54-324.5t-152.5-278.5-250-195.5-331.5-73.5q-201 0-344 90l-123-158q-10-12-19-12-6 0-12 4l-49 33q-8 6-8 14 0 4 6 14l129 166q-172 162-172 451zm184 12q0-201 100-318l738 947q-98 68-244 67-266 0-430-205.5t-164-490.5zm174-383q98-68 244-68 266 0 430 206t164 491q0 201-100 317z"/><glyph unicode="Ù" horiz-adv-x="1349" d="M119 385q0 76 14 145l172 883q2 20 25 21h139q16 0 16-21l-174-895q-12-68-12-127 0-248 266-248 164 0 264.5 97.5t137.5 277.5l174 895q2 20 24 21h140q16 0 16-21l-180-917q-53-274-203-395t-406-121q-186 0-299.5 105t-113.5 300zm499 1442q0 12 17 12h194q18 0 27-20l90-258q2-6 2-11 0-10-12-10h-123q-20 0-33 19l-159 260q-3 4-3 8z"/><glyph unicode="Ú" horiz-adv-x="1349" d="M119 385q0 76 14 145l172 883q2 20 25 21h139q16 0 16-21l-174-895q-12-68-12-127 0-248 266-248 164 0 264.5 97.5t137.5 277.5l174 895q2 20 24 21h140q16 0 16-21l-180-917q-53-274-203-395t-406-121q-186 0-299.5 105t-113.5 300zm569 1163q0 6 4 13l193 258q14 20 35 20h198q12 0 12-8 0-6-6-12l-262-260q-18-18-41-19h-123q-10 0-10 8z"/><glyph unicode="Û" horiz-adv-x="1349" d="M119 385q0 76 14 145l172 883q2 20 25 21h139q16 0 16-21l-174-895q-12-68-12-127 0-248 266-248 164 0 264.5 97.5t137.5 277.5l174 895q2 20 24 21h140q16 0 16-21l-180-917q-53-274-203-395t-406-121q-186 0-299.5 105t-113.5 300zm411 1163q0 6 7 13l266 262q16 16 35 16h114q16 0 27-16l164-262q2-4 2-7 0-14-17-14h-127q-18 0-32 19l-101 129-151-129q-20-18-41-19h-133q-13 0-13 8z"/><glyph unicode="Ü" horiz-adv-x="1349" d="M119 385q0 76 14 145l172 883q2 20 25 21h139q16 0 16-21l-174-895q-12-68-12-127 0-248 266-248 164 0 264.5 97.5t137.5 277.5l174 895q2 20 24 21h140q16 0 16-21l-180-917q-53-274-203-395t-406-121q-186 0-299.5 105t-113.5 300zm461 1270l30 164q2 20 25 20h164q16 0 16-20l-31-164q-2-20-24-21h-164q-16 1-16 21zm340 0l30 164q2 20 25 20h164q16 0 16-20l-31-164q-2-20-24-21h-164q-16 1-16 21z"/><glyph unicode="Ý" horiz-adv-x="1081" d="M119 1413q0 20 16 21h162q12 0 18-17l203-688 477 688q10 16 27 17h170q12 0 12-11 0-4-4-10l-622-885-101-508q-2-20-24-20h-140q-16 0-16 20l100 508zm403 135q0 6 4 13l193 258q14 20 35 20h198q12 0 13-8 0-6-7-12l-262-260q-18-18-41-19h-123q-10 0-10 8z"/><glyph unicode="Þ" horiz-adv-x="1292" d="M57 20l271 1393q2 20 24 21h140q16 0 16-21l-59-297h342q190 0 296.5-88t106.5-237q0-225-148.5-349.5t-406.5-124.5h-344l-57-297q-2-20-25-20h-139q-17 0-17 20zm269 461h370q143 0 228.5 71t85.5 214q0 88-56.5 137t-165.5 49h-370z"/><glyph unicode="ß" horiz-adv-x="1243" d="M57 897l21 111q2 20 24 20h154l12 66q31 164 156 262t297 98q154 0 245-83t91-220q0-66-25.5-121t-61.5-91-73-65.5-62.5-57.5-25.5-52q0-35 46-73t102.5-70.5 102.5-99 46-150.5q0-182-118-286.5t-300-104.5q-139 0-233.5 86t-94.5 198q0 14 5 43 2 20 24 21h111q16 0 16-21 4-78 50-127t141-49q98 0 160.5 60.5t62.5 160.5q0 57-30 99.5t-72 69.5l-85 56q-43 28-72.5 69.5t-29.5 96.5q0 63 40 116.5t87 85.5 87 79 40 100q0 86-50 132.5t-147 46.5q-219 0-270-250l-201-1033q-2-20-24-20h-127q-16 0-17 20l168 857h-153q-17 0-17 20z"/><glyph unicode="à" horiz-adv-x="1239" d="M57 436q0 248 152.5 430.5t419.5 182.5q199 0 307-131l16 90q2 20 25 20h127q16 0 16-20l-190-988q-6-20-25-20h-127q-16 0-16 20l16 82q-74-68-144.5-95t-180.5-27q-180 0-288 126.5t-108 329.5zm176 0q0-143 68-224t188-81q174 0 285 144.5t111 345.5q0 129-71 202.5t-198 73.5q-174 0-278.5-137.5t-104.5-323.5zm240 985q0 12 16 13h195q18 0 27-21l90-258q2-6 2-10 0-10-12-10h-123q-20 0-33 18l-160 260q-2 4-2 8z"/><glyph unicode="á" horiz-adv-x="1239" d="M57 436q0 248 152.5 430.5t419.5 182.5q199 0 307-131l16 90q2 20 25 20h127q16 0 16-20l-190-988q-6-20-25-20h-127q-16 0-16 20l16 82q-74-68-144.5-95t-180.5-27q-180 0-288 126.5t-108 329.5zm176 0q0-143 68-224t188-81q174 0 285 144.5t111 345.5q0 129-71 202.5t-198 73.5q-174 0-278.5-137.5t-104.5-323.5zm250 707q0 6 4 12l193 258q14 20 35 21h198q12 0 13-9 0-6-6-12l-263-260q-18-18-41-18h-122q-11 0-11 8z"/><glyph unicode="â" horiz-adv-x="1239" d="M57 436q0 248 152.5 430.5t419.5 182.5q199 0 307-131l16 90q2 20 25 20h127q16 0 16-20l-190-988q-6-20-25-20h-127q-16 0-16 20l16 82q-74-68-144.5-95t-180.5-27q-180 0-288 126.5t-108 329.5zm176 0q0-143 68-224t188-81q174 0 285 144.5t111 345.5q0 129-71 202.5t-198 73.5q-174 0-278.5-137.5t-104.5-323.5zm136 707q0 6 6 12l266 262q16 16 35 17h115q16 0 26-17l164-262q2-4 2-6 0-14-16-14h-127q-16 0-33 18l-100 129-152-129q-23-18-41-18h-133q-12 0-12 8z"/><glyph unicode="ã" horiz-adv-x="1239" d="M57 436q0 248 152.5 430.5t419.5 182.5q199 0 307-131l16 90q2 20 25 20h127q16 0 16-20l-190-988q-6-20-25-20h-127q-16 0-16 20l16 82q-74-68-144.5-95t-180.5-27q-180 0-288 126.5t-108 329.5zm176 0q0-143 68-224t188-81q174 0 285 144.5t111 345.5q0 129-71 202.5t-198 73.5q-174 0-278.5-137.5t-104.5-323.5zm113 895q0 12 25 29 121 74 221 74 80 0 142.5-42t113.5-42q47 0 135 51 8 4 14 4 10 0 19-16l45-86q2-4 2-7 0-10-25-28-113-74-221-74-80 0-143.5 42t-112.5 42q-47 0-135-51-8-4-14-4-10 0-19 16l-45 86q-2 4-2 6z"/><glyph unicode="ä" horiz-adv-x="1239" d="M57 436q0 248 152.5 430.5t419.5 182.5q199 0 307-131l16 90q2 20 25 20h127q16 0 16-20l-190-988q-6-20-25-20h-127q-16 0-16 20l16 82q-74-68-144.5-95t-180.5-27q-180 0-288 126.5t-108 329.5zm176 0q0-143 68-224t188-81q174 0 285 144.5t111 345.5q0 129-71 202.5t-198 73.5q-174 0-278.5-137.5t-104.5-323.5zm203 813l31 164q2 20 25 21h163q16 0 17-21l-31-164q-2-20-25-20h-163q-17 0-17 20zm340 0l31 164q2 20 24 21h164q16 0 17-21l-31-164q-2-20-25-20h-163q-17 0-17 20z"/><glyph unicode="å" horiz-adv-x="1239" d="M57 436q0 248 152.5 430.5t419.5 182.5q199 0 307-131l16 90q2 20 25 20h127q16 0 16-20l-190-988q-6-20-25-20h-127q-16 0-16 20l16 82q-74-68-144.5-95t-180.5-27q-180 0-288 126.5t-108 329.5zm176 0q0-143 68-224t188-81q174 0 285 144.5t111 345.5q0 129-71 202.5t-198 73.5q-174 0-278.5-137.5t-104.5-323.5zm302 844q0 84 58 139.5t148 55.5q70 0 114-42t44-108q0-84-58.5-139.5t-148.5-55.5q-70 0-113.5 42t-43.5 108zm100 10q0-70 67-69 41 0 69 25.5t28 68.5q0 70-68 69-41 0-68.5-25.5t-27.5-68.5z"/><glyph unicode="æ" horiz-adv-x="1931" d="M57 270q0 174 133.5 275.5t327.5 101.5q152 0 295-43l10 53q6 35 6 64 0 84-53 130t-153 46q-182 0-273-156-10-18-33-18h-129q-14 0-14 12 0 8 6 21 131 293 459 293 117 0 203-48.5t125-128.5q176 176 434 177 193 0 302-121t109-310q0-51-10-100l-6-33q-6-20-24-20h-803q-4-29-4-53 0-131 69.5-206t202.5-75q209 0 334 188 12 18 33 19h133q10 0 10-10 0-8-8-25-164-324-525-323-266 0-372 225-154-225-432-225-147 0-250 75.5t-103 214.5zm176 21q0-78 47.5-119t129.5-41q135 0 239.5 84t132.5 234q-127 47-274 47-111 0-193-50.5t-82-154.5zm766 325h646q0 133-71 207t-202 74q-121 0-220.5-72t-152.5-209z"/><glyph unicode="ç" horiz-adv-x="1148" d="M57 436q0 262 171 437.5t438 175.5q172 0 280.5-99.5t112.5-253.5q0-23-19-22h-125q-23 0-26 18-27 205-250 205-176 0-291-133t-115-326q0-307 273-307 203 0 311 205 10 18 31 18h129q12 0 12-12 0-8-6-20-147-336-494-342l-63-105q53 14 117 14 147 0 147-114 0-98-73.5-149.5t-190.5-51.5q-111 0-188 20-18 6-19 19l10 61q2 20 25 21 6 0 27.5-5t59.5-11.5 89-6.5q43 0 83 17.5t40 56.5q0 53-96 53-53 0-111-14-6-2-14-2t-15 6l-24 27q-2 2-2 6 0 6 6 16l76 154q-150 31-233 151.5t-83 292.5z"/><glyph unicode="è" horiz-adv-x="1196" d="M57 442q0 248 172 427.5t437 179.5q193 0 302-121t109-310q0-51-10-100l-6-33q-6-20-25-20h-798q-4-29-5-53 0-131 69-206t200-75q209 0 334 188 12 18 32 19h133q10 0 11-10 0-8-8-25-164-324-525-323-199 0-310.5 130.5t-111.5 331.5zm209 174h643q0 133-70.5 207t-201.5 74q-121 0-219.5-72t-151.5-209zm191 805q0 12 16 13h195q18 0 26-21l90-258q2-6 2-10 0-10-12-10h-123q-20 0-33 18l-159 260q-2 4-2 8z"/><glyph unicode="é" horiz-adv-x="1196" d="M57 442q0 248 172 427.5t437 179.5q193 0 302-121t109-310q0-51-10-100l-6-33q-6-20-25-20h-798q-4-29-5-53 0-131 69-206t200-75q209 0 334 188 12 18 32 19h133q10 0 11-10 0-8-8-25-164-324-525-323-199 0-310.5 130.5t-111.5 331.5zm209 174h643q0 133-70.5 207t-201.5 74q-121 0-219.5-72t-151.5-209zm279 527q0 6 4 12l192 258q14 20 35 21h199q12 0 12-9 0-6-6-12l-262-260q-18-18-41-18h-123q-10 0-10 8z"/><glyph unicode="ê" horiz-adv-x="1196" d="M57 442q0 248 172 427.5t437 179.5q193 0 302-121t109-310q0-51-10-100l-6-33q-6-20-25-20h-798q-4-29-5-53 0-131 69-206t200-75q209 0 334 188 12 18 32 19h133q10 0 11-10 0-8-8-25-164-324-525-323-199 0-310.5 130.5t-111.5 331.5zm209 174h643q0 133-70.5 207t-201.5 74q-121 0-219.5-72t-151.5-209zm127 527q0 6 6 12l267 262q16 16 34 17h115q16 0 27-17l164-262q2-4 2-6 0-14-17-14h-127q-16 0-33 18l-100 129-151-129q-23-18-41-18h-133q-13 0-13 8z"/><glyph unicode="ë" horiz-adv-x="1196" d="M57 442q0 248 172 427.5t437 179.5q193 0 302-121t109-310q0-51-10-100l-6-33q-6-20-25-20h-798q-4-29-5-53 0-131 69-206t200-75q209 0 334 188 12 18 32 19h133q10 0 11-10 0-8-8-25-164-324-525-323-199 0-310.5 130.5t-111.5 331.5zm209 174h643q0 133-70.5 207t-201.5 74q-121 0-219.5-72t-151.5-209zm178 633l31 164q2 20 25 21h164q16 0 16-21l-31-164q-2-20-24-20h-164q-17 0-17 20zm340 0l31 164q2 20 25 21h164q16 0 16-21l-31-164q-2-20-24-20h-164q-17 0-17 20z"/><glyph unicode="ì" horiz-adv-x="548" d="M61 20l193 988q2 20 25 20h127q16 0 16-20l-193-988q-2-20-24-20h-127q-17 0-17 20zm45 1401q0 12 17 13h194q18 0 27-21l90-258q2-6 2-10 0-10-12-10h-123q-20 0-33 18l-159 260q-3 4-3 8z"/><glyph unicode="í" horiz-adv-x="548" d="M61 20l193 988q2 20 25 20h127q16 0 16-20l-193-988q-2-20-24-20h-127q-17 0-17 20zm213 1123q0 6 5 12l192 258q14 20 35 21h199q12 0 12-9 0-6-6-12l-262-260q-18-18-41-18h-123q-11 0-11 8z"/><glyph unicode="î" horiz-adv-x="548" d="M61 20l193 988q2 20 25 20h127q16 0 16-20l-193-988q-2-20-24-20h-127q-17 0-17 20zm0 1123q0 6 7 12l266 262q16 16 35 17h114q16 0 27-17l164-262q2-4 2-6 0-14-17-14h-127q-16 0-32 18l-101 129-151-129q-23-18-41-18h-133q-13 0-13 8z"/><glyph unicode="ï" horiz-adv-x="548" d="M61 20l193 988q2 20 25 20h127q16 0 16-20l-193-988q-2-20-24-20h-127q-17 0-17 20zm48 1229l30 164q2 20 25 21h164q16 0 16-21l-31-164q-2-20-24-20h-164q-16 0-16 20zm340 0l30 164q2 20 25 21h164q16 0 16-21l-31-164q-2-20-24-20h-164q-16 0-16 20z"/><glyph unicode="ð" horiz-adv-x="1222" d="M57 438q0 250 164 430.5t428 180.5q203 0 279-121-10 162-113 241l-233-84q-18-6-25 11l-31 92q-4 16 19 26l125 46q-68 27-187 38-20 4-10 29l29 103q4 14 30 14 203-23 347-111l217 78q18 8 24-10l31-92q6-20-18-27l-136-49q51-63 80-186t29-244q0-127-21.5-244t-70.5-223.5-121-185-179.5-124.5-240.5-46q-186 0-301 123.5t-115 334.5zm168 0q0-145 66.5-226t195.5-81q176 0 294 141.5t118 323.5q0 143-68.5 222t-199.5 79q-186 0-296-133t-110-326z"/><glyph unicode="ñ" horiz-adv-x="1218" d="M61 20l191 988q6 20 24 20h127q16 0 17-20l-23-117q162 158 351 158 145 0 225-70t80-199q0-31-13-104l-127-656q-2-20-24-20h-127q-16 0-17 20l123 631q8 47 9 78 0 168-187 168-121 0-225.5-98.5t-136.5-274.5l-99-504q-6-20-24-20h-127q-17 0-17 20zm320 1311q0 12 25 29 121 74 221 74 80 0 142-42t114-42q47 0 135 51 8 4 14 4 10 0 19-16l45-86q2-4 2-7 0-10-25-28-113-74-221-74-82 0-143.5 42t-112.5 42q-47 0-135-51-8-4-15-4-10 0-18 16l-45 86q-2 4-2 6z"/><glyph unicode="ò" horiz-adv-x="1245" d="M57 403q0 270 174.5 458t442.5 188q199 0 319.5-117t120.5-307q0-270-174-457.5t-442-187.5q-199 0-320 116.5t-121 306.5zm176 15q0-133 77-210t206-77q182 0 302 140.5t120 338.5q0 133-77 210t-206 77q-182 0-302-140t-120-339zm261 1003q0 12 16 13h195q18 0 26-21l90-258q2-6 2-10 0-10-12-10h-123q-20 0-33 18l-159 260q-2 4-2 8z"/><glyph unicode="ó" horiz-adv-x="1245" d="M57 403q0 270 174.5 458t442.5 188q199 0 319.5-117t120.5-307q0-270-174-457.5t-442-187.5q-199 0-320 116.5t-121 306.5zm176 15q0-133 77-210t206-77q182 0 302 140.5t120 338.5q0 133-77 210t-206 77q-182 0-302-140t-120-339zm299 725q0 6 5 12l192 258q14 20 35 21h199q12 0 12-9 0-6-6-12l-262-260q-18-18-41-18h-123q-11 0-11 8z"/><glyph unicode="ô" horiz-adv-x="1245" d="M57 403q0 270 174.5 458t442.5 188q199 0 319.5-117t120.5-307q0-270-174-457.5t-442-187.5q-199 0-320 116.5t-121 306.5zm176 15q0-133 77-210t206-77q182 0 302 140.5t120 338.5q0 133-77 210t-206 77q-182 0-302-140t-120-339zm179 725q0 6 6 12l266 262q16 16 35 17h115q16 0 26-17l164-262q2-4 2-6 0-14-16-14h-127q-18 0-33 18l-100 129-152-129q-20-18-41-18h-133q-12 0-12 8z"/><glyph unicode="õ" horiz-adv-x="1245" d="M57 403q0 270 174.5 458t442.5 188q199 0 319.5-117t120.5-307q0-270-174-457.5t-442-187.5q-199 0-320 116.5t-121 306.5zm176 15q0-133 77-210t206-77q182 0 302 140.5t120 338.5q0 133-77 210t-206 77q-182 0-302-140t-120-339zm173 913q0 12 24 29 121 74 221 74 80 0 142.5-42t113.5-42q47 0 135 51 8 4 15 4 10 0 18-16l45-86q2-4 2-7 0-10-24-28-113-74-221-74-82 0-143.5 42t-112.5 42q-47 0-136-51-8-4-14-4-10 0-18 16l-45 86q-2 4-2 6z"/><glyph unicode="ö" horiz-adv-x="1245" d="M57 403q0 270 174.5 458t442.5 188q199 0 319.5-117t120.5-307q0-270-174-457.5t-442-187.5q-199 0-320 116.5t-121 306.5zm176 15q0-133 77-210t206-77q182 0 302 140.5t120 338.5q0 133-77 210t-206 77q-182 0-302-140t-120-339zm224 831l30 164q2 20 25 21h164q16 0 16-21l-30-164q-2-20-25-20h-164q-16 0-16 20zm340 0l30 164q2 20 25 21h164q16 0 16-21l-31-164q-2-20-24-20h-164q-16 0-16 20z"/><glyph unicode="÷" horiz-adv-x="1193" d="M129 455l23 118q2 20 24 21h864q16 0 17-21l-23-118q-2-20-24-21h-865q-16 1-16 21zm260-435l29 156q2 20 24 21h160q16 0 16-21l-28-156q-2-20-25-20h-159q-17 0-17 20zm162 832l29 156q2 20 24 20h160q16 0 16-20l-28-156q-2-20-25-21h-160q-16 1-16 21z"/><glyph unicode="ø" horiz-adv-x="1245" d="M57 403q0 270 174.5 458t442.5 188q127 0 225-52l88 115q8 12 19 12 6 0 12-4l49-33q8-6 8-14 0-4-6-14l-90-115q135-119 135-319 0-270-174-457.5t-442-187.5q-127 0-226 51l-88-115q-8-12-18-12-6 0-12 4l-50 33q-8 6-8 14 0 4 6 14l91 115q-136 118-136 319zm176 15q0-125 66-197l498 645q-61 31-142 31-182 0-302-140t-120-339zm142-256q61-31 141-31 182 0 302 140.5t120 338.5q0 125-66 197z"/><glyph unicode="ù" horiz-adv-x="1206" d="M96 248q0 31 13 104l127 656q2 20 24 20h127q16 0 16-20l-122-631q-8-47-9-78 0-168 187-168 121 0 225 98.5t137 274.5l99 504q6 20 24 20h127q16 0 16-20l-190-988q-6-20-25-20h-127q-16 0-16 20l23 117q-162-158-351-157-145 0-225 69.5t-80 198.5zm398 1173q0 12 16 13h195q18 0 26-21l90-258q2-6 2-10 0-10-12-10h-123q-20 0-33 18l-159 260q-2 4-2 8z"/><glyph unicode="ú" horiz-adv-x="1206" d="M96 248q0 31 13 104l127 656q2 20 24 20h127q16 0 16-20l-122-631q-8-47-9-78 0-168 187-168 121 0 225 98.5t137 274.5l99 504q6 20 24 20h127q16 0 16-20l-190-988q-6-20-25-20h-127q-16 0-16 20l23 117q-162-158-351-157-145 0-225 69.5t-80 198.5zm428 895q0 6 4 12l193 258q14 20 35 21h198q12 0 13-9 0-6-6-12l-263-260q-18-18-41-18h-122q-11 0-11 8z"/><glyph unicode="û" horiz-adv-x="1206" d="M96 248q0 31 13 104l127 656q2 20 24 20h127q16 0 16-20l-122-631q-8-47-9-78 0-168 187-168 121 0 225 98.5t137 274.5l99 504q6 20 24 20h127q16 0 16-20l-190-988q-6-20-25-20h-127q-16 0-16 20l23 117q-162-158-351-157-145 0-225 69.5t-80 198.5zm281 895q0 6 6 12l266 262q16 16 35 17h115q16 0 26-17l164-262q2-4 2-6 0-14-16-14h-127q-16 0-33 18l-100 129-152-129q-23-18-41-18h-133q-12 0-12 8z"/><glyph unicode="ü" horiz-adv-x="1206" d="M96 248q0 31 13 104l127 656q2 20 24 20h127q16 0 16-20l-122-631q-8-47-9-78 0-168 187-168 121 0 225 98.5t137 274.5l99 504q6 20 24 20h127q16 0 16-20l-190-988q-6-20-25-20h-127q-16 0-16 20l23 117q-162-158-351-157-145 0-225 69.5t-80 198.5zm330 1001l31 164q2 20 24 21h164q16 0 17-21l-31-164q-2-20-25-20h-164q-16 0-16 20zm340 0l31 164q2 20 24 21h164q16 0 16-21l-30-164q-2-20-25-20h-164q-16 0-16 20z"/><glyph unicode="ý" horiz-adv-x="1075" d="M-127-373l2 13 21 110q6 20 20 21 4 0 43-22.5t94-22.5q147 0 271 256l-218 1013q-2 10-2 17 0 16 19 16h147q20 0 23-20l151-791 414 791q8 20 31 20h147q12 0 13-14 0-6-5-15l-589-1099q-102-190-199.5-258t-224.5-68q-82 0-142 33-16 10-16 20zm602 1516q0 6 4 12l193 258q14 20 35 21h198q12 0 13-9 0-6-7-12l-262-260q-18-18-41-18h-123q-10 0-10 8z"/><glyph unicode="þ" horiz-adv-x="1267" d="M-16-385l354 1798q2 20 24 21h127q16 0 17-21l-96-493q143 129 335 129 168 0 280-114t112-312q0-272-157-457.5t-419-185.5q-96 0-182 39.5t-125 97.5l-102-502q-2-20-25-21h-127q-16 1-16 21zm319 809q0-133 71.5-213t186.5-80q182 0 291 140.5t109 332.5q0 137-65 215t-189 78q-178 0-291-142.5t-113-330.5z"/><glyph unicode="ÿ" horiz-adv-x="1075" d="M-127-373l2 13 21 110q6 20 20 21 4 0 43-22.5t94-22.5q147 0 271 256l-218 1013q-2 10-2 17 0 16 19 16h147q20 0 23-20l151-791 414 791q8 20 31 20h147q12 0 13-14 0-6-5-15l-589-1099q-102-190-199.5-258t-224.5-68q-82 0-142 33-16 10-16 20zm475 1622l31 164q2 20 24 21h164q16 0 17-21l-31-164q-2-20-25-20h-163q-17 0-17 20zm340 0l31 164q2 20 24 21h164q16 0 17-21l-31-164q-2-20-25-20h-163q-17 0-17 20z"/><glyph unicode="Œ" horiz-adv-x="2242" d="M78 582q0 168 54 324.5t152.5 278.5 250 195.5 331.5 73.5q342 0 500-250l41 209q2 20 25 21h813q16 0 16-21l-25-123q-2-20-24-20h-653l-84-434h591q16 0 17-21l-25-123q-2-20-24-20h-592l-99-508h685q16 0 16-21l-25-123q-4-20-24-20h-844q-16 0-16 20l26 138q-207-178-491-178-272 0-432 161.5t-160 440.5zm184 12q0-211 112.5-331t305.5-120q266 0 431 206t165 491q0 211-112.5 330.5t-307.5 119.5q-266 0-430-205.5t-164-490.5z"/><glyph unicode="œ" horiz-adv-x="2070" d="M57 403q0 270 174.5 458t442.5 188q137 0 239.5-58.5t153.5-161.5q182 219 473 220 193 0 302.5-121t109.5-310q0-51-10-100l-7-33q-6-20-24-20h-803q-4-29-4-53 0-131 69.5-206t202.5-75q209 0 334 188 12 18 33 19h133q10 0 10-10 0-8-8-25-164-324-524-323-268 0-375 231-180-231-481-231-199 0-320 116.5t-121 306.5zm176 15q0-133 77-210t206-77q182 0 301 140.5t119 338.5q0 133-76 210t-205 77q-182 0-302-140t-120-339zm906 198h645q0 133-71 207t-202 74q-121 0-220-72t-152-209z"/><glyph unicode="Ÿ" horiz-adv-x="1081" d="M119 1413q0 20 16 21h162q12 0 18-17l203-688 477 688q10 16 27 17h170q12 0 12-11 0-4-4-10l-622-885-101-508q-2-20-24-20h-140q-16 0-16 20l100 508zm293 242l30 164q2 20 25 20h164q16 0 16-20l-31-164q-2-20-24-21h-164q-16 1-16 21zm340 0l30 164q2 20 25 20h164q16 0 16-20l-31-164q-2-20-24-21h-164q-16 1-16 21z"/><glyph horiz-adv-x="940"/><glyph horiz-adv-x="1880"/><glyph horiz-adv-x="940"/><glyph horiz-adv-x="1880"/><glyph horiz-adv-x="626"/><glyph horiz-adv-x="470"/><glyph horiz-adv-x="313"/><glyph horiz-adv-x="313"/><glyph horiz-adv-x="235"/><glyph horiz-adv-x="376"/><glyph horiz-adv-x="104"/><glyph unicode="‐" horiz-adv-x="1075" d="M133 641l23 119q2 20 24 20h746q16 0 16-20l-22-119q-2-20-25-20h-745q-17 0-17 20z"/><glyph unicode="‑" horiz-adv-x="1075" d="M133 641l23 119q2 20 24 20h746q16 0 16-20l-22-119q-2-20-25-20h-745q-17 0-17 20z"/><glyph unicode="‒" horiz-adv-x="1075" d="M133 641l23 119q2 20 24 20h746q16 0 16-20l-22-119q-2-20-25-20h-745q-17 0-17 20z"/><glyph unicode="–" horiz-adv-x="1193" d="M133 641l23 119q2 20 24 20h864q16 0 17-20l-23-119q-2-20-24-20h-864q-17 0-17 20z"/><glyph unicode="—" horiz-adv-x="1648" d="M133 641l23 119q2 20 24 20h1319q16 0 17-20l-23-119q-2-20-25-20h-1318q-17 0-17 20z"/><glyph unicode="‘" horiz-adv-x="501" d="M166 1030l45 232q18 98 70.5 135t140.5 37h31q16 0 16-21l-6-33q-6-20-25-20-61 0-86.5-21.5t-40.5-89.5l-8-43h90q16 0 17-20l-31-156q-2-20-25-20h-172q-16 0-16 20z"/><glyph unicode="’" horiz-adv-x="501" d="M195 1030l6 33q6 20 24 20 61 0 87 21.5t40 89.5l8 43h-90q-16 0-16 20l31 156q2 20 24 21h172q16 0 17-21l-45-231q-18-98-70.5-135t-140.5-37h-31q-16 0-16 20z"/><glyph unicode="‚" horiz-adv-x="501" d="M-23-207l7 33q6 20 24 20 61 0 87 21.5t40 89.5l8 43h-90q-16 0-16 20l31 156q2 20 24 21h172q16 0 17-21l-45-231q-18-98-70.5-135t-140.5-37h-31q-17 0-17 20z"/><glyph unicode="“" horiz-adv-x="808" d="M166 1030l45 232q18 98 70.5 135t140.5 37h31q16 0 16-21l-6-33q-6-20-25-20-61 0-86.5-21.5t-40.5-89.5l-8-43h90q16 0 17-20l-31-156q-2-20-25-20h-172q-16 0-16 20zm307 0l45 232q18 98 70.5 135t140.5 37h31q16 0 16-21l-6-33q-6-20-25-20-61 0-86.5-21.5t-40.5-89.5l-8-43h90q16 0 17-20l-31-156q-2-20-24-20h-173q-16 0-16 20z"/><glyph unicode="”" horiz-adv-x="808" d="M195 1030l6 33q6 20 24 20 61 0 87 21.5t40 89.5l8 43h-90q-16 0-16 20l31 156q2 20 24 21h172q16 0 17-21l-45-231q-18-98-70.5-135t-140.5-37h-31q-16 0-16 20zm307 0l6 33q6 20 24 20 61 0 87 21.5t40 89.5l9 43h-90q-16 0-17 20l31 156q2 20 24 21h172q16 0 17-21l-45-231q-18-98-70.5-135t-140.5-37h-31q-16 0-16 20z"/><glyph unicode="„" horiz-adv-x="808" d="M-23-207l7 33q6 20 24 20 61 0 87 21.5t40 89.5l8 43h-90q-16 0-16 20l31 156q2 20 24 21h172q16 0 17-21l-45-231q-18-98-70.5-135t-140.5-37h-31q-17 0-17 20zm308 0l6 33q6 20 24 20 61 0 87 21.5t40 89.5l9 43h-91q-16 0-16 20l31 156q2 20 24 21h172q16 0 17-21l-45-231q-18-98-70.5-135t-140.5-37h-31q-16 0-16 20z"/><glyph unicode="•" horiz-adv-x="780" d="M207 668q0 80 56 136t136 56 136.5-56 56.5-136-56.5-136.5-136.5-56.5-136 56.5-56 136.5z"/><glyph unicode="…" horiz-adv-x="1497" d="M51 20l31 156q2 20 24 21h160q16 0 17-21l-31-156q-2-20-25-20h-159q-17 0-17 20zm469 0l31 156q2 20 24 21h160q16 0 17-21l-31-156q-2-20-25-20h-159q-17 0-17 20zm469 0l31 156q2 20 24 21h160q16 0 17-21l-31-156q-2-20-25-20h-159q-17 0-17 20z"/><glyph horiz-adv-x="376"/><glyph unicode="‹" horiz-adv-x="733" d="M59 506l23 112q6 20 27 37l516 404q10 6 12 6 10 0 10-14l-35-185q-6-20-20-32l-365-285 254-287q10-10 11-20 0-4-3-13l-32-157q-4-14-15-15-6 0-12 6l-356 406q-15 14-15 37z"/><glyph unicode="›" horiz-adv-x="733" d="M45 72l35 184q6 20 20 33l365 284-254 287q-10 10-10 21 0 4 2 12l33 158q4 14 14 14 6 0 12-6l356-406q14-14 15-37l-23-112q-6-20-26-37l-516-404q-10-6-13-6-10 1-10 15z"/><glyph horiz-adv-x="470"/><glyph unicode="€" horiz-adv-x="1384" d="M-8 469l22 119q6 20 23 20h141q2 8 8.5 47t10.5 62q12 74 22 108h-139q-16 0-17 21l23 119q2 20 25 20h165q94 231 258 350t361 119q219 0 336-125t117-336q-6-20-25-20h-125q-14 0-16 20-12 164-85 232.5t-225 68.5q-270 0-419-309h434q16 0 16-20l-22-119q-6-20-25-21h-461q-20-82-26-108-8-37-15-109h459q16 0 16-20l-22-119q-2-20-25-20h-430q29-309 297-310 291 0 420 301 8 20 25 21h129q16 0 16-21-74-223-231.5-341.5t-378.5-118.5q-193 0-316 122.5t-137 346.5h-168q-16 0-16 20z"/><glyph unicode="™" horiz-adv-x="1439" d="M133 1343l14 70q2 20 25 21h496q16 0 16-21l-14-70q-2-20-25-20h-188l-123-635q-2-20-25-20h-78q-16 0-16 20l123 635h-188q-17 0-17 20zm492-655l141 725q2 20 25 21h118q18 0 21-17l88-465 262 465q8 16 29 17h139q16 0 16-21l-141-725q-2-20-25-20h-77q-16 0-17 20l113 586-268-469q-8-12-19-12h-67q-12 0-15 12l-92 469-113-586q-2-20-24-20h-78q-16 0-16 20z"/><glyph unicode="◼" horiz-adv-x="1030" d="M0 0v1030h1030v-1030h-1030z"/></font>
</defs>
</svg>
